M48
INCH,LZ
;FILE_FORMAT=2:4
;TYPE=PLATED
;Layer: PTH_Through_Via
;EasyEDA v6.5.51, 2025-10-31 14:29:39
;fb125d5df4574c0190a2b935d37d4f1a,f96c02e88a3b40f88d53933fed3a7683,10
;Gerber Generator version 0.2
;Holesize 1 = 0.0120 inch
T01C0.0120
;Holesize 2 = 0.0120 inch
T02C0.0120
%
G05
G90
T01
X012305Y-001797
X016305Y000203
X016305Y-001797
X-009578Y004578
X-009578Y002578
X-009578Y000578
X-009578Y-001422
X-009578Y-003422
X-007578Y004578
X-007578Y002578
X-007578Y000578
X-007578Y-001422
X-005578Y004578
X-005578Y002578
X-003578Y004578
X-003578Y002578
X-001578Y004578
X-001578Y002578
X000422Y004578
X000422Y002578
X002422Y004578
X002422Y002578
X002422Y000578
X002422Y-003422
X004422Y004578
X004422Y002578
X004422Y-003422
X006422Y004578
X006422Y002578
X006422Y000578
X006422Y-003422
X008422Y004578
X008422Y002578
X008422Y-003422
X010422Y004578
X010422Y002578
X010422Y-003422
X012422Y004578
X012422Y002578
X012422Y-003422
X014422Y004578
X014422Y002578
X014422Y-003422
X016422Y004578
X016422Y002578
X016422Y-003422
X018422Y004578
X018422Y002578
X018422Y-003422
X020422Y004578
X020422Y002578
X020422Y-003422
X022422Y004578
X022422Y002578
X022422Y000578
X022422Y-003422
X024422Y004578
X024422Y002578
X024422Y000578
X026422Y004578
X026422Y002578
X026422Y000578
X026422Y-003422
X028422Y004578
X030422Y004578
X005422Y-012422
X005422Y-014422
X005422Y-016422
X005422Y-018422
X005422Y-020422
X005422Y-022422
X005422Y-024422
X007422Y-012422
X007422Y-014422
X007422Y-024422
X009422Y-012422
X009422Y-014422
X009422Y-022422
X009422Y-024422
X011422Y-012422
X011422Y-014422
X011422Y-024422
X013422Y-012422
X013422Y-016422
X013422Y-018422
X013422Y-020422
X013422Y-024422
X015422Y-016422
X015422Y-020422
X015422Y-022422
X015422Y-024422
X017422Y-016422
X017422Y-020422
X017422Y-022422
X017422Y-024422
X019422Y-012422
X019422Y-022422
X019422Y-024422
X021422Y-012422
X021422Y-014422
X021422Y-016422
X021422Y-018422
X021422Y-022422
X021422Y-024422
X023422Y-012422
X023422Y-014422
X023422Y-016422
X023422Y-018422
X023422Y-022422
X023422Y-024422
X025422Y-012422
X025422Y-014422
X025422Y-016422
X025422Y-018422
X025422Y-024422
X027422Y-012422
X027422Y-024422
X029422Y-012422
X029422Y-018422
X029422Y-024422
X031422Y-012422
X031422Y-014422
X031422Y-016422
X031422Y-018422
X031422Y-020422
X031422Y-022422
X031422Y-024422
T02
X019550Y-019750
X019450Y-017000
X027550Y-013850
X027900Y-013850
X028250Y-013850
X028250Y-020250
X027900Y-020250
X027550Y-020250
X018000Y-018000
X017700Y-018500
X028100Y-022900
X019250Y-020250
X028600Y-016250
X028600Y-022700
X018500Y-018600
X027550Y-017554
X027900Y-017557
X028250Y-017554
X019600Y-021100
M30
