G04 Layer: TopPasteMaskLayer*
G04 EasyEDA v6.5.51, 2025-10-31 14:29:39*
G04 fb125d5df4574c0190a2b935d37d4f1a,f96c02e88a3b40f88d53933fed3a7683,10*
G04 Gerber Generator version 0.2*
G04 Scale: 100 percent, Rotated: No, Reflected: No *
G04 Dimensions in inches *
G04 leading zeros omitted , absolute positions ,3 integer and 6 decimal *
%FSLAX36Y36*%
%MOIN*%

%AMMACRO1*21,1,$1,$2,0,0,$3*%
%ADD10R,0.0315X0.0354*%
%ADD11R,0.0354X0.0315*%
%ADD12O,0.015748X0.043307*%
%ADD13O,0.080512X0.02315*%
%ADD14MACRO1,0.0118X0.0709X0.0000*%
%ADD15R,0.0984X0.1339*%
%ADD16R,0.0591X0.0157*%
%ADD17R,0.0591X0.0787*%
%ADD18R,0.0192X0.0787*%
%ADD19O,0.094016X0.022598*%
%ADD20R,0.2165X0.0551*%
%ADD21MACRO1,0.0118X0.0709X90.0000*%
%ADD22R,0.1339X0.0984*%

%LPD*%
G36*
X1987960Y-237280D02*
G01*
X1985980Y-239259D01*
X1985980Y-270740D01*
X1987960Y-272720D01*
X2019440Y-272720D01*
X2021420Y-270740D01*
X2021420Y-261780D01*
X2006860Y-261780D01*
X2006860Y-248780D01*
X2021420Y-248780D01*
X2021420Y-239259D01*
X2019440Y-237280D01*
G37*
G36*
X2050560Y-237280D02*
G01*
X2048580Y-239259D01*
X2048580Y-248220D01*
X2063140Y-248220D01*
X2063140Y-261220D01*
X2048580Y-261220D01*
X2048580Y-270740D01*
X2050560Y-272720D01*
X2082040Y-272720D01*
X2084019Y-270740D01*
X2084019Y-239259D01*
X2082040Y-237280D01*
G37*
G36*
X2269260Y-28580D02*
G01*
X2267280Y-30560D01*
X2267280Y-62040D01*
X2269260Y-64020D01*
X2300740Y-64020D01*
X2302720Y-62040D01*
X2302720Y-30560D01*
X2300740Y-28580D01*
X2291780Y-28580D01*
X2291780Y-43160D01*
X2278780Y-43160D01*
X2278780Y-28580D01*
G37*
G36*
X2269260Y34020D02*
G01*
X2267280Y32040D01*
X2267280Y560D01*
X2269260Y-1419D01*
X2278220Y-1419D01*
X2278220Y13160D01*
X2291220Y13160D01*
X2291220Y-1419D01*
X2300740Y-1419D01*
X2302720Y560D01*
X2302720Y32040D01*
X2300740Y34020D01*
G37*
G36*
X2664260Y-98580D02*
G01*
X2662280Y-100559D01*
X2662280Y-132040D01*
X2664260Y-134020D01*
X2695740Y-134020D01*
X2697720Y-132040D01*
X2697720Y-100559D01*
X2695740Y-98580D01*
X2686780Y-98580D01*
X2686780Y-113160D01*
X2673780Y-113160D01*
X2673780Y-98580D01*
G37*
G36*
X2664260Y-35980D02*
G01*
X2662280Y-37960D01*
X2662280Y-69440D01*
X2664260Y-71420D01*
X2673220Y-71420D01*
X2673220Y-56840D01*
X2686220Y-56840D01*
X2686220Y-71420D01*
X2695740Y-71420D01*
X2697720Y-69440D01*
X2697720Y-37960D01*
X2695740Y-35980D01*
G37*
G36*
X980560Y-2280D02*
G01*
X978580Y-4260D01*
X978580Y-13220D01*
X993139Y-13220D01*
X993139Y-26220D01*
X978580Y-26220D01*
X978580Y-35740D01*
X980560Y-37720D01*
X1012039Y-37720D01*
X1014020Y-35740D01*
X1014020Y-4260D01*
X1012039Y-2280D01*
G37*
G36*
X917960Y-2280D02*
G01*
X915980Y-4260D01*
X915980Y-35740D01*
X917960Y-37720D01*
X949440Y-37720D01*
X951420Y-35740D01*
X951420Y-26780D01*
X936860Y-26780D01*
X936860Y-13779D01*
X951420Y-13779D01*
X951420Y-4260D01*
X949440Y-2280D01*
G37*
G36*
X1014260Y-165980D02*
G01*
X1012280Y-167960D01*
X1012280Y-199440D01*
X1014260Y-201420D01*
X1023220Y-201420D01*
X1023220Y-186840D01*
X1036220Y-186840D01*
X1036220Y-201420D01*
X1045740Y-201420D01*
X1047720Y-199440D01*
X1047720Y-167960D01*
X1045740Y-165980D01*
G37*
G36*
X1014260Y-228580D02*
G01*
X1012280Y-230560D01*
X1012280Y-262040D01*
X1014260Y-264020D01*
X1045740Y-264020D01*
X1047720Y-262040D01*
X1047720Y-230560D01*
X1045740Y-228580D01*
X1036780Y-228580D01*
X1036780Y-243160D01*
X1023780Y-243160D01*
X1023780Y-228580D01*
G37*
G36*
X2360560Y-152280D02*
G01*
X2358580Y-154260D01*
X2358580Y-163220D01*
X2373140Y-163220D01*
X2373140Y-176220D01*
X2358580Y-176220D01*
X2358580Y-185740D01*
X2360560Y-187719D01*
X2392040Y-187719D01*
X2394020Y-185740D01*
X2394020Y-154260D01*
X2392040Y-152280D01*
G37*
G36*
X2297960Y-152280D02*
G01*
X2295980Y-154260D01*
X2295980Y-185740D01*
X2297960Y-187719D01*
X2329440Y-187719D01*
X2331420Y-185740D01*
X2331420Y-176780D01*
X2316860Y-176780D01*
X2316860Y-163780D01*
X2331420Y-163780D01*
X2331420Y-154260D01*
X2329440Y-152280D01*
G37*
G36*
X2602960Y-247280D02*
G01*
X2600980Y-249259D01*
X2600980Y-280740D01*
X2602960Y-282720D01*
X2634440Y-282720D01*
X2636420Y-280740D01*
X2636420Y-271780D01*
X2621860Y-271780D01*
X2621860Y-258780D01*
X2636420Y-258780D01*
X2636420Y-249259D01*
X2634440Y-247280D01*
G37*
G36*
X2665560Y-247280D02*
G01*
X2663580Y-249259D01*
X2663580Y-258220D01*
X2678140Y-258220D01*
X2678140Y-271220D01*
X2663580Y-271220D01*
X2663580Y-280740D01*
X2665560Y-282720D01*
X2697040Y-282720D01*
X2699020Y-280740D01*
X2699020Y-249259D01*
X2697040Y-247280D01*
G37*
G36*
X2747480Y-2122480D02*
G01*
X2747480Y-2207520D01*
X2832520Y-2207520D01*
X2832520Y-2122480D01*
G37*
G36*
X2852000Y-2120120D02*
G01*
X2852000Y-2131140D01*
X2878200Y-2131140D01*
X2878200Y-2120120D01*
G37*
G36*
X2852000Y-2198860D02*
G01*
X2852000Y-2209880D01*
X2878200Y-2209880D01*
X2878200Y-2198860D01*
G37*
G36*
X2852000Y-2139820D02*
G01*
X2852000Y-2150840D01*
X2878200Y-2150840D01*
X2878200Y-2139820D01*
G37*
G36*
X2852000Y-2159500D02*
G01*
X2852000Y-2170500D01*
X2878200Y-2170500D01*
X2878200Y-2159500D01*
G37*
G36*
X2852000Y-2179180D02*
G01*
X2852000Y-2190200D01*
X2878200Y-2190200D01*
X2878200Y-2179180D01*
G37*
G36*
X2823860Y-2076800D02*
G01*
X2823860Y-2103000D01*
X2834880Y-2103000D01*
X2834880Y-2076800D01*
G37*
G36*
X2823860Y-2227000D02*
G01*
X2823860Y-2253200D01*
X2834880Y-2253200D01*
X2834880Y-2227000D01*
G37*
G36*
X2804160Y-2076800D02*
G01*
X2804160Y-2103000D01*
X2815200Y-2103000D01*
X2815200Y-2076800D01*
G37*
G36*
X2804160Y-2227000D02*
G01*
X2804160Y-2253200D01*
X2815200Y-2253200D01*
X2815200Y-2227000D01*
G37*
G36*
X2784480Y-2076800D02*
G01*
X2784480Y-2103000D01*
X2795520Y-2103000D01*
X2795520Y-2076800D01*
G37*
G36*
X2784480Y-2227000D02*
G01*
X2784480Y-2253200D01*
X2795520Y-2253200D01*
X2795520Y-2227000D01*
G37*
G36*
X2764800Y-2076800D02*
G01*
X2764800Y-2103000D01*
X2775820Y-2103000D01*
X2775820Y-2076800D01*
G37*
G36*
X2764800Y-2227000D02*
G01*
X2764800Y-2253200D01*
X2775820Y-2253200D01*
X2775820Y-2227000D01*
G37*
G36*
X2745120Y-2076800D02*
G01*
X2745120Y-2103000D01*
X2756139Y-2103000D01*
X2756139Y-2076800D01*
G37*
G36*
X2745120Y-2227000D02*
G01*
X2745120Y-2253200D01*
X2756139Y-2253200D01*
X2756139Y-2227000D01*
G37*
G36*
X2701800Y-2120120D02*
G01*
X2701800Y-2131140D01*
X2728000Y-2131140D01*
X2728000Y-2120120D01*
G37*
G36*
X2701800Y-2179180D02*
G01*
X2701800Y-2190200D01*
X2728000Y-2190200D01*
X2728000Y-2179180D01*
G37*
G36*
X2701800Y-2139800D02*
G01*
X2701800Y-2150840D01*
X2728000Y-2150840D01*
X2728000Y-2139800D01*
G37*
G36*
X2701800Y-2159480D02*
G01*
X2701800Y-2170520D01*
X2728000Y-2170520D01*
X2728000Y-2159480D01*
G37*
G36*
X2701800Y-2198860D02*
G01*
X2701800Y-2209880D01*
X2728000Y-2209880D01*
X2728000Y-2198860D01*
G37*
G36*
X2019300Y-1733540D02*
G01*
X2019300Y-1767020D01*
X2029139Y-1767020D01*
X2029139Y-1733540D01*
G37*
G36*
X1999600Y-1733540D02*
G01*
X1999600Y-1767020D01*
X2009440Y-1767020D01*
X2009440Y-1733540D01*
G37*
G36*
X1920860Y-1733540D02*
G01*
X1920860Y-1767020D01*
X1930700Y-1767020D01*
X1930700Y-1733540D01*
G37*
G36*
X1940540Y-1733540D02*
G01*
X1940540Y-1767020D01*
X1950380Y-1767020D01*
X1950380Y-1733540D01*
G37*
G36*
X1960240Y-1733540D02*
G01*
X1960240Y-1767020D01*
X1970080Y-1767020D01*
X1970080Y-1733540D01*
G37*
G36*
X1979920Y-1733540D02*
G01*
X1979920Y-1767020D01*
X1989760Y-1767020D01*
X1989760Y-1733540D01*
G37*
G36*
X1878540Y-1775860D02*
G01*
X1878540Y-1785700D01*
X1912000Y-1785700D01*
X1912000Y-1775860D01*
G37*
G36*
X2037980Y-1775860D02*
G01*
X2037980Y-1785700D01*
X2071459Y-1785700D01*
X2071459Y-1775860D01*
G37*
G36*
X1934060Y-1789060D02*
G01*
X1934060Y-1870940D01*
X2015940Y-1870940D01*
X2015940Y-1789060D01*
G37*
G36*
X1878540Y-1795540D02*
G01*
X1878540Y-1805400D01*
X1912000Y-1805400D01*
X1912000Y-1795540D01*
G37*
G36*
X2037980Y-1795560D02*
G01*
X2037980Y-1805400D01*
X2071459Y-1805400D01*
X2071459Y-1795560D01*
G37*
G36*
X1878540Y-1815240D02*
G01*
X1878540Y-1825080D01*
X1912000Y-1825080D01*
X1912000Y-1815240D01*
G37*
G36*
X2037980Y-1815240D02*
G01*
X2037980Y-1825080D01*
X2071459Y-1825080D01*
X2071459Y-1815240D01*
G37*
G36*
X1878540Y-1834920D02*
G01*
X1878540Y-1844760D01*
X1912000Y-1844760D01*
X1912000Y-1834920D01*
G37*
G36*
X2037980Y-1834920D02*
G01*
X2037980Y-1844760D01*
X2071459Y-1844760D01*
X2071459Y-1834920D01*
G37*
G36*
X1878540Y-1854600D02*
G01*
X1878540Y-1864440D01*
X1912000Y-1864440D01*
X1912000Y-1854600D01*
G37*
G36*
X2037980Y-1854600D02*
G01*
X2037980Y-1864460D01*
X2071459Y-1864460D01*
X2071459Y-1854600D01*
G37*
G36*
X1878540Y-1874300D02*
G01*
X1878540Y-1884139D01*
X1912000Y-1884139D01*
X1912000Y-1874300D01*
G37*
G36*
X2037980Y-1874300D02*
G01*
X2037980Y-1884139D01*
X2071459Y-1884139D01*
X2071459Y-1874300D01*
G37*
G36*
X2019300Y-1893000D02*
G01*
X2019300Y-1926459D01*
X2029139Y-1926459D01*
X2029139Y-1893000D01*
G37*
G36*
X1920860Y-1893000D02*
G01*
X1920860Y-1926459D01*
X1930700Y-1926459D01*
X1930700Y-1893000D01*
G37*
G36*
X1940540Y-1893000D02*
G01*
X1940540Y-1926459D01*
X1950380Y-1926459D01*
X1950380Y-1893000D01*
G37*
G36*
X1960240Y-1893000D02*
G01*
X1960240Y-1926459D01*
X1970080Y-1926459D01*
X1970080Y-1893000D01*
G37*
G36*
X1999600Y-1893000D02*
G01*
X1999600Y-1926459D01*
X2009440Y-1926459D01*
X2009440Y-1893000D01*
G37*
G36*
X1979920Y-1893000D02*
G01*
X1979920Y-1926459D01*
X1989760Y-1926459D01*
X1989760Y-1893000D01*
G37*
G36*
X2747480Y-1477760D02*
G01*
X2747480Y-1562800D01*
X2832520Y-1562800D01*
X2832520Y-1477760D01*
G37*
G36*
X2852020Y-1475400D02*
G01*
X2852020Y-1486420D01*
X2878200Y-1486420D01*
X2878200Y-1475400D01*
G37*
G36*
X2852020Y-1554139D02*
G01*
X2852020Y-1565160D01*
X2878200Y-1565160D01*
X2878200Y-1554139D01*
G37*
G36*
X2852020Y-1495080D02*
G01*
X2852020Y-1506100D01*
X2878200Y-1506100D01*
X2878200Y-1495080D01*
G37*
G36*
X2852020Y-1514760D02*
G01*
X2852020Y-1525800D01*
X2878200Y-1525800D01*
X2878200Y-1514760D01*
G37*
G36*
X2852020Y-1534460D02*
G01*
X2852020Y-1545480D01*
X2878200Y-1545480D01*
X2878200Y-1534460D01*
G37*
G36*
X2823860Y-1432080D02*
G01*
X2823860Y-1458280D01*
X2834880Y-1458280D01*
X2834880Y-1432080D01*
G37*
G36*
X2823860Y-1582280D02*
G01*
X2823860Y-1608480D01*
X2834880Y-1608480D01*
X2834880Y-1582280D01*
G37*
G36*
X2804180Y-1432080D02*
G01*
X2804180Y-1458280D01*
X2815200Y-1458280D01*
X2815200Y-1432080D01*
G37*
G36*
X2804180Y-1582280D02*
G01*
X2804180Y-1608480D01*
X2815200Y-1608480D01*
X2815200Y-1582280D01*
G37*
G36*
X2784480Y-1432080D02*
G01*
X2784480Y-1458280D01*
X2795520Y-1458280D01*
X2795520Y-1432080D01*
G37*
G36*
X2784480Y-1582280D02*
G01*
X2784480Y-1608480D01*
X2795520Y-1608480D01*
X2795520Y-1582280D01*
G37*
G36*
X2764800Y-1432080D02*
G01*
X2764800Y-1458280D01*
X2775820Y-1458280D01*
X2775820Y-1432080D01*
G37*
G36*
X2764800Y-1582280D02*
G01*
X2764800Y-1608480D01*
X2775820Y-1608480D01*
X2775820Y-1582280D01*
G37*
G36*
X2745120Y-1432080D02*
G01*
X2745120Y-1458280D01*
X2756139Y-1458280D01*
X2756139Y-1432080D01*
G37*
G36*
X2745120Y-1582280D02*
G01*
X2745120Y-1608480D01*
X2756139Y-1608480D01*
X2756139Y-1582280D01*
G37*
G36*
X2701820Y-1475400D02*
G01*
X2701820Y-1486420D01*
X2728000Y-1486420D01*
X2728000Y-1475400D01*
G37*
G36*
X2701820Y-1534460D02*
G01*
X2701820Y-1545480D01*
X2728000Y-1545480D01*
X2728000Y-1534460D01*
G37*
G36*
X2701820Y-1495080D02*
G01*
X2701820Y-1506120D01*
X2728000Y-1506120D01*
X2728000Y-1495080D01*
G37*
G36*
X2701820Y-1514760D02*
G01*
X2701820Y-1525800D01*
X2728000Y-1525800D01*
X2728000Y-1514760D01*
G37*
G36*
X2701820Y-1554139D02*
G01*
X2701820Y-1565160D01*
X2728000Y-1565160D01*
X2728000Y-1554139D01*
G37*
D10*
G01*
X2207439Y120000D03*
G01*
X2262560Y120000D03*
G01*
X1617439Y-80000D03*
G01*
X1672560Y-80000D03*
D11*
G01*
X1540000Y-227440D03*
G01*
X1540000Y-282559D03*
G01*
X2195000Y-82440D03*
G01*
X2195000Y-137559D03*
D10*
G01*
X1732439Y-310000D03*
G01*
X1787560Y-310000D03*
D11*
G01*
X2400000Y-322559D03*
G01*
X2400000Y-267440D03*
G01*
X340000Y-307559D03*
G01*
X340000Y-252440D03*
G01*
X660000Y-12440D03*
G01*
X660000Y-67559D03*
D10*
G01*
X992560Y-115000D03*
G01*
X937439Y-115000D03*
D11*
G01*
X750000Y-272559D03*
G01*
X750000Y-217440D03*
D10*
G01*
X827560Y-20000D03*
G01*
X772439Y-20000D03*
D11*
G01*
X1540000Y12440D03*
G01*
X1540000Y67559D03*
D12*
G01*
X2456620Y-169800D03*
G01*
X2482209Y-169800D03*
G01*
X2507799Y-169800D03*
G01*
X2533389Y-169800D03*
G01*
X2533400Y-20199D03*
G01*
X2507799Y-20199D03*
G01*
X2482200Y-20199D03*
G01*
X2456599Y-20199D03*
D13*
G01*
X554149Y-170000D03*
G01*
X554149Y-120000D03*
G01*
X554149Y-70000D03*
G01*
X554149Y-20000D03*
G01*
X335850Y-170000D03*
G01*
X335850Y-120000D03*
G01*
X335850Y-70000D03*
G01*
X335850Y-20000D03*
D14*
G01*
X2841259Y162599D03*
G01*
X2860944Y162599D03*
G01*
X2880629Y162599D03*
G01*
X2900314Y162599D03*
G01*
X2920000Y162599D03*
G01*
X2939685Y162599D03*
G01*
X2959370Y162599D03*
G01*
X2979055Y162599D03*
G01*
X2998740Y162599D03*
D15*
G01*
X2764489Y237399D03*
G01*
X3075510Y237399D03*
D16*
G01*
X-648820Y-275590D03*
G01*
X-648820Y-236219D03*
G01*
X-648820Y-196849D03*
G01*
X-648820Y-157480D03*
G01*
X-648820Y-118110D03*
G01*
X-648820Y-78739D03*
G01*
X-648820Y-39369D03*
G01*
X-648820Y0D03*
G01*
X-648820Y39369D03*
G01*
X-648820Y78739D03*
G01*
X-648820Y118110D03*
G01*
X-648820Y157480D03*
G01*
X-648820Y196849D03*
G01*
X-648820Y236219D03*
G01*
X-648820Y275599D03*
D17*
G01*
X-751179Y-362199D03*
G01*
X-751179Y362210D03*
D10*
G01*
X962560Y-1655000D03*
G01*
X907439Y-1655000D03*
D11*
G01*
X1630000Y-1702559D03*
G01*
X1630000Y-1647440D03*
D10*
G01*
X1507560Y-1265000D03*
G01*
X1452439Y-1265000D03*
G01*
X1747439Y-1265000D03*
G01*
X1802560Y-1265000D03*
G01*
X2077439Y-1955000D03*
G01*
X2132560Y-1955000D03*
G01*
X1937560Y-1645000D03*
G01*
X1882439Y-1645000D03*
G01*
X1932560Y-1575000D03*
G01*
X1877439Y-1575000D03*
D11*
G01*
X2890000Y-2327440D03*
G01*
X2890000Y-2382559D03*
G01*
X2915000Y-1707440D03*
G01*
X2915000Y-1762559D03*
D19*
G01*
X1073230Y-1600000D03*
G01*
X1073230Y-1650000D03*
G01*
X1073230Y-1700000D03*
G01*
X1073230Y-1750000D03*
G01*
X1073230Y-1800000D03*
G01*
X1073230Y-1850000D03*
G01*
X1073230Y-1900000D03*
G01*
X1073230Y-1950000D03*
G01*
X1073230Y-2000000D03*
G01*
X1073230Y-2050000D03*
G01*
X1073230Y-2100000D03*
G01*
X1073230Y-2150000D03*
G01*
X1073230Y-2200000D03*
G01*
X1073230Y-2250000D03*
G01*
X1446769Y-1600000D03*
G01*
X1446769Y-1650000D03*
G01*
X1446769Y-1700000D03*
G01*
X1446769Y-1750000D03*
G01*
X1446769Y-1800000D03*
G01*
X1446769Y-1850000D03*
G01*
X1446769Y-1900000D03*
G01*
X1446769Y-1950000D03*
G01*
X1446769Y-2000000D03*
G01*
X1446769Y-2050000D03*
G01*
X1446769Y-2100000D03*
G01*
X1446769Y-2150000D03*
G01*
X1446769Y-2200000D03*
G01*
X1446769Y-2250000D03*
D20*
G01*
X1447839Y-1410000D03*
G01*
X1802169Y-1410000D03*
D21*
G01*
X707599Y-1976260D03*
G01*
X707599Y-1995945D03*
G01*
X707599Y-2015630D03*
G01*
X707599Y-2035315D03*
G01*
X707599Y-2055000D03*
G01*
X707599Y-2074684D03*
G01*
X707599Y-2094369D03*
G01*
X707599Y-2114054D03*
G01*
X707599Y-2133739D03*
D22*
G01*
X782399Y-1899490D03*
G01*
X782399Y-2210509D03*
M02*
