G04 Layer: TopLayer*
G04 EasyEDA v6.5.51, 2025-10-31 14:29:39*
G04 fb125d5df4574c0190a2b935d37d4f1a,f96c02e88a3b40f88d53933fed3a7683,10*
G04 Gerber Generator version 0.2*
G04 Scale: 100 percent, Rotated: No, Reflected: No *
G04 Dimensions in inches *
G04 leading zeros omitted , absolute positions ,3 integer and 6 decimal *
%FSLAX36Y36*%
%MOIN*%

%AMMACRO1*21,1,$1,$2,0,0,$3*%
%ADD10C,0.0050*%
%ADD11C,0.0100*%
%ADD12R,0.1063X0.1063*%
%ADD13R,0.0315X0.0354*%
%ADD14R,0.0354X0.0315*%
%ADD15O,0.015748X0.043307*%
%ADD16O,0.013X0.043307*%
%ADD17O,0.080512X0.02315*%
%ADD18MACRO1,0.034X0.0318X-90.0000*%
%ADD19MACRO1,0.034X0.0318X0.0000*%
%ADD20R,0.0340X0.0318*%
%ADD21MACRO1,0.034X0.0318X90.0000*%
%ADD22MACRO1,0.0118X0.0709X0.0000*%
%ADD23R,0.0984X0.1339*%
%ADD24R,0.0591X0.0157*%
%ADD25R,0.0591X0.0787*%
%ADD26O,0.094016X0.022598*%
%ADD27R,0.0110X0.0262*%
%ADD28R,0.0262X0.0110*%
%ADD29R,0.0335X0.0098*%
%ADD30R,0.0098X0.0335*%
%ADD31R,0.1024X0.1024*%
%ADD32R,0.2165X0.0551*%
%ADD33MACRO1,0.0118X0.0709X90.0000*%
%ADD34R,0.1339X0.0984*%
%ADD35C,0.0709*%
%ADD36R,0.0620X0.0620*%
%ADD37C,0.0250*%
%ADD38C,0.0240*%

%LPD*%
G36*
X-985800Y-489799D02*
G01*
X-987340Y-489500D01*
X-988620Y-488620D01*
X-989500Y-487340D01*
X-989800Y-485800D01*
X-989800Y485800D01*
X-989500Y487340D01*
X-988620Y488620D01*
X-987340Y489500D01*
X-985800Y489799D01*
X3185800Y489799D01*
X3187340Y489500D01*
X3188620Y488620D01*
X3189500Y487340D01*
X3189800Y485800D01*
X3189800Y-485800D01*
X3189500Y-487340D01*
X3188620Y-488620D01*
X3187340Y-489500D01*
X3185800Y-489799D01*
G37*

%LPC*%
G36*
X-780480Y-411780D02*
G01*
X-721880Y-411780D01*
X-719380Y-411480D01*
X-717240Y-410740D01*
X-715300Y-409520D01*
X-713700Y-407920D01*
X-712480Y-405980D01*
X-711740Y-403840D01*
X-711460Y-401340D01*
X-711460Y-323060D01*
X-711740Y-320560D01*
X-712480Y-318420D01*
X-713700Y-316480D01*
X-715300Y-314880D01*
X-717240Y-313660D01*
X-719380Y-312920D01*
X-721880Y-312640D01*
X-780480Y-312640D01*
X-782980Y-312920D01*
X-785120Y-313660D01*
X-787060Y-314880D01*
X-788660Y-316480D01*
X-789880Y-318420D01*
X-790620Y-320560D01*
X-790900Y-323060D01*
X-790900Y-401340D01*
X-790620Y-403840D01*
X-789880Y-405980D01*
X-788660Y-407920D01*
X-787060Y-409520D01*
X-785120Y-410740D01*
X-782980Y-411480D01*
G37*
G36*
X-534240Y-402700D02*
G01*
X-40199Y-402700D01*
X-37360Y-402400D01*
X-34840Y-401580D01*
X-32500Y-400240D01*
X-30900Y-398860D01*
X234080Y-133880D01*
X235380Y-133000D01*
X236920Y-132700D01*
X287560Y-132700D01*
X289080Y-133000D01*
X290380Y-133880D01*
X293180Y-136660D01*
X296280Y-138840D01*
X299720Y-140440D01*
X302300Y-141140D01*
X303820Y-141940D01*
X304880Y-143300D01*
X305260Y-145000D01*
X304880Y-146680D01*
X303820Y-148060D01*
X302300Y-148860D01*
X299720Y-149560D01*
X296280Y-151160D01*
X293180Y-153320D01*
X290500Y-156020D01*
X288320Y-159120D01*
X286720Y-162560D01*
X285740Y-166220D01*
X285400Y-170000D01*
X285740Y-173780D01*
X286720Y-177440D01*
X288320Y-180880D01*
X290500Y-183980D01*
X293180Y-186660D01*
X296280Y-188840D01*
X299720Y-190440D01*
X303380Y-191420D01*
X307340Y-191780D01*
X320800Y-191780D01*
X322340Y-192079D01*
X323620Y-192940D01*
X324500Y-194240D01*
X324799Y-195780D01*
X324799Y-222659D01*
X324540Y-224100D01*
X323780Y-225320D01*
X322640Y-226220D01*
X321240Y-226640D01*
X320020Y-226780D01*
X317860Y-227520D01*
X315940Y-228740D01*
X314320Y-230360D01*
X313120Y-232280D01*
X312360Y-234440D01*
X312080Y-236920D01*
X312080Y-267960D01*
X312360Y-270460D01*
X313120Y-272600D01*
X314320Y-274540D01*
X315940Y-276140D01*
X316680Y-276620D01*
X317840Y-277720D01*
X318480Y-279200D01*
X318480Y-280800D01*
X317840Y-282280D01*
X316680Y-283380D01*
X315940Y-283860D01*
X314320Y-285460D01*
X313120Y-287400D01*
X312360Y-289540D01*
X312080Y-292040D01*
X312080Y-297180D01*
X328640Y-297180D01*
X328640Y-282400D01*
X328940Y-280860D01*
X329820Y-279560D01*
X331120Y-278700D01*
X332640Y-278400D01*
X347360Y-278400D01*
X348880Y-278700D01*
X350180Y-279560D01*
X351060Y-280860D01*
X351360Y-282400D01*
X351360Y-297180D01*
X367920Y-297180D01*
X367920Y-292040D01*
X367640Y-289540D01*
X366880Y-287400D01*
X365680Y-285460D01*
X364060Y-283860D01*
X363320Y-283380D01*
X362160Y-282280D01*
X361520Y-280800D01*
X361520Y-279200D01*
X362160Y-277720D01*
X363320Y-276620D01*
X364060Y-276140D01*
X365680Y-274540D01*
X366880Y-272600D01*
X367700Y-270280D01*
X368540Y-268880D01*
X369880Y-267940D01*
X371480Y-267600D01*
X542400Y-267600D01*
X545560Y-267280D01*
X548400Y-266420D01*
X551040Y-265020D01*
X553480Y-263000D01*
X582720Y-233780D01*
X584020Y-232900D01*
X585560Y-232600D01*
X718520Y-232600D01*
X720120Y-232940D01*
X721460Y-233880D01*
X722300Y-235280D01*
X723120Y-237600D01*
X724320Y-239540D01*
X725939Y-241140D01*
X726680Y-241620D01*
X727840Y-242719D01*
X728480Y-244200D01*
X728480Y-245799D01*
X727840Y-247280D01*
X726680Y-248380D01*
X725939Y-248860D01*
X724320Y-250460D01*
X723120Y-252399D01*
X722360Y-254540D01*
X722080Y-257040D01*
X722080Y-262180D01*
X738640Y-262180D01*
X738640Y-247399D01*
X738940Y-245859D01*
X739820Y-244560D01*
X741120Y-243700D01*
X742640Y-243400D01*
X757360Y-243400D01*
X758880Y-243700D01*
X760180Y-244560D01*
X761060Y-245859D01*
X761360Y-247399D01*
X761360Y-262180D01*
X777920Y-262180D01*
X777920Y-257040D01*
X777640Y-254540D01*
X776880Y-252399D01*
X775680Y-250460D01*
X774060Y-248860D01*
X773319Y-248380D01*
X772159Y-247280D01*
X771520Y-245799D01*
X771520Y-244200D01*
X772159Y-242719D01*
X773319Y-241620D01*
X774060Y-241140D01*
X775680Y-239540D01*
X776880Y-237600D01*
X777680Y-235320D01*
X778520Y-233920D01*
X779860Y-232979D01*
X781460Y-232640D01*
X998800Y-232640D01*
X1000000Y-232820D01*
X1001100Y-233359D01*
X1001979Y-234220D01*
X1019820Y-234220D01*
X1020699Y-233359D01*
X1021780Y-232820D01*
X1023000Y-232640D01*
X1037000Y-232640D01*
X1038220Y-232820D01*
X1039300Y-233359D01*
X1040180Y-234220D01*
X1058020Y-234220D01*
X1058900Y-233359D01*
X1060000Y-232820D01*
X1061200Y-232640D01*
X1068320Y-232640D01*
X1069860Y-232960D01*
X1071160Y-233840D01*
X1072040Y-235159D01*
X1073720Y-239420D01*
X1076480Y-244440D01*
X1079840Y-249080D01*
X1083760Y-253260D01*
X1088180Y-256920D01*
X1093020Y-259980D01*
X1098200Y-262420D01*
X1103660Y-264200D01*
X1109280Y-265260D01*
X1115000Y-265620D01*
X1120720Y-265260D01*
X1126340Y-264200D01*
X1131800Y-262420D01*
X1133640Y-261920D01*
X1135240Y-262200D01*
X1136600Y-263080D01*
X1166680Y-293160D01*
X1169120Y-295180D01*
X1171760Y-296580D01*
X1174600Y-297440D01*
X1177760Y-297760D01*
X1508540Y-297760D01*
X1510140Y-298100D01*
X1511480Y-299040D01*
X1512320Y-300440D01*
X1513120Y-302720D01*
X1514319Y-304640D01*
X1515940Y-306260D01*
X1517860Y-307480D01*
X1520020Y-308220D01*
X1522500Y-308500D01*
X1557500Y-308500D01*
X1559980Y-308220D01*
X1562140Y-307480D01*
X1564060Y-306260D01*
X1565680Y-304640D01*
X1566879Y-302720D01*
X1567680Y-300440D01*
X1568520Y-299040D01*
X1569860Y-298100D01*
X1571459Y-297760D01*
X1682240Y-297760D01*
X1685400Y-297460D01*
X1688240Y-296580D01*
X1690880Y-295180D01*
X1693320Y-293180D01*
X1700000Y-286500D01*
X1701360Y-285600D01*
X1702980Y-285320D01*
X1704560Y-285720D01*
X1705860Y-286720D01*
X1706660Y-288140D01*
X1706800Y-289780D01*
X1706500Y-292500D01*
X1706500Y-298640D01*
X1722080Y-298640D01*
X1722080Y-282080D01*
X1716920Y-282080D01*
X1714180Y-282400D01*
X1712560Y-282240D01*
X1711120Y-281440D01*
X1710140Y-280160D01*
X1709740Y-278560D01*
X1710020Y-276960D01*
X1710900Y-275580D01*
X1763400Y-223080D01*
X1764640Y-222240D01*
X1766100Y-221920D01*
X1767580Y-222160D01*
X1769720Y-222920D01*
X1771100Y-223760D01*
X1772040Y-225080D01*
X1772360Y-226680D01*
X1772360Y-278540D01*
X1772020Y-280140D01*
X1771080Y-281480D01*
X1769680Y-282320D01*
X1767400Y-283120D01*
X1765460Y-284320D01*
X1763860Y-285940D01*
X1763380Y-286680D01*
X1762280Y-287840D01*
X1760800Y-288480D01*
X1759199Y-288480D01*
X1757720Y-287840D01*
X1756620Y-286680D01*
X1756140Y-285940D01*
X1754540Y-284320D01*
X1752600Y-283120D01*
X1750460Y-282360D01*
X1747960Y-282080D01*
X1742820Y-282080D01*
X1742820Y-298640D01*
X1757600Y-298640D01*
X1759139Y-298940D01*
X1760440Y-299820D01*
X1761300Y-301120D01*
X1761600Y-302640D01*
X1761600Y-317360D01*
X1761300Y-318880D01*
X1760440Y-320180D01*
X1759139Y-321060D01*
X1757600Y-321360D01*
X1742820Y-321360D01*
X1742820Y-337920D01*
X1747960Y-337920D01*
X1750460Y-337640D01*
X1752600Y-336880D01*
X1754540Y-335680D01*
X1756140Y-334060D01*
X1756620Y-333320D01*
X1757720Y-332160D01*
X1759199Y-331520D01*
X1760800Y-331520D01*
X1762280Y-332160D01*
X1763380Y-333320D01*
X1763860Y-334060D01*
X1765460Y-335680D01*
X1767400Y-336880D01*
X1769540Y-337640D01*
X1772040Y-337920D01*
X1803080Y-337920D01*
X1805560Y-337640D01*
X1807720Y-336880D01*
X1809640Y-335680D01*
X1811260Y-334060D01*
X1812480Y-332140D01*
X1813220Y-329980D01*
X1813500Y-327500D01*
X1813500Y-292500D01*
X1813220Y-290020D01*
X1812480Y-287860D01*
X1811260Y-285940D01*
X1809640Y-284320D01*
X1807720Y-283120D01*
X1805440Y-282320D01*
X1804040Y-281480D01*
X1803100Y-280140D01*
X1802760Y-278540D01*
X1802760Y-225380D01*
X1803060Y-223840D01*
X1803940Y-222540D01*
X1805220Y-221680D01*
X1806759Y-221380D01*
X1808300Y-221680D01*
X1809580Y-222540D01*
X1890880Y-303840D01*
X1893100Y-305640D01*
X1895460Y-306840D01*
X1898060Y-307540D01*
X1900160Y-307700D01*
X2368080Y-307700D01*
X2369620Y-308000D01*
X2370920Y-308880D01*
X2371780Y-310160D01*
X2372080Y-312180D01*
X2388640Y-312180D01*
X2388940Y-310160D01*
X2389820Y-308880D01*
X2391120Y-308000D01*
X2392640Y-307700D01*
X2407360Y-307700D01*
X2408880Y-308000D01*
X2410180Y-308880D01*
X2411060Y-310160D01*
X2411360Y-312180D01*
X2427920Y-312180D01*
X2428220Y-310160D01*
X2429080Y-308880D01*
X2430380Y-308000D01*
X2431920Y-307700D01*
X2434800Y-307700D01*
X2437640Y-307400D01*
X2440160Y-306580D01*
X2442500Y-305240D01*
X2444100Y-303860D01*
X2542240Y-205720D01*
X2544040Y-203500D01*
X2545260Y-201100D01*
X2545800Y-199280D01*
X2545980Y-197680D01*
X2546240Y-196660D01*
X2546760Y-195720D01*
X2548740Y-193100D01*
X2550220Y-190100D01*
X2551140Y-186900D01*
X2551460Y-183400D01*
X2551460Y-156220D01*
X2551140Y-152700D01*
X2550220Y-149500D01*
X2548740Y-146520D01*
X2546740Y-143860D01*
X2544280Y-141620D01*
X2541440Y-139860D01*
X2538340Y-138660D01*
X2535060Y-138040D01*
X2531720Y-138040D01*
X2528440Y-138660D01*
X2525340Y-139860D01*
X2522700Y-141500D01*
X2521340Y-142020D01*
X2519880Y-142040D01*
X2518520Y-141520D01*
X2515360Y-139620D01*
X2514280Y-138660D01*
X2513620Y-137380D01*
X2513440Y-135940D01*
X2513780Y-134540D01*
X2514600Y-133360D01*
X2519440Y-128539D01*
X2520720Y-127660D01*
X2522260Y-127360D01*
X2648880Y-127360D01*
X2650320Y-127620D01*
X2651560Y-128379D01*
X2652440Y-129520D01*
X2652860Y-130920D01*
X2653080Y-132800D01*
X2653820Y-134940D01*
X2655040Y-136880D01*
X2656640Y-138480D01*
X2658580Y-139700D01*
X2660700Y-140440D01*
X2663700Y-140760D01*
X2665100Y-141160D01*
X2666259Y-142060D01*
X2667040Y-143300D01*
X2667300Y-144740D01*
X2667300Y-233840D01*
X2667040Y-235280D01*
X2666280Y-236520D01*
X2665140Y-237399D01*
X2663740Y-237820D01*
X2661520Y-238080D01*
X2659360Y-238820D01*
X2657440Y-240040D01*
X2655820Y-241640D01*
X2654620Y-243580D01*
X2653780Y-245960D01*
X2652940Y-247360D01*
X2651600Y-248320D01*
X2650000Y-248640D01*
X2648399Y-248320D01*
X2647060Y-247360D01*
X2646220Y-245960D01*
X2645380Y-243580D01*
X2644180Y-241640D01*
X2642559Y-240040D01*
X2640640Y-238820D01*
X2638480Y-238080D01*
X2636000Y-237800D01*
X2630779Y-237800D01*
X2630779Y-254000D01*
X2649580Y-254000D01*
X2651120Y-254300D01*
X2652400Y-255159D01*
X2653279Y-256460D01*
X2653580Y-258000D01*
X2653580Y-272000D01*
X2653279Y-273540D01*
X2652400Y-274840D01*
X2651120Y-275700D01*
X2649580Y-276000D01*
X2630779Y-276000D01*
X2630779Y-292200D01*
X2636000Y-292200D01*
X2638480Y-291920D01*
X2640640Y-291180D01*
X2642559Y-289960D01*
X2644180Y-288360D01*
X2645380Y-286420D01*
X2646220Y-284040D01*
X2647060Y-282640D01*
X2648399Y-281680D01*
X2650000Y-281360D01*
X2651600Y-281680D01*
X2652940Y-282640D01*
X2653780Y-284040D01*
X2654620Y-286420D01*
X2655820Y-288360D01*
X2657440Y-289960D01*
X2659360Y-291180D01*
X2661520Y-291920D01*
X2664000Y-292200D01*
X2695299Y-292200D01*
X2697799Y-291920D01*
X2699940Y-291180D01*
X2701880Y-289960D01*
X2703480Y-288360D01*
X2704700Y-286420D01*
X2705460Y-284280D01*
X2705740Y-281780D01*
X2705740Y-248220D01*
X2705460Y-245720D01*
X2704700Y-243580D01*
X2703480Y-241640D01*
X2701880Y-240040D01*
X2699940Y-238820D01*
X2697799Y-238080D01*
X2696259Y-237900D01*
X2694860Y-237480D01*
X2693720Y-236580D01*
X2692960Y-235360D01*
X2692700Y-233920D01*
X2692700Y-144740D01*
X2692960Y-143300D01*
X2693740Y-142060D01*
X2694900Y-141160D01*
X2696300Y-140760D01*
X2699300Y-140440D01*
X2701420Y-139700D01*
X2703360Y-138480D01*
X2704960Y-136880D01*
X2706180Y-134940D01*
X2706920Y-132800D01*
X2707200Y-130300D01*
X2707200Y-107080D01*
X2707520Y-105540D01*
X2708380Y-104240D01*
X2841420Y28800D01*
X2842700Y29660D01*
X2844240Y29960D01*
X2845779Y29660D01*
X2847060Y28800D01*
X2847940Y27500D01*
X2848240Y25960D01*
X2848240Y-47140D01*
X2847940Y-48680D01*
X2847060Y-49980D01*
X2839420Y-57619D01*
X2838120Y-58500D01*
X2836580Y-58800D01*
X2784220Y-58800D01*
X2781740Y-59080D01*
X2779580Y-59840D01*
X2777660Y-61040D01*
X2776040Y-62660D01*
X2774840Y-64580D01*
X2774080Y-66740D01*
X2773800Y-69220D01*
X2773800Y-130780D01*
X2774080Y-133260D01*
X2774840Y-135420D01*
X2776040Y-137340D01*
X2777660Y-138960D01*
X2779580Y-140160D01*
X2781740Y-140920D01*
X2784220Y-141200D01*
X2845779Y-141200D01*
X2848260Y-140920D01*
X2850419Y-140160D01*
X2852340Y-138960D01*
X2853960Y-137340D01*
X2855160Y-135420D01*
X2855920Y-133260D01*
X2856200Y-130780D01*
X2856200Y-78420D01*
X2856500Y-76880D01*
X2857380Y-75580D01*
X2861100Y-71860D01*
X2862400Y-71000D01*
X2863940Y-70680D01*
X2865460Y-71000D01*
X2866760Y-71860D01*
X2867620Y-73160D01*
X2867940Y-74680D01*
X2867940Y-157460D01*
X2867620Y-158980D01*
X2866760Y-160280D01*
X2839420Y-187620D01*
X2838120Y-188500D01*
X2836580Y-188800D01*
X2784220Y-188800D01*
X2781740Y-189080D01*
X2779580Y-189840D01*
X2777660Y-191040D01*
X2776040Y-192659D01*
X2774840Y-194579D01*
X2774080Y-196740D01*
X2773800Y-199220D01*
X2773800Y-260780D01*
X2774080Y-263260D01*
X2774840Y-265420D01*
X2776040Y-267340D01*
X2777660Y-268960D01*
X2779580Y-270160D01*
X2781740Y-270920D01*
X2784220Y-271200D01*
X2845779Y-271200D01*
X2848260Y-270920D01*
X2850419Y-270160D01*
X2852340Y-268960D01*
X2853960Y-267340D01*
X2855160Y-265420D01*
X2855920Y-263260D01*
X2856200Y-260780D01*
X2856200Y-208420D01*
X2856500Y-206880D01*
X2857380Y-205580D01*
X2880779Y-182180D01*
X2882080Y-181320D01*
X2883620Y-181000D01*
X2885140Y-181320D01*
X2886440Y-182180D01*
X2887300Y-183480D01*
X2887620Y-185000D01*
X2887620Y-267780D01*
X2887300Y-269300D01*
X2886440Y-270600D01*
X2844420Y-312620D01*
X2843120Y-313500D01*
X2841580Y-313800D01*
X2789220Y-313800D01*
X2786740Y-314080D01*
X2784580Y-314840D01*
X2782660Y-316040D01*
X2781040Y-317660D01*
X2779840Y-319580D01*
X2779080Y-321740D01*
X2778800Y-324219D01*
X2778800Y-385780D01*
X2779080Y-388260D01*
X2779840Y-390420D01*
X2781040Y-392340D01*
X2782660Y-393960D01*
X2784580Y-395160D01*
X2786740Y-395920D01*
X2789220Y-396200D01*
X2850779Y-396200D01*
X2853260Y-395920D01*
X2855419Y-395160D01*
X2857340Y-393960D01*
X2858960Y-392340D01*
X2860160Y-390420D01*
X2860920Y-388260D01*
X2861200Y-385780D01*
X2861200Y-333420D01*
X2861500Y-331880D01*
X2862380Y-330580D01*
X2907180Y-285780D01*
X2908460Y-284920D01*
X2910000Y-284620D01*
X2911540Y-284920D01*
X2912820Y-285780D01*
X2957620Y-330580D01*
X2958500Y-331880D01*
X2958800Y-333420D01*
X2958800Y-385780D01*
X2959080Y-388260D01*
X2959840Y-390420D01*
X2961040Y-392340D01*
X2962660Y-393960D01*
X2964580Y-395160D01*
X2966740Y-395920D01*
X2969220Y-396200D01*
X3030779Y-396200D01*
X3033260Y-395920D01*
X3035419Y-395160D01*
X3037340Y-393960D01*
X3038960Y-392340D01*
X3040160Y-390420D01*
X3040920Y-388260D01*
X3041200Y-385780D01*
X3041200Y-324219D01*
X3040920Y-321740D01*
X3040160Y-319580D01*
X3038960Y-317660D01*
X3037340Y-316040D01*
X3035419Y-314840D01*
X3033260Y-314080D01*
X3030779Y-313800D01*
X2978420Y-313800D01*
X2976880Y-313500D01*
X2975580Y-312620D01*
X2933880Y-270920D01*
X2933000Y-269620D01*
X2932700Y-268080D01*
X2932700Y-190320D01*
X2933000Y-188780D01*
X2933880Y-187480D01*
X2935160Y-186620D01*
X2936700Y-186320D01*
X2938240Y-186620D01*
X2939520Y-187480D01*
X2957620Y-205580D01*
X2958500Y-206880D01*
X2958800Y-208420D01*
X2958800Y-260780D01*
X2959080Y-263260D01*
X2959840Y-265420D01*
X2961040Y-267340D01*
X2962660Y-268960D01*
X2964580Y-270160D01*
X2966740Y-270920D01*
X2969220Y-271200D01*
X3030779Y-271200D01*
X3033260Y-270920D01*
X3035419Y-270160D01*
X3037340Y-268960D01*
X3038960Y-267340D01*
X3040160Y-265420D01*
X3040920Y-263260D01*
X3041200Y-260780D01*
X3041200Y-199220D01*
X3040920Y-196740D01*
X3040160Y-194579D01*
X3038960Y-192659D01*
X3037340Y-191040D01*
X3035419Y-189840D01*
X3033260Y-189080D01*
X3030779Y-188800D01*
X2978420Y-188800D01*
X2976880Y-188500D01*
X2975580Y-187620D01*
X2953560Y-165600D01*
X2952679Y-164300D01*
X2952380Y-162760D01*
X2952380Y-75000D01*
X2952679Y-73460D01*
X2953560Y-72160D01*
X2954840Y-71300D01*
X2956380Y-71000D01*
X2957919Y-71300D01*
X2959200Y-72160D01*
X2962620Y-75580D01*
X2963500Y-76880D01*
X2963800Y-78420D01*
X2963800Y-130780D01*
X2964080Y-133260D01*
X2964840Y-135420D01*
X2966040Y-137340D01*
X2967660Y-138960D01*
X2969580Y-140160D01*
X2971740Y-140920D01*
X2974220Y-141200D01*
X3035779Y-141200D01*
X3038260Y-140920D01*
X3040419Y-140160D01*
X3042340Y-138960D01*
X3043960Y-137340D01*
X3045160Y-135420D01*
X3045920Y-133260D01*
X3046200Y-130780D01*
X3046200Y-69220D01*
X3045920Y-66740D01*
X3045160Y-64580D01*
X3043960Y-62660D01*
X3042340Y-61040D01*
X3040419Y-59840D01*
X3038260Y-59080D01*
X3035779Y-58800D01*
X2983420Y-58800D01*
X2981880Y-58500D01*
X2980580Y-57619D01*
X2973240Y-50279D01*
X2972380Y-48980D01*
X2972080Y-47460D01*
X2972080Y140D01*
X2972420Y1760D01*
X2973399Y3120D01*
X2974860Y3940D01*
X2976520Y4100D01*
X2979220Y3800D01*
X3040779Y3800D01*
X3043260Y4079D01*
X3045419Y4840D01*
X3047340Y6040D01*
X3048960Y7660D01*
X3050160Y9580D01*
X3050920Y11740D01*
X3051200Y14220D01*
X3051200Y75780D01*
X3050920Y78260D01*
X3050160Y80420D01*
X3048960Y82340D01*
X3047340Y83960D01*
X3045419Y85160D01*
X3043260Y85920D01*
X3040779Y86199D01*
X2995760Y86199D01*
X2994220Y86500D01*
X2992919Y87380D01*
X2992060Y88660D01*
X2991760Y90200D01*
X2991760Y112960D01*
X2992060Y114500D01*
X2992919Y115800D01*
X2994220Y116660D01*
X2995760Y116960D01*
X3004420Y116960D01*
X3006900Y117240D01*
X3009060Y118000D01*
X3010980Y119220D01*
X3012600Y120820D01*
X3013820Y122760D01*
X3014560Y124900D01*
X3014840Y127400D01*
X3014840Y158500D01*
X3015200Y160140D01*
X3016220Y161500D01*
X3017700Y162320D01*
X3019380Y162460D01*
X3020980Y161880D01*
X3021880Y161300D01*
X3024040Y160560D01*
X3026520Y160280D01*
X3124500Y160280D01*
X3126980Y160560D01*
X3129140Y161300D01*
X3131060Y162520D01*
X3132679Y164140D01*
X3133900Y166060D01*
X3134640Y168220D01*
X3134920Y170700D01*
X3134920Y304100D01*
X3134640Y306600D01*
X3133900Y308740D01*
X3132679Y310680D01*
X3131060Y312280D01*
X3129140Y313500D01*
X3126980Y314260D01*
X3124500Y314540D01*
X3026520Y314540D01*
X3024040Y314260D01*
X3021880Y313500D01*
X3019960Y312280D01*
X3018340Y310680D01*
X3017140Y308740D01*
X3016380Y306600D01*
X3016100Y304100D01*
X3016100Y210020D01*
X3015740Y208359D01*
X3014740Y207000D01*
X3013240Y206180D01*
X3011560Y206040D01*
X3009980Y206620D01*
X3009060Y207200D01*
X3006900Y207960D01*
X3004420Y208240D01*
X2993060Y208240D01*
X2990580Y207960D01*
X2988900Y207600D01*
X2987220Y207960D01*
X2984740Y208240D01*
X2973380Y208240D01*
X2970880Y207960D01*
X2969220Y207600D01*
X2967540Y207960D01*
X2965059Y208240D01*
X2953680Y208240D01*
X2951200Y207960D01*
X2949520Y207600D01*
X2947860Y207960D01*
X2945360Y208240D01*
X2934000Y208240D01*
X2931520Y207960D01*
X2929840Y207600D01*
X2928159Y207960D01*
X2925680Y208240D01*
X2914320Y208240D01*
X2911840Y207960D01*
X2910160Y207600D01*
X2908480Y207960D01*
X2906000Y208240D01*
X2894640Y208240D01*
X2892140Y207960D01*
X2890480Y207600D01*
X2888800Y207960D01*
X2886320Y208240D01*
X2874940Y208240D01*
X2872460Y207960D01*
X2870779Y207600D01*
X2869120Y207960D01*
X2866620Y208240D01*
X2855260Y208240D01*
X2852780Y207960D01*
X2851100Y207600D01*
X2849420Y207960D01*
X2846940Y208240D01*
X2835580Y208240D01*
X2833100Y207960D01*
X2830940Y207200D01*
X2830040Y206640D01*
X2828440Y206060D01*
X2826760Y206180D01*
X2825280Y207000D01*
X2824260Y208359D01*
X2823900Y210020D01*
X2823900Y304100D01*
X2823620Y306600D01*
X2822880Y308740D01*
X2821660Y310680D01*
X2820059Y312280D01*
X2818120Y313500D01*
X2815980Y314260D01*
X2813480Y314540D01*
X2715500Y314540D01*
X2713020Y314260D01*
X2710860Y313500D01*
X2708940Y312280D01*
X2707320Y310680D01*
X2706120Y308740D01*
X2705360Y306600D01*
X2705080Y304100D01*
X2705080Y170700D01*
X2705360Y168220D01*
X2706120Y166060D01*
X2707320Y164140D01*
X2708940Y162520D01*
X2710860Y161300D01*
X2713020Y160560D01*
X2715500Y160280D01*
X2813480Y160280D01*
X2815980Y160560D01*
X2818120Y161300D01*
X2819020Y161880D01*
X2820620Y162460D01*
X2822300Y162320D01*
X2823780Y161500D01*
X2824800Y160140D01*
X2825160Y158480D01*
X2825160Y127400D01*
X2825440Y124900D01*
X2826180Y122760D01*
X2828260Y119520D01*
X2828560Y118000D01*
X2828560Y53520D01*
X2828260Y51980D01*
X2827380Y50679D01*
X2714040Y-62660D01*
X2712740Y-63540D01*
X2711200Y-63840D01*
X2709680Y-63540D01*
X2708380Y-62660D01*
X2707520Y-61360D01*
X2707200Y-59840D01*
X2707200Y-39700D01*
X2706920Y-37200D01*
X2706180Y-35060D01*
X2704960Y-33120D01*
X2703360Y-31520D01*
X2701420Y-30299D01*
X2699280Y-29540D01*
X2696780Y-29260D01*
X2663220Y-29260D01*
X2660720Y-29540D01*
X2658580Y-30299D01*
X2656640Y-31520D01*
X2655040Y-33120D01*
X2653820Y-35060D01*
X2653080Y-37200D01*
X2652860Y-39080D01*
X2652440Y-40480D01*
X2651560Y-41620D01*
X2650320Y-42380D01*
X2648880Y-42640D01*
X2554920Y-42640D01*
X2553480Y-42360D01*
X2552220Y-41600D01*
X2551340Y-40420D01*
X2550940Y-39000D01*
X2551480Y-33780D01*
X2551480Y-6600D01*
X2551140Y-3100D01*
X2550240Y100D01*
X2548760Y3100D01*
X2546740Y5760D01*
X2544280Y8000D01*
X2541440Y9760D01*
X2538340Y10960D01*
X2535060Y11560D01*
X2531740Y11560D01*
X2528460Y10960D01*
X2525360Y9760D01*
X2522700Y8120D01*
X2521340Y7580D01*
X2519860Y7580D01*
X2518500Y8120D01*
X2515840Y9760D01*
X2512740Y10960D01*
X2509460Y11560D01*
X2506140Y11560D01*
X2501400Y10680D01*
X2499960Y10940D01*
X2498720Y11720D01*
X2497820Y12880D01*
X2497420Y14280D01*
X2497080Y17620D01*
X2496220Y20480D01*
X2494820Y23100D01*
X2492940Y25400D01*
X2490640Y27280D01*
X2488000Y28680D01*
X2485160Y29540D01*
X2482000Y29860D01*
X2315800Y29860D01*
X2314200Y30200D01*
X2312860Y31140D01*
X2312020Y32540D01*
X2311180Y34940D01*
X2309960Y36880D01*
X2308360Y38480D01*
X2306420Y39700D01*
X2304280Y40460D01*
X2302360Y40920D01*
X2301220Y41820D01*
X2300460Y43060D01*
X2300200Y44480D01*
X2300200Y97360D01*
X2299880Y100520D01*
X2299020Y103360D01*
X2297620Y106000D01*
X2295600Y108440D01*
X2289680Y114380D01*
X2288800Y115680D01*
X2288500Y117200D01*
X2288500Y137500D01*
X2288220Y139980D01*
X2287480Y142140D01*
X2286260Y144060D01*
X2284640Y145680D01*
X2282720Y146880D01*
X2280560Y147640D01*
X2278080Y147920D01*
X2247040Y147920D01*
X2244540Y147640D01*
X2242400Y146880D01*
X2240460Y145680D01*
X2238860Y144060D01*
X2238380Y143320D01*
X2237280Y142160D01*
X2235800Y141520D01*
X2234200Y141520D01*
X2232720Y142160D01*
X2231620Y143320D01*
X2231140Y144060D01*
X2229540Y145680D01*
X2227600Y146880D01*
X2225460Y147640D01*
X2222960Y147920D01*
X2217820Y147920D01*
X2217820Y131360D01*
X2232600Y131360D01*
X2234140Y131060D01*
X2235440Y130180D01*
X2236300Y128880D01*
X2236600Y127360D01*
X2236600Y112640D01*
X2236300Y111120D01*
X2235440Y109820D01*
X2234140Y108940D01*
X2232600Y108640D01*
X2217820Y108640D01*
X2217820Y92080D01*
X2222960Y92080D01*
X2225460Y92360D01*
X2227600Y93120D01*
X2229540Y94320D01*
X2231140Y95940D01*
X2231620Y96679D01*
X2232720Y97840D01*
X2234200Y98480D01*
X2235800Y98480D01*
X2237280Y97840D01*
X2238380Y96679D01*
X2238860Y95940D01*
X2240460Y94320D01*
X2242400Y93120D01*
X2244540Y92360D01*
X2247040Y92080D01*
X2265800Y92080D01*
X2267340Y91780D01*
X2268620Y90920D01*
X2269500Y89620D01*
X2269800Y88080D01*
X2269800Y44480D01*
X2269540Y43060D01*
X2268780Y41820D01*
X2267640Y40920D01*
X2265720Y40460D01*
X2263580Y39700D01*
X2261640Y38480D01*
X2260040Y36880D01*
X2258820Y34940D01*
X2257980Y32540D01*
X2257140Y31140D01*
X2255800Y30200D01*
X2254200Y29860D01*
X2132580Y29860D01*
X2130880Y30240D01*
X2129500Y31320D01*
X2128700Y32860D01*
X2128400Y34100D01*
X2126280Y39420D01*
X2123520Y44440D01*
X2120160Y49080D01*
X2116240Y53259D01*
X2111820Y56920D01*
X2106980Y59980D01*
X2101800Y62420D01*
X2096339Y64200D01*
X2090720Y65260D01*
X2085000Y65620D01*
X2079280Y65260D01*
X2073660Y64200D01*
X2068200Y62420D01*
X2066360Y61920D01*
X2064760Y62200D01*
X2063400Y63080D01*
X2048320Y78180D01*
X2045880Y80180D01*
X2043240Y81580D01*
X2040400Y82440D01*
X2037240Y82760D01*
X1821740Y82760D01*
X1820220Y83059D01*
X1818940Y83900D01*
X1818060Y85180D01*
X1817740Y86679D01*
X1818000Y88200D01*
X1818820Y89500D01*
X1820160Y90920D01*
X1823520Y95559D01*
X1826279Y100580D01*
X1828400Y105900D01*
X1829820Y111460D01*
X1830540Y117140D01*
X1830540Y122860D01*
X1829820Y128539D01*
X1828400Y134100D01*
X1826279Y139420D01*
X1823520Y144440D01*
X1820160Y149080D01*
X1816240Y153260D01*
X1811819Y156920D01*
X1806980Y159980D01*
X1801800Y162420D01*
X1796339Y164200D01*
X1790720Y165260D01*
X1785000Y165620D01*
X1779280Y165260D01*
X1773660Y164200D01*
X1768200Y162420D01*
X1763020Y159980D01*
X1758180Y156920D01*
X1753760Y153260D01*
X1749840Y149080D01*
X1746480Y144440D01*
X1743720Y139420D01*
X1741600Y134100D01*
X1740180Y128539D01*
X1739460Y122860D01*
X1739460Y117140D01*
X1740180Y111460D01*
X1741600Y105900D01*
X1743720Y100580D01*
X1746480Y95559D01*
X1749840Y90920D01*
X1751180Y89500D01*
X1752000Y88200D01*
X1752260Y86679D01*
X1751940Y85180D01*
X1751060Y83900D01*
X1749780Y83059D01*
X1748260Y82760D01*
X1571459Y82760D01*
X1569860Y83100D01*
X1568520Y84040D01*
X1567680Y85440D01*
X1566879Y87720D01*
X1565680Y89640D01*
X1564060Y91260D01*
X1562140Y92480D01*
X1559980Y93219D01*
X1557500Y93500D01*
X1522500Y93500D01*
X1520020Y93219D01*
X1517860Y92480D01*
X1515940Y91260D01*
X1514319Y89640D01*
X1513120Y87720D01*
X1512360Y85559D01*
X1512080Y83080D01*
X1512080Y62800D01*
X1511780Y61260D01*
X1510920Y59960D01*
X1457620Y6680D01*
X1456180Y5760D01*
X1454480Y5520D01*
X1452840Y6020D01*
X1451560Y7160D01*
X1450160Y9080D01*
X1446240Y13260D01*
X1441819Y16920D01*
X1436980Y19980D01*
X1431800Y22420D01*
X1426339Y24200D01*
X1420720Y25259D01*
X1415000Y25620D01*
X1409280Y25259D01*
X1403660Y24200D01*
X1398200Y22420D01*
X1396360Y21920D01*
X1394760Y22200D01*
X1393400Y23080D01*
X1375880Y40599D01*
X1373440Y42619D01*
X1370800Y44020D01*
X1367960Y44880D01*
X1364800Y45199D01*
X1153860Y45199D01*
X1152140Y45580D01*
X1150760Y46660D01*
X1149980Y48200D01*
X1149920Y49940D01*
X1150620Y51560D01*
X1153520Y55560D01*
X1156280Y60580D01*
X1158400Y65900D01*
X1159820Y71460D01*
X1160540Y77140D01*
X1160540Y82860D01*
X1159820Y88539D01*
X1158400Y94100D01*
X1156280Y99420D01*
X1153520Y104440D01*
X1150160Y109080D01*
X1146240Y113260D01*
X1141820Y116920D01*
X1136980Y119980D01*
X1131800Y122420D01*
X1126340Y124200D01*
X1120720Y125260D01*
X1115000Y125620D01*
X1109280Y125260D01*
X1103660Y124200D01*
X1098200Y122420D01*
X1093020Y119980D01*
X1088180Y116920D01*
X1083760Y113260D01*
X1079840Y109080D01*
X1076480Y104440D01*
X1073720Y99420D01*
X1071600Y94100D01*
X1070180Y88539D01*
X1069460Y82860D01*
X1069460Y77140D01*
X1070180Y71460D01*
X1071600Y65900D01*
X1073720Y60580D01*
X1076480Y55560D01*
X1079380Y51560D01*
X1080080Y49940D01*
X1080020Y48200D01*
X1079240Y46660D01*
X1077860Y45580D01*
X1076140Y45199D01*
X815200Y45199D01*
X812039Y44880D01*
X809200Y44020D01*
X806560Y42619D01*
X804120Y40599D01*
X772600Y9080D01*
X771300Y8220D01*
X769760Y7920D01*
X756919Y7920D01*
X754440Y7640D01*
X752280Y6879D01*
X750360Y5679D01*
X748740Y4060D01*
X747520Y2140D01*
X746780Y-20D01*
X746500Y-2500D01*
X746500Y-22799D01*
X746200Y-24320D01*
X745320Y-25620D01*
X719720Y-51220D01*
X718420Y-52100D01*
X716880Y-52400D01*
X691480Y-52400D01*
X689880Y-52060D01*
X688540Y-51120D01*
X687700Y-49720D01*
X686880Y-47400D01*
X685680Y-45460D01*
X684060Y-43860D01*
X683319Y-43380D01*
X682159Y-42280D01*
X681520Y-40800D01*
X681520Y-39200D01*
X682159Y-37720D01*
X683319Y-36620D01*
X684060Y-36140D01*
X685680Y-34540D01*
X686880Y-32599D01*
X687640Y-30460D01*
X687920Y-27960D01*
X687920Y-22820D01*
X671360Y-22820D01*
X671360Y-37600D01*
X671060Y-39140D01*
X670180Y-40439D01*
X668880Y-41300D01*
X667360Y-41600D01*
X652640Y-41600D01*
X651120Y-41300D01*
X649820Y-40439D01*
X648940Y-39140D01*
X648640Y-37600D01*
X648640Y-22820D01*
X632080Y-22820D01*
X632080Y-27960D01*
X632360Y-30460D01*
X633120Y-32599D01*
X634320Y-34540D01*
X635940Y-36140D01*
X636680Y-36620D01*
X637840Y-37720D01*
X638480Y-39200D01*
X638480Y-40800D01*
X637840Y-42280D01*
X636680Y-43380D01*
X635940Y-43860D01*
X634320Y-45460D01*
X633120Y-47400D01*
X632320Y-49680D01*
X631480Y-51080D01*
X630140Y-52020D01*
X628540Y-52360D01*
X596700Y-52360D01*
X595500Y-52180D01*
X593720Y-51160D01*
X590280Y-49560D01*
X587700Y-48860D01*
X586180Y-48060D01*
X585120Y-46680D01*
X584740Y-45000D01*
X585120Y-43300D01*
X586180Y-41940D01*
X587700Y-41140D01*
X590280Y-40439D01*
X593720Y-38840D01*
X596820Y-36660D01*
X599500Y-33980D01*
X601680Y-30880D01*
X603280Y-27440D01*
X604260Y-23780D01*
X604600Y-20000D01*
X604260Y-16220D01*
X603280Y-12560D01*
X601680Y-9120D01*
X599500Y-6020D01*
X596820Y-3320D01*
X593720Y-1160D01*
X590280Y440D01*
X586620Y1440D01*
X582660Y1780D01*
X570860Y1780D01*
X569320Y2080D01*
X568020Y2940D01*
X567160Y4240D01*
X566860Y5780D01*
X566860Y105640D01*
X566560Y108480D01*
X565740Y111000D01*
X564380Y113340D01*
X563020Y114940D01*
X547380Y130580D01*
X546500Y131880D01*
X546200Y133420D01*
X546200Y185780D01*
X545920Y188260D01*
X545160Y190420D01*
X543960Y192340D01*
X542340Y193960D01*
X540420Y195159D01*
X538260Y195920D01*
X535780Y196200D01*
X474219Y196200D01*
X471740Y195920D01*
X469580Y195159D01*
X467660Y193960D01*
X466040Y192340D01*
X464840Y190420D01*
X464080Y188260D01*
X463800Y185780D01*
X463800Y124220D01*
X464080Y121740D01*
X464840Y119580D01*
X466040Y117660D01*
X467660Y116039D01*
X469580Y114840D01*
X471740Y114080D01*
X474219Y113800D01*
X526580Y113800D01*
X528120Y113500D01*
X529420Y112620D01*
X540280Y101760D01*
X541140Y100460D01*
X541460Y98940D01*
X541460Y5780D01*
X541140Y4240D01*
X540280Y2940D01*
X538980Y2080D01*
X537460Y1780D01*
X525640Y1780D01*
X521700Y1440D01*
X518040Y440D01*
X514600Y-1160D01*
X511480Y-3320D01*
X508800Y-6020D01*
X506620Y-9120D01*
X505020Y-12560D01*
X504040Y-16220D01*
X503720Y-20000D01*
X504040Y-23780D01*
X505020Y-27440D01*
X506620Y-30880D01*
X508800Y-33980D01*
X511480Y-36660D01*
X514600Y-38840D01*
X518040Y-40439D01*
X520600Y-41140D01*
X522140Y-41940D01*
X523200Y-43300D01*
X523560Y-45000D01*
X523200Y-46680D01*
X522140Y-48060D01*
X520600Y-48860D01*
X518040Y-49560D01*
X514600Y-51160D01*
X511480Y-53320D01*
X508800Y-56020D01*
X506620Y-59120D01*
X505020Y-62560D01*
X504040Y-66220D01*
X503720Y-70000D01*
X504040Y-73780D01*
X505020Y-77440D01*
X506620Y-80879D01*
X508800Y-83980D01*
X511480Y-86660D01*
X514600Y-88840D01*
X518040Y-90440D01*
X520600Y-91140D01*
X522140Y-91940D01*
X523200Y-93300D01*
X523560Y-95000D01*
X523200Y-96679D01*
X522140Y-98059D01*
X520600Y-98859D01*
X518040Y-99560D01*
X514600Y-101160D01*
X511480Y-103320D01*
X508800Y-106020D01*
X506620Y-109120D01*
X505020Y-112560D01*
X504040Y-116220D01*
X503720Y-120000D01*
X504040Y-123780D01*
X505020Y-127440D01*
X506620Y-130879D01*
X508800Y-133980D01*
X511480Y-136660D01*
X514600Y-138840D01*
X518040Y-140440D01*
X520600Y-141140D01*
X522140Y-141940D01*
X523200Y-143300D01*
X523560Y-145000D01*
X523200Y-146680D01*
X522140Y-148060D01*
X520600Y-148860D01*
X518040Y-149560D01*
X514600Y-151160D01*
X511480Y-153320D01*
X508800Y-156020D01*
X506620Y-159120D01*
X505020Y-162560D01*
X504040Y-166220D01*
X503720Y-170000D01*
X504040Y-173780D01*
X505020Y-177440D01*
X506620Y-180880D01*
X508800Y-183980D01*
X511480Y-186660D01*
X514600Y-188840D01*
X518040Y-190440D01*
X521700Y-191420D01*
X525640Y-191780D01*
X582660Y-191780D01*
X586620Y-191420D01*
X590280Y-190440D01*
X593720Y-188840D01*
X596820Y-186660D01*
X599500Y-183980D01*
X601680Y-180880D01*
X603280Y-177440D01*
X604260Y-173780D01*
X604600Y-170000D01*
X604260Y-166220D01*
X603280Y-162560D01*
X601680Y-159120D01*
X599500Y-156020D01*
X596820Y-153320D01*
X593720Y-151160D01*
X590280Y-149560D01*
X587700Y-148860D01*
X586180Y-148060D01*
X585120Y-146680D01*
X584740Y-145000D01*
X585120Y-143300D01*
X586180Y-141940D01*
X587700Y-141140D01*
X590280Y-140440D01*
X593720Y-138840D01*
X596820Y-136660D01*
X599500Y-133980D01*
X601680Y-130879D01*
X603280Y-127440D01*
X604260Y-123780D01*
X604600Y-120000D01*
X604260Y-116220D01*
X603280Y-112560D01*
X601680Y-109120D01*
X599500Y-106020D01*
X596820Y-103320D01*
X593720Y-101160D01*
X590280Y-99560D01*
X587700Y-98859D01*
X586180Y-98059D01*
X585120Y-96679D01*
X584740Y-95000D01*
X585120Y-93300D01*
X586180Y-91940D01*
X587700Y-91140D01*
X590280Y-90440D01*
X593720Y-88840D01*
X596820Y-86660D01*
X599560Y-83940D01*
X600860Y-83059D01*
X602380Y-82760D01*
X628540Y-82760D01*
X630140Y-83100D01*
X631480Y-84040D01*
X632320Y-85440D01*
X633120Y-87720D01*
X634320Y-89640D01*
X635940Y-91260D01*
X637860Y-92480D01*
X640020Y-93219D01*
X642500Y-93500D01*
X677500Y-93500D01*
X679980Y-93219D01*
X682140Y-92480D01*
X684060Y-91260D01*
X685680Y-89640D01*
X686880Y-87720D01*
X687660Y-85480D01*
X688520Y-84080D01*
X689840Y-83140D01*
X691440Y-82800D01*
X724640Y-82800D01*
X727800Y-82480D01*
X730639Y-81620D01*
X733280Y-80220D01*
X735720Y-78200D01*
X764840Y-49080D01*
X766140Y-48220D01*
X767680Y-47920D01*
X787960Y-47920D01*
X790460Y-47640D01*
X792600Y-46880D01*
X794539Y-45679D01*
X796140Y-44060D01*
X796620Y-43320D01*
X797720Y-42160D01*
X799200Y-41520D01*
X800800Y-41520D01*
X802280Y-42160D01*
X803379Y-43320D01*
X803860Y-44060D01*
X805460Y-45679D01*
X807400Y-46880D01*
X809539Y-47640D01*
X812039Y-47920D01*
X843080Y-47920D01*
X845560Y-47640D01*
X847720Y-46880D01*
X849640Y-45679D01*
X851260Y-44060D01*
X852480Y-42140D01*
X853220Y-39980D01*
X853500Y-37500D01*
X853500Y-36700D01*
X853800Y-35160D01*
X854680Y-33880D01*
X855980Y-33000D01*
X857500Y-32700D01*
X905260Y-32700D01*
X906700Y-32960D01*
X907940Y-33740D01*
X908840Y-34900D01*
X909240Y-36300D01*
X909560Y-39300D01*
X910300Y-41420D01*
X911520Y-43360D01*
X913120Y-44960D01*
X915060Y-46180D01*
X917200Y-46920D01*
X919700Y-47200D01*
X920740Y-47200D01*
X922280Y-47520D01*
X923560Y-48380D01*
X924440Y-49680D01*
X924740Y-51200D01*
X924740Y-83200D01*
X924479Y-84620D01*
X923720Y-85860D01*
X922580Y-86740D01*
X921180Y-87160D01*
X919440Y-87360D01*
X917280Y-88120D01*
X915360Y-89320D01*
X913740Y-90940D01*
X912520Y-92860D01*
X911780Y-95020D01*
X911500Y-97500D01*
X911500Y-132500D01*
X911780Y-134980D01*
X912520Y-137140D01*
X913740Y-139060D01*
X915360Y-140680D01*
X917280Y-141880D01*
X919440Y-142640D01*
X921919Y-142920D01*
X952960Y-142920D01*
X955460Y-142640D01*
X957600Y-141880D01*
X959539Y-140680D01*
X961140Y-139060D01*
X961620Y-138320D01*
X962720Y-137160D01*
X964200Y-136520D01*
X965800Y-136520D01*
X967280Y-137160D01*
X968379Y-138320D01*
X968860Y-139060D01*
X970460Y-140680D01*
X972400Y-141880D01*
X974539Y-142640D01*
X977039Y-142920D01*
X1008080Y-142920D01*
X1010560Y-142640D01*
X1012720Y-141880D01*
X1014640Y-140680D01*
X1016260Y-139060D01*
X1017480Y-137140D01*
X1018220Y-134980D01*
X1018500Y-132500D01*
X1018500Y-131700D01*
X1018800Y-130160D01*
X1019680Y-128880D01*
X1020980Y-128000D01*
X1022500Y-127700D01*
X1066860Y-127700D01*
X1068560Y-128080D01*
X1069940Y-129160D01*
X1070740Y-130700D01*
X1071600Y-134100D01*
X1073720Y-139420D01*
X1076480Y-144440D01*
X1077040Y-145220D01*
X1077660Y-146500D01*
X1077800Y-147900D01*
X1077440Y-149260D01*
X1076640Y-150400D01*
X1061960Y-165080D01*
X1060780Y-165880D01*
X1059400Y-166240D01*
X1057980Y-166080D01*
X1056720Y-165440D01*
X1055740Y-164380D01*
X1054960Y-163120D01*
X1053360Y-161520D01*
X1051420Y-160300D01*
X1049280Y-159540D01*
X1046780Y-159260D01*
X1013220Y-159260D01*
X1010720Y-159540D01*
X1008580Y-160300D01*
X1006640Y-161520D01*
X1005040Y-163120D01*
X1003820Y-165060D01*
X1003080Y-167200D01*
X1002800Y-169700D01*
X1002800Y-198240D01*
X1002480Y-199780D01*
X1001620Y-201060D01*
X1000320Y-201940D01*
X998800Y-202240D01*
X781460Y-202240D01*
X779860Y-201900D01*
X778520Y-200960D01*
X777680Y-199560D01*
X776880Y-197280D01*
X775680Y-195360D01*
X774060Y-193740D01*
X772140Y-192520D01*
X769980Y-191780D01*
X767500Y-191500D01*
X732500Y-191500D01*
X730020Y-191780D01*
X727860Y-192520D01*
X725939Y-193740D01*
X724320Y-195360D01*
X723120Y-197280D01*
X722340Y-199520D01*
X721480Y-200920D01*
X720160Y-201860D01*
X718560Y-202200D01*
X577800Y-202200D01*
X574640Y-202520D01*
X571800Y-203380D01*
X569160Y-204780D01*
X566720Y-206800D01*
X537480Y-236020D01*
X536180Y-236900D01*
X534640Y-237200D01*
X371440Y-237200D01*
X369840Y-236860D01*
X368519Y-235920D01*
X367660Y-234520D01*
X366880Y-232280D01*
X365680Y-230360D01*
X364060Y-228740D01*
X362140Y-227520D01*
X359980Y-226780D01*
X358760Y-226640D01*
X357360Y-226220D01*
X356220Y-225320D01*
X355460Y-224100D01*
X355200Y-222659D01*
X355200Y-195780D01*
X355500Y-194240D01*
X356380Y-192940D01*
X357660Y-192079D01*
X359200Y-191780D01*
X364360Y-191780D01*
X368300Y-191420D01*
X371960Y-190440D01*
X375400Y-188840D01*
X378519Y-186660D01*
X381200Y-183980D01*
X383380Y-180880D01*
X384980Y-177440D01*
X385959Y-173780D01*
X386280Y-170000D01*
X385959Y-166220D01*
X384980Y-162560D01*
X383380Y-159120D01*
X381200Y-156020D01*
X378519Y-153320D01*
X375400Y-151160D01*
X371960Y-149560D01*
X369400Y-148860D01*
X367860Y-148060D01*
X366800Y-146680D01*
X366440Y-145000D01*
X366800Y-143300D01*
X367860Y-141940D01*
X369400Y-141140D01*
X371960Y-140440D01*
X375400Y-138840D01*
X378519Y-136660D01*
X381200Y-133980D01*
X383380Y-130879D01*
X384980Y-127440D01*
X385959Y-123780D01*
X386280Y-120000D01*
X385959Y-116220D01*
X384980Y-112560D01*
X383380Y-109120D01*
X381200Y-106020D01*
X378519Y-103320D01*
X375400Y-101160D01*
X371960Y-99560D01*
X369400Y-98859D01*
X367860Y-98059D01*
X366800Y-96679D01*
X366440Y-95000D01*
X366800Y-93300D01*
X367860Y-91940D01*
X369400Y-91140D01*
X371960Y-90440D01*
X375400Y-88840D01*
X378519Y-86660D01*
X381200Y-83980D01*
X383380Y-80879D01*
X384980Y-77440D01*
X385959Y-73780D01*
X386280Y-70000D01*
X385959Y-66220D01*
X384980Y-62560D01*
X383380Y-59120D01*
X381200Y-56020D01*
X378519Y-53320D01*
X375400Y-51160D01*
X371960Y-49560D01*
X369400Y-48860D01*
X367860Y-48060D01*
X366800Y-46680D01*
X366440Y-45000D01*
X366800Y-43300D01*
X367860Y-41940D01*
X369400Y-41140D01*
X371960Y-40439D01*
X375400Y-38840D01*
X378519Y-36660D01*
X381200Y-33980D01*
X383380Y-30880D01*
X384980Y-27440D01*
X385959Y-23780D01*
X386280Y-20000D01*
X385959Y-16220D01*
X384980Y-12560D01*
X383380Y-9120D01*
X381200Y-6020D01*
X378519Y-3320D01*
X375400Y-1160D01*
X371960Y440D01*
X368300Y1440D01*
X364360Y1780D01*
X352560Y1780D01*
X351019Y2080D01*
X349720Y2940D01*
X348860Y4240D01*
X348560Y5780D01*
X348560Y98940D01*
X348860Y100460D01*
X349720Y101760D01*
X360580Y112620D01*
X361880Y113500D01*
X363420Y113800D01*
X415780Y113800D01*
X418260Y114080D01*
X420420Y114840D01*
X422340Y116039D01*
X423960Y117660D01*
X425160Y119580D01*
X425920Y121740D01*
X426200Y124220D01*
X426200Y185780D01*
X425920Y188260D01*
X425160Y190420D01*
X423960Y192340D01*
X422340Y193960D01*
X420420Y195159D01*
X418260Y195920D01*
X415780Y196200D01*
X354219Y196200D01*
X351740Y195920D01*
X349580Y195159D01*
X347660Y193960D01*
X346040Y192340D01*
X344840Y190420D01*
X344080Y188260D01*
X343800Y185780D01*
X343800Y133420D01*
X343500Y131880D01*
X342620Y130580D01*
X327020Y114980D01*
X325220Y112760D01*
X324020Y110399D01*
X323320Y107780D01*
X323160Y105700D01*
X323160Y5780D01*
X322840Y4240D01*
X321980Y2940D01*
X320680Y2080D01*
X319160Y1780D01*
X307340Y1780D01*
X303380Y1440D01*
X299720Y440D01*
X296280Y-1160D01*
X293180Y-3320D01*
X290500Y-6020D01*
X288320Y-9120D01*
X286720Y-12560D01*
X285740Y-16220D01*
X285400Y-20000D01*
X285740Y-23780D01*
X286720Y-27440D01*
X288320Y-30880D01*
X290500Y-33980D01*
X293180Y-36660D01*
X296280Y-38840D01*
X299720Y-40439D01*
X302300Y-41140D01*
X303820Y-41940D01*
X304880Y-43300D01*
X305260Y-45000D01*
X304880Y-46680D01*
X303820Y-48060D01*
X302300Y-48860D01*
X299720Y-49560D01*
X296280Y-51160D01*
X293180Y-53320D01*
X290380Y-56120D01*
X289080Y-57000D01*
X287560Y-57300D01*
X241920Y-57300D01*
X240380Y-57000D01*
X239080Y-56120D01*
X74120Y108840D01*
X71900Y110640D01*
X69540Y111840D01*
X66940Y112540D01*
X64840Y112700D01*
X-404799Y112700D01*
X-406340Y113000D01*
X-407620Y113880D01*
X-408500Y115160D01*
X-408800Y116700D01*
X-408800Y130780D01*
X-409080Y133260D01*
X-409840Y135420D01*
X-411040Y137340D01*
X-412660Y138960D01*
X-414580Y140160D01*
X-416740Y140920D01*
X-419219Y141200D01*
X-480780Y141200D01*
X-483260Y140920D01*
X-485420Y140160D01*
X-487340Y138960D01*
X-488960Y137340D01*
X-490160Y135420D01*
X-490920Y133260D01*
X-491200Y130780D01*
X-491200Y78420D01*
X-491500Y76880D01*
X-492380Y75580D01*
X-514720Y53240D01*
X-516019Y52380D01*
X-517540Y52080D01*
X-608180Y52080D01*
X-609700Y52380D01*
X-611000Y53259D01*
X-612940Y55199D01*
X-613700Y55679D01*
X-614860Y56780D01*
X-615480Y58259D01*
X-615480Y59860D01*
X-614860Y61340D01*
X-613700Y62440D01*
X-612940Y62920D01*
X-611340Y64520D01*
X-610120Y66460D01*
X-609360Y68600D01*
X-609080Y71100D01*
X-609080Y72300D01*
X-631560Y72300D01*
X-631560Y61440D01*
X-631860Y59920D01*
X-632720Y58620D01*
X-634020Y57760D01*
X-635560Y57440D01*
X-662080Y57440D01*
X-663620Y57760D01*
X-664900Y58620D01*
X-665780Y59920D01*
X-666080Y61440D01*
X-666080Y72300D01*
X-688540Y72300D01*
X-688540Y71100D01*
X-688259Y68600D01*
X-687520Y66460D01*
X-686300Y64520D01*
X-684680Y62920D01*
X-683940Y62440D01*
X-682780Y61340D01*
X-682159Y59860D01*
X-682159Y58259D01*
X-682780Y56780D01*
X-683940Y55679D01*
X-684680Y55199D01*
X-686300Y53600D01*
X-687520Y51660D01*
X-688259Y49520D01*
X-688540Y47020D01*
X-688540Y31720D01*
X-688259Y29240D01*
X-687520Y27080D01*
X-686300Y25160D01*
X-684680Y23540D01*
X-683940Y23080D01*
X-682780Y21960D01*
X-682159Y20500D01*
X-682159Y18880D01*
X-682780Y17420D01*
X-683940Y16299D01*
X-684680Y15840D01*
X-686300Y14220D01*
X-687520Y12300D01*
X-688259Y10140D01*
X-688540Y7660D01*
X-688540Y-7640D01*
X-688259Y-10140D01*
X-687520Y-12280D01*
X-686300Y-14220D01*
X-684680Y-15820D01*
X-683940Y-16299D01*
X-682780Y-17400D01*
X-682159Y-18880D01*
X-682159Y-20480D01*
X-682780Y-21960D01*
X-683940Y-23060D01*
X-684680Y-23540D01*
X-686300Y-25139D01*
X-687520Y-27080D01*
X-688259Y-29220D01*
X-688540Y-31720D01*
X-688540Y-47020D01*
X-688259Y-49500D01*
X-687520Y-51660D01*
X-686300Y-53580D01*
X-684680Y-55199D01*
X-683940Y-55660D01*
X-682780Y-56780D01*
X-682159Y-58240D01*
X-682159Y-59860D01*
X-682780Y-61320D01*
X-683940Y-62440D01*
X-684680Y-62900D01*
X-686300Y-64520D01*
X-687520Y-66440D01*
X-688259Y-68600D01*
X-688540Y-71080D01*
X-688540Y-86380D01*
X-688259Y-88880D01*
X-687520Y-91020D01*
X-686300Y-92960D01*
X-684680Y-94560D01*
X-683940Y-95040D01*
X-682780Y-96140D01*
X-682159Y-97620D01*
X-682159Y-99220D01*
X-682780Y-100700D01*
X-683940Y-101800D01*
X-684680Y-102280D01*
X-686300Y-103880D01*
X-687520Y-105820D01*
X-688259Y-107960D01*
X-688540Y-110460D01*
X-688540Y-125760D01*
X-688259Y-128240D01*
X-687520Y-130399D01*
X-686300Y-132320D01*
X-684680Y-133940D01*
X-683940Y-134400D01*
X-682780Y-135520D01*
X-682159Y-136980D01*
X-682159Y-138600D01*
X-682780Y-140060D01*
X-683940Y-141180D01*
X-684680Y-141640D01*
X-686300Y-143260D01*
X-687520Y-145180D01*
X-688259Y-147340D01*
X-688540Y-149820D01*
X-688540Y-165120D01*
X-688259Y-167620D01*
X-687520Y-169760D01*
X-686300Y-171700D01*
X-684680Y-173299D01*
X-683940Y-173780D01*
X-682780Y-174880D01*
X-682159Y-176360D01*
X-682159Y-177960D01*
X-682780Y-179440D01*
X-683940Y-180539D01*
X-684680Y-181020D01*
X-686300Y-182620D01*
X-687520Y-184560D01*
X-688259Y-186700D01*
X-688540Y-189200D01*
X-688540Y-204500D01*
X-688259Y-206980D01*
X-687520Y-209140D01*
X-686300Y-211060D01*
X-684680Y-212680D01*
X-683940Y-213140D01*
X-682780Y-214259D01*
X-682159Y-215720D01*
X-682159Y-217340D01*
X-682780Y-218800D01*
X-683940Y-219920D01*
X-684680Y-220380D01*
X-686300Y-222000D01*
X-687520Y-223920D01*
X-688259Y-226080D01*
X-688540Y-228560D01*
X-688540Y-243860D01*
X-688259Y-246360D01*
X-687520Y-248500D01*
X-686300Y-250440D01*
X-684680Y-252040D01*
X-683940Y-252520D01*
X-682780Y-253619D01*
X-682159Y-255100D01*
X-682159Y-256700D01*
X-682780Y-258180D01*
X-683940Y-259280D01*
X-684680Y-259760D01*
X-686300Y-261360D01*
X-687520Y-263300D01*
X-688259Y-265440D01*
X-688540Y-267940D01*
X-688540Y-283240D01*
X-688259Y-285720D01*
X-687520Y-287880D01*
X-686300Y-289800D01*
X-684680Y-291420D01*
X-682760Y-292620D01*
X-680600Y-293380D01*
X-678120Y-293660D01*
X-650360Y-293660D01*
X-648820Y-293960D01*
X-647520Y-294840D01*
X-543520Y-398840D01*
X-541300Y-400640D01*
X-538940Y-401840D01*
X-536340Y-402540D01*
G37*
G36*
X2382500Y-348500D02*
G01*
X2388640Y-348500D01*
X2388640Y-332920D01*
X2372080Y-332920D01*
X2372080Y-338080D01*
X2372360Y-340560D01*
X2373120Y-342720D01*
X2374320Y-344640D01*
X2375940Y-346260D01*
X2377860Y-347480D01*
X2380020Y-348220D01*
G37*
G36*
X2411360Y-348500D02*
G01*
X2417500Y-348500D01*
X2419980Y-348220D01*
X2422140Y-347480D01*
X2424060Y-346260D01*
X2425680Y-344640D01*
X2426880Y-342720D01*
X2427640Y-340560D01*
X2427920Y-338080D01*
X2427920Y-332920D01*
X2411360Y-332920D01*
G37*
G36*
X1716920Y-337920D02*
G01*
X1722080Y-337920D01*
X1722080Y-321360D01*
X1706500Y-321360D01*
X1706500Y-327500D01*
X1706780Y-329980D01*
X1707520Y-332140D01*
X1708740Y-334060D01*
X1710360Y-335680D01*
X1712280Y-336880D01*
X1714440Y-337640D01*
G37*
G36*
X322500Y-333500D02*
G01*
X328640Y-333500D01*
X328640Y-317920D01*
X312080Y-317920D01*
X312080Y-323080D01*
X312360Y-325560D01*
X313120Y-327720D01*
X314320Y-329640D01*
X315940Y-331260D01*
X317860Y-332480D01*
X320020Y-333220D01*
G37*
G36*
X351360Y-333500D02*
G01*
X357500Y-333500D01*
X359980Y-333220D01*
X362140Y-332480D01*
X364060Y-331260D01*
X365680Y-329640D01*
X366880Y-327720D01*
X367640Y-325560D01*
X367920Y-323080D01*
X367920Y-317920D01*
X351360Y-317920D01*
G37*
G36*
X732500Y-298500D02*
G01*
X738640Y-298500D01*
X738640Y-282920D01*
X722080Y-282920D01*
X722080Y-288080D01*
X722360Y-290560D01*
X723120Y-292720D01*
X724320Y-294640D01*
X725939Y-296260D01*
X727860Y-297480D01*
X730020Y-298220D01*
G37*
G36*
X761360Y-298500D02*
G01*
X767500Y-298500D01*
X769980Y-298220D01*
X772140Y-297480D01*
X774060Y-296260D01*
X775680Y-294640D01*
X776880Y-292720D01*
X777640Y-290560D01*
X777920Y-288080D01*
X777920Y-282920D01*
X761360Y-282920D01*
G37*
G36*
X2604700Y-292200D02*
G01*
X2609900Y-292200D01*
X2609900Y-276000D01*
X2594260Y-276000D01*
X2594260Y-281780D01*
X2594540Y-284280D01*
X2595299Y-286420D01*
X2596520Y-288360D01*
X2598120Y-289960D01*
X2600059Y-291180D01*
X2602200Y-291920D01*
G37*
G36*
X1013220Y-270740D02*
G01*
X1019000Y-270740D01*
X1019000Y-255100D01*
X1002800Y-255100D01*
X1002800Y-260300D01*
X1003080Y-262800D01*
X1003820Y-264940D01*
X1005040Y-266880D01*
X1006640Y-268480D01*
X1008580Y-269700D01*
X1010720Y-270460D01*
G37*
G36*
X1041000Y-270740D02*
G01*
X1046780Y-270740D01*
X1049280Y-270460D01*
X1051420Y-269700D01*
X1053360Y-268480D01*
X1054960Y-266880D01*
X1056180Y-264940D01*
X1056920Y-262800D01*
X1057200Y-260300D01*
X1057200Y-255100D01*
X1041000Y-255100D01*
G37*
G36*
X2594260Y-254000D02*
G01*
X2609900Y-254000D01*
X2609900Y-237800D01*
X2604700Y-237800D01*
X2602200Y-238080D01*
X2600059Y-238820D01*
X2598120Y-240040D01*
X2596520Y-241640D01*
X2595299Y-243580D01*
X2594540Y-245720D01*
X2594260Y-248220D01*
G37*
G36*
X632080Y-2080D02*
G01*
X648640Y-2080D01*
X648640Y13500D01*
X642500Y13500D01*
X640020Y13220D01*
X637860Y12480D01*
X635940Y11259D01*
X634320Y9640D01*
X633120Y7720D01*
X632360Y5560D01*
X632080Y3080D01*
G37*
G36*
X671360Y-2080D02*
G01*
X687920Y-2080D01*
X687920Y3080D01*
X687640Y5560D01*
X686880Y7720D01*
X685680Y9640D01*
X684060Y11259D01*
X682140Y12480D01*
X679980Y13220D01*
X677500Y13500D01*
X671360Y13500D01*
G37*
G36*
X1415000Y34380D02*
G01*
X1420720Y34740D01*
X1426339Y35800D01*
X1431800Y37580D01*
X1436980Y40020D01*
X1441819Y43080D01*
X1446240Y46740D01*
X1450160Y50920D01*
X1453520Y55560D01*
X1456279Y60580D01*
X1458400Y65900D01*
X1459820Y71460D01*
X1460540Y77140D01*
X1460540Y82860D01*
X1459820Y88539D01*
X1458400Y94100D01*
X1456279Y99420D01*
X1453520Y104440D01*
X1450160Y109080D01*
X1446240Y113260D01*
X1441819Y116920D01*
X1436980Y119980D01*
X1431800Y122420D01*
X1426339Y124200D01*
X1420720Y125260D01*
X1415000Y125620D01*
X1409280Y125260D01*
X1403660Y124200D01*
X1398200Y122420D01*
X1393020Y119980D01*
X1388180Y116920D01*
X1383760Y113260D01*
X1379840Y109080D01*
X1376480Y104440D01*
X1373720Y99420D01*
X1371600Y94100D01*
X1370180Y88539D01*
X1369460Y82860D01*
X1369460Y77140D01*
X1370180Y71460D01*
X1371600Y65900D01*
X1373720Y60580D01*
X1376480Y55560D01*
X1379840Y50920D01*
X1383760Y46740D01*
X1388180Y43080D01*
X1393020Y40020D01*
X1398200Y37580D01*
X1403660Y35800D01*
X1409280Y34740D01*
G37*
G36*
X2085000Y74380D02*
G01*
X2090720Y74740D01*
X2096339Y75800D01*
X2101800Y77580D01*
X2106980Y80020D01*
X2111820Y83080D01*
X2116240Y86740D01*
X2120160Y90920D01*
X2123520Y95559D01*
X2126280Y100580D01*
X2128400Y105900D01*
X2129820Y111460D01*
X2130540Y117140D01*
X2130540Y122860D01*
X2129820Y128539D01*
X2128400Y134100D01*
X2126280Y139420D01*
X2123520Y144440D01*
X2120160Y149080D01*
X2116240Y153260D01*
X2111820Y156920D01*
X2106980Y159980D01*
X2101800Y162420D01*
X2096339Y164200D01*
X2090720Y165260D01*
X2085000Y165620D01*
X2079280Y165260D01*
X2073660Y164200D01*
X2068200Y162420D01*
X2063020Y159980D01*
X2058180Y156920D01*
X2053760Y153260D01*
X2049840Y149080D01*
X2046480Y144440D01*
X2043720Y139420D01*
X2041600Y134100D01*
X2040180Y128539D01*
X2039460Y122860D01*
X2039460Y117140D01*
X2040180Y111460D01*
X2041600Y105900D01*
X2043720Y100580D01*
X2046480Y95559D01*
X2049840Y90920D01*
X2053760Y86740D01*
X2058180Y83080D01*
X2063020Y80020D01*
X2068200Y77580D01*
X2073660Y75800D01*
X2079280Y74740D01*
G37*
G36*
X-688540Y85180D02*
G01*
X-666080Y85180D01*
X-666080Y96039D01*
X-665780Y97579D01*
X-664900Y98859D01*
X-663620Y99740D01*
X-662080Y100040D01*
X-635560Y100040D01*
X-634020Y99740D01*
X-632720Y98859D01*
X-631860Y97579D01*
X-631560Y96039D01*
X-631560Y85180D01*
X-609080Y85180D01*
X-609080Y86400D01*
X-609360Y88880D01*
X-610120Y91039D01*
X-611340Y92960D01*
X-612940Y94580D01*
X-613700Y95040D01*
X-614860Y96160D01*
X-615480Y97620D01*
X-615480Y99240D01*
X-614860Y100700D01*
X-613700Y101820D01*
X-612940Y102280D01*
X-611340Y103900D01*
X-610120Y105820D01*
X-609360Y107980D01*
X-609080Y110460D01*
X-609080Y125760D01*
X-609360Y128260D01*
X-610120Y130399D01*
X-611340Y132340D01*
X-612940Y133940D01*
X-613700Y134420D01*
X-614860Y135520D01*
X-615480Y137000D01*
X-615480Y138600D01*
X-614860Y140080D01*
X-613700Y141180D01*
X-612940Y141660D01*
X-611340Y143260D01*
X-610120Y145200D01*
X-609360Y147340D01*
X-609080Y149840D01*
X-609080Y165140D01*
X-609360Y167620D01*
X-610120Y169780D01*
X-611340Y171700D01*
X-612940Y173320D01*
X-613700Y173780D01*
X-614860Y174899D01*
X-615480Y176360D01*
X-615480Y177979D01*
X-614860Y179440D01*
X-613700Y180560D01*
X-612940Y181020D01*
X-611340Y182640D01*
X-610120Y184560D01*
X-609360Y186720D01*
X-609080Y189200D01*
X-609080Y204500D01*
X-609360Y207000D01*
X-610120Y209140D01*
X-611340Y211080D01*
X-612940Y212680D01*
X-613700Y213160D01*
X-614860Y214259D01*
X-615480Y215740D01*
X-615480Y217340D01*
X-614860Y218820D01*
X-613700Y219920D01*
X-612940Y220400D01*
X-611340Y222000D01*
X-610120Y223939D01*
X-609360Y226080D01*
X-609080Y228580D01*
X-609080Y243880D01*
X-609360Y246360D01*
X-610120Y248520D01*
X-611340Y250440D01*
X-612940Y252060D01*
X-613700Y252520D01*
X-614860Y253640D01*
X-615480Y255100D01*
X-615480Y256720D01*
X-614860Y258180D01*
X-613700Y259300D01*
X-612940Y259760D01*
X-611340Y261380D01*
X-610120Y263300D01*
X-609360Y265460D01*
X-609080Y267940D01*
X-609080Y283240D01*
X-609360Y285740D01*
X-610120Y287880D01*
X-611340Y289820D01*
X-612940Y291420D01*
X-614880Y292640D01*
X-617020Y293380D01*
X-619520Y293660D01*
X-678120Y293660D01*
X-680600Y293380D01*
X-682760Y292640D01*
X-684680Y291420D01*
X-686300Y289820D01*
X-687520Y287880D01*
X-688259Y285740D01*
X-688540Y283240D01*
X-688540Y267940D01*
X-688259Y265460D01*
X-687520Y263300D01*
X-686300Y261380D01*
X-684680Y259760D01*
X-683940Y259300D01*
X-682780Y258180D01*
X-682159Y256720D01*
X-682159Y255100D01*
X-682780Y253640D01*
X-683940Y252520D01*
X-684680Y252060D01*
X-686300Y250440D01*
X-687520Y248520D01*
X-688259Y246360D01*
X-688540Y243880D01*
X-688540Y228580D01*
X-688259Y226080D01*
X-687520Y223939D01*
X-686300Y222000D01*
X-684680Y220400D01*
X-683940Y219920D01*
X-682780Y218820D01*
X-682159Y217340D01*
X-682159Y215740D01*
X-682780Y214259D01*
X-683940Y213160D01*
X-684680Y212680D01*
X-686300Y211080D01*
X-687520Y209140D01*
X-688259Y207000D01*
X-688540Y204500D01*
X-688540Y189200D01*
X-688259Y186720D01*
X-687520Y184560D01*
X-686300Y182640D01*
X-684680Y181020D01*
X-683940Y180560D01*
X-682780Y179440D01*
X-682159Y177979D01*
X-682159Y176360D01*
X-682780Y174899D01*
X-683940Y173780D01*
X-684680Y173320D01*
X-686300Y171700D01*
X-687520Y169780D01*
X-688259Y167620D01*
X-688540Y165140D01*
X-688540Y149840D01*
X-688259Y147340D01*
X-687520Y145200D01*
X-686300Y143260D01*
X-684680Y141660D01*
X-683940Y141180D01*
X-682780Y140080D01*
X-682159Y138600D01*
X-682159Y137000D01*
X-682780Y135520D01*
X-683940Y134420D01*
X-684680Y133940D01*
X-686300Y132340D01*
X-687520Y130399D01*
X-688259Y128260D01*
X-688540Y125760D01*
X-688540Y110460D01*
X-688259Y107980D01*
X-687520Y105820D01*
X-686300Y103900D01*
X-684680Y102280D01*
X-683940Y101820D01*
X-682780Y100700D01*
X-682159Y99240D01*
X-682159Y97620D01*
X-682780Y96160D01*
X-683940Y95040D01*
X-684680Y94580D01*
X-686300Y92960D01*
X-687520Y91039D01*
X-688259Y88880D01*
X-688540Y86400D01*
G37*
G36*
X2191920Y92080D02*
G01*
X2197080Y92080D01*
X2197080Y108640D01*
X2181500Y108640D01*
X2181500Y102500D01*
X2181780Y100020D01*
X2182520Y97860D01*
X2183740Y95940D01*
X2185360Y94320D01*
X2187280Y93120D01*
X2189440Y92360D01*
G37*
G36*
X2181500Y131360D02*
G01*
X2197080Y131360D01*
X2197080Y147920D01*
X2191920Y147920D01*
X2189440Y147640D01*
X2187280Y146880D01*
X2185360Y145680D01*
X2183740Y144060D01*
X2182520Y142140D01*
X2181780Y139980D01*
X2181500Y137500D01*
G37*
G36*
X-780480Y312640D02*
G01*
X-721880Y312640D01*
X-719380Y312920D01*
X-717240Y313680D01*
X-715300Y314880D01*
X-713700Y316500D01*
X-712480Y318420D01*
X-711720Y320580D01*
X-711440Y323060D01*
X-711440Y401360D01*
X-711720Y403840D01*
X-712480Y406000D01*
X-713700Y407920D01*
X-715300Y409540D01*
X-717240Y410740D01*
X-719380Y411500D01*
X-721880Y411780D01*
X-780480Y411780D01*
X-782960Y411500D01*
X-785120Y410740D01*
X-787039Y409540D01*
X-788660Y407920D01*
X-789880Y406000D01*
X-790620Y403840D01*
X-790900Y401360D01*
X-790900Y323060D01*
X-790620Y320580D01*
X-789880Y318420D01*
X-788660Y316500D01*
X-787039Y314880D01*
X-785120Y313680D01*
X-782960Y312920D01*
G37*

%LPD*%
G36*
X1906920Y-282300D02*
G01*
X1905380Y-282000D01*
X1904079Y-281120D01*
X1827020Y-204060D01*
X1826160Y-202780D01*
X1825860Y-201280D01*
X1826140Y-199760D01*
X1828400Y-194100D01*
X1829820Y-188540D01*
X1830540Y-182860D01*
X1830540Y-177140D01*
X1829820Y-171460D01*
X1828400Y-165900D01*
X1826279Y-160580D01*
X1823520Y-155560D01*
X1820160Y-150920D01*
X1816240Y-146740D01*
X1811819Y-143080D01*
X1806980Y-140020D01*
X1801800Y-137580D01*
X1796339Y-135800D01*
X1790720Y-134740D01*
X1785000Y-134380D01*
X1779280Y-134740D01*
X1773660Y-135800D01*
X1768200Y-137580D01*
X1763020Y-140020D01*
X1758180Y-143080D01*
X1753760Y-146740D01*
X1749840Y-150920D01*
X1746480Y-155560D01*
X1743720Y-160580D01*
X1741600Y-165900D01*
X1740180Y-171460D01*
X1739460Y-177140D01*
X1739460Y-182860D01*
X1740180Y-188540D01*
X1741600Y-194100D01*
X1742860Y-197240D01*
X1743140Y-198760D01*
X1742820Y-200260D01*
X1741960Y-201540D01*
X1677320Y-266180D01*
X1676020Y-267060D01*
X1674480Y-267360D01*
X1571459Y-267360D01*
X1569860Y-267020D01*
X1568520Y-266080D01*
X1567680Y-264680D01*
X1566879Y-262400D01*
X1565680Y-260460D01*
X1564060Y-258860D01*
X1563320Y-258380D01*
X1562160Y-257280D01*
X1561519Y-255799D01*
X1561519Y-254200D01*
X1562160Y-252719D01*
X1563320Y-251620D01*
X1564060Y-251140D01*
X1565680Y-249540D01*
X1566879Y-247600D01*
X1567640Y-245460D01*
X1567920Y-242960D01*
X1567920Y-237820D01*
X1551360Y-237820D01*
X1551360Y-252600D01*
X1551060Y-254140D01*
X1550180Y-255440D01*
X1548880Y-256300D01*
X1547360Y-256600D01*
X1532640Y-256600D01*
X1531120Y-256300D01*
X1529820Y-255440D01*
X1528940Y-254140D01*
X1528640Y-252600D01*
X1528640Y-237820D01*
X1512080Y-237820D01*
X1512080Y-242960D01*
X1512360Y-245460D01*
X1513120Y-247600D01*
X1514319Y-249540D01*
X1515940Y-251140D01*
X1516680Y-251620D01*
X1517840Y-252719D01*
X1518480Y-254200D01*
X1518480Y-255799D01*
X1517840Y-257280D01*
X1516680Y-258380D01*
X1515940Y-258860D01*
X1514319Y-260460D01*
X1513120Y-262400D01*
X1512320Y-264680D01*
X1511480Y-266080D01*
X1510140Y-267020D01*
X1508540Y-267360D01*
X1439120Y-267360D01*
X1437460Y-267000D01*
X1436100Y-265980D01*
X1435280Y-264480D01*
X1435160Y-262780D01*
X1435760Y-261180D01*
X1436980Y-259980D01*
X1441819Y-256920D01*
X1446240Y-253260D01*
X1450160Y-249080D01*
X1453520Y-244440D01*
X1456279Y-239420D01*
X1458400Y-234100D01*
X1459820Y-228540D01*
X1460540Y-222860D01*
X1460540Y-217140D01*
X1459820Y-211460D01*
X1458400Y-205900D01*
X1456279Y-200580D01*
X1453520Y-195560D01*
X1450160Y-190920D01*
X1446240Y-186740D01*
X1441819Y-183080D01*
X1436980Y-180020D01*
X1431800Y-177580D01*
X1426339Y-175799D01*
X1420720Y-174740D01*
X1415000Y-174380D01*
X1409280Y-174740D01*
X1403660Y-175799D01*
X1398200Y-177580D01*
X1393020Y-180020D01*
X1388180Y-183080D01*
X1383760Y-186740D01*
X1379840Y-190920D01*
X1376480Y-195560D01*
X1373720Y-200580D01*
X1371600Y-205900D01*
X1370180Y-211460D01*
X1369460Y-217140D01*
X1369460Y-222860D01*
X1370180Y-228540D01*
X1371600Y-234100D01*
X1373720Y-239420D01*
X1376480Y-244440D01*
X1379840Y-249080D01*
X1383760Y-253260D01*
X1388180Y-256920D01*
X1393020Y-259980D01*
X1394240Y-261180D01*
X1394840Y-262780D01*
X1394720Y-264480D01*
X1393899Y-265980D01*
X1392540Y-267000D01*
X1390880Y-267360D01*
X1185520Y-267360D01*
X1183980Y-267060D01*
X1182680Y-266180D01*
X1158040Y-241540D01*
X1157180Y-240260D01*
X1156860Y-238760D01*
X1157140Y-237240D01*
X1158400Y-234100D01*
X1159820Y-228540D01*
X1160540Y-222860D01*
X1160540Y-217140D01*
X1159820Y-211460D01*
X1158400Y-205900D01*
X1156280Y-200580D01*
X1153520Y-195560D01*
X1150160Y-190920D01*
X1146240Y-186740D01*
X1141820Y-183080D01*
X1136980Y-180020D01*
X1131800Y-177580D01*
X1126340Y-175799D01*
X1120720Y-174740D01*
X1115000Y-174380D01*
X1109280Y-174740D01*
X1103660Y-175799D01*
X1098200Y-177580D01*
X1094720Y-179220D01*
X1093180Y-179600D01*
X1091620Y-179340D01*
X1090260Y-178500D01*
X1089360Y-177200D01*
X1089020Y-175660D01*
X1089320Y-174100D01*
X1090200Y-172760D01*
X1098240Y-164720D01*
X1099440Y-163900D01*
X1100860Y-163560D01*
X1102300Y-163760D01*
X1103660Y-164200D01*
X1109280Y-165260D01*
X1115000Y-165620D01*
X1120720Y-165260D01*
X1126340Y-164200D01*
X1131800Y-162420D01*
X1136980Y-159980D01*
X1141820Y-156920D01*
X1146240Y-153260D01*
X1150160Y-149080D01*
X1153520Y-144440D01*
X1156280Y-139420D01*
X1158400Y-134100D01*
X1159820Y-128539D01*
X1160540Y-122860D01*
X1160540Y-117140D01*
X1159820Y-111460D01*
X1158400Y-105900D01*
X1156280Y-100580D01*
X1153520Y-95559D01*
X1150160Y-90920D01*
X1146240Y-86740D01*
X1141820Y-83080D01*
X1136980Y-80020D01*
X1131800Y-77580D01*
X1126340Y-75800D01*
X1120720Y-74740D01*
X1115000Y-74380D01*
X1109280Y-74740D01*
X1103660Y-75800D01*
X1098200Y-77580D01*
X1093020Y-80020D01*
X1088180Y-83080D01*
X1083760Y-86740D01*
X1079840Y-90920D01*
X1076480Y-95559D01*
X1073900Y-100220D01*
X1073020Y-101320D01*
X1071800Y-102040D01*
X1070400Y-102300D01*
X1022500Y-102300D01*
X1020980Y-102000D01*
X1019680Y-101120D01*
X1018800Y-99840D01*
X1018500Y-98300D01*
X1018500Y-97500D01*
X1018220Y-95020D01*
X1017480Y-92860D01*
X1016260Y-90940D01*
X1014640Y-89320D01*
X1012720Y-88120D01*
X1010560Y-87360D01*
X1008080Y-87080D01*
X977039Y-87080D01*
X974539Y-87360D01*
X972400Y-88120D01*
X970460Y-89320D01*
X968860Y-90940D01*
X968379Y-91679D01*
X967280Y-92840D01*
X965800Y-93480D01*
X964200Y-93480D01*
X962720Y-92840D01*
X961620Y-91679D01*
X961140Y-90940D01*
X959539Y-89320D01*
X957600Y-88120D01*
X955460Y-87360D01*
X953700Y-87160D01*
X952300Y-86740D01*
X951160Y-85860D01*
X950400Y-84620D01*
X950140Y-83200D01*
X950140Y-50880D01*
X950480Y-49260D01*
X951460Y-47920D01*
X952880Y-47080D01*
X955660Y-46160D01*
X957560Y-44960D01*
X959180Y-43360D01*
X960380Y-41420D01*
X961220Y-39040D01*
X962060Y-37640D01*
X963400Y-36680D01*
X965000Y-36360D01*
X966600Y-36680D01*
X967940Y-37640D01*
X968780Y-39040D01*
X969620Y-41420D01*
X970819Y-43360D01*
X972440Y-44960D01*
X974360Y-46180D01*
X976520Y-46920D01*
X979000Y-47200D01*
X1010300Y-47200D01*
X1012800Y-46920D01*
X1014940Y-46180D01*
X1016880Y-44960D01*
X1018480Y-43360D01*
X1019700Y-41420D01*
X1020440Y-39300D01*
X1020759Y-36300D01*
X1021160Y-34900D01*
X1022060Y-33740D01*
X1023300Y-32960D01*
X1024740Y-32700D01*
X1068340Y-32700D01*
X1069880Y-33020D01*
X1071200Y-33900D01*
X1072060Y-35220D01*
X1073720Y-39420D01*
X1076480Y-44440D01*
X1079840Y-49080D01*
X1083760Y-53259D01*
X1088180Y-56920D01*
X1093020Y-59980D01*
X1098200Y-62420D01*
X1103660Y-64200D01*
X1109280Y-65260D01*
X1115000Y-65620D01*
X1120720Y-65260D01*
X1126340Y-64200D01*
X1131800Y-62420D01*
X1136980Y-59980D01*
X1141820Y-56920D01*
X1146240Y-53259D01*
X1150160Y-49080D01*
X1153520Y-44440D01*
X1156280Y-39420D01*
X1157940Y-35220D01*
X1158800Y-33900D01*
X1160120Y-33020D01*
X1161660Y-32700D01*
X1308080Y-32700D01*
X1309620Y-33000D01*
X1310920Y-33880D01*
X1372980Y-95940D01*
X1373839Y-97220D01*
X1374139Y-98720D01*
X1373860Y-100239D01*
X1371600Y-105900D01*
X1370180Y-111460D01*
X1369460Y-117140D01*
X1369460Y-122860D01*
X1370180Y-128539D01*
X1371600Y-134100D01*
X1373720Y-139420D01*
X1376480Y-144440D01*
X1379840Y-149080D01*
X1383760Y-153260D01*
X1388180Y-156920D01*
X1393020Y-159980D01*
X1398200Y-162420D01*
X1403660Y-164200D01*
X1409280Y-165260D01*
X1415000Y-165620D01*
X1420720Y-165260D01*
X1426339Y-164200D01*
X1431800Y-162420D01*
X1436980Y-159980D01*
X1441819Y-156920D01*
X1446240Y-153260D01*
X1450160Y-149080D01*
X1453520Y-144440D01*
X1456279Y-139420D01*
X1458400Y-134100D01*
X1459820Y-128539D01*
X1460540Y-122860D01*
X1460540Y-117140D01*
X1459820Y-111460D01*
X1458400Y-105900D01*
X1456279Y-100580D01*
X1453520Y-95559D01*
X1450160Y-90920D01*
X1446240Y-86740D01*
X1441819Y-83080D01*
X1436980Y-80020D01*
X1431800Y-77580D01*
X1426339Y-75800D01*
X1420720Y-74740D01*
X1415000Y-74380D01*
X1409280Y-74740D01*
X1403660Y-75800D01*
X1398200Y-77580D01*
X1395540Y-78840D01*
X1393959Y-79220D01*
X1392360Y-78940D01*
X1391000Y-78040D01*
X1324120Y-11160D01*
X1321900Y-9360D01*
X1319540Y-8159D01*
X1316940Y-7460D01*
X1314840Y-7300D01*
X1161660Y-7300D01*
X1160120Y-6979D01*
X1158800Y-6100D01*
X1157940Y-4780D01*
X1156280Y-580D01*
X1153520Y4440D01*
X1150620Y8440D01*
X1149920Y10060D01*
X1149980Y11800D01*
X1150760Y13340D01*
X1152140Y14420D01*
X1153860Y14800D01*
X1357040Y14800D01*
X1358580Y14500D01*
X1359880Y13620D01*
X1371960Y1540D01*
X1372820Y260D01*
X1373140Y-1240D01*
X1372860Y-2760D01*
X1371600Y-5900D01*
X1370180Y-11459D01*
X1369460Y-17140D01*
X1369460Y-22860D01*
X1370180Y-28540D01*
X1371600Y-34100D01*
X1373720Y-39420D01*
X1376480Y-44440D01*
X1379840Y-49080D01*
X1383760Y-53259D01*
X1388180Y-56920D01*
X1393020Y-59980D01*
X1398200Y-62420D01*
X1403660Y-64200D01*
X1409280Y-65260D01*
X1415000Y-65620D01*
X1420720Y-65260D01*
X1426339Y-64200D01*
X1431800Y-62420D01*
X1436980Y-59980D01*
X1441819Y-56920D01*
X1446240Y-53259D01*
X1450160Y-49080D01*
X1453520Y-44440D01*
X1456279Y-39420D01*
X1457920Y-35280D01*
X1458660Y-34080D01*
X1459760Y-33220D01*
X1460880Y-32620D01*
X1463320Y-30600D01*
X1515580Y21640D01*
X1516879Y22519D01*
X1518420Y22820D01*
X1528640Y22820D01*
X1528640Y33040D01*
X1528940Y34580D01*
X1529820Y35880D01*
X1534379Y40439D01*
X1535660Y41300D01*
X1537200Y41600D01*
X1547360Y41600D01*
X1548880Y41300D01*
X1550180Y40439D01*
X1551060Y39140D01*
X1551360Y37600D01*
X1551360Y22820D01*
X1567920Y22820D01*
X1567920Y27960D01*
X1567640Y30460D01*
X1566879Y32599D01*
X1565680Y34540D01*
X1564060Y36140D01*
X1563320Y36620D01*
X1562160Y37720D01*
X1561519Y39200D01*
X1561519Y40800D01*
X1562160Y42280D01*
X1563320Y43380D01*
X1564060Y43860D01*
X1565680Y45460D01*
X1566879Y47400D01*
X1567680Y49680D01*
X1568520Y51080D01*
X1569860Y52020D01*
X1571459Y52360D01*
X1744379Y52360D01*
X1746080Y51980D01*
X1747460Y50920D01*
X1748260Y49360D01*
X1748300Y47619D01*
X1747620Y46000D01*
X1746480Y44440D01*
X1743720Y39420D01*
X1741600Y34100D01*
X1740180Y28540D01*
X1739460Y22860D01*
X1739460Y17140D01*
X1740180Y11459D01*
X1741600Y5900D01*
X1743720Y580D01*
X1746480Y-4440D01*
X1749840Y-9080D01*
X1753760Y-13260D01*
X1758180Y-16920D01*
X1763020Y-19980D01*
X1768200Y-22420D01*
X1773660Y-24200D01*
X1779280Y-25259D01*
X1785000Y-25620D01*
X1790720Y-25259D01*
X1796339Y-24200D01*
X1801800Y-22420D01*
X1806980Y-19980D01*
X1811819Y-16920D01*
X1816240Y-13260D01*
X1820160Y-9080D01*
X1823520Y-4440D01*
X1826279Y580D01*
X1827940Y4780D01*
X1828800Y6100D01*
X1830120Y6979D01*
X1831660Y7300D01*
X1978080Y7300D01*
X1979620Y7000D01*
X1980920Y6120D01*
X2042980Y-55940D01*
X2043839Y-57220D01*
X2044139Y-58720D01*
X2043860Y-60240D01*
X2041600Y-65900D01*
X2040180Y-71460D01*
X2039460Y-77140D01*
X2039460Y-82860D01*
X2040180Y-88539D01*
X2041600Y-94100D01*
X2043720Y-99420D01*
X2046480Y-104440D01*
X2049840Y-109080D01*
X2053760Y-113260D01*
X2058180Y-116920D01*
X2063020Y-119980D01*
X2068200Y-122420D01*
X2073660Y-124200D01*
X2079280Y-125260D01*
X2085000Y-125620D01*
X2090720Y-125260D01*
X2096339Y-124200D01*
X2101800Y-122420D01*
X2106980Y-119980D01*
X2111820Y-116920D01*
X2116240Y-113260D01*
X2120160Y-109080D01*
X2123520Y-104440D01*
X2126280Y-99420D01*
X2126980Y-97660D01*
X2127840Y-96340D01*
X2129140Y-95460D01*
X2130700Y-95140D01*
X2163200Y-95140D01*
X2164620Y-95399D01*
X2165860Y-96160D01*
X2166740Y-97300D01*
X2167160Y-98699D01*
X2167360Y-100460D01*
X2168120Y-102600D01*
X2169320Y-104540D01*
X2170940Y-106140D01*
X2171680Y-106620D01*
X2172840Y-107720D01*
X2173480Y-109200D01*
X2173480Y-110800D01*
X2172840Y-112280D01*
X2171680Y-113379D01*
X2170940Y-113859D01*
X2169320Y-115460D01*
X2168120Y-117400D01*
X2167360Y-119540D01*
X2167080Y-122040D01*
X2167080Y-145860D01*
X2166780Y-147380D01*
X2165920Y-148680D01*
X2137080Y-177520D01*
X2135580Y-178460D01*
X2133840Y-178660D01*
X2132160Y-178080D01*
X2130900Y-176840D01*
X2130280Y-175180D01*
X2129820Y-171460D01*
X2128400Y-165900D01*
X2126280Y-160580D01*
X2123520Y-155560D01*
X2120160Y-150920D01*
X2116240Y-146740D01*
X2111820Y-143080D01*
X2106980Y-140020D01*
X2101800Y-137580D01*
X2096339Y-135800D01*
X2090720Y-134740D01*
X2085000Y-134380D01*
X2079280Y-134740D01*
X2073660Y-135800D01*
X2068200Y-137580D01*
X2063020Y-140020D01*
X2058180Y-143080D01*
X2053760Y-146740D01*
X2049840Y-150920D01*
X2046480Y-155560D01*
X2043720Y-160580D01*
X2041600Y-165900D01*
X2040180Y-171460D01*
X2039460Y-177140D01*
X2039460Y-182860D01*
X2040180Y-188540D01*
X2041600Y-194100D01*
X2043720Y-199420D01*
X2046480Y-204440D01*
X2049840Y-209080D01*
X2053760Y-213260D01*
X2058180Y-216920D01*
X2064660Y-221080D01*
X2065460Y-222380D01*
X2065720Y-223900D01*
X2065380Y-225400D01*
X2064520Y-226660D01*
X2063220Y-227500D01*
X2061720Y-227800D01*
X2049000Y-227800D01*
X2046519Y-228080D01*
X2044360Y-228820D01*
X2042440Y-230040D01*
X2040820Y-231640D01*
X2039620Y-233580D01*
X2038779Y-235960D01*
X2037940Y-237360D01*
X2036600Y-238320D01*
X2035000Y-238640D01*
X2033400Y-238320D01*
X2032060Y-237360D01*
X2031220Y-235960D01*
X2030380Y-233580D01*
X2029180Y-231640D01*
X2027560Y-230040D01*
X2025640Y-228820D01*
X2023480Y-228080D01*
X2021000Y-227800D01*
X1989700Y-227800D01*
X1987200Y-228080D01*
X1985060Y-228820D01*
X1983120Y-230040D01*
X1981519Y-231640D01*
X1980300Y-233580D01*
X1979560Y-235700D01*
X1979240Y-238700D01*
X1978839Y-240100D01*
X1977940Y-241260D01*
X1976699Y-242040D01*
X1975260Y-242300D01*
X1966920Y-242300D01*
X1965380Y-242000D01*
X1964079Y-241119D01*
X1827020Y-104060D01*
X1826160Y-102780D01*
X1825860Y-101280D01*
X1826140Y-99760D01*
X1828400Y-94100D01*
X1829820Y-88539D01*
X1830540Y-82860D01*
X1830540Y-77140D01*
X1829820Y-71460D01*
X1828400Y-65900D01*
X1826279Y-60580D01*
X1823520Y-55560D01*
X1820160Y-50920D01*
X1816240Y-46740D01*
X1811819Y-43080D01*
X1806980Y-40020D01*
X1801800Y-37580D01*
X1796339Y-35800D01*
X1790720Y-34740D01*
X1785000Y-34380D01*
X1779280Y-34740D01*
X1773660Y-35800D01*
X1768200Y-37580D01*
X1763020Y-40020D01*
X1758180Y-43080D01*
X1753760Y-46740D01*
X1749840Y-50920D01*
X1746480Y-55560D01*
X1743720Y-60580D01*
X1742060Y-64780D01*
X1741200Y-66100D01*
X1739880Y-66980D01*
X1738340Y-67300D01*
X1702500Y-67300D01*
X1700980Y-67000D01*
X1699680Y-66120D01*
X1698800Y-64840D01*
X1698500Y-63300D01*
X1698500Y-62500D01*
X1698220Y-60020D01*
X1697480Y-57859D01*
X1696260Y-55940D01*
X1694640Y-54320D01*
X1692720Y-53120D01*
X1690560Y-52360D01*
X1688080Y-52080D01*
X1657040Y-52080D01*
X1654540Y-52360D01*
X1652400Y-53120D01*
X1650460Y-54320D01*
X1648860Y-55940D01*
X1648380Y-56680D01*
X1647280Y-57840D01*
X1645800Y-58480D01*
X1644199Y-58480D01*
X1642720Y-57840D01*
X1641620Y-56680D01*
X1641140Y-55940D01*
X1639540Y-54320D01*
X1637600Y-53120D01*
X1635460Y-52360D01*
X1632960Y-52080D01*
X1627820Y-52080D01*
X1627820Y-68640D01*
X1642600Y-68640D01*
X1644139Y-68940D01*
X1645440Y-69820D01*
X1646300Y-71120D01*
X1646600Y-72640D01*
X1646600Y-87360D01*
X1646300Y-88880D01*
X1645440Y-90180D01*
X1644139Y-91060D01*
X1642600Y-91359D01*
X1627820Y-91359D01*
X1627820Y-107920D01*
X1632960Y-107920D01*
X1635460Y-107640D01*
X1637600Y-106880D01*
X1639540Y-105680D01*
X1641140Y-104060D01*
X1641620Y-103320D01*
X1642720Y-102160D01*
X1644199Y-101519D01*
X1645800Y-101519D01*
X1647280Y-102160D01*
X1648380Y-103320D01*
X1648860Y-104060D01*
X1650460Y-105680D01*
X1652400Y-106880D01*
X1654540Y-107640D01*
X1657040Y-107920D01*
X1688080Y-107920D01*
X1690560Y-107640D01*
X1692720Y-106880D01*
X1694640Y-105680D01*
X1696260Y-104060D01*
X1697480Y-102140D01*
X1698220Y-99980D01*
X1698500Y-97500D01*
X1698500Y-96700D01*
X1698800Y-95160D01*
X1699680Y-93880D01*
X1700980Y-93000D01*
X1702500Y-92700D01*
X1738340Y-92700D01*
X1739880Y-93020D01*
X1741200Y-93900D01*
X1742060Y-95220D01*
X1743720Y-99420D01*
X1746480Y-104440D01*
X1749840Y-109080D01*
X1753760Y-113260D01*
X1758180Y-116920D01*
X1763020Y-119980D01*
X1768200Y-122420D01*
X1773660Y-124200D01*
X1779280Y-125260D01*
X1785000Y-125620D01*
X1790720Y-125260D01*
X1796339Y-124200D01*
X1801800Y-122420D01*
X1804460Y-121160D01*
X1806040Y-120780D01*
X1807640Y-121060D01*
X1809000Y-121960D01*
X1950880Y-263840D01*
X1953100Y-265640D01*
X1955460Y-266840D01*
X1958060Y-267540D01*
X1960160Y-267700D01*
X1975260Y-267700D01*
X1976699Y-267960D01*
X1977940Y-268740D01*
X1978839Y-269900D01*
X1979240Y-271300D01*
X1979560Y-274300D01*
X1980720Y-277760D01*
X1980580Y-279460D01*
X1979780Y-280940D01*
X1978420Y-281940D01*
X1976759Y-282300D01*
G37*

%LPC*%
G36*
X1512080Y-217079D02*
G01*
X1528640Y-217079D01*
X1528640Y-201500D01*
X1522500Y-201500D01*
X1520020Y-201780D01*
X1517860Y-202520D01*
X1515940Y-203740D01*
X1514319Y-205360D01*
X1513120Y-207280D01*
X1512360Y-209440D01*
X1512080Y-211920D01*
G37*
G36*
X1551360Y-217079D02*
G01*
X1567920Y-217079D01*
X1567920Y-211920D01*
X1567640Y-209440D01*
X1566879Y-207280D01*
X1565680Y-205360D01*
X1564060Y-203740D01*
X1562140Y-202520D01*
X1559980Y-201780D01*
X1557500Y-201500D01*
X1551360Y-201500D01*
G37*
G36*
X1601920Y-107920D02*
G01*
X1607080Y-107920D01*
X1607080Y-91359D01*
X1591500Y-91359D01*
X1591500Y-97500D01*
X1591780Y-99980D01*
X1592520Y-102140D01*
X1593740Y-104060D01*
X1595360Y-105680D01*
X1597280Y-106880D01*
X1599440Y-107640D01*
G37*
G36*
X1591500Y-68640D02*
G01*
X1607080Y-68640D01*
X1607080Y-52080D01*
X1601920Y-52080D01*
X1599440Y-52360D01*
X1597280Y-53120D01*
X1595360Y-54320D01*
X1593740Y-55940D01*
X1592520Y-57859D01*
X1591780Y-60020D01*
X1591500Y-62500D01*
G37*
G36*
X1551360Y-13500D02*
G01*
X1557500Y-13500D01*
X1559980Y-13220D01*
X1562140Y-12480D01*
X1564060Y-11259D01*
X1565680Y-9640D01*
X1566879Y-7720D01*
X1567640Y-5560D01*
X1567920Y-3080D01*
X1567920Y2080D01*
X1551360Y2080D01*
G37*
G36*
X1522500Y-13500D02*
G01*
X1528640Y-13500D01*
X1528640Y2080D01*
X1512080Y2080D01*
X1512080Y-3080D01*
X1512360Y-5560D01*
X1513120Y-7720D01*
X1514319Y-9640D01*
X1515940Y-11259D01*
X1517860Y-12480D01*
X1520020Y-13220D01*
G37*

%LPD*%
G36*
X514200Y-2489800D02*
G01*
X512660Y-2489500D01*
X511380Y-2488620D01*
X510500Y-2487340D01*
X510200Y-2485800D01*
X510200Y-1214200D01*
X510500Y-1212660D01*
X511380Y-1211380D01*
X512660Y-1210500D01*
X514200Y-1210200D01*
X3285800Y-1210200D01*
X3287340Y-1210500D01*
X3288620Y-1211380D01*
X3289500Y-1212660D01*
X3289800Y-1214200D01*
X3289800Y-2485800D01*
X3289500Y-2487340D01*
X3288620Y-2488620D01*
X3287340Y-2489500D01*
X3285800Y-2489800D01*
G37*

%LPC*%
G36*
X2872500Y-2408500D02*
G01*
X2878639Y-2408500D01*
X2878639Y-2392920D01*
X2862080Y-2392920D01*
X2862080Y-2398080D01*
X2862360Y-2400560D01*
X2863120Y-2402720D01*
X2864320Y-2404640D01*
X2865940Y-2406260D01*
X2867860Y-2407480D01*
X2870020Y-2408220D01*
G37*
G36*
X2901360Y-2408500D02*
G01*
X2907500Y-2408500D01*
X2909980Y-2408220D01*
X2912140Y-2407480D01*
X2914060Y-2406260D01*
X2915680Y-2404640D01*
X2916880Y-2402720D01*
X2917640Y-2400560D01*
X2917919Y-2398080D01*
X2917919Y-2392920D01*
X2901360Y-2392920D01*
G37*
G36*
X2554220Y-2391200D02*
G01*
X2615779Y-2391200D01*
X2618260Y-2390920D01*
X2620419Y-2390160D01*
X2622340Y-2388960D01*
X2623960Y-2387340D01*
X2625160Y-2385420D01*
X2625920Y-2383260D01*
X2626200Y-2380780D01*
X2626200Y-2328420D01*
X2626500Y-2326880D01*
X2627380Y-2325580D01*
X2723740Y-2229220D01*
X2725460Y-2227100D01*
X2726540Y-2226160D01*
X2727880Y-2225680D01*
X2729300Y-2225680D01*
X2730640Y-2226180D01*
X2732980Y-2227600D01*
X2734020Y-2228480D01*
X2734680Y-2229680D01*
X2734920Y-2231020D01*
X2734920Y-2252960D01*
X2735200Y-2255460D01*
X2735960Y-2257600D01*
X2737160Y-2259540D01*
X2738780Y-2261140D01*
X2740700Y-2262360D01*
X2742860Y-2263100D01*
X2745340Y-2263380D01*
X2755920Y-2263380D01*
X2758399Y-2263100D01*
X2760480Y-2262620D01*
X2762540Y-2263100D01*
X2765020Y-2263380D01*
X2775600Y-2263380D01*
X2778100Y-2263100D01*
X2780160Y-2262620D01*
X2782220Y-2263100D01*
X2784720Y-2263380D01*
X2793159Y-2263380D01*
X2794680Y-2263700D01*
X2795980Y-2264560D01*
X2796860Y-2265840D01*
X2797160Y-2267360D01*
X2797180Y-2269340D01*
X2796820Y-2271000D01*
X2795820Y-2272380D01*
X2793620Y-2274300D01*
X2791200Y-2277300D01*
X2789320Y-2280660D01*
X2788039Y-2284280D01*
X2787400Y-2288080D01*
X2787400Y-2291920D01*
X2788039Y-2295720D01*
X2789320Y-2299340D01*
X2791200Y-2302700D01*
X2793620Y-2305700D01*
X2796520Y-2308240D01*
X2799780Y-2310260D01*
X2803360Y-2311700D01*
X2807120Y-2312500D01*
X2810960Y-2312660D01*
X2814780Y-2312180D01*
X2818460Y-2311040D01*
X2821900Y-2309320D01*
X2824980Y-2307020D01*
X2827660Y-2304260D01*
X2829800Y-2301060D01*
X2831380Y-2297560D01*
X2832360Y-2293840D01*
X2832679Y-2290000D01*
X2832360Y-2286160D01*
X2831380Y-2282440D01*
X2829800Y-2278940D01*
X2827660Y-2275740D01*
X2824980Y-2272980D01*
X2823340Y-2271500D01*
X2822780Y-2270420D01*
X2822580Y-2269200D01*
X2822559Y-2267420D01*
X2822860Y-2265880D01*
X2823720Y-2264560D01*
X2825020Y-2263700D01*
X2826560Y-2263380D01*
X2829500Y-2263380D01*
X2831040Y-2263700D01*
X2832340Y-2264560D01*
X2836220Y-2268440D01*
X2837100Y-2269740D01*
X2838039Y-2275720D01*
X2839320Y-2279340D01*
X2841200Y-2282700D01*
X2843620Y-2285700D01*
X2846520Y-2288240D01*
X2849780Y-2290260D01*
X2853360Y-2291700D01*
X2857120Y-2292500D01*
X2859620Y-2292600D01*
X2861060Y-2292940D01*
X2862280Y-2293780D01*
X2866259Y-2297760D01*
X2867140Y-2299060D01*
X2867440Y-2300600D01*
X2867140Y-2302120D01*
X2866259Y-2303420D01*
X2864320Y-2305360D01*
X2863120Y-2307280D01*
X2862360Y-2309440D01*
X2862080Y-2311920D01*
X2862080Y-2342960D01*
X2862360Y-2345460D01*
X2863120Y-2347600D01*
X2864320Y-2349540D01*
X2865940Y-2351140D01*
X2866680Y-2351620D01*
X2867840Y-2352720D01*
X2868480Y-2354200D01*
X2868480Y-2355800D01*
X2867840Y-2357280D01*
X2866680Y-2358380D01*
X2865940Y-2358860D01*
X2864320Y-2360460D01*
X2863120Y-2362400D01*
X2862360Y-2364540D01*
X2862080Y-2367040D01*
X2862080Y-2372180D01*
X2878639Y-2372180D01*
X2878639Y-2357400D01*
X2878940Y-2355860D01*
X2879820Y-2354560D01*
X2881120Y-2353700D01*
X2882640Y-2353400D01*
X2897360Y-2353400D01*
X2898880Y-2353700D01*
X2900179Y-2354560D01*
X2901060Y-2355860D01*
X2901360Y-2357400D01*
X2901360Y-2372180D01*
X2917919Y-2372180D01*
X2917919Y-2367040D01*
X2917640Y-2364540D01*
X2916880Y-2362400D01*
X2915680Y-2360460D01*
X2914060Y-2358860D01*
X2913320Y-2358380D01*
X2912160Y-2357280D01*
X2911520Y-2355800D01*
X2911520Y-2354200D01*
X2912160Y-2352720D01*
X2913320Y-2351620D01*
X2914060Y-2351140D01*
X2915680Y-2349540D01*
X2916880Y-2347600D01*
X2917640Y-2345460D01*
X2917919Y-2342960D01*
X2917919Y-2311920D01*
X2917640Y-2309440D01*
X2916880Y-2307280D01*
X2915680Y-2305360D01*
X2914060Y-2303740D01*
X2912140Y-2302520D01*
X2909980Y-2301780D01*
X2908519Y-2301620D01*
X2907220Y-2301240D01*
X2906120Y-2300440D01*
X2905340Y-2299340D01*
X2904980Y-2298040D01*
X2904880Y-2297040D01*
X2904020Y-2294200D01*
X2902620Y-2291560D01*
X2900600Y-2289120D01*
X2883820Y-2272340D01*
X2883039Y-2271200D01*
X2882679Y-2269840D01*
X2882360Y-2266160D01*
X2881380Y-2262440D01*
X2879800Y-2258940D01*
X2877660Y-2255740D01*
X2874980Y-2252980D01*
X2871900Y-2250680D01*
X2868460Y-2248960D01*
X2864780Y-2247820D01*
X2860960Y-2247340D01*
X2859980Y-2247380D01*
X2858360Y-2247100D01*
X2856980Y-2246200D01*
X2846259Y-2235480D01*
X2845380Y-2234180D01*
X2845080Y-2232660D01*
X2845080Y-2231020D01*
X2845320Y-2229680D01*
X2845980Y-2228500D01*
X2847000Y-2227600D01*
X2849520Y-2226080D01*
X2851080Y-2224520D01*
X2852600Y-2222000D01*
X2853500Y-2220980D01*
X2854680Y-2220320D01*
X2856019Y-2220080D01*
X2877960Y-2220080D01*
X2880460Y-2219800D01*
X2882600Y-2219040D01*
X2884540Y-2217840D01*
X2886139Y-2216220D01*
X2887360Y-2214300D01*
X2887580Y-2213660D01*
X2888399Y-2212280D01*
X2889700Y-2211340D01*
X2891259Y-2210980D01*
X2892840Y-2211260D01*
X2894180Y-2212140D01*
X2921120Y-2239080D01*
X2922000Y-2240380D01*
X2922300Y-2241920D01*
X2922300Y-2289800D01*
X2922600Y-2292640D01*
X2923420Y-2295160D01*
X2924760Y-2297500D01*
X2926139Y-2299100D01*
X2937620Y-2310580D01*
X2938500Y-2311880D01*
X2938800Y-2313420D01*
X2938800Y-2365780D01*
X2939080Y-2368260D01*
X2939840Y-2370420D01*
X2941040Y-2372340D01*
X2942660Y-2373960D01*
X2944580Y-2375160D01*
X2946740Y-2375920D01*
X2949220Y-2376200D01*
X3010779Y-2376200D01*
X3013260Y-2375920D01*
X3015419Y-2375160D01*
X3017340Y-2373960D01*
X3018960Y-2372340D01*
X3020160Y-2370420D01*
X3020920Y-2368260D01*
X3021200Y-2365780D01*
X3021200Y-2304220D01*
X3020920Y-2301740D01*
X3020160Y-2299580D01*
X3018960Y-2297660D01*
X3017340Y-2296040D01*
X3015419Y-2294840D01*
X3013260Y-2294080D01*
X3010779Y-2293800D01*
X2958420Y-2293800D01*
X2956880Y-2293500D01*
X2955580Y-2292620D01*
X2948880Y-2285920D01*
X2948000Y-2284620D01*
X2947700Y-2283080D01*
X2947700Y-2270200D01*
X2948000Y-2268660D01*
X2948880Y-2267380D01*
X2950160Y-2266500D01*
X2951700Y-2266200D01*
X3010779Y-2266200D01*
X3013260Y-2265920D01*
X3015419Y-2265160D01*
X3017340Y-2263960D01*
X3018960Y-2262340D01*
X3020160Y-2260420D01*
X3020920Y-2258260D01*
X3021200Y-2255780D01*
X3021200Y-2194220D01*
X3020920Y-2191740D01*
X3020160Y-2189580D01*
X3018960Y-2187660D01*
X3017340Y-2186040D01*
X3015419Y-2184840D01*
X3013260Y-2184080D01*
X3010779Y-2183800D01*
X2949220Y-2183800D01*
X2946740Y-2184080D01*
X2944580Y-2184840D01*
X2943120Y-2185760D01*
X2941880Y-2186260D01*
X2940539Y-2186340D01*
X2939260Y-2185980D01*
X2938159Y-2185200D01*
X2910779Y-2157820D01*
X2909920Y-2156540D01*
X2909620Y-2155000D01*
X2909920Y-2153460D01*
X2910779Y-2152180D01*
X2931980Y-2130980D01*
X2933260Y-2130120D01*
X2934800Y-2129820D01*
X2936340Y-2130120D01*
X2937620Y-2130980D01*
X2938500Y-2132280D01*
X2938800Y-2133820D01*
X2938800Y-2145780D01*
X2939080Y-2148260D01*
X2939840Y-2150420D01*
X2941040Y-2152340D01*
X2942660Y-2153960D01*
X2944580Y-2155160D01*
X2946740Y-2155920D01*
X2949220Y-2156200D01*
X3010779Y-2156200D01*
X3013260Y-2155920D01*
X3015419Y-2155160D01*
X3017340Y-2153960D01*
X3018960Y-2152340D01*
X3020160Y-2150420D01*
X3020920Y-2148260D01*
X3021200Y-2145780D01*
X3021200Y-2084220D01*
X3020920Y-2081740D01*
X3020160Y-2079580D01*
X3018960Y-2077660D01*
X3017340Y-2076040D01*
X3015419Y-2074840D01*
X3013260Y-2074079D01*
X3010779Y-2073800D01*
X2949220Y-2073800D01*
X2946740Y-2074079D01*
X2944580Y-2074840D01*
X2942660Y-2076040D01*
X2941040Y-2077660D01*
X2939840Y-2079580D01*
X2939080Y-2081740D01*
X2938800Y-2084220D01*
X2938800Y-2098300D01*
X2938500Y-2099840D01*
X2937620Y-2101120D01*
X2936340Y-2102000D01*
X2934800Y-2102300D01*
X2930200Y-2102300D01*
X2927360Y-2102600D01*
X2924840Y-2103420D01*
X2922500Y-2104760D01*
X2920899Y-2106140D01*
X2895580Y-2131460D01*
X2894300Y-2132320D01*
X2892380Y-2132620D01*
X2890860Y-2132320D01*
X2889560Y-2131460D01*
X2888700Y-2130160D01*
X2888380Y-2128620D01*
X2888380Y-2120340D01*
X2887940Y-2116420D01*
X2888300Y-2115040D01*
X2889100Y-2113860D01*
X2955580Y-2047380D01*
X2956880Y-2046500D01*
X2958420Y-2046200D01*
X3010779Y-2046200D01*
X3013260Y-2045920D01*
X3015419Y-2045160D01*
X3017340Y-2043959D01*
X3018960Y-2042340D01*
X3020160Y-2040420D01*
X3020920Y-2038260D01*
X3021200Y-2035780D01*
X3021200Y-1974220D01*
X3020920Y-1971740D01*
X3020160Y-1969580D01*
X3018960Y-1967660D01*
X3017340Y-1966040D01*
X3015419Y-1964840D01*
X3013260Y-1964079D01*
X3010779Y-1963800D01*
X2949220Y-1963800D01*
X2946740Y-1964079D01*
X2944580Y-1964840D01*
X2942660Y-1966040D01*
X2941040Y-1967660D01*
X2939840Y-1969580D01*
X2939080Y-1971740D01*
X2938800Y-1974220D01*
X2938800Y-2026579D01*
X2938500Y-2028120D01*
X2937620Y-2029420D01*
X2859860Y-2107180D01*
X2858380Y-2108120D01*
X2856620Y-2108320D01*
X2854940Y-2107760D01*
X2853680Y-2106520D01*
X2852320Y-2102720D01*
X2851100Y-2100780D01*
X2849520Y-2099200D01*
X2847000Y-2097680D01*
X2845980Y-2096780D01*
X2845320Y-2095600D01*
X2845080Y-2094259D01*
X2845080Y-2077040D01*
X2844800Y-2074540D01*
X2844040Y-2072400D01*
X2842840Y-2070460D01*
X2841220Y-2068860D01*
X2839300Y-2067640D01*
X2837140Y-2066900D01*
X2834660Y-2066620D01*
X2826380Y-2066620D01*
X2824860Y-2066300D01*
X2823560Y-2065440D01*
X2822679Y-2064139D01*
X2822380Y-2062620D01*
X2822380Y-2051639D01*
X2822640Y-2050240D01*
X2823380Y-2049000D01*
X2824500Y-2048120D01*
X2825880Y-2047680D01*
X2829780Y-2047180D01*
X2833460Y-2046040D01*
X2836900Y-2044319D01*
X2839980Y-2042020D01*
X2842660Y-2039259D01*
X2844800Y-2036060D01*
X2846380Y-2032560D01*
X2847360Y-2028839D01*
X2847679Y-2025000D01*
X2847360Y-2021160D01*
X2846380Y-2017440D01*
X2844800Y-2013940D01*
X2842660Y-2010740D01*
X2839980Y-2007980D01*
X2838460Y-2006600D01*
X2837900Y-2005480D01*
X2837700Y-2004259D01*
X2837700Y-1776120D01*
X2837900Y-1774880D01*
X2838460Y-1773779D01*
X2839980Y-1772400D01*
X2842660Y-1769620D01*
X2844800Y-1766440D01*
X2846380Y-1762940D01*
X2847360Y-1759220D01*
X2847679Y-1755380D01*
X2847360Y-1751540D01*
X2846380Y-1747820D01*
X2844800Y-1744319D01*
X2842660Y-1741120D01*
X2839980Y-1738340D01*
X2836900Y-1736060D01*
X2833460Y-1734319D01*
X2829780Y-1733200D01*
X2825960Y-1732720D01*
X2822120Y-1732880D01*
X2818360Y-1733680D01*
X2814780Y-1735120D01*
X2811520Y-1737140D01*
X2809980Y-1738480D01*
X2808840Y-1739199D01*
X2807500Y-1739480D01*
X2806160Y-1739300D01*
X2804960Y-1738700D01*
X2801900Y-1736420D01*
X2798460Y-1734700D01*
X2794780Y-1733580D01*
X2790960Y-1733080D01*
X2787120Y-1733240D01*
X2783360Y-1734060D01*
X2779780Y-1735500D01*
X2776520Y-1737500D01*
X2775419Y-1738480D01*
X2774260Y-1739180D01*
X2772919Y-1739460D01*
X2771580Y-1739280D01*
X2770380Y-1738680D01*
X2766880Y-1736060D01*
X2763460Y-1734319D01*
X2759780Y-1733200D01*
X2755960Y-1732720D01*
X2752120Y-1732880D01*
X2748360Y-1733680D01*
X2744780Y-1735120D01*
X2741520Y-1737140D01*
X2738620Y-1739680D01*
X2736200Y-1742680D01*
X2734320Y-1746040D01*
X2733039Y-1749660D01*
X2732400Y-1753460D01*
X2732400Y-1757300D01*
X2733039Y-1761100D01*
X2734320Y-1764720D01*
X2736200Y-1768080D01*
X2738620Y-1771080D01*
X2740940Y-1773120D01*
X2741940Y-1774480D01*
X2742300Y-1776120D01*
X2742300Y-2004259D01*
X2741940Y-2005900D01*
X2740940Y-2007260D01*
X2738620Y-2009300D01*
X2736200Y-2012300D01*
X2734320Y-2015660D01*
X2733039Y-2019280D01*
X2732400Y-2023080D01*
X2732400Y-2026920D01*
X2733039Y-2030720D01*
X2734320Y-2034340D01*
X2736200Y-2037700D01*
X2738620Y-2040700D01*
X2741520Y-2043240D01*
X2744780Y-2045260D01*
X2748360Y-2046699D01*
X2752120Y-2047500D01*
X2753780Y-2047580D01*
X2755260Y-2047920D01*
X2756500Y-2048800D01*
X2757320Y-2050080D01*
X2757620Y-2051560D01*
X2757620Y-2062620D01*
X2757400Y-2063880D01*
X2756820Y-2065020D01*
X2755880Y-2065900D01*
X2755880Y-2071000D01*
X2755659Y-2072320D01*
X2754880Y-2074540D01*
X2754600Y-2077040D01*
X2754600Y-2092940D01*
X2754300Y-2094460D01*
X2753440Y-2095760D01*
X2752140Y-2096620D01*
X2750600Y-2096940D01*
X2737080Y-2096940D01*
X2734580Y-2097220D01*
X2732440Y-2097960D01*
X2730500Y-2099180D01*
X2728900Y-2100780D01*
X2727679Y-2102720D01*
X2726940Y-2104860D01*
X2726760Y-2106360D01*
X2726340Y-2107760D01*
X2725460Y-2108900D01*
X2724220Y-2109660D01*
X2722780Y-2109920D01*
X2702040Y-2109920D01*
X2699540Y-2110200D01*
X2697180Y-2111020D01*
X2695720Y-2111240D01*
X2694260Y-2110920D01*
X2693039Y-2110080D01*
X2627380Y-2044420D01*
X2626500Y-2043120D01*
X2626200Y-2041579D01*
X2626200Y-1989220D01*
X2625920Y-1986740D01*
X2625160Y-1984580D01*
X2623960Y-1982660D01*
X2622340Y-1981040D01*
X2620419Y-1979840D01*
X2618260Y-1979079D01*
X2615779Y-1978800D01*
X2554220Y-1978800D01*
X2551740Y-1979079D01*
X2549580Y-1979840D01*
X2547660Y-1981040D01*
X2546040Y-1982660D01*
X2544840Y-1984580D01*
X2544080Y-1986740D01*
X2543800Y-1989220D01*
X2543800Y-2050780D01*
X2544080Y-2053260D01*
X2544840Y-2055420D01*
X2546040Y-2057340D01*
X2547660Y-2058959D01*
X2549580Y-2060160D01*
X2551740Y-2060920D01*
X2554220Y-2061200D01*
X2606580Y-2061200D01*
X2608120Y-2061500D01*
X2609420Y-2062380D01*
X2690440Y-2143400D01*
X2691300Y-2144700D01*
X2691620Y-2146220D01*
X2691620Y-2148300D01*
X2691300Y-2149840D01*
X2690440Y-2151120D01*
X2689140Y-2152000D01*
X2687620Y-2152300D01*
X2686920Y-2152300D01*
X2685380Y-2152000D01*
X2684080Y-2151120D01*
X2654120Y-2121160D01*
X2651900Y-2119360D01*
X2649540Y-2118160D01*
X2646940Y-2117460D01*
X2644840Y-2117300D01*
X2630200Y-2117300D01*
X2628660Y-2117000D01*
X2627380Y-2116120D01*
X2626500Y-2114840D01*
X2626200Y-2113300D01*
X2626200Y-2099220D01*
X2625920Y-2096740D01*
X2625160Y-2094580D01*
X2623960Y-2092660D01*
X2622340Y-2091040D01*
X2620419Y-2089840D01*
X2618260Y-2089079D01*
X2615779Y-2088800D01*
X2554220Y-2088800D01*
X2551740Y-2089079D01*
X2549580Y-2089840D01*
X2547660Y-2091040D01*
X2546040Y-2092660D01*
X2544840Y-2094580D01*
X2544080Y-2096740D01*
X2543800Y-2099220D01*
X2543800Y-2160780D01*
X2544080Y-2163260D01*
X2544840Y-2165420D01*
X2546040Y-2167340D01*
X2547660Y-2168960D01*
X2549580Y-2170160D01*
X2551740Y-2170920D01*
X2554220Y-2171200D01*
X2615779Y-2171200D01*
X2618260Y-2170920D01*
X2620419Y-2170160D01*
X2622340Y-2168960D01*
X2623960Y-2167340D01*
X2625160Y-2165420D01*
X2625920Y-2163260D01*
X2626200Y-2160780D01*
X2626200Y-2146700D01*
X2626500Y-2145160D01*
X2627380Y-2143880D01*
X2628660Y-2143000D01*
X2630200Y-2142700D01*
X2638080Y-2142700D01*
X2639620Y-2143000D01*
X2640920Y-2143880D01*
X2669220Y-2172180D01*
X2670080Y-2173460D01*
X2670380Y-2175000D01*
X2670080Y-2176540D01*
X2669220Y-2177820D01*
X2633020Y-2214020D01*
X2631740Y-2214880D01*
X2630200Y-2215180D01*
X2628660Y-2214880D01*
X2627380Y-2214020D01*
X2626500Y-2212720D01*
X2626200Y-2211180D01*
X2626200Y-2209220D01*
X2625920Y-2206740D01*
X2625160Y-2204580D01*
X2623960Y-2202660D01*
X2622340Y-2201040D01*
X2620419Y-2199840D01*
X2618260Y-2199080D01*
X2615779Y-2198800D01*
X2554220Y-2198800D01*
X2551740Y-2199080D01*
X2549580Y-2199840D01*
X2547660Y-2201040D01*
X2546040Y-2202660D01*
X2544840Y-2204580D01*
X2544080Y-2206740D01*
X2543800Y-2209220D01*
X2543800Y-2270780D01*
X2544080Y-2273260D01*
X2544840Y-2275420D01*
X2546040Y-2277340D01*
X2547660Y-2278960D01*
X2549580Y-2280160D01*
X2551740Y-2280920D01*
X2554220Y-2281200D01*
X2615779Y-2281200D01*
X2618260Y-2280920D01*
X2620419Y-2280160D01*
X2622340Y-2278960D01*
X2623960Y-2277340D01*
X2625160Y-2275420D01*
X2625920Y-2273260D01*
X2626200Y-2270780D01*
X2626200Y-2255800D01*
X2626540Y-2254200D01*
X2627500Y-2252860D01*
X2628900Y-2252020D01*
X2630120Y-2251600D01*
X2632500Y-2250240D01*
X2634100Y-2248860D01*
X2684400Y-2198560D01*
X2685700Y-2197700D01*
X2687620Y-2197400D01*
X2689140Y-2197700D01*
X2690440Y-2198560D01*
X2691300Y-2199860D01*
X2691620Y-2201400D01*
X2691620Y-2209660D01*
X2691900Y-2212140D01*
X2692640Y-2214300D01*
X2693860Y-2216220D01*
X2694500Y-2216880D01*
X2695380Y-2218180D01*
X2695680Y-2219700D01*
X2695380Y-2221240D01*
X2694500Y-2222540D01*
X2609420Y-2307620D01*
X2608120Y-2308500D01*
X2606580Y-2308800D01*
X2554220Y-2308800D01*
X2551740Y-2309080D01*
X2549580Y-2309840D01*
X2547660Y-2311040D01*
X2546040Y-2312660D01*
X2544840Y-2314580D01*
X2544080Y-2316740D01*
X2543800Y-2319220D01*
X2543800Y-2380780D01*
X2544080Y-2383260D01*
X2544840Y-2385420D01*
X2546040Y-2387340D01*
X2547660Y-2388960D01*
X2549580Y-2390160D01*
X2551740Y-2390920D01*
G37*
G36*
X1037700Y-2271500D02*
G01*
X1108760Y-2271500D01*
X1112660Y-2271160D01*
X1116280Y-2270180D01*
X1119680Y-2268600D01*
X1122740Y-2266460D01*
X1125400Y-2263800D01*
X1127540Y-2260740D01*
X1129120Y-2257340D01*
X1130100Y-2253740D01*
X1130420Y-2250000D01*
X1130100Y-2246260D01*
X1129120Y-2242660D01*
X1127540Y-2239260D01*
X1125400Y-2236200D01*
X1122740Y-2233540D01*
X1119680Y-2231400D01*
X1116280Y-2229820D01*
X1112740Y-2228860D01*
X1111220Y-2228060D01*
X1110160Y-2226700D01*
X1109780Y-2225000D01*
X1110160Y-2223300D01*
X1111220Y-2221940D01*
X1112740Y-2221140D01*
X1116280Y-2220180D01*
X1119680Y-2218600D01*
X1122740Y-2216460D01*
X1125400Y-2213800D01*
X1127540Y-2210740D01*
X1129120Y-2207340D01*
X1130100Y-2203740D01*
X1130420Y-2200000D01*
X1130100Y-2196260D01*
X1129120Y-2192660D01*
X1127540Y-2189260D01*
X1125400Y-2186200D01*
X1122740Y-2183540D01*
X1119680Y-2181400D01*
X1116280Y-2179820D01*
X1112740Y-2178860D01*
X1111220Y-2178060D01*
X1110160Y-2176700D01*
X1109780Y-2175000D01*
X1110160Y-2173300D01*
X1111220Y-2171940D01*
X1112740Y-2171140D01*
X1116280Y-2170180D01*
X1119680Y-2168600D01*
X1122740Y-2166460D01*
X1125400Y-2163800D01*
X1127540Y-2160740D01*
X1129120Y-2157340D01*
X1130100Y-2153740D01*
X1130420Y-2150000D01*
X1130100Y-2146260D01*
X1129140Y-2142740D01*
X1129040Y-2141280D01*
X1129440Y-2139880D01*
X1130340Y-2138720D01*
X1131580Y-2137960D01*
X1133020Y-2137700D01*
X1173080Y-2137700D01*
X1174620Y-2138000D01*
X1175920Y-2138880D01*
X1295880Y-2258840D01*
X1298100Y-2260640D01*
X1300460Y-2261840D01*
X1303060Y-2262540D01*
X1305160Y-2262700D01*
X1391840Y-2262700D01*
X1393360Y-2263000D01*
X1394660Y-2263880D01*
X1397260Y-2266460D01*
X1400320Y-2268600D01*
X1403720Y-2270180D01*
X1407340Y-2271160D01*
X1411240Y-2271500D01*
X1482300Y-2271500D01*
X1486220Y-2271160D01*
X1489820Y-2270180D01*
X1493220Y-2268600D01*
X1496300Y-2266460D01*
X1498940Y-2263800D01*
X1501080Y-2260740D01*
X1502660Y-2257340D01*
X1503640Y-2253740D01*
X1503959Y-2250000D01*
X1503640Y-2246260D01*
X1502660Y-2242660D01*
X1501080Y-2239260D01*
X1498940Y-2236200D01*
X1496300Y-2233540D01*
X1493220Y-2231400D01*
X1489820Y-2229820D01*
X1486300Y-2228860D01*
X1484760Y-2228060D01*
X1483700Y-2226700D01*
X1483320Y-2225000D01*
X1483700Y-2223300D01*
X1484760Y-2221940D01*
X1486300Y-2221140D01*
X1489820Y-2220180D01*
X1493220Y-2218600D01*
X1496300Y-2216460D01*
X1498940Y-2213800D01*
X1501080Y-2210740D01*
X1502660Y-2207340D01*
X1503640Y-2203740D01*
X1503959Y-2200000D01*
X1503640Y-2196260D01*
X1502660Y-2192660D01*
X1501080Y-2189260D01*
X1498940Y-2186200D01*
X1496300Y-2183540D01*
X1493220Y-2181400D01*
X1489820Y-2179820D01*
X1486300Y-2178860D01*
X1484760Y-2178060D01*
X1483700Y-2176700D01*
X1483320Y-2175000D01*
X1483700Y-2173300D01*
X1484760Y-2171940D01*
X1486300Y-2171140D01*
X1489820Y-2170180D01*
X1493220Y-2168600D01*
X1496300Y-2166460D01*
X1498940Y-2163800D01*
X1501080Y-2160740D01*
X1502300Y-2158140D01*
X1472780Y-2158140D01*
X1472780Y-2174500D01*
X1472480Y-2176040D01*
X1471600Y-2177320D01*
X1470300Y-2178200D01*
X1468779Y-2178500D01*
X1424760Y-2178500D01*
X1423240Y-2178200D01*
X1421940Y-2177320D01*
X1421080Y-2176040D01*
X1420760Y-2174500D01*
X1420760Y-2158140D01*
X1391240Y-2158140D01*
X1392460Y-2160740D01*
X1394600Y-2163800D01*
X1397260Y-2166460D01*
X1400320Y-2168600D01*
X1403720Y-2170180D01*
X1407260Y-2171140D01*
X1408779Y-2171940D01*
X1409840Y-2173300D01*
X1410220Y-2175000D01*
X1409840Y-2176700D01*
X1408779Y-2178060D01*
X1407260Y-2178860D01*
X1403720Y-2179820D01*
X1400320Y-2181400D01*
X1397260Y-2183540D01*
X1394600Y-2186200D01*
X1392460Y-2189260D01*
X1390880Y-2192660D01*
X1389900Y-2196260D01*
X1389580Y-2200000D01*
X1389900Y-2203740D01*
X1390880Y-2207340D01*
X1392460Y-2210740D01*
X1394600Y-2213800D01*
X1397260Y-2216460D01*
X1400320Y-2218600D01*
X1403720Y-2220180D01*
X1407260Y-2221140D01*
X1408779Y-2221940D01*
X1409840Y-2223300D01*
X1410220Y-2225000D01*
X1409840Y-2226700D01*
X1408779Y-2228060D01*
X1407260Y-2228860D01*
X1403720Y-2229820D01*
X1400320Y-2231400D01*
X1397260Y-2233540D01*
X1394660Y-2236120D01*
X1393360Y-2237000D01*
X1391840Y-2237300D01*
X1311920Y-2237300D01*
X1310380Y-2237000D01*
X1309079Y-2236120D01*
X1189120Y-2116160D01*
X1186900Y-2114360D01*
X1184540Y-2113160D01*
X1181940Y-2112460D01*
X1179840Y-2112300D01*
X1133020Y-2112300D01*
X1131580Y-2112040D01*
X1130340Y-2111280D01*
X1129440Y-2110120D01*
X1129040Y-2108720D01*
X1129140Y-2107260D01*
X1130100Y-2103740D01*
X1130420Y-2100000D01*
X1130100Y-2096260D01*
X1129120Y-2092660D01*
X1127540Y-2089259D01*
X1125400Y-2086200D01*
X1122740Y-2083540D01*
X1119680Y-2081399D01*
X1116280Y-2079820D01*
X1112740Y-2078860D01*
X1111220Y-2078060D01*
X1110160Y-2076699D01*
X1109780Y-2075000D01*
X1110160Y-2073300D01*
X1111220Y-2071940D01*
X1112740Y-2071140D01*
X1116280Y-2070180D01*
X1119680Y-2068600D01*
X1122740Y-2066459D01*
X1125400Y-2063800D01*
X1127540Y-2060740D01*
X1129120Y-2057340D01*
X1130100Y-2053740D01*
X1130420Y-2050000D01*
X1130100Y-2046260D01*
X1129120Y-2042660D01*
X1127540Y-2039259D01*
X1125400Y-2036200D01*
X1122740Y-2033540D01*
X1119680Y-2031399D01*
X1116280Y-2029820D01*
X1112740Y-2028860D01*
X1111220Y-2028060D01*
X1110160Y-2026699D01*
X1109780Y-2025000D01*
X1110160Y-2023300D01*
X1111220Y-2021940D01*
X1112740Y-2021140D01*
X1116280Y-2020180D01*
X1119680Y-2018600D01*
X1122740Y-2016459D01*
X1125400Y-2013800D01*
X1127540Y-2010740D01*
X1129120Y-2007340D01*
X1130100Y-2003740D01*
X1130420Y-2000000D01*
X1130100Y-1996260D01*
X1129120Y-1992660D01*
X1127540Y-1989259D01*
X1125400Y-1986200D01*
X1122740Y-1983540D01*
X1119680Y-1981399D01*
X1116280Y-1979820D01*
X1112740Y-1978860D01*
X1111220Y-1978060D01*
X1110160Y-1976699D01*
X1109780Y-1975000D01*
X1110160Y-1973300D01*
X1111220Y-1971940D01*
X1112740Y-1971140D01*
X1116280Y-1970180D01*
X1119680Y-1968600D01*
X1122740Y-1966459D01*
X1125400Y-1963800D01*
X1127540Y-1960740D01*
X1129120Y-1957340D01*
X1130100Y-1953740D01*
X1130420Y-1950000D01*
X1130100Y-1946260D01*
X1129120Y-1942660D01*
X1127540Y-1939259D01*
X1125400Y-1936200D01*
X1122740Y-1933540D01*
X1119680Y-1931399D01*
X1116280Y-1929820D01*
X1112740Y-1928860D01*
X1111220Y-1928060D01*
X1110160Y-1926699D01*
X1109780Y-1925000D01*
X1110160Y-1923300D01*
X1111220Y-1921940D01*
X1112740Y-1921140D01*
X1116280Y-1920180D01*
X1119680Y-1918600D01*
X1122740Y-1916459D01*
X1125400Y-1913800D01*
X1127540Y-1910740D01*
X1129120Y-1907340D01*
X1130100Y-1903740D01*
X1130420Y-1900000D01*
X1130100Y-1896260D01*
X1129120Y-1892660D01*
X1127540Y-1889259D01*
X1125400Y-1886200D01*
X1122740Y-1883540D01*
X1119680Y-1881399D01*
X1116280Y-1879820D01*
X1112740Y-1878860D01*
X1111220Y-1878060D01*
X1110160Y-1876699D01*
X1109780Y-1875000D01*
X1110160Y-1873300D01*
X1111220Y-1871940D01*
X1112740Y-1871140D01*
X1116280Y-1870180D01*
X1119680Y-1868600D01*
X1122740Y-1866459D01*
X1125400Y-1863800D01*
X1127540Y-1860740D01*
X1129120Y-1857340D01*
X1130100Y-1853740D01*
X1130420Y-1850000D01*
X1130100Y-1846260D01*
X1129120Y-1842660D01*
X1127540Y-1839259D01*
X1125400Y-1836200D01*
X1122740Y-1833540D01*
X1119680Y-1831399D01*
X1116280Y-1829820D01*
X1112740Y-1828860D01*
X1111220Y-1828060D01*
X1110160Y-1826699D01*
X1109780Y-1825000D01*
X1110160Y-1823300D01*
X1111220Y-1821940D01*
X1112740Y-1821140D01*
X1116280Y-1820180D01*
X1119680Y-1818600D01*
X1122740Y-1816459D01*
X1125400Y-1813800D01*
X1127540Y-1810740D01*
X1128760Y-1808140D01*
X1099240Y-1808140D01*
X1099240Y-1824500D01*
X1098920Y-1826040D01*
X1098060Y-1827320D01*
X1096760Y-1828200D01*
X1095240Y-1828500D01*
X1051220Y-1828500D01*
X1049700Y-1828200D01*
X1048400Y-1827320D01*
X1047520Y-1826040D01*
X1047220Y-1824500D01*
X1047220Y-1808140D01*
X1017700Y-1808140D01*
X1018240Y-1809319D01*
X1018620Y-1810860D01*
X1018360Y-1812420D01*
X1017520Y-1813760D01*
X1016220Y-1814680D01*
X1014680Y-1815000D01*
X1013120Y-1814720D01*
X1011800Y-1813839D01*
X992380Y-1794420D01*
X991500Y-1793120D01*
X991200Y-1791579D01*
X991200Y-1739220D01*
X990920Y-1736740D01*
X990160Y-1734580D01*
X988960Y-1732660D01*
X987340Y-1731040D01*
X985420Y-1729840D01*
X983259Y-1729079D01*
X980780Y-1728800D01*
X919220Y-1728800D01*
X916740Y-1729079D01*
X914580Y-1729840D01*
X912660Y-1731040D01*
X911040Y-1732660D01*
X909840Y-1734580D01*
X909080Y-1736740D01*
X908800Y-1739220D01*
X908800Y-1800780D01*
X909080Y-1803260D01*
X909840Y-1805420D01*
X911040Y-1807340D01*
X912660Y-1808959D01*
X914580Y-1810160D01*
X916740Y-1810920D01*
X919220Y-1811200D01*
X971580Y-1811200D01*
X973120Y-1811500D01*
X974419Y-1812380D01*
X1015819Y-1853779D01*
X1016460Y-1854600D01*
X1016860Y-1855580D01*
X1017340Y-1857340D01*
X1018920Y-1860740D01*
X1021060Y-1863800D01*
X1023700Y-1866459D01*
X1026780Y-1868600D01*
X1030180Y-1870180D01*
X1033700Y-1871140D01*
X1035240Y-1871940D01*
X1036300Y-1873300D01*
X1036680Y-1875000D01*
X1036300Y-1876699D01*
X1035240Y-1878060D01*
X1033700Y-1878860D01*
X1030180Y-1879820D01*
X1026780Y-1881399D01*
X1023700Y-1883540D01*
X1021060Y-1886200D01*
X1018920Y-1889259D01*
X1017340Y-1892660D01*
X1016360Y-1896260D01*
X1016040Y-1900000D01*
X1016360Y-1903740D01*
X1017340Y-1907340D01*
X1018920Y-1910740D01*
X1020020Y-1912340D01*
X1020620Y-1913600D01*
X1020740Y-1914980D01*
X1020380Y-1916320D01*
X1019580Y-1917460D01*
X974659Y-1962380D01*
X973360Y-1963260D01*
X971820Y-1963560D01*
X858439Y-1963560D01*
X856900Y-1963260D01*
X855600Y-1962380D01*
X854740Y-1961100D01*
X854440Y-1959560D01*
X854740Y-1958020D01*
X855600Y-1956740D01*
X857280Y-1955060D01*
X858500Y-1953120D01*
X859260Y-1950980D01*
X859539Y-1948480D01*
X859539Y-1850500D01*
X859260Y-1848020D01*
X858500Y-1845860D01*
X857280Y-1843940D01*
X855680Y-1842320D01*
X853740Y-1841120D01*
X851600Y-1840360D01*
X849100Y-1840080D01*
X715699Y-1840080D01*
X713220Y-1840360D01*
X711060Y-1841120D01*
X709140Y-1842320D01*
X707520Y-1843940D01*
X706300Y-1845860D01*
X705560Y-1848020D01*
X705280Y-1850500D01*
X705280Y-1948480D01*
X705560Y-1950980D01*
X706300Y-1953120D01*
X706880Y-1954019D01*
X707460Y-1955620D01*
X707320Y-1957300D01*
X706500Y-1958779D01*
X705140Y-1959800D01*
X703480Y-1960160D01*
X672400Y-1960160D01*
X670480Y-1960020D01*
X669040Y-1959180D01*
X668040Y-1957840D01*
X667700Y-1956200D01*
X667700Y-1796920D01*
X668000Y-1795380D01*
X668880Y-1794079D01*
X849080Y-1613880D01*
X850380Y-1613000D01*
X851919Y-1612700D01*
X1018300Y-1612700D01*
X1019820Y-1613000D01*
X1021120Y-1613880D01*
X1023700Y-1616459D01*
X1026780Y-1618600D01*
X1030180Y-1620180D01*
X1033700Y-1621140D01*
X1035240Y-1621940D01*
X1036300Y-1623300D01*
X1036680Y-1625000D01*
X1036300Y-1626699D01*
X1035240Y-1628060D01*
X1033700Y-1628860D01*
X1030180Y-1629820D01*
X1026780Y-1631399D01*
X1023700Y-1633540D01*
X1021060Y-1636200D01*
X1018920Y-1639259D01*
X1017340Y-1642660D01*
X1016340Y-1646360D01*
X1015580Y-1647840D01*
X1014300Y-1648880D01*
X1012680Y-1649319D01*
X1011040Y-1649060D01*
X1009640Y-1648160D01*
X1005879Y-1644400D01*
X1003439Y-1642380D01*
X1000800Y-1640980D01*
X997960Y-1640120D01*
X994800Y-1639800D01*
X992340Y-1639800D01*
X990900Y-1639540D01*
X989680Y-1638779D01*
X988780Y-1637640D01*
X988360Y-1636240D01*
X988220Y-1635020D01*
X987480Y-1632860D01*
X986260Y-1630940D01*
X984640Y-1629319D01*
X982720Y-1628120D01*
X980560Y-1627360D01*
X978080Y-1627080D01*
X947039Y-1627080D01*
X944539Y-1627360D01*
X942400Y-1628120D01*
X940460Y-1629319D01*
X938860Y-1630940D01*
X938379Y-1631680D01*
X937280Y-1632840D01*
X935800Y-1633480D01*
X934200Y-1633480D01*
X932720Y-1632840D01*
X931620Y-1631680D01*
X931140Y-1630940D01*
X929539Y-1629319D01*
X927600Y-1628120D01*
X925460Y-1627360D01*
X922960Y-1627080D01*
X917820Y-1627080D01*
X917820Y-1643640D01*
X932600Y-1643640D01*
X934140Y-1643940D01*
X935440Y-1644820D01*
X936300Y-1646120D01*
X936600Y-1647640D01*
X936600Y-1662360D01*
X936300Y-1663880D01*
X935440Y-1665180D01*
X934140Y-1666060D01*
X932600Y-1666360D01*
X917820Y-1666360D01*
X917820Y-1682920D01*
X922960Y-1682920D01*
X925460Y-1682640D01*
X927600Y-1681879D01*
X929539Y-1680680D01*
X931140Y-1679060D01*
X931620Y-1678320D01*
X932720Y-1677160D01*
X934200Y-1676519D01*
X935800Y-1676519D01*
X937280Y-1677160D01*
X938379Y-1678320D01*
X938860Y-1679060D01*
X940460Y-1680680D01*
X942400Y-1681879D01*
X944539Y-1682640D01*
X947039Y-1682920D01*
X978080Y-1682920D01*
X980560Y-1682640D01*
X982720Y-1681879D01*
X984640Y-1680680D01*
X986260Y-1679060D01*
X988300Y-1675720D01*
X989599Y-1674780D01*
X991160Y-1674420D01*
X992740Y-1674700D01*
X994080Y-1675580D01*
X1014920Y-1696420D01*
X1015840Y-1697880D01*
X1016360Y-1703740D01*
X1017340Y-1707340D01*
X1018920Y-1710740D01*
X1021060Y-1713800D01*
X1023700Y-1716459D01*
X1026780Y-1718600D01*
X1030180Y-1720180D01*
X1033700Y-1721140D01*
X1035240Y-1721940D01*
X1036300Y-1723300D01*
X1036680Y-1725000D01*
X1036300Y-1726699D01*
X1035240Y-1728060D01*
X1033700Y-1728860D01*
X1030180Y-1729820D01*
X1026780Y-1731399D01*
X1023700Y-1733540D01*
X1021060Y-1736200D01*
X1018920Y-1739259D01*
X1017700Y-1741860D01*
X1047220Y-1741860D01*
X1047220Y-1725500D01*
X1047520Y-1723959D01*
X1048400Y-1722680D01*
X1049700Y-1721800D01*
X1051220Y-1721500D01*
X1095240Y-1721500D01*
X1096760Y-1721800D01*
X1098060Y-1722680D01*
X1098920Y-1723959D01*
X1099240Y-1725500D01*
X1099240Y-1741860D01*
X1128760Y-1741860D01*
X1127540Y-1739259D01*
X1125400Y-1736200D01*
X1122740Y-1733540D01*
X1119680Y-1731399D01*
X1116280Y-1729820D01*
X1112740Y-1728860D01*
X1111220Y-1728060D01*
X1110160Y-1726699D01*
X1109780Y-1725000D01*
X1110160Y-1723300D01*
X1111220Y-1721940D01*
X1112740Y-1721140D01*
X1116280Y-1720180D01*
X1119680Y-1718600D01*
X1122740Y-1716459D01*
X1125400Y-1713800D01*
X1127540Y-1710740D01*
X1129120Y-1707340D01*
X1130100Y-1703740D01*
X1130420Y-1700000D01*
X1130100Y-1696260D01*
X1129120Y-1692660D01*
X1127540Y-1689259D01*
X1125400Y-1686200D01*
X1122740Y-1683540D01*
X1119680Y-1681399D01*
X1116280Y-1679820D01*
X1112740Y-1678860D01*
X1111220Y-1678060D01*
X1110160Y-1676699D01*
X1109780Y-1675000D01*
X1110160Y-1673300D01*
X1111220Y-1671940D01*
X1112740Y-1671140D01*
X1116280Y-1670180D01*
X1119680Y-1668600D01*
X1122740Y-1666459D01*
X1125400Y-1663800D01*
X1127540Y-1660740D01*
X1129120Y-1657340D01*
X1130140Y-1653580D01*
X1130540Y-1652620D01*
X1131160Y-1651800D01*
X1138840Y-1644120D01*
X1140640Y-1641900D01*
X1141840Y-1639540D01*
X1142540Y-1636940D01*
X1142700Y-1634840D01*
X1142700Y-1590200D01*
X1142400Y-1587360D01*
X1141580Y-1584840D01*
X1140240Y-1582500D01*
X1138860Y-1580900D01*
X1124120Y-1566160D01*
X1121900Y-1564360D01*
X1119540Y-1563160D01*
X1116940Y-1562460D01*
X1114840Y-1562300D01*
X850200Y-1562300D01*
X847360Y-1562600D01*
X844840Y-1563420D01*
X842500Y-1564760D01*
X840900Y-1566140D01*
X611160Y-1795880D01*
X609360Y-1798100D01*
X608160Y-1800460D01*
X607460Y-1803060D01*
X607300Y-1805160D01*
X607300Y-2064800D01*
X607600Y-2067640D01*
X608420Y-2070160D01*
X609760Y-2072500D01*
X611140Y-2074100D01*
X659960Y-2122920D01*
X660699Y-2123560D01*
X661540Y-2124540D01*
X662020Y-2125760D01*
X662080Y-2127040D01*
X661960Y-2128060D01*
X661960Y-2139420D01*
X662240Y-2141900D01*
X663000Y-2144060D01*
X664220Y-2145980D01*
X665819Y-2147600D01*
X667760Y-2148820D01*
X669900Y-2149560D01*
X672400Y-2149840D01*
X703500Y-2149840D01*
X705140Y-2150200D01*
X706500Y-2151220D01*
X707320Y-2152700D01*
X707460Y-2154380D01*
X706880Y-2155980D01*
X706300Y-2156880D01*
X705560Y-2159040D01*
X705280Y-2161520D01*
X705280Y-2259500D01*
X705560Y-2261980D01*
X706300Y-2264140D01*
X707520Y-2266060D01*
X709140Y-2267680D01*
X711060Y-2268900D01*
X713220Y-2269640D01*
X715699Y-2269920D01*
X849100Y-2269920D01*
X851600Y-2269640D01*
X853740Y-2268900D01*
X855680Y-2267680D01*
X857280Y-2266060D01*
X858500Y-2264140D01*
X859260Y-2261980D01*
X859539Y-2259500D01*
X859539Y-2161520D01*
X859260Y-2159040D01*
X858500Y-2156880D01*
X857280Y-2154960D01*
X855680Y-2153340D01*
X853740Y-2152140D01*
X851600Y-2151380D01*
X849100Y-2151100D01*
X755020Y-2151100D01*
X753360Y-2150740D01*
X752000Y-2149740D01*
X751180Y-2148240D01*
X751040Y-2146560D01*
X751620Y-2144980D01*
X752200Y-2144060D01*
X752960Y-2141900D01*
X753240Y-2139420D01*
X753240Y-2128060D01*
X752960Y-2125580D01*
X752600Y-2123900D01*
X752960Y-2122220D01*
X753240Y-2119740D01*
X753240Y-2108380D01*
X752960Y-2105880D01*
X752600Y-2104220D01*
X752960Y-2102540D01*
X753240Y-2100060D01*
X753240Y-2091380D01*
X753540Y-2089840D01*
X754400Y-2088560D01*
X755699Y-2087680D01*
X757240Y-2087380D01*
X972760Y-2087380D01*
X974300Y-2087680D01*
X975600Y-2088560D01*
X1019580Y-2132540D01*
X1020380Y-2133680D01*
X1020740Y-2135020D01*
X1020620Y-2136400D01*
X1020020Y-2137660D01*
X1018920Y-2139260D01*
X1017340Y-2142660D01*
X1016360Y-2146260D01*
X1016040Y-2150000D01*
X1016360Y-2153740D01*
X1017340Y-2157340D01*
X1018920Y-2160740D01*
X1021060Y-2163800D01*
X1023700Y-2166460D01*
X1026780Y-2168600D01*
X1030180Y-2170180D01*
X1033700Y-2171140D01*
X1035240Y-2171940D01*
X1036300Y-2173300D01*
X1036680Y-2175000D01*
X1036300Y-2176700D01*
X1035240Y-2178060D01*
X1033700Y-2178860D01*
X1030180Y-2179820D01*
X1026780Y-2181400D01*
X1023700Y-2183540D01*
X1021060Y-2186200D01*
X1018920Y-2189260D01*
X1017340Y-2192660D01*
X1016360Y-2196260D01*
X1016040Y-2200000D01*
X1016360Y-2203740D01*
X1017340Y-2207340D01*
X1018920Y-2210740D01*
X1021060Y-2213800D01*
X1023700Y-2216460D01*
X1026780Y-2218600D01*
X1030180Y-2220180D01*
X1033700Y-2221140D01*
X1035240Y-2221940D01*
X1036300Y-2223300D01*
X1036680Y-2225000D01*
X1036300Y-2226700D01*
X1035240Y-2228060D01*
X1033700Y-2228860D01*
X1030180Y-2229820D01*
X1026780Y-2231400D01*
X1023700Y-2233540D01*
X1021060Y-2236200D01*
X1018920Y-2239260D01*
X1017340Y-2242660D01*
X1016360Y-2246260D01*
X1016040Y-2250000D01*
X1016360Y-2253740D01*
X1017340Y-2257340D01*
X1018920Y-2260740D01*
X1021060Y-2263800D01*
X1023700Y-2266460D01*
X1026780Y-2268600D01*
X1030180Y-2270180D01*
X1033780Y-2271160D01*
G37*
G36*
X1391240Y-2141860D02*
G01*
X1420760Y-2141860D01*
X1420760Y-2125500D01*
X1421080Y-2123960D01*
X1421940Y-2122680D01*
X1423240Y-2121800D01*
X1424760Y-2121500D01*
X1468779Y-2121500D01*
X1470300Y-2121800D01*
X1471600Y-2122680D01*
X1472480Y-2123960D01*
X1472780Y-2125500D01*
X1472780Y-2141860D01*
X1502300Y-2141860D01*
X1501080Y-2139260D01*
X1498940Y-2136200D01*
X1496300Y-2133540D01*
X1493220Y-2131400D01*
X1489820Y-2129820D01*
X1486300Y-2128860D01*
X1484760Y-2128060D01*
X1483700Y-2126700D01*
X1483320Y-2125000D01*
X1483700Y-2123300D01*
X1484760Y-2121940D01*
X1486300Y-2121140D01*
X1489820Y-2120180D01*
X1493220Y-2118600D01*
X1496300Y-2116460D01*
X1498940Y-2113800D01*
X1501080Y-2110740D01*
X1502660Y-2107340D01*
X1503640Y-2103740D01*
X1503959Y-2100000D01*
X1503640Y-2096260D01*
X1502660Y-2092660D01*
X1501080Y-2089259D01*
X1498940Y-2086200D01*
X1496300Y-2083540D01*
X1493220Y-2081399D01*
X1489820Y-2079820D01*
X1486300Y-2078860D01*
X1484760Y-2078060D01*
X1483700Y-2076699D01*
X1483320Y-2075000D01*
X1483700Y-2073300D01*
X1484760Y-2071940D01*
X1486300Y-2071140D01*
X1489820Y-2070180D01*
X1493220Y-2068600D01*
X1496300Y-2066459D01*
X1498940Y-2063800D01*
X1501080Y-2060740D01*
X1502660Y-2057340D01*
X1503640Y-2053740D01*
X1503959Y-2050000D01*
X1503640Y-2046260D01*
X1502660Y-2042660D01*
X1501080Y-2039259D01*
X1498940Y-2036200D01*
X1496300Y-2033540D01*
X1493220Y-2031399D01*
X1489820Y-2029820D01*
X1486300Y-2028860D01*
X1484760Y-2028060D01*
X1483700Y-2026699D01*
X1483320Y-2025000D01*
X1483700Y-2023300D01*
X1484760Y-2021940D01*
X1486300Y-2021140D01*
X1489820Y-2020180D01*
X1493220Y-2018600D01*
X1496300Y-2016459D01*
X1498880Y-2013880D01*
X1500180Y-2013000D01*
X1501699Y-2012700D01*
X1835320Y-2012700D01*
X1838160Y-2012400D01*
X1840680Y-2011579D01*
X1843020Y-2010240D01*
X1844620Y-2008860D01*
X1905480Y-1948000D01*
X1906759Y-1947140D01*
X1908300Y-1946840D01*
X1909840Y-1947140D01*
X1911120Y-1948000D01*
X1912000Y-1949300D01*
X1912300Y-1950840D01*
X1912300Y-2004259D01*
X1911940Y-2005900D01*
X1910940Y-2007260D01*
X1908620Y-2009300D01*
X1906200Y-2012300D01*
X1904319Y-2015660D01*
X1903040Y-2019280D01*
X1902400Y-2023080D01*
X1902400Y-2026920D01*
X1903040Y-2030720D01*
X1904319Y-2034340D01*
X1906200Y-2037700D01*
X1908620Y-2040700D01*
X1911519Y-2043240D01*
X1914780Y-2045260D01*
X1918360Y-2046699D01*
X1922120Y-2047500D01*
X1925960Y-2047660D01*
X1929780Y-2047180D01*
X1935560Y-2045360D01*
X1937160Y-2045580D01*
X1938540Y-2046440D01*
X1939480Y-2047760D01*
X1939800Y-2049340D01*
X1939800Y-2098760D01*
X1939680Y-2099740D01*
X1938040Y-2104280D01*
X1937400Y-2108080D01*
X1937400Y-2111920D01*
X1938040Y-2115720D01*
X1939319Y-2119340D01*
X1941200Y-2122700D01*
X1943620Y-2125700D01*
X1946519Y-2128240D01*
X1949780Y-2130260D01*
X1953360Y-2131700D01*
X1957120Y-2132500D01*
X1960960Y-2132660D01*
X1964780Y-2132180D01*
X1968460Y-2131040D01*
X1971900Y-2129320D01*
X1974980Y-2127020D01*
X1977660Y-2124260D01*
X1979800Y-2121060D01*
X1981380Y-2117560D01*
X1982360Y-2113840D01*
X1982680Y-2110000D01*
X1982360Y-2106160D01*
X1981380Y-2102440D01*
X1979800Y-2098940D01*
X1977660Y-2095740D01*
X1974980Y-2092980D01*
X1971819Y-2090620D01*
X1970960Y-2089740D01*
X1970400Y-2088640D01*
X1970200Y-2087420D01*
X1970200Y-1994199D01*
X1970500Y-1992660D01*
X1971380Y-1991380D01*
X1972660Y-1990500D01*
X1974199Y-1990200D01*
X2057240Y-1990200D01*
X2060400Y-1989880D01*
X2063260Y-1989019D01*
X2065880Y-1987620D01*
X2068320Y-1985600D01*
X2069840Y-1984079D01*
X2071140Y-1983220D01*
X2072680Y-1982920D01*
X2092960Y-1982920D01*
X2095460Y-1982640D01*
X2097600Y-1981879D01*
X2099540Y-1980680D01*
X2101140Y-1979060D01*
X2101620Y-1978320D01*
X2102720Y-1977160D01*
X2104200Y-1976519D01*
X2105800Y-1976519D01*
X2107280Y-1977160D01*
X2108380Y-1978320D01*
X2108860Y-1979060D01*
X2110460Y-1980680D01*
X2112400Y-1981879D01*
X2114540Y-1982640D01*
X2117040Y-1982920D01*
X2122180Y-1982920D01*
X2122180Y-1966360D01*
X2107400Y-1966360D01*
X2105860Y-1966060D01*
X2104560Y-1965180D01*
X2103700Y-1963880D01*
X2103400Y-1962360D01*
X2103400Y-1947640D01*
X2103700Y-1946120D01*
X2104560Y-1944820D01*
X2105860Y-1943940D01*
X2107400Y-1943640D01*
X2122180Y-1943640D01*
X2122180Y-1927080D01*
X2117040Y-1927080D01*
X2114540Y-1927360D01*
X2112400Y-1928120D01*
X2110460Y-1929319D01*
X2108860Y-1930940D01*
X2108380Y-1931680D01*
X2107280Y-1932840D01*
X2105800Y-1933480D01*
X2104200Y-1933480D01*
X2102720Y-1932840D01*
X2101620Y-1931680D01*
X2101140Y-1930940D01*
X2099540Y-1929319D01*
X2097600Y-1928120D01*
X2095460Y-1927360D01*
X2092960Y-1927080D01*
X2061920Y-1927080D01*
X2059440Y-1927360D01*
X2057280Y-1928120D01*
X2055360Y-1929319D01*
X2053740Y-1930940D01*
X2052520Y-1932860D01*
X2051780Y-1935020D01*
X2051500Y-1937500D01*
X2051500Y-1955800D01*
X2051200Y-1957340D01*
X2050320Y-1958620D01*
X2049019Y-1959500D01*
X2047500Y-1959800D01*
X1973440Y-1959800D01*
X1971879Y-1959480D01*
X1970560Y-1958560D01*
X1969980Y-1957980D01*
X1966900Y-1955680D01*
X1963460Y-1953940D01*
X1962000Y-1953120D01*
X1961020Y-1951780D01*
X1960660Y-1950140D01*
X1960660Y-1909920D01*
X1960580Y-1908880D01*
X1960580Y-1895380D01*
X1960900Y-1893860D01*
X1961759Y-1892560D01*
X1963060Y-1891680D01*
X1964580Y-1891380D01*
X1965720Y-1891380D01*
X1967240Y-1891680D01*
X1968540Y-1892560D01*
X1969420Y-1893860D01*
X1969720Y-1895380D01*
X1969720Y-1926220D01*
X1970120Y-1929720D01*
X1970120Y-1936620D01*
X1972340Y-1936380D01*
X1973680Y-1935900D01*
X1975000Y-1935680D01*
X1976320Y-1935900D01*
X1977660Y-1936380D01*
X1980140Y-1936660D01*
X1989540Y-1936660D01*
X1992020Y-1936380D01*
X1993360Y-1935900D01*
X1994680Y-1935680D01*
X1996000Y-1935900D01*
X1997340Y-1936380D01*
X1999820Y-1936660D01*
X2009220Y-1936660D01*
X2011699Y-1936380D01*
X2013040Y-1935900D01*
X2014360Y-1935680D01*
X2015680Y-1935900D01*
X2017020Y-1936380D01*
X2019520Y-1936660D01*
X2028899Y-1936660D01*
X2031399Y-1936380D01*
X2033540Y-1935620D01*
X2035480Y-1934400D01*
X2037080Y-1932800D01*
X2038300Y-1930860D01*
X2039040Y-1928720D01*
X2039319Y-1926220D01*
X2039319Y-1898340D01*
X2039640Y-1896800D01*
X2040500Y-1895500D01*
X2041800Y-1894640D01*
X2043320Y-1894340D01*
X2071220Y-1894340D01*
X2073720Y-1894060D01*
X2075860Y-1893300D01*
X2077800Y-1892080D01*
X2079400Y-1890480D01*
X2080620Y-1888540D01*
X2081360Y-1886399D01*
X2081639Y-1883899D01*
X2081639Y-1874520D01*
X2081360Y-1872020D01*
X2080900Y-1870680D01*
X2080680Y-1869360D01*
X2080900Y-1868040D01*
X2081360Y-1866699D01*
X2081639Y-1864220D01*
X2081639Y-1854820D01*
X2081360Y-1852340D01*
X2080900Y-1851000D01*
X2080680Y-1849680D01*
X2080900Y-1848360D01*
X2081360Y-1847020D01*
X2081639Y-1844540D01*
X2081639Y-1835140D01*
X2081360Y-1832660D01*
X2080900Y-1831320D01*
X2080680Y-1830000D01*
X2080900Y-1828680D01*
X2081360Y-1827340D01*
X2081639Y-1824840D01*
X2081639Y-1815460D01*
X2081360Y-1812960D01*
X2080900Y-1811639D01*
X2080680Y-1810320D01*
X2080900Y-1808980D01*
X2081360Y-1807660D01*
X2081639Y-1805160D01*
X2081639Y-1795780D01*
X2081360Y-1793280D01*
X2080900Y-1791940D01*
X2080680Y-1790620D01*
X2080900Y-1789300D01*
X2081360Y-1787960D01*
X2081639Y-1785480D01*
X2081639Y-1776080D01*
X2081360Y-1773600D01*
X2080620Y-1771440D01*
X2079400Y-1769520D01*
X2077800Y-1767900D01*
X2075860Y-1766699D01*
X2073720Y-1765940D01*
X2071220Y-1765660D01*
X2043320Y-1765660D01*
X2041800Y-1765360D01*
X2040500Y-1764480D01*
X2039640Y-1763200D01*
X2039319Y-1761660D01*
X2039319Y-1733760D01*
X2039040Y-1731279D01*
X2038300Y-1729120D01*
X2037080Y-1727200D01*
X2035480Y-1725580D01*
X2033540Y-1724379D01*
X2031399Y-1723620D01*
X2028899Y-1723340D01*
X2023740Y-1723340D01*
X2022200Y-1723040D01*
X2020900Y-1722180D01*
X2020040Y-1720880D01*
X2019740Y-1719340D01*
X2019740Y-1647160D01*
X2019420Y-1644000D01*
X2018560Y-1641160D01*
X2017160Y-1638540D01*
X2015140Y-1636080D01*
X1959680Y-1580620D01*
X1958800Y-1579319D01*
X1958500Y-1577800D01*
X1958500Y-1557500D01*
X1958220Y-1555020D01*
X1957480Y-1552860D01*
X1956260Y-1550940D01*
X1954640Y-1549319D01*
X1952720Y-1548120D01*
X1950560Y-1547360D01*
X1948080Y-1547080D01*
X1917040Y-1547080D01*
X1914540Y-1547360D01*
X1912400Y-1548120D01*
X1910460Y-1549319D01*
X1908860Y-1550940D01*
X1908380Y-1551680D01*
X1907280Y-1552840D01*
X1905800Y-1553480D01*
X1904199Y-1553480D01*
X1902720Y-1552840D01*
X1901620Y-1551680D01*
X1901140Y-1550940D01*
X1899540Y-1549319D01*
X1897600Y-1548120D01*
X1895460Y-1547360D01*
X1892960Y-1547080D01*
X1887820Y-1547080D01*
X1887820Y-1563640D01*
X1902600Y-1563640D01*
X1904139Y-1563940D01*
X1905440Y-1564820D01*
X1906300Y-1566120D01*
X1906600Y-1567640D01*
X1906600Y-1582360D01*
X1906300Y-1583880D01*
X1905440Y-1585180D01*
X1904139Y-1586060D01*
X1902600Y-1586360D01*
X1887820Y-1586360D01*
X1887820Y-1602920D01*
X1892960Y-1602920D01*
X1895460Y-1602640D01*
X1897600Y-1601879D01*
X1899540Y-1600680D01*
X1901140Y-1599060D01*
X1901620Y-1598320D01*
X1902720Y-1597160D01*
X1904199Y-1596519D01*
X1905800Y-1596519D01*
X1907280Y-1597160D01*
X1908380Y-1598320D01*
X1908860Y-1599060D01*
X1910460Y-1600680D01*
X1912400Y-1601879D01*
X1914540Y-1602640D01*
X1917040Y-1602920D01*
X1937320Y-1602920D01*
X1938860Y-1603220D01*
X1940160Y-1604079D01*
X1946320Y-1610260D01*
X1947180Y-1611560D01*
X1947480Y-1613080D01*
X1947180Y-1614620D01*
X1946320Y-1615920D01*
X1945020Y-1616780D01*
X1943480Y-1617080D01*
X1922040Y-1617080D01*
X1919540Y-1617360D01*
X1917400Y-1618120D01*
X1915460Y-1619319D01*
X1913860Y-1620940D01*
X1913380Y-1621680D01*
X1912280Y-1622840D01*
X1910800Y-1623480D01*
X1909199Y-1623480D01*
X1907720Y-1622840D01*
X1906620Y-1621680D01*
X1906140Y-1620940D01*
X1904540Y-1619319D01*
X1902600Y-1618120D01*
X1900460Y-1617360D01*
X1897960Y-1617080D01*
X1892820Y-1617080D01*
X1892820Y-1633640D01*
X1907600Y-1633640D01*
X1909139Y-1633940D01*
X1910440Y-1634820D01*
X1911300Y-1636120D01*
X1911600Y-1637640D01*
X1911600Y-1652360D01*
X1911300Y-1653880D01*
X1910440Y-1655180D01*
X1909139Y-1656060D01*
X1907600Y-1656360D01*
X1892820Y-1656360D01*
X1892820Y-1672920D01*
X1897960Y-1672920D01*
X1900460Y-1672640D01*
X1902600Y-1671879D01*
X1904540Y-1670680D01*
X1906140Y-1669060D01*
X1906620Y-1668320D01*
X1907720Y-1667160D01*
X1909199Y-1666519D01*
X1910800Y-1666519D01*
X1912280Y-1667160D01*
X1913380Y-1668320D01*
X1913860Y-1669060D01*
X1915460Y-1670680D01*
X1917400Y-1671879D01*
X1919540Y-1672640D01*
X1922040Y-1672920D01*
X1925800Y-1672920D01*
X1927340Y-1673220D01*
X1928620Y-1674079D01*
X1929500Y-1675380D01*
X1929800Y-1676920D01*
X1929800Y-1680800D01*
X1929500Y-1682340D01*
X1928620Y-1683620D01*
X1927340Y-1684500D01*
X1925800Y-1684800D01*
X1660560Y-1684800D01*
X1659220Y-1684580D01*
X1658040Y-1683899D01*
X1657160Y-1682900D01*
X1655660Y-1680440D01*
X1654060Y-1678860D01*
X1653320Y-1678380D01*
X1652160Y-1677280D01*
X1651519Y-1675800D01*
X1651519Y-1674199D01*
X1652160Y-1672720D01*
X1653320Y-1671620D01*
X1654060Y-1671140D01*
X1655680Y-1669540D01*
X1656879Y-1667600D01*
X1657640Y-1665460D01*
X1657920Y-1662960D01*
X1657920Y-1657820D01*
X1641360Y-1657820D01*
X1641360Y-1672600D01*
X1641060Y-1674139D01*
X1640180Y-1675440D01*
X1638880Y-1676300D01*
X1637360Y-1676600D01*
X1622640Y-1676600D01*
X1621120Y-1676300D01*
X1619820Y-1675440D01*
X1618940Y-1674139D01*
X1618640Y-1672600D01*
X1618640Y-1657820D01*
X1602080Y-1657820D01*
X1602080Y-1662960D01*
X1602360Y-1665460D01*
X1603120Y-1667600D01*
X1604319Y-1669540D01*
X1605940Y-1671140D01*
X1606680Y-1671620D01*
X1607840Y-1672720D01*
X1608480Y-1674199D01*
X1608480Y-1675800D01*
X1607840Y-1677280D01*
X1606680Y-1678380D01*
X1605940Y-1678860D01*
X1604340Y-1680440D01*
X1602840Y-1682900D01*
X1601960Y-1683899D01*
X1600780Y-1684580D01*
X1599440Y-1684800D01*
X1499199Y-1684800D01*
X1497680Y-1684500D01*
X1493220Y-1681399D01*
X1489820Y-1679820D01*
X1486300Y-1678860D01*
X1484760Y-1678060D01*
X1483700Y-1676699D01*
X1483320Y-1675000D01*
X1483700Y-1673300D01*
X1484760Y-1671940D01*
X1486300Y-1671140D01*
X1489820Y-1670180D01*
X1493220Y-1668600D01*
X1496300Y-1666459D01*
X1498940Y-1663800D01*
X1501080Y-1660740D01*
X1502660Y-1657340D01*
X1503640Y-1653740D01*
X1503959Y-1650000D01*
X1503640Y-1646339D01*
X1503880Y-1644620D01*
X1504800Y-1643160D01*
X1699019Y-1448940D01*
X1700320Y-1448060D01*
X1701860Y-1447760D01*
X1910200Y-1447760D01*
X1912700Y-1447480D01*
X1914840Y-1446720D01*
X1916780Y-1445520D01*
X1918380Y-1443899D01*
X1919600Y-1441980D01*
X1920340Y-1439820D01*
X1920620Y-1437340D01*
X1920620Y-1382660D01*
X1920340Y-1380180D01*
X1919600Y-1378020D01*
X1918380Y-1376100D01*
X1916780Y-1374480D01*
X1914840Y-1373280D01*
X1912700Y-1372520D01*
X1910200Y-1372240D01*
X1819019Y-1372240D01*
X1817480Y-1371940D01*
X1816180Y-1371060D01*
X1815320Y-1369760D01*
X1815020Y-1368240D01*
X1815220Y-1296800D01*
X1815480Y-1295380D01*
X1816240Y-1294139D01*
X1817380Y-1293260D01*
X1818760Y-1292840D01*
X1820560Y-1292640D01*
X1822720Y-1291879D01*
X1824640Y-1290680D01*
X1826260Y-1289060D01*
X1827480Y-1287140D01*
X1828220Y-1284980D01*
X1828500Y-1282500D01*
X1828500Y-1247500D01*
X1828220Y-1245020D01*
X1827480Y-1242860D01*
X1826260Y-1240940D01*
X1824640Y-1239320D01*
X1822720Y-1238120D01*
X1820560Y-1237360D01*
X1818080Y-1237080D01*
X1787040Y-1237080D01*
X1784540Y-1237360D01*
X1782400Y-1238120D01*
X1780460Y-1239320D01*
X1778860Y-1240940D01*
X1778380Y-1241680D01*
X1777280Y-1242840D01*
X1775800Y-1243480D01*
X1774199Y-1243480D01*
X1772720Y-1242840D01*
X1771620Y-1241680D01*
X1771140Y-1240940D01*
X1769540Y-1239320D01*
X1767600Y-1238120D01*
X1765460Y-1237360D01*
X1762960Y-1237080D01*
X1757820Y-1237080D01*
X1757820Y-1253640D01*
X1772600Y-1253640D01*
X1774139Y-1253940D01*
X1775440Y-1254820D01*
X1776300Y-1256120D01*
X1776600Y-1257640D01*
X1776600Y-1272360D01*
X1776300Y-1273880D01*
X1775440Y-1275180D01*
X1774139Y-1276060D01*
X1772600Y-1276360D01*
X1757820Y-1276360D01*
X1757820Y-1292920D01*
X1762960Y-1292920D01*
X1765460Y-1292640D01*
X1767600Y-1291879D01*
X1769540Y-1290680D01*
X1771140Y-1289060D01*
X1771620Y-1288320D01*
X1772720Y-1287160D01*
X1774199Y-1286519D01*
X1775800Y-1286519D01*
X1777280Y-1287160D01*
X1778380Y-1288320D01*
X1778860Y-1289060D01*
X1780460Y-1290680D01*
X1782400Y-1291879D01*
X1784540Y-1292640D01*
X1786260Y-1292820D01*
X1787660Y-1293260D01*
X1788800Y-1294139D01*
X1789560Y-1295380D01*
X1789820Y-1296819D01*
X1789620Y-1368260D01*
X1789300Y-1369780D01*
X1788440Y-1371080D01*
X1787140Y-1371940D01*
X1785620Y-1372240D01*
X1694120Y-1372240D01*
X1691620Y-1372520D01*
X1689480Y-1373280D01*
X1687540Y-1374480D01*
X1685940Y-1376100D01*
X1684720Y-1378020D01*
X1683980Y-1380180D01*
X1683700Y-1382660D01*
X1683700Y-1426699D01*
X1683380Y-1428220D01*
X1682520Y-1429520D01*
X1510680Y-1601360D01*
X1509440Y-1602200D01*
X1507960Y-1602520D01*
X1506480Y-1602280D01*
X1505200Y-1601519D01*
X1504280Y-1600320D01*
X1503860Y-1598880D01*
X1503640Y-1596260D01*
X1502660Y-1592660D01*
X1501080Y-1589259D01*
X1498940Y-1586200D01*
X1496300Y-1583540D01*
X1493220Y-1581399D01*
X1489820Y-1579820D01*
X1486220Y-1578839D01*
X1482300Y-1578500D01*
X1463460Y-1578500D01*
X1461940Y-1578200D01*
X1460640Y-1577320D01*
X1459780Y-1576040D01*
X1459480Y-1574500D01*
X1459480Y-1451759D01*
X1459780Y-1450220D01*
X1460640Y-1448940D01*
X1461940Y-1448060D01*
X1463460Y-1447760D01*
X1555880Y-1447760D01*
X1558360Y-1447480D01*
X1560520Y-1446720D01*
X1562440Y-1445520D01*
X1564060Y-1443899D01*
X1565260Y-1441980D01*
X1566020Y-1439820D01*
X1566300Y-1437340D01*
X1566300Y-1382660D01*
X1566020Y-1380180D01*
X1565260Y-1378020D01*
X1564060Y-1376100D01*
X1562440Y-1374480D01*
X1560520Y-1373280D01*
X1558360Y-1372520D01*
X1555880Y-1372240D01*
X1464540Y-1372240D01*
X1463000Y-1371940D01*
X1461699Y-1371060D01*
X1460840Y-1369780D01*
X1460540Y-1368240D01*
X1460540Y-1296920D01*
X1460840Y-1295380D01*
X1461699Y-1294079D01*
X1463000Y-1293220D01*
X1464540Y-1292920D01*
X1467960Y-1292920D01*
X1470460Y-1292640D01*
X1472600Y-1291879D01*
X1474540Y-1290680D01*
X1476140Y-1289060D01*
X1476620Y-1288320D01*
X1477720Y-1287160D01*
X1479199Y-1286519D01*
X1480800Y-1286519D01*
X1482280Y-1287160D01*
X1483380Y-1288320D01*
X1483860Y-1289060D01*
X1485460Y-1290680D01*
X1487400Y-1291879D01*
X1489540Y-1292640D01*
X1492040Y-1292920D01*
X1497180Y-1292920D01*
X1497180Y-1276360D01*
X1482400Y-1276360D01*
X1480860Y-1276060D01*
X1479560Y-1275180D01*
X1478700Y-1273880D01*
X1478400Y-1272360D01*
X1478400Y-1257640D01*
X1478700Y-1256120D01*
X1479560Y-1254820D01*
X1480860Y-1253940D01*
X1482400Y-1253640D01*
X1497180Y-1253640D01*
X1497180Y-1237080D01*
X1492040Y-1237080D01*
X1489540Y-1237360D01*
X1487400Y-1238120D01*
X1485460Y-1239320D01*
X1483860Y-1240940D01*
X1483380Y-1241680D01*
X1482280Y-1242840D01*
X1480800Y-1243480D01*
X1479199Y-1243480D01*
X1477720Y-1242840D01*
X1476620Y-1241680D01*
X1476140Y-1240940D01*
X1474540Y-1239320D01*
X1472600Y-1238120D01*
X1470460Y-1237360D01*
X1467960Y-1237080D01*
X1436920Y-1237080D01*
X1434440Y-1237360D01*
X1432280Y-1238120D01*
X1430360Y-1239320D01*
X1428740Y-1240940D01*
X1427520Y-1242860D01*
X1426780Y-1245020D01*
X1426500Y-1247500D01*
X1426500Y-1282500D01*
X1426780Y-1284980D01*
X1427520Y-1287140D01*
X1428740Y-1289060D01*
X1430360Y-1290680D01*
X1433860Y-1292780D01*
X1434800Y-1294120D01*
X1435140Y-1295720D01*
X1435140Y-1368240D01*
X1434840Y-1369780D01*
X1433959Y-1371060D01*
X1432660Y-1371940D01*
X1431140Y-1372240D01*
X1339780Y-1372240D01*
X1337300Y-1372520D01*
X1335140Y-1373280D01*
X1333220Y-1374480D01*
X1331600Y-1376100D01*
X1330400Y-1378020D01*
X1329640Y-1380180D01*
X1329360Y-1382660D01*
X1329360Y-1437340D01*
X1329640Y-1439820D01*
X1330400Y-1441980D01*
X1331600Y-1443899D01*
X1333220Y-1445520D01*
X1335140Y-1446720D01*
X1337300Y-1447480D01*
X1339780Y-1447760D01*
X1430060Y-1447760D01*
X1431600Y-1448060D01*
X1432900Y-1448940D01*
X1433760Y-1450220D01*
X1434079Y-1451759D01*
X1434079Y-1574500D01*
X1433760Y-1576040D01*
X1432900Y-1577320D01*
X1431600Y-1578200D01*
X1430060Y-1578500D01*
X1411240Y-1578500D01*
X1407340Y-1578839D01*
X1403720Y-1579820D01*
X1400320Y-1581399D01*
X1397260Y-1583540D01*
X1394600Y-1586200D01*
X1392460Y-1589259D01*
X1390880Y-1592660D01*
X1389900Y-1596260D01*
X1389580Y-1600000D01*
X1389900Y-1603740D01*
X1390880Y-1607340D01*
X1392460Y-1610740D01*
X1394600Y-1613800D01*
X1397260Y-1616459D01*
X1400320Y-1618600D01*
X1403720Y-1620180D01*
X1407260Y-1621140D01*
X1408779Y-1621940D01*
X1409840Y-1623300D01*
X1410220Y-1625000D01*
X1409840Y-1626699D01*
X1408779Y-1628060D01*
X1407260Y-1628860D01*
X1403720Y-1629820D01*
X1400320Y-1631399D01*
X1397260Y-1633540D01*
X1394600Y-1636200D01*
X1392460Y-1639259D01*
X1390880Y-1642660D01*
X1389900Y-1646260D01*
X1389580Y-1650000D01*
X1389900Y-1653740D01*
X1390880Y-1657340D01*
X1392460Y-1660740D01*
X1394600Y-1663800D01*
X1397260Y-1666459D01*
X1400320Y-1668600D01*
X1403720Y-1670180D01*
X1407260Y-1671140D01*
X1408779Y-1671940D01*
X1409840Y-1673300D01*
X1410220Y-1675000D01*
X1409840Y-1676699D01*
X1408779Y-1678060D01*
X1407260Y-1678860D01*
X1403720Y-1679820D01*
X1400320Y-1681399D01*
X1397260Y-1683540D01*
X1394600Y-1686200D01*
X1392460Y-1689259D01*
X1390880Y-1692660D01*
X1389900Y-1696260D01*
X1389580Y-1700000D01*
X1389900Y-1703740D01*
X1390880Y-1707340D01*
X1392460Y-1710740D01*
X1394600Y-1713800D01*
X1397260Y-1716459D01*
X1400320Y-1718600D01*
X1403720Y-1720180D01*
X1407260Y-1721140D01*
X1408779Y-1721940D01*
X1409840Y-1723300D01*
X1410220Y-1725000D01*
X1409840Y-1726699D01*
X1408779Y-1728060D01*
X1407260Y-1728860D01*
X1403720Y-1729820D01*
X1400320Y-1731399D01*
X1397260Y-1733540D01*
X1394600Y-1736200D01*
X1392460Y-1739259D01*
X1391240Y-1741860D01*
X1420760Y-1741860D01*
X1420760Y-1725500D01*
X1421080Y-1723959D01*
X1421940Y-1722680D01*
X1423240Y-1721800D01*
X1424760Y-1721500D01*
X1468779Y-1721500D01*
X1470300Y-1721800D01*
X1471600Y-1722680D01*
X1472480Y-1723959D01*
X1472780Y-1725500D01*
X1472780Y-1741860D01*
X1502300Y-1741860D01*
X1501080Y-1739259D01*
X1498940Y-1736200D01*
X1496300Y-1733540D01*
X1493220Y-1731399D01*
X1489820Y-1729820D01*
X1486300Y-1728860D01*
X1484760Y-1728060D01*
X1483700Y-1726699D01*
X1483320Y-1725000D01*
X1483700Y-1723300D01*
X1484760Y-1721940D01*
X1486300Y-1721140D01*
X1489820Y-1720180D01*
X1493220Y-1718600D01*
X1497680Y-1715500D01*
X1499199Y-1715200D01*
X1598180Y-1715200D01*
X1599620Y-1715460D01*
X1600860Y-1716220D01*
X1601740Y-1717360D01*
X1602160Y-1718760D01*
X1602360Y-1720560D01*
X1603120Y-1722720D01*
X1604319Y-1724640D01*
X1605940Y-1726260D01*
X1607860Y-1727480D01*
X1610020Y-1728220D01*
X1612500Y-1728500D01*
X1647500Y-1728500D01*
X1649980Y-1728220D01*
X1652140Y-1727480D01*
X1654060Y-1726260D01*
X1655680Y-1724640D01*
X1656879Y-1722720D01*
X1657640Y-1720560D01*
X1657840Y-1718760D01*
X1658260Y-1717360D01*
X1659160Y-1716220D01*
X1660380Y-1715460D01*
X1661819Y-1715200D01*
X1926279Y-1715200D01*
X1927800Y-1715500D01*
X1929100Y-1716380D01*
X1929960Y-1717660D01*
X1930280Y-1719340D01*
X1929960Y-1720880D01*
X1929100Y-1722180D01*
X1927800Y-1723040D01*
X1926279Y-1723340D01*
X1921080Y-1723340D01*
X1918600Y-1723620D01*
X1916440Y-1724379D01*
X1914520Y-1725580D01*
X1912900Y-1727200D01*
X1911680Y-1729120D01*
X1910940Y-1731279D01*
X1910660Y-1733760D01*
X1910660Y-1761660D01*
X1910360Y-1763180D01*
X1909480Y-1764480D01*
X1908180Y-1765360D01*
X1906660Y-1765660D01*
X1878760Y-1765660D01*
X1876279Y-1765940D01*
X1874120Y-1766699D01*
X1872200Y-1767900D01*
X1870580Y-1769520D01*
X1869360Y-1771440D01*
X1868620Y-1773600D01*
X1868340Y-1776080D01*
X1868340Y-1783779D01*
X1868040Y-1785320D01*
X1867160Y-1786600D01*
X1865860Y-1787480D01*
X1864340Y-1787780D01*
X1821140Y-1787780D01*
X1819860Y-1787580D01*
X1818720Y-1786960D01*
X1817660Y-1785740D01*
X1814980Y-1782980D01*
X1811900Y-1780680D01*
X1808460Y-1778959D01*
X1804780Y-1777820D01*
X1800960Y-1777340D01*
X1797120Y-1777500D01*
X1793360Y-1778300D01*
X1789780Y-1779740D01*
X1786519Y-1781759D01*
X1783620Y-1784300D01*
X1782400Y-1785820D01*
X1781020Y-1786900D01*
X1779300Y-1787300D01*
X1501699Y-1787300D01*
X1500180Y-1787000D01*
X1498880Y-1786120D01*
X1496300Y-1783540D01*
X1493220Y-1781399D01*
X1489820Y-1779820D01*
X1486300Y-1778860D01*
X1484760Y-1778060D01*
X1483700Y-1776699D01*
X1483320Y-1775000D01*
X1483700Y-1773300D01*
X1484760Y-1771940D01*
X1486300Y-1771140D01*
X1489820Y-1770180D01*
X1493220Y-1768600D01*
X1496300Y-1766459D01*
X1498940Y-1763800D01*
X1501080Y-1760740D01*
X1502300Y-1758140D01*
X1472780Y-1758140D01*
X1472780Y-1774500D01*
X1472480Y-1776040D01*
X1471600Y-1777320D01*
X1470300Y-1778200D01*
X1468779Y-1778500D01*
X1424760Y-1778500D01*
X1423240Y-1778200D01*
X1421940Y-1777320D01*
X1421080Y-1776040D01*
X1420760Y-1774500D01*
X1420760Y-1758140D01*
X1391240Y-1758140D01*
X1392460Y-1760740D01*
X1394600Y-1763800D01*
X1397260Y-1766459D01*
X1400320Y-1768600D01*
X1403720Y-1770180D01*
X1407260Y-1771140D01*
X1408779Y-1771940D01*
X1409840Y-1773300D01*
X1410220Y-1775000D01*
X1409840Y-1776699D01*
X1408779Y-1778060D01*
X1407260Y-1778860D01*
X1403720Y-1779820D01*
X1400320Y-1781399D01*
X1397260Y-1783540D01*
X1394600Y-1786200D01*
X1392460Y-1789259D01*
X1390880Y-1792660D01*
X1389900Y-1796260D01*
X1389580Y-1800000D01*
X1389900Y-1803740D01*
X1390880Y-1807340D01*
X1392460Y-1810740D01*
X1394600Y-1813800D01*
X1397260Y-1816459D01*
X1400320Y-1818600D01*
X1403720Y-1820180D01*
X1407260Y-1821140D01*
X1408779Y-1821940D01*
X1409840Y-1823300D01*
X1410220Y-1825000D01*
X1409840Y-1826699D01*
X1408779Y-1828060D01*
X1407260Y-1828860D01*
X1403720Y-1829820D01*
X1400320Y-1831399D01*
X1397260Y-1833540D01*
X1394600Y-1836200D01*
X1392460Y-1839259D01*
X1390880Y-1842660D01*
X1389900Y-1846260D01*
X1389580Y-1850000D01*
X1389900Y-1853740D01*
X1390880Y-1857340D01*
X1392460Y-1860740D01*
X1394600Y-1863800D01*
X1397260Y-1866459D01*
X1400320Y-1868600D01*
X1403720Y-1870180D01*
X1407260Y-1871140D01*
X1408779Y-1871940D01*
X1409840Y-1873300D01*
X1410220Y-1875000D01*
X1409840Y-1876699D01*
X1408779Y-1878060D01*
X1407260Y-1878860D01*
X1403720Y-1879820D01*
X1400320Y-1881399D01*
X1397260Y-1883540D01*
X1394600Y-1886200D01*
X1392460Y-1889259D01*
X1390880Y-1892660D01*
X1389900Y-1896260D01*
X1389580Y-1900000D01*
X1389900Y-1903740D01*
X1390880Y-1907340D01*
X1392460Y-1910740D01*
X1394600Y-1913800D01*
X1397260Y-1916459D01*
X1400320Y-1918600D01*
X1403720Y-1920180D01*
X1407260Y-1921140D01*
X1408779Y-1921940D01*
X1409840Y-1923300D01*
X1410220Y-1925000D01*
X1409840Y-1926699D01*
X1408779Y-1928060D01*
X1407260Y-1928860D01*
X1403720Y-1929820D01*
X1400320Y-1931399D01*
X1397260Y-1933540D01*
X1394600Y-1936200D01*
X1392460Y-1939259D01*
X1390880Y-1942660D01*
X1389900Y-1946260D01*
X1389580Y-1950000D01*
X1389900Y-1953740D01*
X1390880Y-1957340D01*
X1392460Y-1960740D01*
X1394600Y-1963800D01*
X1397260Y-1966459D01*
X1400320Y-1968600D01*
X1403720Y-1970180D01*
X1407260Y-1971140D01*
X1408779Y-1971940D01*
X1409840Y-1973300D01*
X1410220Y-1975000D01*
X1409840Y-1976699D01*
X1408779Y-1978060D01*
X1407260Y-1978860D01*
X1403720Y-1979820D01*
X1400320Y-1981399D01*
X1397260Y-1983540D01*
X1394600Y-1986200D01*
X1392460Y-1989259D01*
X1390880Y-1992660D01*
X1389900Y-1996260D01*
X1389580Y-2000000D01*
X1389900Y-2003740D01*
X1390880Y-2007340D01*
X1392460Y-2010740D01*
X1394600Y-2013800D01*
X1397260Y-2016459D01*
X1400320Y-2018600D01*
X1403720Y-2020180D01*
X1407260Y-2021140D01*
X1408779Y-2021940D01*
X1409840Y-2023300D01*
X1410220Y-2025000D01*
X1409840Y-2026699D01*
X1408779Y-2028060D01*
X1407260Y-2028860D01*
X1403720Y-2029820D01*
X1400320Y-2031399D01*
X1397260Y-2033540D01*
X1394600Y-2036200D01*
X1392460Y-2039259D01*
X1390880Y-2042660D01*
X1389900Y-2046260D01*
X1389580Y-2050000D01*
X1389900Y-2053740D01*
X1390880Y-2057340D01*
X1392460Y-2060740D01*
X1394600Y-2063800D01*
X1397260Y-2066459D01*
X1400320Y-2068600D01*
X1403720Y-2070180D01*
X1407260Y-2071140D01*
X1408779Y-2071940D01*
X1409840Y-2073300D01*
X1410220Y-2075000D01*
X1409840Y-2076699D01*
X1408779Y-2078060D01*
X1407260Y-2078860D01*
X1403720Y-2079820D01*
X1400320Y-2081399D01*
X1397260Y-2083540D01*
X1394600Y-2086200D01*
X1392460Y-2089259D01*
X1390880Y-2092660D01*
X1389900Y-2096260D01*
X1389580Y-2100000D01*
X1389900Y-2103740D01*
X1390880Y-2107340D01*
X1392460Y-2110740D01*
X1394600Y-2113800D01*
X1397260Y-2116460D01*
X1400320Y-2118600D01*
X1403720Y-2120180D01*
X1407260Y-2121140D01*
X1408779Y-2121940D01*
X1409840Y-2123300D01*
X1410220Y-2125000D01*
X1409840Y-2126700D01*
X1408779Y-2128060D01*
X1407260Y-2128860D01*
X1403720Y-2129820D01*
X1400320Y-2131400D01*
X1397260Y-2133540D01*
X1394600Y-2136200D01*
X1392460Y-2139260D01*
G37*
G36*
X2734920Y-2080860D02*
G01*
X2745380Y-2080860D01*
X2745380Y-2066620D01*
X2742860Y-2066900D01*
X2740700Y-2067640D01*
X2738780Y-2068860D01*
X2737160Y-2070460D01*
X2735960Y-2072400D01*
X2735200Y-2074540D01*
X2734920Y-2077040D01*
G37*
G36*
X2142920Y-1982920D02*
G01*
X2148080Y-1982920D01*
X2150560Y-1982640D01*
X2152720Y-1981879D01*
X2154640Y-1980680D01*
X2156260Y-1979060D01*
X2157480Y-1977140D01*
X2158220Y-1974980D01*
X2158500Y-1972500D01*
X2158500Y-1966360D01*
X2142920Y-1966360D01*
G37*
G36*
X2142920Y-1943640D02*
G01*
X2158500Y-1943640D01*
X2158500Y-1937500D01*
X2158220Y-1935020D01*
X2157480Y-1932860D01*
X2156260Y-1930940D01*
X2154640Y-1929319D01*
X2152720Y-1928120D01*
X2150560Y-1927360D01*
X2148080Y-1927080D01*
X2142920Y-1927080D01*
G37*
G36*
X1017700Y-1791860D02*
G01*
X1047220Y-1791860D01*
X1047220Y-1758140D01*
X1017700Y-1758140D01*
X1018920Y-1760740D01*
X1021060Y-1763800D01*
X1023700Y-1766459D01*
X1026780Y-1768600D01*
X1030180Y-1770180D01*
X1033700Y-1771140D01*
X1035240Y-1771940D01*
X1036300Y-1773300D01*
X1036680Y-1775000D01*
X1036300Y-1776699D01*
X1035240Y-1778060D01*
X1033700Y-1778860D01*
X1030180Y-1779820D01*
X1026780Y-1781399D01*
X1023700Y-1783540D01*
X1021060Y-1786200D01*
X1018920Y-1789259D01*
G37*
G36*
X1099240Y-1791860D02*
G01*
X1128760Y-1791860D01*
X1127540Y-1789259D01*
X1125400Y-1786200D01*
X1122740Y-1783540D01*
X1119680Y-1781399D01*
X1116280Y-1779820D01*
X1112740Y-1778860D01*
X1111220Y-1778060D01*
X1110160Y-1776699D01*
X1109780Y-1775000D01*
X1110160Y-1773300D01*
X1111220Y-1771940D01*
X1112740Y-1771140D01*
X1116280Y-1770180D01*
X1119680Y-1768600D01*
X1122740Y-1766459D01*
X1125400Y-1763800D01*
X1127540Y-1760740D01*
X1128760Y-1758140D01*
X1099240Y-1758140D01*
G37*
G36*
X2897500Y-1788500D02*
G01*
X2903639Y-1788500D01*
X2903639Y-1772920D01*
X2887080Y-1772920D01*
X2887080Y-1778080D01*
X2887360Y-1780560D01*
X2888120Y-1782720D01*
X2889320Y-1784640D01*
X2890940Y-1786260D01*
X2892860Y-1787480D01*
X2895020Y-1788220D01*
G37*
G36*
X2926360Y-1788500D02*
G01*
X2932500Y-1788500D01*
X2934980Y-1788220D01*
X2937140Y-1787480D01*
X2939060Y-1786260D01*
X2940680Y-1784640D01*
X2941880Y-1782720D01*
X2942640Y-1780560D01*
X2942919Y-1778080D01*
X2942919Y-1772920D01*
X2926360Y-1772920D01*
G37*
G36*
X2887080Y-1752180D02*
G01*
X2903639Y-1752180D01*
X2903639Y-1737400D01*
X2903940Y-1735860D01*
X2904820Y-1734560D01*
X2906120Y-1733700D01*
X2907640Y-1733400D01*
X2922360Y-1733400D01*
X2923880Y-1733700D01*
X2925179Y-1734560D01*
X2926060Y-1735860D01*
X2926360Y-1737400D01*
X2926360Y-1752180D01*
X2942919Y-1752180D01*
X2942919Y-1747040D01*
X2942640Y-1744540D01*
X2941880Y-1742400D01*
X2940680Y-1740460D01*
X2939060Y-1738860D01*
X2938320Y-1738380D01*
X2937160Y-1737280D01*
X2936520Y-1735800D01*
X2936520Y-1734199D01*
X2937160Y-1732720D01*
X2938320Y-1731620D01*
X2939060Y-1731140D01*
X2940680Y-1729540D01*
X2941880Y-1727600D01*
X2942640Y-1725460D01*
X2942919Y-1722960D01*
X2942919Y-1691920D01*
X2942640Y-1689440D01*
X2941880Y-1687280D01*
X2940680Y-1685360D01*
X2939060Y-1683740D01*
X2937140Y-1682520D01*
X2934980Y-1681780D01*
X2933519Y-1681620D01*
X2932220Y-1681240D01*
X2931120Y-1680440D01*
X2930340Y-1679340D01*
X2929980Y-1678040D01*
X2929880Y-1677040D01*
X2929020Y-1674199D01*
X2927620Y-1671560D01*
X2925600Y-1669120D01*
X2883820Y-1627340D01*
X2883039Y-1626200D01*
X2882679Y-1624840D01*
X2882360Y-1621160D01*
X2881380Y-1617440D01*
X2879800Y-1613940D01*
X2877660Y-1610740D01*
X2874980Y-1607980D01*
X2871900Y-1605680D01*
X2868460Y-1603959D01*
X2864780Y-1602820D01*
X2860680Y-1602340D01*
X2859060Y-1602080D01*
X2857679Y-1601180D01*
X2846259Y-1589760D01*
X2845440Y-1588560D01*
X2845080Y-1587140D01*
X2845500Y-1585000D01*
X2846160Y-1583760D01*
X2847180Y-1582840D01*
X2849500Y-1581380D01*
X2851080Y-1579800D01*
X2852600Y-1577280D01*
X2853500Y-1576260D01*
X2854680Y-1575600D01*
X2856019Y-1575360D01*
X2877960Y-1575360D01*
X2880140Y-1575120D01*
X2881340Y-1575160D01*
X2882460Y-1575560D01*
X2883420Y-1576260D01*
X2972640Y-1665460D01*
X2973500Y-1666759D01*
X2973800Y-1668300D01*
X2973800Y-1706060D01*
X2974080Y-1708540D01*
X2974840Y-1710700D01*
X2976040Y-1712620D01*
X2977660Y-1714240D01*
X2979580Y-1715440D01*
X2981740Y-1716200D01*
X2984220Y-1716480D01*
X3045779Y-1716480D01*
X3048260Y-1716200D01*
X3050419Y-1715440D01*
X3052340Y-1714240D01*
X3053960Y-1712620D01*
X3055160Y-1710700D01*
X3055920Y-1708540D01*
X3056200Y-1706060D01*
X3056200Y-1644500D01*
X3055920Y-1642020D01*
X3055160Y-1639860D01*
X3053960Y-1637940D01*
X3052340Y-1636320D01*
X3050419Y-1635120D01*
X3048260Y-1634360D01*
X3045779Y-1634079D01*
X2984220Y-1634079D01*
X2981740Y-1634360D01*
X2980940Y-1634640D01*
X2979460Y-1634860D01*
X2978000Y-1634540D01*
X2976780Y-1633700D01*
X2889560Y-1546480D01*
X2888700Y-1545180D01*
X2888399Y-1543640D01*
X2888399Y-1536980D01*
X2888700Y-1535460D01*
X2889560Y-1534160D01*
X2890860Y-1533280D01*
X2892400Y-1532980D01*
X2898080Y-1532980D01*
X2899620Y-1533280D01*
X2900920Y-1534160D01*
X2940880Y-1574120D01*
X2943100Y-1575920D01*
X2945460Y-1577120D01*
X2948060Y-1577820D01*
X2950160Y-1577980D01*
X2969800Y-1577980D01*
X2971340Y-1578280D01*
X2972640Y-1579160D01*
X2973500Y-1580460D01*
X2973800Y-1581980D01*
X2973800Y-1596060D01*
X2974080Y-1598540D01*
X2974840Y-1600700D01*
X2976040Y-1602620D01*
X2977660Y-1604240D01*
X2979580Y-1605440D01*
X2981740Y-1606200D01*
X2984220Y-1606480D01*
X3045779Y-1606480D01*
X3048260Y-1606200D01*
X3050419Y-1605440D01*
X3052340Y-1604240D01*
X3053960Y-1602620D01*
X3055160Y-1600700D01*
X3055920Y-1598540D01*
X3056200Y-1596060D01*
X3056200Y-1534500D01*
X3055920Y-1532020D01*
X3055160Y-1529860D01*
X3053960Y-1527940D01*
X3052340Y-1526320D01*
X3050419Y-1525120D01*
X3048260Y-1524360D01*
X3045779Y-1524079D01*
X2984220Y-1524079D01*
X2981740Y-1524360D01*
X2979580Y-1525120D01*
X2977660Y-1526320D01*
X2976040Y-1527940D01*
X2974840Y-1529860D01*
X2974080Y-1532020D01*
X2973800Y-1534500D01*
X2973800Y-1548580D01*
X2973500Y-1550120D01*
X2972640Y-1551399D01*
X2971340Y-1552280D01*
X2969800Y-1552580D01*
X2956920Y-1552580D01*
X2955380Y-1552280D01*
X2954080Y-1551399D01*
X2915779Y-1513100D01*
X2914920Y-1511819D01*
X2914620Y-1510280D01*
X2914920Y-1508760D01*
X2915779Y-1507460D01*
X2954080Y-1469160D01*
X2955380Y-1468280D01*
X2956920Y-1467980D01*
X2969800Y-1467980D01*
X2971340Y-1468280D01*
X2972640Y-1469160D01*
X2973500Y-1470460D01*
X2973800Y-1471980D01*
X2973800Y-1486060D01*
X2974080Y-1488540D01*
X2974840Y-1490700D01*
X2976040Y-1492620D01*
X2977660Y-1494240D01*
X2979580Y-1495440D01*
X2981740Y-1496200D01*
X2984220Y-1496480D01*
X3045779Y-1496480D01*
X3048260Y-1496200D01*
X3050419Y-1495440D01*
X3052340Y-1494240D01*
X3053960Y-1492620D01*
X3055160Y-1490700D01*
X3055920Y-1488540D01*
X3056200Y-1486060D01*
X3056200Y-1424500D01*
X3055920Y-1422020D01*
X3055160Y-1419860D01*
X3053960Y-1417940D01*
X3052340Y-1416320D01*
X3050419Y-1415120D01*
X3048260Y-1414360D01*
X3045779Y-1414079D01*
X2984220Y-1414079D01*
X2981740Y-1414360D01*
X2979580Y-1415120D01*
X2977660Y-1416320D01*
X2976040Y-1417940D01*
X2974840Y-1419860D01*
X2974080Y-1422020D01*
X2973800Y-1424500D01*
X2973800Y-1438580D01*
X2973500Y-1440120D01*
X2972640Y-1441399D01*
X2971340Y-1442280D01*
X2969800Y-1442580D01*
X2950200Y-1442580D01*
X2947360Y-1442880D01*
X2944840Y-1443700D01*
X2942500Y-1445060D01*
X2940899Y-1446420D01*
X2900580Y-1486740D01*
X2899300Y-1487600D01*
X2897760Y-1487900D01*
X2892400Y-1487900D01*
X2890860Y-1487600D01*
X2889560Y-1486740D01*
X2888700Y-1485440D01*
X2888399Y-1483899D01*
X2888399Y-1477240D01*
X2888700Y-1475700D01*
X2889560Y-1474400D01*
X2977020Y-1386940D01*
X2978260Y-1386120D01*
X2979700Y-1385780D01*
X2981740Y-1386200D01*
X2984220Y-1386480D01*
X3045779Y-1386480D01*
X3048260Y-1386200D01*
X3050419Y-1385440D01*
X3052340Y-1384240D01*
X3053960Y-1382620D01*
X3055160Y-1380700D01*
X3055920Y-1378540D01*
X3056200Y-1376060D01*
X3056200Y-1314500D01*
X3055920Y-1312020D01*
X3055160Y-1309860D01*
X3053960Y-1307940D01*
X3052340Y-1306320D01*
X3050419Y-1305120D01*
X3048260Y-1304360D01*
X3045779Y-1304079D01*
X2984220Y-1304079D01*
X2981740Y-1304360D01*
X2979580Y-1305120D01*
X2977660Y-1306320D01*
X2976040Y-1307940D01*
X2974840Y-1309860D01*
X2974080Y-1312020D01*
X2973800Y-1314500D01*
X2973800Y-1352600D01*
X2973500Y-1354120D01*
X2972640Y-1355420D01*
X2864020Y-1464019D01*
X2862720Y-1464900D01*
X2861200Y-1465200D01*
X2856019Y-1465200D01*
X2854680Y-1464960D01*
X2853500Y-1464300D01*
X2852600Y-1463280D01*
X2851080Y-1460760D01*
X2849520Y-1459199D01*
X2847000Y-1457680D01*
X2845980Y-1456780D01*
X2845320Y-1455600D01*
X2845080Y-1454259D01*
X2845080Y-1432320D01*
X2844800Y-1429820D01*
X2844060Y-1427680D01*
X2842840Y-1425740D01*
X2841220Y-1424139D01*
X2839300Y-1422920D01*
X2837140Y-1422180D01*
X2834660Y-1421900D01*
X2826380Y-1421900D01*
X2824860Y-1421579D01*
X2823560Y-1420720D01*
X2822679Y-1419420D01*
X2822380Y-1417900D01*
X2822380Y-1411639D01*
X2822640Y-1410240D01*
X2823380Y-1409000D01*
X2824500Y-1408120D01*
X2825880Y-1407680D01*
X2829780Y-1407180D01*
X2833460Y-1406040D01*
X2836900Y-1404319D01*
X2839980Y-1402020D01*
X2842660Y-1399259D01*
X2844800Y-1396060D01*
X2846380Y-1392560D01*
X2847360Y-1388839D01*
X2847679Y-1385000D01*
X2847360Y-1381160D01*
X2846380Y-1377440D01*
X2844800Y-1373940D01*
X2842660Y-1370740D01*
X2839980Y-1367980D01*
X2836900Y-1365680D01*
X2833460Y-1363959D01*
X2829780Y-1362820D01*
X2825960Y-1362340D01*
X2822120Y-1362500D01*
X2818360Y-1363300D01*
X2814780Y-1364740D01*
X2811520Y-1366759D01*
X2810200Y-1367900D01*
X2809060Y-1368620D01*
X2807740Y-1368899D01*
X2806400Y-1368720D01*
X2805179Y-1368120D01*
X2801900Y-1365680D01*
X2798460Y-1363959D01*
X2794780Y-1362820D01*
X2790960Y-1362340D01*
X2787120Y-1362500D01*
X2783360Y-1363300D01*
X2779780Y-1364740D01*
X2776520Y-1366759D01*
X2775200Y-1367900D01*
X2774060Y-1368620D01*
X2772740Y-1368899D01*
X2771400Y-1368720D01*
X2770179Y-1368120D01*
X2766900Y-1365680D01*
X2763460Y-1363959D01*
X2759780Y-1362820D01*
X2755960Y-1362340D01*
X2752120Y-1362500D01*
X2748360Y-1363300D01*
X2744780Y-1364740D01*
X2741520Y-1366759D01*
X2738620Y-1369300D01*
X2736200Y-1372300D01*
X2734320Y-1375660D01*
X2733039Y-1379280D01*
X2732400Y-1383080D01*
X2732400Y-1386920D01*
X2733039Y-1390720D01*
X2734320Y-1394340D01*
X2736200Y-1397700D01*
X2738620Y-1400700D01*
X2741520Y-1403240D01*
X2744780Y-1405260D01*
X2748360Y-1406699D01*
X2752120Y-1407500D01*
X2753780Y-1407580D01*
X2755260Y-1407920D01*
X2756500Y-1408800D01*
X2757320Y-1410080D01*
X2757620Y-1411560D01*
X2757620Y-1417900D01*
X2757400Y-1419160D01*
X2756820Y-1420300D01*
X2755880Y-1421180D01*
X2755880Y-1426279D01*
X2755659Y-1427600D01*
X2754880Y-1429820D01*
X2754600Y-1432320D01*
X2754600Y-1452940D01*
X2754300Y-1454460D01*
X2753440Y-1455760D01*
X2752140Y-1456620D01*
X2750600Y-1456940D01*
X2749380Y-1456940D01*
X2747760Y-1456600D01*
X2746440Y-1455640D01*
X2745600Y-1454220D01*
X2731600Y-1454220D01*
X2730080Y-1453920D01*
X2728780Y-1453060D01*
X2727900Y-1451759D01*
X2727600Y-1450220D01*
X2727600Y-1440140D01*
X2727900Y-1438600D01*
X2728780Y-1437300D01*
X2730080Y-1436440D01*
X2731600Y-1436140D01*
X2745380Y-1436140D01*
X2745380Y-1421900D01*
X2742860Y-1422180D01*
X2740700Y-1422920D01*
X2738780Y-1424139D01*
X2737160Y-1425740D01*
X2735960Y-1427680D01*
X2735200Y-1429820D01*
X2735000Y-1431540D01*
X2734540Y-1433000D01*
X2733560Y-1434180D01*
X2732200Y-1434920D01*
X2730659Y-1435060D01*
X2729180Y-1434640D01*
X2727980Y-1433660D01*
X2727220Y-1432320D01*
X2726480Y-1430020D01*
X2725140Y-1427680D01*
X2723780Y-1426100D01*
X2662380Y-1364700D01*
X2661500Y-1363400D01*
X2661200Y-1361860D01*
X2661200Y-1314500D01*
X2660920Y-1312020D01*
X2660160Y-1309860D01*
X2658960Y-1307940D01*
X2657340Y-1306320D01*
X2655419Y-1305120D01*
X2653260Y-1304360D01*
X2650779Y-1304079D01*
X2589220Y-1304079D01*
X2586740Y-1304360D01*
X2584580Y-1305120D01*
X2582660Y-1306320D01*
X2581040Y-1307940D01*
X2579840Y-1309860D01*
X2579080Y-1312020D01*
X2578800Y-1314500D01*
X2578800Y-1376060D01*
X2579080Y-1378540D01*
X2579840Y-1380700D01*
X2581040Y-1382620D01*
X2582660Y-1384240D01*
X2584580Y-1385440D01*
X2586740Y-1386200D01*
X2589220Y-1386480D01*
X2646580Y-1386480D01*
X2648120Y-1386780D01*
X2649420Y-1387660D01*
X2701040Y-1439280D01*
X2701900Y-1440560D01*
X2702200Y-1442100D01*
X2702200Y-1461720D01*
X2701860Y-1463320D01*
X2700920Y-1464640D01*
X2699520Y-1465480D01*
X2697400Y-1466240D01*
X2695460Y-1467440D01*
X2693860Y-1469060D01*
X2692640Y-1470980D01*
X2691900Y-1473140D01*
X2691620Y-1475620D01*
X2691620Y-1486200D01*
X2691900Y-1488680D01*
X2692380Y-1490760D01*
X2691900Y-1492820D01*
X2691680Y-1494800D01*
X2691240Y-1496220D01*
X2690299Y-1497400D01*
X2689020Y-1498140D01*
X2687540Y-1498360D01*
X2686100Y-1498020D01*
X2684860Y-1497180D01*
X2662380Y-1474700D01*
X2661500Y-1473400D01*
X2661200Y-1471860D01*
X2661200Y-1424500D01*
X2660920Y-1422020D01*
X2660160Y-1419860D01*
X2658960Y-1417940D01*
X2657340Y-1416320D01*
X2655419Y-1415120D01*
X2653260Y-1414360D01*
X2650779Y-1414079D01*
X2589220Y-1414079D01*
X2586740Y-1414360D01*
X2584580Y-1415120D01*
X2582660Y-1416320D01*
X2581040Y-1417940D01*
X2579840Y-1419860D01*
X2579080Y-1422020D01*
X2578800Y-1424500D01*
X2578800Y-1486060D01*
X2579080Y-1488540D01*
X2579840Y-1490700D01*
X2581040Y-1492620D01*
X2582660Y-1494240D01*
X2584580Y-1495440D01*
X2586740Y-1496200D01*
X2589220Y-1496480D01*
X2646580Y-1496480D01*
X2648120Y-1496780D01*
X2649420Y-1497660D01*
X2679220Y-1527460D01*
X2680080Y-1528760D01*
X2680380Y-1530280D01*
X2680080Y-1531819D01*
X2679220Y-1533100D01*
X2668039Y-1544300D01*
X2666740Y-1545160D01*
X2665200Y-1545460D01*
X2663680Y-1545160D01*
X2662380Y-1544300D01*
X2661500Y-1543000D01*
X2661200Y-1541459D01*
X2661200Y-1534500D01*
X2660920Y-1532020D01*
X2660160Y-1529860D01*
X2658960Y-1527940D01*
X2657340Y-1526320D01*
X2655419Y-1525120D01*
X2653260Y-1524360D01*
X2650779Y-1524079D01*
X2589220Y-1524079D01*
X2586740Y-1524360D01*
X2584580Y-1525120D01*
X2582660Y-1526320D01*
X2581040Y-1527940D01*
X2579840Y-1529860D01*
X2579080Y-1532020D01*
X2578800Y-1534500D01*
X2578800Y-1596060D01*
X2579080Y-1598540D01*
X2579840Y-1600700D01*
X2581040Y-1602620D01*
X2582660Y-1604240D01*
X2584580Y-1605440D01*
X2586740Y-1606200D01*
X2589220Y-1606480D01*
X2650779Y-1606480D01*
X2653260Y-1606200D01*
X2655419Y-1605440D01*
X2657340Y-1604240D01*
X2658960Y-1602620D01*
X2660160Y-1600700D01*
X2660920Y-1598540D01*
X2661200Y-1596060D01*
X2661200Y-1581960D01*
X2661460Y-1580520D01*
X2662220Y-1579280D01*
X2663380Y-1578400D01*
X2664780Y-1577980D01*
X2667640Y-1577680D01*
X2670160Y-1576860D01*
X2672500Y-1575520D01*
X2674100Y-1574160D01*
X2684900Y-1563340D01*
X2686120Y-1562500D01*
X2687580Y-1562180D01*
X2689040Y-1562400D01*
X2690340Y-1563140D01*
X2691259Y-1564300D01*
X2691700Y-1565720D01*
X2691900Y-1567420D01*
X2692640Y-1569580D01*
X2693860Y-1571500D01*
X2695460Y-1573120D01*
X2696580Y-1573820D01*
X2697640Y-1574780D01*
X2698279Y-1576060D01*
X2698440Y-1577480D01*
X2698100Y-1578860D01*
X2697280Y-1580040D01*
X2644420Y-1632900D01*
X2643120Y-1633779D01*
X2641580Y-1634079D01*
X2589220Y-1634079D01*
X2586740Y-1634360D01*
X2584580Y-1635120D01*
X2582660Y-1636320D01*
X2581040Y-1637940D01*
X2579840Y-1639860D01*
X2579080Y-1642020D01*
X2578800Y-1644500D01*
X2578800Y-1706060D01*
X2579080Y-1708540D01*
X2579840Y-1710700D01*
X2581040Y-1712620D01*
X2582660Y-1714240D01*
X2584580Y-1715440D01*
X2586740Y-1716200D01*
X2589220Y-1716480D01*
X2650779Y-1716480D01*
X2653260Y-1716200D01*
X2655419Y-1715440D01*
X2657340Y-1714240D01*
X2658960Y-1712620D01*
X2660160Y-1710700D01*
X2660920Y-1708540D01*
X2661200Y-1706060D01*
X2661200Y-1653700D01*
X2661500Y-1652160D01*
X2662380Y-1650860D01*
X2723740Y-1589500D01*
X2725520Y-1587300D01*
X2726960Y-1584360D01*
X2727900Y-1583160D01*
X2729200Y-1582360D01*
X2730720Y-1582140D01*
X2732580Y-1582660D01*
X2733820Y-1583540D01*
X2734640Y-1584820D01*
X2734920Y-1586300D01*
X2734920Y-1608240D01*
X2735200Y-1610740D01*
X2735960Y-1612880D01*
X2737160Y-1614820D01*
X2738780Y-1616420D01*
X2740700Y-1617640D01*
X2742860Y-1618380D01*
X2745340Y-1618660D01*
X2755920Y-1618660D01*
X2758399Y-1618380D01*
X2760480Y-1617900D01*
X2762540Y-1618380D01*
X2765020Y-1618660D01*
X2775600Y-1618660D01*
X2778100Y-1618380D01*
X2780160Y-1617900D01*
X2782220Y-1618380D01*
X2784720Y-1618660D01*
X2795280Y-1618660D01*
X2797780Y-1618380D01*
X2799840Y-1617900D01*
X2801920Y-1618380D01*
X2804400Y-1618660D01*
X2814980Y-1618660D01*
X2817460Y-1618380D01*
X2819520Y-1617900D01*
X2821600Y-1618380D01*
X2824080Y-1618660D01*
X2830520Y-1618660D01*
X2832040Y-1618980D01*
X2833340Y-1619840D01*
X2836220Y-1622720D01*
X2837100Y-1624019D01*
X2837400Y-1625540D01*
X2837400Y-1626920D01*
X2838039Y-1630720D01*
X2839320Y-1634340D01*
X2841200Y-1637700D01*
X2843620Y-1640700D01*
X2846520Y-1643240D01*
X2849780Y-1645260D01*
X2853360Y-1646699D01*
X2857120Y-1647500D01*
X2859620Y-1647600D01*
X2861060Y-1647940D01*
X2862280Y-1648779D01*
X2891259Y-1677760D01*
X2892140Y-1679060D01*
X2892440Y-1680600D01*
X2892140Y-1682120D01*
X2891259Y-1683420D01*
X2889320Y-1685360D01*
X2888120Y-1687280D01*
X2887360Y-1689440D01*
X2887080Y-1691920D01*
X2887080Y-1722960D01*
X2887360Y-1725460D01*
X2888120Y-1727600D01*
X2889320Y-1729540D01*
X2890940Y-1731140D01*
X2891680Y-1731620D01*
X2892840Y-1732720D01*
X2893480Y-1734199D01*
X2893480Y-1735800D01*
X2892840Y-1737280D01*
X2891680Y-1738380D01*
X2890940Y-1738860D01*
X2889320Y-1740460D01*
X2888120Y-1742400D01*
X2887360Y-1744540D01*
X2887080Y-1747040D01*
G37*
G36*
X891919Y-1682920D02*
G01*
X897080Y-1682920D01*
X897080Y-1666360D01*
X881500Y-1666360D01*
X881500Y-1672500D01*
X881780Y-1674980D01*
X882520Y-1677140D01*
X883740Y-1679060D01*
X885360Y-1680680D01*
X887280Y-1681879D01*
X889440Y-1682640D01*
G37*
G36*
X1866920Y-1672920D02*
G01*
X1872080Y-1672920D01*
X1872080Y-1656360D01*
X1856500Y-1656360D01*
X1856500Y-1662500D01*
X1856780Y-1664980D01*
X1857520Y-1667140D01*
X1858740Y-1669060D01*
X1860360Y-1670680D01*
X1862280Y-1671879D01*
X1864440Y-1672640D01*
G37*
G36*
X881500Y-1643640D02*
G01*
X897080Y-1643640D01*
X897080Y-1627080D01*
X891919Y-1627080D01*
X889440Y-1627360D01*
X887280Y-1628120D01*
X885360Y-1629319D01*
X883740Y-1630940D01*
X882520Y-1632860D01*
X881780Y-1635020D01*
X881500Y-1637500D01*
G37*
G36*
X1602080Y-1637080D02*
G01*
X1618640Y-1637080D01*
X1618640Y-1621500D01*
X1612500Y-1621500D01*
X1610020Y-1621780D01*
X1607860Y-1622520D01*
X1605940Y-1623740D01*
X1604319Y-1625360D01*
X1603120Y-1627280D01*
X1602360Y-1629440D01*
X1602080Y-1631920D01*
G37*
G36*
X1641360Y-1637080D02*
G01*
X1657920Y-1637080D01*
X1657920Y-1631920D01*
X1657640Y-1629440D01*
X1656879Y-1627280D01*
X1655680Y-1625360D01*
X1654060Y-1623740D01*
X1652140Y-1622520D01*
X1649980Y-1621780D01*
X1647500Y-1621500D01*
X1641360Y-1621500D01*
G37*
G36*
X1856500Y-1633640D02*
G01*
X1872080Y-1633640D01*
X1872080Y-1617080D01*
X1866920Y-1617080D01*
X1864440Y-1617360D01*
X1862280Y-1618120D01*
X1860360Y-1619319D01*
X1858740Y-1620940D01*
X1857520Y-1622860D01*
X1856780Y-1625020D01*
X1856500Y-1627500D01*
G37*
G36*
X1861920Y-1602920D02*
G01*
X1867080Y-1602920D01*
X1867080Y-1586360D01*
X1851500Y-1586360D01*
X1851500Y-1592500D01*
X1851780Y-1594980D01*
X1852520Y-1597140D01*
X1853740Y-1599060D01*
X1855360Y-1600680D01*
X1857280Y-1601879D01*
X1859440Y-1602640D01*
G37*
G36*
X1851500Y-1563640D02*
G01*
X1867080Y-1563640D01*
X1867080Y-1547080D01*
X1861920Y-1547080D01*
X1859440Y-1547360D01*
X1857280Y-1548120D01*
X1855360Y-1549319D01*
X1853740Y-1550940D01*
X1852520Y-1552860D01*
X1851780Y-1555020D01*
X1851500Y-1557500D01*
G37*
G36*
X1731920Y-1292920D02*
G01*
X1737080Y-1292920D01*
X1737080Y-1276360D01*
X1721500Y-1276360D01*
X1721500Y-1282500D01*
X1721780Y-1284980D01*
X1722520Y-1287140D01*
X1723740Y-1289060D01*
X1725360Y-1290680D01*
X1727280Y-1291879D01*
X1729440Y-1292640D01*
G37*
G36*
X1517920Y-1292920D02*
G01*
X1523080Y-1292920D01*
X1525560Y-1292640D01*
X1527720Y-1291879D01*
X1529640Y-1290680D01*
X1531260Y-1289060D01*
X1532480Y-1287140D01*
X1533220Y-1284980D01*
X1533500Y-1282500D01*
X1533500Y-1276360D01*
X1517920Y-1276360D01*
G37*
G36*
X1517920Y-1253640D02*
G01*
X1533500Y-1253640D01*
X1533500Y-1247500D01*
X1533220Y-1245020D01*
X1532480Y-1242860D01*
X1531260Y-1240940D01*
X1529640Y-1239320D01*
X1527720Y-1238120D01*
X1525560Y-1237360D01*
X1523080Y-1237080D01*
X1517920Y-1237080D01*
G37*
G36*
X1721500Y-1253640D02*
G01*
X1737080Y-1253640D01*
X1737080Y-1237080D01*
X1731920Y-1237080D01*
X1729440Y-1237360D01*
X1727280Y-1238120D01*
X1725360Y-1239320D01*
X1723740Y-1240940D01*
X1722520Y-1242860D01*
X1721780Y-1245020D01*
X1721500Y-1247500D01*
G37*

%LPD*%
D10*
X-450000Y-280000D02*
G01*
X-493784Y-236215D01*
X-648820Y-236215D01*
X-295000Y-240000D02*
G01*
X-338153Y-196846D01*
X-648820Y-196846D01*
X-140000Y-200000D02*
G01*
X-182523Y-157476D01*
X-648820Y-157476D01*
X10000Y-160000D02*
G01*
X-31894Y-118105D01*
X-648820Y-118105D01*
X15000Y-35000D02*
G01*
X-28735Y-78735D01*
X-648820Y-78735D01*
X-140000Y15000D02*
G01*
X-194364Y-39364D01*
X-648820Y-39364D01*
X-300000Y55000D02*
G01*
X-354994Y5D01*
X-648820Y5D01*
X-450000Y100000D02*
G01*
X-510625Y39375D01*
X-648820Y39375D01*
X-450000Y100000D02*
G01*
X65000Y100000D01*
X235000Y-70000D01*
X335850Y-70000D01*
X505000Y155000D02*
G01*
X554149Y105850D01*
X554149Y-20000D01*
X385000Y155000D02*
G01*
X335850Y105850D01*
X335850Y-20000D01*
X-648800Y-275599D02*
G01*
X-534400Y-390000D01*
X-40000Y-390000D01*
X230000Y-120000D01*
X335799Y-120000D01*
D11*
X554149Y-70000D02*
G01*
X556590Y-67559D01*
X660000Y-67559D01*
X340000Y-252440D02*
G01*
X340000Y-174198D01*
X335801Y-170000D01*
X1415000Y-20000D02*
G01*
X1452439Y-20000D01*
X1540000Y67559D01*
D10*
X827560Y-20000D02*
G01*
X935342Y-20000D01*
X935342Y-20000D02*
G01*
X937439Y-22098D01*
X937439Y-115000D01*
X992560Y-115000D02*
G01*
X1110000Y-115000D01*
X1115000Y-120000D01*
X994660Y-20000D02*
G01*
X1115000Y-20000D01*
D11*
X750000Y-217440D02*
G01*
X1112439Y-217440D01*
X1115000Y-220000D01*
X340000Y-252399D02*
G01*
X542600Y-252399D01*
X577600Y-217399D01*
X750000Y-217399D01*
D10*
X1115000Y-120000D02*
G01*
X1125000Y-120000D01*
X1059660Y-185340D01*
X1030000Y-185340D01*
X1115000Y-20000D02*
G01*
X1315000Y-20000D01*
X1415000Y-120000D01*
D11*
X2285000Y14659D02*
G01*
X2090339Y14659D01*
X2085000Y20000D01*
D10*
X1672559Y-80000D02*
G01*
X1785000Y-80000D01*
D11*
X1540000Y67561D02*
G01*
X2037439Y67561D01*
X2085000Y20000D01*
X1540000Y-282561D02*
G01*
X1682439Y-282561D01*
X1785000Y-180000D01*
D10*
X2005339Y-255000D02*
G01*
X1960000Y-255000D01*
X1785000Y-80000D01*
X2064657Y-255000D02*
G01*
X2077560Y-255000D01*
X2195000Y-137559D01*
X2195000Y-137561D02*
G01*
X2285000Y-47561D01*
X2285000Y-44659D01*
X2085000Y-80000D02*
G01*
X2087439Y-82440D01*
X2195000Y-82440D01*
D11*
X1787560Y-310000D02*
G01*
X1787560Y-182559D01*
X1785000Y-180000D01*
X2285000Y14661D02*
G01*
X2482200Y14661D01*
X2482200Y-20199D01*
X772439Y-20000D02*
G01*
X724839Y-67600D01*
X660000Y-67600D01*
X772399Y-20000D02*
G01*
X772399Y-12600D01*
X815000Y30000D01*
X1365000Y30000D01*
X1415000Y-20000D01*
D10*
X1785000Y20000D02*
G01*
X1985000Y20000D01*
X2085000Y-80000D01*
D11*
X2262559Y120000D02*
G01*
X2285000Y97559D01*
X2285000Y14659D01*
X2285000Y14661D02*
G01*
X2315339Y-15679D01*
X2315339Y-170000D01*
X2315339Y-170000D02*
G01*
X2319701Y-170000D01*
X2374701Y-225000D01*
X2475000Y-225000D01*
X2507500Y-192498D01*
X2507500Y-174800D01*
D10*
X2374660Y-170000D02*
G01*
X2375000Y-170000D01*
X2410000Y-205000D01*
X2465000Y-205000D01*
X2482211Y-187791D01*
X2482211Y-169800D01*
X1785000Y-180000D02*
G01*
X1900000Y-295000D01*
X2435000Y-295000D01*
X2533400Y-196599D01*
X2533400Y-169800D01*
D11*
X2400000Y-267440D02*
G01*
X2400000Y-225000D01*
D10*
X2680000Y-114659D02*
G01*
X2515342Y-114659D01*
X2482201Y-147800D01*
X2482201Y-169800D01*
X2680000Y-55340D02*
G01*
X2515338Y-55340D01*
X2507798Y-47800D01*
X2507798Y-20199D01*
X2680000Y-114661D02*
G01*
X2841260Y46599D01*
X2841260Y162600D01*
X2680000Y-114659D02*
G01*
X2680000Y-264657D01*
X2679657Y-265000D01*
X2820000Y-355000D02*
G01*
X2900309Y-274690D01*
X2900309Y162600D01*
X3000000Y-355000D02*
G01*
X2920000Y-275000D01*
X2920000Y162600D01*
X3000000Y-230000D02*
G01*
X2939679Y-169679D01*
X2939679Y162600D01*
X2815000Y-230000D02*
G01*
X2880630Y-164369D01*
X2880630Y162600D01*
X2815000Y-100000D02*
G01*
X2860940Y-54059D01*
X2860940Y162600D01*
X2959369Y162600D02*
G01*
X2959369Y-54369D01*
X3005000Y-100000D01*
X3010000Y45000D02*
G01*
X2979049Y75949D01*
X2979049Y162600D01*
D11*
X1540000Y-282559D02*
G01*
X1177560Y-282559D01*
X1115000Y-220000D01*
D10*
X1073231Y-1900000D02*
G01*
X1055000Y-1900000D01*
X978739Y-1976260D01*
X707600Y-1976260D01*
X707600Y-1995940D02*
G01*
X979059Y-1995940D01*
X1025000Y-1950000D01*
X1073231Y-1950000D01*
X707600Y-2015630D02*
G01*
X979369Y-2015630D01*
X995000Y-2000000D01*
X1073231Y-2000000D01*
X1073231Y-2050000D02*
G01*
X995000Y-2050000D01*
X980309Y-2035309D01*
X707600Y-2035309D01*
X707600Y-2055000D02*
G01*
X980000Y-2055000D01*
X1025000Y-2100000D01*
X1073231Y-2100000D01*
X707600Y-2074679D02*
G01*
X979679Y-2074679D01*
X1030000Y-2125000D01*
X1180000Y-2125000D01*
X1305000Y-2250000D01*
X1446768Y-2250000D01*
X1452439Y-1265000D02*
G01*
X1447834Y-1269605D01*
X1447834Y-1410000D01*
X1447834Y-1410000D02*
G01*
X1446769Y-1411064D01*
X1446769Y-1600000D01*
X1802200Y-1410000D02*
G01*
X1802600Y-1265000D01*
X707600Y-2114050D02*
G01*
X669050Y-2114050D01*
X620000Y-2065000D01*
X620000Y-1805000D01*
X850000Y-1575000D01*
X1115000Y-1575000D01*
X1130000Y-1590000D01*
X1130000Y-1635000D01*
X1115000Y-1650000D01*
X1073198Y-1650000D01*
X707600Y-2094369D02*
G01*
X669369Y-2094369D01*
X655000Y-2080000D01*
X655000Y-1790000D01*
X845000Y-1600000D01*
X1073198Y-1600000D01*
D11*
X962600Y-1655000D02*
G01*
X995000Y-1655000D01*
X1040000Y-1700000D01*
X1073199Y-1700000D01*
D10*
X950000Y-1770000D02*
G01*
X1030000Y-1850000D01*
X1073230Y-1850000D01*
D11*
X1582439Y-1700000D02*
G01*
X1446768Y-1700000D01*
D10*
X1895280Y-1800479D02*
G01*
X1800479Y-1800479D01*
X1800000Y-1800000D01*
D11*
X1945469Y-1750279D02*
G01*
X1945469Y-1700470D01*
X1945000Y-1700000D01*
X1932559Y-1575000D02*
G01*
X2004530Y-1646970D01*
X2004530Y-1750279D01*
X2077440Y-1955000D02*
G01*
X2057440Y-1975000D01*
X1955000Y-1975000D01*
D10*
X1802200Y-1410000D02*
G01*
X1720000Y-1410000D01*
X1480000Y-1650000D01*
X1446800Y-1650000D01*
D11*
X2890000Y-2327438D02*
G01*
X2890000Y-2300000D01*
X2860000Y-2270000D01*
D10*
X2585000Y-2350000D02*
G01*
X2714902Y-2220097D01*
X2714902Y-2204369D01*
X2585000Y-2020000D02*
G01*
X2710321Y-2145322D01*
X2714902Y-2145322D01*
X2980000Y-2005000D02*
G01*
X2865097Y-2119902D01*
X2865097Y-2125630D01*
X2585000Y-2130000D02*
G01*
X2645000Y-2130000D01*
X2680000Y-2165000D01*
X2714902Y-2165000D01*
X2585000Y-2240000D02*
G01*
X2625000Y-2240000D01*
X2680308Y-2184692D01*
X2714902Y-2184692D01*
X2980000Y-2225000D02*
G01*
X2960000Y-2225000D01*
X2900000Y-2165000D01*
X2865097Y-2165000D01*
X2980000Y-2115000D02*
G01*
X2930000Y-2115000D01*
X2899678Y-2145322D01*
X2865097Y-2145322D01*
X2980000Y-2335000D02*
G01*
X2935000Y-2290000D01*
X2935000Y-2235000D01*
X2884700Y-2184699D01*
X2865100Y-2184699D01*
X2809679Y-2089899D02*
G01*
X2809683Y-2040317D01*
X2825000Y-2025000D01*
X2790000Y-2025000D02*
G01*
X2790000Y-2089899D01*
X2770309Y-2089899D02*
G01*
X2770312Y-2040313D01*
X2755000Y-2025000D01*
X3015000Y-1565281D02*
G01*
X2950000Y-1565281D01*
X2905000Y-1520281D01*
X2865097Y-1520281D01*
D11*
X2915000Y-1707440D02*
G01*
X2915000Y-1680000D01*
X2860000Y-1625000D01*
D10*
X2620000Y-1455281D02*
G01*
X2625000Y-1455281D01*
X2690000Y-1520281D01*
X2714902Y-1520281D01*
X3015000Y-1345281D02*
G01*
X3000731Y-1345281D01*
X2865097Y-1480911D01*
X3015000Y-1675281D02*
G01*
X3000405Y-1675281D01*
X2865097Y-1539973D01*
X3015000Y-1455281D02*
G01*
X2950000Y-1455281D01*
X2904678Y-1500603D01*
X2865097Y-1500603D01*
X2620000Y-1345281D02*
G01*
X2625000Y-1345281D01*
X2714902Y-1435183D01*
X2714902Y-1500603D01*
X2620000Y-1675281D02*
G01*
X2714902Y-1580378D01*
X2714902Y-1559650D01*
X2620000Y-1565281D02*
G01*
X2665000Y-1565281D01*
X2690308Y-1539973D01*
X2714902Y-1539973D01*
X2790000Y-1385000D02*
G01*
X2790000Y-1445180D01*
X2770312Y-1445180D02*
G01*
X2770312Y-1400313D01*
X2755000Y-1385000D01*
X2809683Y-1445180D02*
G01*
X2809683Y-1400317D01*
X2825000Y-1385000D01*
D11*
X1945000Y-1700000D02*
G01*
X1632560Y-1700000D01*
X1630000Y-1702561D01*
X1627440Y-1700000D01*
X1582440Y-1700000D01*
X1937559Y-1645000D02*
G01*
X1945000Y-1652440D01*
X1945000Y-1700000D01*
D10*
X1925789Y-1909729D02*
G01*
X1835519Y-2000000D01*
X1446768Y-2000000D01*
D11*
X1955000Y-1975000D02*
G01*
X1945469Y-1965468D01*
X1945469Y-1909729D01*
D10*
X1770000Y-1850000D02*
G01*
X1815000Y-1850000D01*
X1844839Y-1820160D01*
X1895277Y-1820160D01*
X1800000Y-1800000D02*
G01*
X1446768Y-1800000D01*
X1446768Y-1850000D02*
G01*
X1770000Y-1850000D01*
X2810000Y-2290000D02*
G01*
X2809700Y-2240100D01*
D11*
X2860000Y-1625000D02*
G01*
X2830399Y-1595399D01*
X2829399Y-1595399D01*
D10*
X1895272Y-1859524D02*
G01*
X1894796Y-1860000D01*
X1850000Y-1860000D01*
X1925801Y-1909699D02*
G01*
X1925000Y-1910500D01*
X1925000Y-2025000D01*
X2755000Y-1755376D02*
G01*
X2755000Y-2025000D01*
X2790000Y-2025000D02*
G01*
X2790000Y-1755747D01*
X2825000Y-2025000D02*
G01*
X2825000Y-1755376D01*
D11*
X1960000Y-2110000D02*
G01*
X1955000Y-2105000D01*
X1955000Y-1975000D01*
X2860000Y-2270000D02*
G01*
X2859272Y-2270000D01*
X2829369Y-2240097D01*
D12*
G01*
X2790000Y-2160279D03*
D13*
G01*
X2207439Y120000D03*
G01*
X2262560Y120000D03*
G01*
X1617439Y-80000D03*
G01*
X1672560Y-80000D03*
D14*
G01*
X1540000Y-227440D03*
G01*
X1540000Y-282559D03*
G01*
X2195000Y-82440D03*
G01*
X2195000Y-137559D03*
D13*
G01*
X1732439Y-310000D03*
G01*
X1787560Y-310000D03*
D14*
G01*
X2400000Y-322559D03*
G01*
X2400000Y-267440D03*
G01*
X340000Y-307559D03*
G01*
X340000Y-252440D03*
G01*
X660000Y-12440D03*
G01*
X660000Y-67559D03*
D13*
G01*
X992560Y-115000D03*
G01*
X937439Y-115000D03*
D14*
G01*
X750000Y-272559D03*
G01*
X750000Y-217440D03*
D13*
G01*
X827560Y-20000D03*
G01*
X772439Y-20000D03*
D14*
G01*
X1540000Y12440D03*
G01*
X1540000Y67559D03*
D15*
G01*
X2456620Y-169800D03*
G01*
X2482209Y-169800D03*
G01*
X2507799Y-169800D03*
G01*
X2533389Y-169800D03*
G01*
X2533400Y-20199D03*
G01*
X2507799Y-20199D03*
G01*
X2482200Y-20199D03*
G01*
X2456599Y-20199D03*
D17*
G01*
X554149Y-170000D03*
G01*
X554149Y-120000D03*
G01*
X554149Y-70000D03*
G01*
X554149Y-20000D03*
G01*
X335850Y-170000D03*
G01*
X335850Y-120000D03*
G01*
X335850Y-70000D03*
G01*
X335850Y-20000D03*
D18*
G01*
X2005344Y-255000D03*
G01*
X2064655Y-255000D03*
D19*
G01*
X2285000Y-44655D03*
D20*
G01*
X2285000Y14659D03*
D19*
G01*
X2680000Y-114655D03*
D20*
G01*
X2680000Y-55340D03*
D21*
G01*
X994655Y-20000D03*
G01*
X935344Y-20000D03*
D19*
G01*
X1030000Y-185344D03*
D20*
G01*
X1030000Y-244659D03*
D21*
G01*
X2374655Y-170000D03*
G01*
X2315344Y-170000D03*
D18*
G01*
X2620344Y-265000D03*
G01*
X2679655Y-265000D03*
D22*
G01*
X2841259Y162599D03*
G01*
X2860944Y162599D03*
G01*
X2880629Y162599D03*
G01*
X2900314Y162599D03*
G01*
X2920000Y162599D03*
G01*
X2939685Y162599D03*
G01*
X2959370Y162599D03*
G01*
X2979055Y162599D03*
G01*
X2998740Y162599D03*
D23*
G01*
X2764489Y237399D03*
G01*
X3075510Y237399D03*
D24*
G01*
X-648820Y-275590D03*
G01*
X-648820Y-236219D03*
G01*
X-648820Y-196849D03*
G01*
X-648820Y-157480D03*
G01*
X-648820Y-118110D03*
G01*
X-648820Y-78739D03*
G01*
X-648820Y-39369D03*
G01*
X-648820Y0D03*
G01*
X-648820Y39369D03*
G01*
X-648820Y78739D03*
G01*
X-648820Y118110D03*
G01*
X-648820Y157480D03*
G01*
X-648820Y196849D03*
G01*
X-648820Y236219D03*
G01*
X-648820Y275599D03*
D25*
G01*
X-751179Y-362199D03*
G01*
X-751179Y362210D03*
D13*
G01*
X962560Y-1655000D03*
G01*
X907439Y-1655000D03*
D14*
G01*
X1630000Y-1702559D03*
G01*
X1630000Y-1647440D03*
D13*
G01*
X1507560Y-1265000D03*
G01*
X1452439Y-1265000D03*
G01*
X1747439Y-1265000D03*
G01*
X1802560Y-1265000D03*
G01*
X2077439Y-1955000D03*
G01*
X2132560Y-1955000D03*
G01*
X1937560Y-1645000D03*
G01*
X1882439Y-1645000D03*
G01*
X1932560Y-1575000D03*
G01*
X1877439Y-1575000D03*
D14*
G01*
X2890000Y-2327440D03*
G01*
X2890000Y-2382559D03*
G01*
X2915000Y-1707440D03*
G01*
X2915000Y-1762559D03*
D26*
G01*
X1073230Y-1600000D03*
G01*
X1073230Y-1650000D03*
G01*
X1073230Y-1700000D03*
G01*
X1073230Y-1750000D03*
G01*
X1073230Y-1800000D03*
G01*
X1073230Y-1850000D03*
G01*
X1073230Y-1900000D03*
G01*
X1073230Y-1950000D03*
G01*
X1073230Y-2000000D03*
G01*
X1073230Y-2050000D03*
G01*
X1073230Y-2100000D03*
G01*
X1073230Y-2150000D03*
G01*
X1073230Y-2200000D03*
G01*
X1073230Y-2250000D03*
G01*
X1446769Y-1600000D03*
G01*
X1446769Y-1650000D03*
G01*
X1446769Y-1700000D03*
G01*
X1446769Y-1750000D03*
G01*
X1446769Y-1800000D03*
G01*
X1446769Y-1850000D03*
G01*
X1446769Y-1900000D03*
G01*
X1446769Y-1950000D03*
G01*
X1446769Y-2000000D03*
G01*
X1446769Y-2050000D03*
G01*
X1446769Y-2100000D03*
G01*
X1446769Y-2150000D03*
G01*
X1446769Y-2200000D03*
G01*
X1446769Y-2250000D03*
D27*
G01*
X2829369Y-2089899D03*
G01*
X2809679Y-2089899D03*
G01*
X2790000Y-2089899D03*
G01*
X2770309Y-2089899D03*
G01*
X2750630Y-2089899D03*
D28*
G01*
X2714899Y-2125630D03*
G01*
X2714899Y-2145320D03*
G01*
X2714899Y-2165000D03*
G01*
X2714899Y-2184690D03*
G01*
X2714899Y-2204369D03*
D27*
G01*
X2750630Y-2240100D03*
G01*
X2770309Y-2240100D03*
G01*
X2790000Y-2240100D03*
G01*
X2809679Y-2240100D03*
G01*
X2829369Y-2240100D03*
D28*
G01*
X2865100Y-2204369D03*
G01*
X2865100Y-2184690D03*
G01*
X2865100Y-2165000D03*
G01*
X2865100Y-2145320D03*
G01*
X2865100Y-2125630D03*
D12*
G01*
X2790000Y-2165000D03*
D29*
G01*
X1895270Y-1780790D03*
G01*
X1895270Y-1800470D03*
G01*
X1895270Y-1820160D03*
G01*
X1895270Y-1839839D03*
G01*
X1895270Y-1859529D03*
G01*
X1895270Y-1879209D03*
D30*
G01*
X1925780Y-1909729D03*
G01*
X1945469Y-1909729D03*
G01*
X1965150Y-1909729D03*
G01*
X1984840Y-1909729D03*
G01*
X2004530Y-1909729D03*
G01*
X2024210Y-1909729D03*
D29*
G01*
X2054719Y-1879220D03*
G01*
X2054719Y-1859529D03*
G01*
X2054719Y-1839839D03*
G01*
X2054719Y-1820160D03*
G01*
X2054719Y-1800470D03*
G01*
X2054719Y-1780790D03*
D30*
G01*
X2024210Y-1750279D03*
G01*
X2004530Y-1750279D03*
G01*
X1984840Y-1750279D03*
G01*
X1965150Y-1750279D03*
G01*
X1945469Y-1750279D03*
G01*
X1925780Y-1750279D03*
D31*
G01*
X1975020Y-1830010D03*
D27*
G01*
X2829369Y-1445180D03*
G01*
X2809679Y-1445180D03*
G01*
X2790000Y-1445180D03*
G01*
X2770309Y-1445180D03*
G01*
X2750630Y-1445180D03*
D28*
G01*
X2714899Y-1480909D03*
G01*
X2714899Y-1500599D03*
G01*
X2714899Y-1520279D03*
G01*
X2714899Y-1539969D03*
G01*
X2714899Y-1559650D03*
D27*
G01*
X2750630Y-1595380D03*
G01*
X2770309Y-1595380D03*
G01*
X2790000Y-1595380D03*
G01*
X2809679Y-1595380D03*
G01*
X2829369Y-1595380D03*
D28*
G01*
X2865100Y-1559650D03*
G01*
X2865100Y-1539969D03*
G01*
X2865100Y-1520279D03*
G01*
X2865100Y-1500599D03*
G01*
X2865100Y-1480909D03*
D12*
G01*
X2790000Y-1520279D03*
D32*
G01*
X1447839Y-1410000D03*
G01*
X1802169Y-1410000D03*
D33*
G01*
X707599Y-1976260D03*
G01*
X707599Y-1995945D03*
G01*
X707599Y-2015630D03*
G01*
X707599Y-2035315D03*
G01*
X707599Y-2055000D03*
G01*
X707599Y-2074684D03*
G01*
X707599Y-2094369D03*
G01*
X707599Y-2114054D03*
G01*
X707599Y-2133739D03*
D34*
G01*
X782399Y-1899490D03*
G01*
X782399Y-2210509D03*
D35*
G01*
X1785000Y120000D03*
G01*
X1785000Y20000D03*
G01*
X2085000Y20000D03*
G01*
X2085000Y120000D03*
G01*
X1785000Y-80000D03*
G01*
X1785000Y-180000D03*
G01*
X2085000Y-80000D03*
G01*
X2085000Y-180000D03*
G01*
X1115000Y80000D03*
G01*
X1115000Y-20000D03*
G01*
X1415000Y-20000D03*
G01*
X1415000Y80000D03*
G01*
X1115000Y-120000D03*
G01*
X1115000Y-220000D03*
G01*
X1415000Y-120000D03*
G01*
X1415000Y-220000D03*
D36*
G01*
X2815000Y-100000D03*
G01*
X2815000Y-230000D03*
G01*
X2820000Y-355000D03*
G01*
X3000000Y-355000D03*
G01*
X3000000Y-230000D03*
G01*
X3005000Y-100000D03*
G01*
X3010000Y45000D03*
G01*
X-450000Y-280000D03*
G01*
X-295000Y-240000D03*
G01*
X-140000Y-200000D03*
G01*
X10000Y-160000D03*
G01*
X15000Y-35000D03*
G01*
X-140000Y15000D03*
G01*
X-300000Y55000D03*
G01*
X-450000Y100000D03*
G01*
X385000Y155000D03*
G01*
X505000Y155000D03*
G01*
X950000Y-1770000D03*
G01*
X2980000Y-2225000D03*
G01*
X2980000Y-2335000D03*
G01*
X2980000Y-2115000D03*
G01*
X2980000Y-2005000D03*
G01*
X2585000Y-2020000D03*
G01*
X2585000Y-2130000D03*
G01*
X2585000Y-2350000D03*
G01*
X2585000Y-2240000D03*
G01*
X2620000Y-1565279D03*
G01*
X2620000Y-1675279D03*
G01*
X2620000Y-1455279D03*
G01*
X2620000Y-1345279D03*
G01*
X3015000Y-1345279D03*
G01*
X3015000Y-1455279D03*
G01*
X3015000Y-1675279D03*
G01*
X3015000Y-1565279D03*
D37*
G01*
X1955000Y-1975000D03*
G01*
X1945000Y-1700000D03*
G01*
X2755000Y-1385000D03*
G01*
X2790000Y-1385000D03*
G01*
X2825000Y-1385000D03*
G01*
X2825000Y-2025000D03*
G01*
X2790000Y-2025000D03*
G01*
X2755000Y-2025000D03*
G01*
X1800000Y-1800000D03*
G01*
X1770000Y-1850000D03*
G01*
X2810000Y-2290000D03*
G01*
X1925000Y-2025000D03*
G01*
X2860000Y-1625000D03*
G01*
X2860000Y-2270000D03*
G01*
X1850000Y-1860000D03*
G01*
X2755000Y-1755380D03*
G01*
X2790000Y-1755749D03*
G01*
X2825000Y-1755380D03*
G01*
X1960000Y-2110000D03*
D38*
G01*
X1230519Y-179650D03*
G01*
X1630519Y20349D03*
G01*
X1630519Y-179650D03*
G01*
X-957790Y457789D03*
G01*
X-957790Y257789D03*
G01*
X-957790Y57789D03*
G01*
X-957790Y-142210D03*
G01*
X-957790Y-342210D03*
G01*
X-757790Y457789D03*
G01*
X-757790Y257789D03*
G01*
X-757790Y57789D03*
G01*
X-757790Y-142210D03*
G01*
X-557790Y457789D03*
G01*
X-557790Y257789D03*
G01*
X-357789Y457789D03*
G01*
X-357789Y257789D03*
G01*
X-157789Y457789D03*
G01*
X-157789Y257789D03*
G01*
X42210Y457789D03*
G01*
X42210Y257789D03*
G01*
X242210Y457789D03*
G01*
X242210Y257789D03*
G01*
X242210Y57789D03*
G01*
X242210Y-342210D03*
G01*
X442199Y457789D03*
G01*
X442199Y257789D03*
G01*
X442199Y-342210D03*
G01*
X642199Y457789D03*
G01*
X642199Y257789D03*
G01*
X642199Y57789D03*
G01*
X642199Y-342210D03*
G01*
X842200Y457789D03*
G01*
X842200Y257789D03*
G01*
X842200Y-342210D03*
G01*
X1042200Y457789D03*
G01*
X1042200Y257789D03*
G01*
X1042200Y-342210D03*
G01*
X1242200Y457789D03*
G01*
X1242200Y257789D03*
G01*
X1242200Y-342210D03*
G01*
X1442200Y457789D03*
G01*
X1442200Y257789D03*
G01*
X1442200Y-342210D03*
G01*
X1642200Y457789D03*
G01*
X1642200Y257789D03*
G01*
X1642200Y-342210D03*
G01*
X1842200Y457789D03*
G01*
X1842200Y257789D03*
G01*
X1842200Y-342210D03*
G01*
X2042200Y457789D03*
G01*
X2042200Y257789D03*
G01*
X2042200Y-342210D03*
G01*
X2242200Y457789D03*
G01*
X2242200Y257789D03*
G01*
X2242200Y57789D03*
G01*
X2242200Y-342210D03*
G01*
X2442200Y457789D03*
G01*
X2442200Y257789D03*
G01*
X2442200Y57789D03*
G01*
X2642200Y457789D03*
G01*
X2642200Y257789D03*
G01*
X2642200Y57789D03*
G01*
X2642200Y-342210D03*
G01*
X2842200Y457789D03*
G01*
X3042200Y457789D03*
G01*
X542210Y-1242210D03*
G01*
X542210Y-1442210D03*
G01*
X542210Y-1642210D03*
G01*
X542210Y-1842210D03*
G01*
X542210Y-2042210D03*
G01*
X542210Y-2242210D03*
G01*
X542210Y-2442210D03*
G01*
X742210Y-1242210D03*
G01*
X742210Y-1442210D03*
G01*
X742210Y-2442210D03*
G01*
X942209Y-1242210D03*
G01*
X942209Y-1442210D03*
G01*
X942209Y-2242210D03*
G01*
X942209Y-2442210D03*
G01*
X1142209Y-1242210D03*
G01*
X1142209Y-1442210D03*
G01*
X1142209Y-2442210D03*
G01*
X1342209Y-1242210D03*
G01*
X1342209Y-1642210D03*
G01*
X1342209Y-1842210D03*
G01*
X1342209Y-2042210D03*
G01*
X1342209Y-2442210D03*
G01*
X1542209Y-1642210D03*
G01*
X1542209Y-2042210D03*
G01*
X1542209Y-2242210D03*
G01*
X1542209Y-2442210D03*
G01*
X1742209Y-1642210D03*
G01*
X1742209Y-2042210D03*
G01*
X1742209Y-2242210D03*
G01*
X1742209Y-2442210D03*
G01*
X1942209Y-1242210D03*
G01*
X1942209Y-2242210D03*
G01*
X1942209Y-2442210D03*
G01*
X2142209Y-1242210D03*
G01*
X2142209Y-1442210D03*
G01*
X2142209Y-1642210D03*
G01*
X2142209Y-1842210D03*
G01*
X2142209Y-2242210D03*
G01*
X2142209Y-2442210D03*
G01*
X2342209Y-1242210D03*
G01*
X2342209Y-1442210D03*
G01*
X2342209Y-1642210D03*
G01*
X2342209Y-1842210D03*
G01*
X2342209Y-2242210D03*
G01*
X2342209Y-2442210D03*
G01*
X2542209Y-1242210D03*
G01*
X2542209Y-1442210D03*
G01*
X2542209Y-1642210D03*
G01*
X2542209Y-1842210D03*
G01*
X2542209Y-2442210D03*
G01*
X2742209Y-1242210D03*
G01*
X2742209Y-2442210D03*
G01*
X2942209Y-1242210D03*
G01*
X2942209Y-1842210D03*
G01*
X2942209Y-2442210D03*
G01*
X3142209Y-1242210D03*
G01*
X3142209Y-1442210D03*
G01*
X3142209Y-1642210D03*
G01*
X3142209Y-1842210D03*
G01*
X3142209Y-2042210D03*
G01*
X3142209Y-2242210D03*
G01*
X3142209Y-2442210D03*
M02*
