G04 Layer: TopSilkscreenLayer*
G04 EasyEDA v6.5.51, 2025-10-31 14:29:39*
G04 fb125d5df4574c0190a2b935d37d4f1a,f96c02e88a3b40f88d53933fed3a7683,10*
G04 Gerber Generator version 0.2*
G04 Scale: 100 percent, Rotated: No, Reflected: No *
G04 Dimensions in inches *
G04 leading zeros omitted , absolute positions ,3 integer and 6 decimal *
%FSLAX36Y36*%
%MOIN*%

%ADD10C,0.0060*%
%ADD11C,0.0100*%
%ADD12C,0.0059*%
%ADD13C,0.0080*%
%ADD14C,0.0080*%
%ADD15C,0.0059*%
%ADD16C,0.0149*%
%ADD17C,0.0118*%
%ADD18C,0.0094*%

%LPD*%
D10*
X2230699Y200199D02*
G01*
X2228599Y204299D01*
X2224499Y208400D01*
X2220500Y210399D01*
X2212299Y210399D01*
X2208199Y208400D01*
X2204099Y204299D01*
X2201999Y200199D01*
X2200000Y194000D01*
X2200000Y183800D01*
X2201999Y177699D01*
X2204099Y173600D01*
X2208199Y169499D01*
X2212299Y167500D01*
X2220500Y167500D01*
X2224499Y169499D01*
X2228599Y173600D01*
X2230699Y177699D01*
X2244200Y202199D02*
G01*
X2248299Y204299D01*
X2254399Y210399D01*
X2254399Y167500D01*
X1525699Y-69800D02*
G01*
X1523599Y-65700D01*
X1519499Y-61599D01*
X1515500Y-59600D01*
X1507299Y-59600D01*
X1503199Y-61599D01*
X1499099Y-65700D01*
X1496999Y-69800D01*
X1495000Y-75999D01*
X1495000Y-86199D01*
X1496999Y-92300D01*
X1499099Y-96399D01*
X1503199Y-100500D01*
X1507299Y-102500D01*
X1515500Y-102500D01*
X1519499Y-100500D01*
X1523599Y-96399D01*
X1525699Y-92300D01*
X1541199Y-69800D02*
G01*
X1541199Y-67800D01*
X1543299Y-63699D01*
X1545299Y-61599D01*
X1549399Y-59600D01*
X1557600Y-59600D01*
X1561700Y-61599D01*
X1563699Y-63699D01*
X1565799Y-67800D01*
X1565799Y-71900D01*
X1563699Y-75999D01*
X1559600Y-82100D01*
X1539200Y-102500D01*
X1567799Y-102500D01*
X1529799Y-149299D02*
G01*
X1525699Y-151399D01*
X1521599Y-155500D01*
X1519600Y-159499D01*
X1519600Y-167699D01*
X1521599Y-171799D01*
X1525699Y-175900D01*
X1529799Y-178000D01*
X1536000Y-180000D01*
X1546199Y-180000D01*
X1552299Y-178000D01*
X1556400Y-175900D01*
X1560500Y-171799D01*
X1562500Y-167699D01*
X1562500Y-159499D01*
X1560500Y-155500D01*
X1556400Y-151399D01*
X1552299Y-149299D01*
X1519600Y-131700D02*
G01*
X1519600Y-109200D01*
X1536000Y-121500D01*
X1536000Y-115399D01*
X1538000Y-111300D01*
X1540000Y-109200D01*
X1546199Y-107199D01*
X1550299Y-107199D01*
X1556400Y-109200D01*
X1560500Y-113299D01*
X1562500Y-119499D01*
X1562500Y-125599D01*
X1560500Y-131700D01*
X1558500Y-133800D01*
X1554399Y-135799D01*
X2119799Y-114299D02*
G01*
X2115699Y-116399D01*
X2111599Y-120500D01*
X2109600Y-124499D01*
X2109600Y-132699D01*
X2111599Y-136799D01*
X2115699Y-140900D01*
X2119799Y-143000D01*
X2126000Y-145000D01*
X2136199Y-145000D01*
X2142299Y-143000D01*
X2146400Y-140900D01*
X2150500Y-136799D01*
X2152500Y-132699D01*
X2152500Y-124499D01*
X2150500Y-120500D01*
X2146400Y-116399D01*
X2142299Y-114299D01*
X2109600Y-80399D02*
G01*
X2138199Y-100799D01*
X2138199Y-70100D01*
X2109600Y-80399D02*
G01*
X2152500Y-80399D01*
X1650699Y-299800D02*
G01*
X1648599Y-295700D01*
X1644499Y-291599D01*
X1640500Y-289600D01*
X1632299Y-289600D01*
X1628199Y-291599D01*
X1624099Y-295700D01*
X1621999Y-299800D01*
X1620000Y-305999D01*
X1620000Y-316199D01*
X1621999Y-322300D01*
X1624099Y-326399D01*
X1628199Y-330500D01*
X1632299Y-332500D01*
X1640500Y-332500D01*
X1644499Y-330500D01*
X1648599Y-326399D01*
X1650699Y-322300D01*
X1688699Y-289600D02*
G01*
X1668299Y-289600D01*
X1666199Y-308000D01*
X1668299Y-305999D01*
X1674399Y-303899D01*
X1680500Y-303899D01*
X1686700Y-305999D01*
X1690799Y-310000D01*
X1692799Y-316199D01*
X1692799Y-320300D01*
X1690799Y-326399D01*
X1686700Y-330500D01*
X1680500Y-332500D01*
X1674399Y-332500D01*
X1668299Y-330500D01*
X1666199Y-328499D01*
X1664200Y-324400D01*
X2475200Y-325700D02*
G01*
X2479300Y-323600D01*
X2483400Y-319499D01*
X2485399Y-315500D01*
X2485399Y-307300D01*
X2483400Y-303200D01*
X2479300Y-299099D01*
X2475200Y-296999D01*
X2468999Y-295000D01*
X2458800Y-295000D01*
X2452700Y-296999D01*
X2448599Y-299099D01*
X2444499Y-303200D01*
X2442500Y-307300D01*
X2442500Y-315500D01*
X2444499Y-319499D01*
X2448599Y-323600D01*
X2452700Y-325700D01*
X2479300Y-363699D02*
G01*
X2483400Y-361700D01*
X2485399Y-355500D01*
X2485399Y-351500D01*
X2483400Y-345300D01*
X2477200Y-341199D01*
X2466999Y-339200D01*
X2456800Y-339200D01*
X2448599Y-341199D01*
X2444499Y-345300D01*
X2442500Y-351500D01*
X2442500Y-353499D01*
X2444499Y-359600D01*
X2448599Y-363699D01*
X2454700Y-365799D01*
X2456800Y-365799D01*
X2462899Y-363699D01*
X2466999Y-359600D01*
X2468999Y-353499D01*
X2468999Y-351500D01*
X2466999Y-345300D01*
X2462899Y-341199D01*
X2456800Y-339200D01*
X254800Y-284299D02*
G01*
X250700Y-286399D01*
X246599Y-290500D01*
X244600Y-294499D01*
X244600Y-302699D01*
X246599Y-306799D01*
X250700Y-310900D01*
X254800Y-313000D01*
X260999Y-315000D01*
X271199Y-315000D01*
X277300Y-313000D01*
X281399Y-310900D01*
X285500Y-306799D01*
X287500Y-302699D01*
X287500Y-294499D01*
X285500Y-290500D01*
X281399Y-286399D01*
X277300Y-284299D01*
X244600Y-242199D02*
G01*
X287500Y-262600D01*
X244600Y-270799D02*
G01*
X244600Y-242199D01*
X655700Y60199D02*
G01*
X653600Y64299D01*
X649499Y68400D01*
X645500Y70399D01*
X637300Y70399D01*
X633200Y68400D01*
X629099Y64299D01*
X626999Y60199D01*
X625000Y54000D01*
X625000Y43800D01*
X626999Y37699D01*
X629099Y33600D01*
X633200Y29499D01*
X637300Y27500D01*
X645500Y27500D01*
X649499Y29499D01*
X653600Y33600D01*
X655700Y37699D01*
X679400Y70399D02*
G01*
X673299Y68400D01*
X671199Y64299D01*
X671199Y60199D01*
X673299Y56100D01*
X677399Y54000D01*
X685500Y51999D01*
X691700Y50000D01*
X695799Y45900D01*
X697800Y41799D01*
X697800Y35599D01*
X695799Y31500D01*
X693699Y29499D01*
X687600Y27500D01*
X679400Y27500D01*
X673299Y29499D01*
X671199Y31500D01*
X669200Y35599D01*
X669200Y41799D01*
X671199Y45900D01*
X675300Y50000D01*
X681500Y51999D01*
X689600Y54000D01*
X693699Y56100D01*
X695799Y60199D01*
X695799Y64299D01*
X693699Y68400D01*
X687600Y70399D01*
X679400Y70399D01*
X850699Y-99800D02*
G01*
X848599Y-95700D01*
X844499Y-91599D01*
X840500Y-89600D01*
X832299Y-89600D01*
X828199Y-91599D01*
X824099Y-95700D01*
X821999Y-99800D01*
X820000Y-105999D01*
X820000Y-116199D01*
X821999Y-122300D01*
X824099Y-126399D01*
X828199Y-130500D01*
X832299Y-132500D01*
X840500Y-132500D01*
X844499Y-130500D01*
X848599Y-126399D01*
X850699Y-122300D01*
X890799Y-103899D02*
G01*
X888699Y-110000D01*
X884600Y-114099D01*
X878500Y-116199D01*
X876499Y-116199D01*
X870299Y-114099D01*
X866199Y-110000D01*
X864200Y-103899D01*
X864200Y-101900D01*
X866199Y-95700D01*
X870299Y-91599D01*
X876499Y-89600D01*
X878500Y-89600D01*
X884600Y-91599D01*
X888699Y-95700D01*
X890799Y-103899D01*
X890799Y-114099D01*
X888699Y-124400D01*
X884600Y-130500D01*
X878500Y-132500D01*
X874399Y-132500D01*
X868299Y-130500D01*
X866199Y-126399D01*
X730700Y-329800D02*
G01*
X728600Y-325700D01*
X724499Y-321599D01*
X720500Y-319600D01*
X712300Y-319600D01*
X708200Y-321599D01*
X704099Y-325700D01*
X701999Y-329800D01*
X700000Y-335999D01*
X700000Y-346199D01*
X701999Y-352300D01*
X704099Y-356399D01*
X708200Y-360500D01*
X712300Y-362500D01*
X720500Y-362500D01*
X724499Y-360500D01*
X728600Y-356399D01*
X730700Y-352300D01*
X744200Y-327800D02*
G01*
X748299Y-325700D01*
X754400Y-319600D01*
X754400Y-362500D01*
X780200Y-319600D02*
G01*
X773999Y-321599D01*
X770000Y-327800D01*
X767899Y-338000D01*
X767899Y-344099D01*
X770000Y-354400D01*
X773999Y-360500D01*
X780200Y-362500D01*
X784300Y-362500D01*
X790399Y-360500D01*
X794499Y-354400D01*
X796499Y-344099D01*
X796499Y-338000D01*
X794499Y-327800D01*
X790399Y-321599D01*
X784300Y-319600D01*
X780200Y-319600D01*
X780699Y55199D02*
G01*
X778599Y59299D01*
X774499Y63400D01*
X770500Y65399D01*
X762299Y65399D01*
X758200Y63400D01*
X754099Y59299D01*
X751999Y55199D01*
X750000Y49000D01*
X750000Y38800D01*
X751999Y32699D01*
X754099Y28600D01*
X758200Y24499D01*
X762299Y22500D01*
X770500Y22500D01*
X774499Y24499D01*
X778599Y28600D01*
X780699Y32699D01*
X794200Y57199D02*
G01*
X798299Y59299D01*
X804399Y65399D01*
X804399Y22500D01*
X817899Y57199D02*
G01*
X821999Y59299D01*
X828100Y65399D01*
X828100Y22500D01*
X1519799Y150700D02*
G01*
X1515699Y148600D01*
X1511599Y144499D01*
X1509600Y140500D01*
X1509600Y132300D01*
X1511599Y128200D01*
X1515699Y124099D01*
X1519799Y121999D01*
X1526000Y120000D01*
X1536199Y120000D01*
X1542299Y121999D01*
X1546400Y124099D01*
X1550500Y128200D01*
X1552500Y132300D01*
X1552500Y140500D01*
X1550500Y144499D01*
X1546400Y148600D01*
X1542299Y150700D01*
X1517799Y164200D02*
G01*
X1515699Y168299D01*
X1509600Y174400D01*
X1552500Y174400D01*
X1519799Y190000D02*
G01*
X1517799Y190000D01*
X1513699Y191999D01*
X1511599Y194000D01*
X1509600Y198099D01*
X1509600Y206300D01*
X1511599Y210399D01*
X1513699Y212500D01*
X1517799Y214499D01*
X1521899Y214499D01*
X1526000Y212500D01*
X1532100Y208400D01*
X1552500Y187899D01*
X1552500Y216500D01*
X1895000Y220399D02*
G01*
X1895000Y177500D01*
X1895000Y220399D02*
G01*
X1909300Y220399D01*
X1915500Y218400D01*
X1919499Y214299D01*
X1921599Y210199D01*
X1923599Y204000D01*
X1923599Y193800D01*
X1921599Y187699D01*
X1919499Y183600D01*
X1915500Y179499D01*
X1909300Y177500D01*
X1895000Y177500D01*
X1953500Y220399D02*
G01*
X1937100Y177500D01*
X1953500Y220399D02*
G01*
X1969899Y177500D01*
X1943299Y191799D02*
G01*
X1963699Y191799D01*
X1983400Y212199D02*
G01*
X1987500Y214299D01*
X1993599Y220399D01*
X1993599Y177500D01*
X1187289Y195430D02*
G01*
X1187289Y152530D01*
X1187289Y195430D02*
G01*
X1201589Y195430D01*
X1207789Y193429D01*
X1211788Y189329D01*
X1213888Y185230D01*
X1215888Y179029D01*
X1215888Y168829D01*
X1213888Y162730D01*
X1211788Y158629D01*
X1207789Y154529D01*
X1201589Y152530D01*
X1187289Y152530D01*
X1245789Y195430D02*
G01*
X1229389Y152530D01*
X1245789Y195430D02*
G01*
X1262188Y152530D01*
X1235589Y166829D02*
G01*
X1255988Y166829D01*
X1296089Y195430D02*
G01*
X1275689Y166829D01*
X1306288Y166829D01*
X1296089Y195430D02*
G01*
X1296089Y152530D01*
X2494399Y50900D02*
G01*
X2494399Y8000D01*
X2494399Y50900D02*
G01*
X2508699Y50900D01*
X2514899Y48899D01*
X2518900Y44800D01*
X2521000Y40700D01*
X2523000Y34499D01*
X2523000Y24299D01*
X2521000Y18200D01*
X2518900Y14099D01*
X2514899Y10000D01*
X2508699Y8000D01*
X2494399Y8000D01*
X2552899Y50900D02*
G01*
X2536499Y8000D01*
X2552899Y50900D02*
G01*
X2569300Y8000D01*
X2542700Y22300D02*
G01*
X2563100Y22300D01*
X2584799Y40700D02*
G01*
X2584799Y42699D01*
X2586899Y46799D01*
X2588900Y48899D01*
X2593000Y50900D01*
X2601199Y50900D01*
X2605299Y48899D01*
X2607299Y46799D01*
X2609399Y42699D01*
X2609399Y38600D01*
X2607299Y34499D01*
X2603199Y28400D01*
X2582799Y8000D01*
X2611400Y8000D01*
X385000Y70399D02*
G01*
X385000Y27500D01*
X385000Y70399D02*
G01*
X399299Y70399D01*
X405500Y68400D01*
X409499Y64299D01*
X411599Y60199D01*
X413600Y54000D01*
X413600Y43800D01*
X411599Y37699D01*
X409499Y33600D01*
X405500Y29499D01*
X399299Y27500D01*
X385000Y27500D01*
X443499Y70399D02*
G01*
X427100Y27500D01*
X443499Y70399D02*
G01*
X459899Y27500D01*
X433299Y41799D02*
G01*
X453699Y41799D01*
X477500Y70399D02*
G01*
X500000Y70399D01*
X487699Y54000D01*
X493800Y54000D01*
X497899Y51999D01*
X500000Y50000D01*
X501999Y43800D01*
X501999Y39699D01*
X500000Y33600D01*
X495900Y29499D01*
X489699Y27500D01*
X483600Y27500D01*
X477500Y29499D01*
X475399Y31500D01*
X473400Y35599D01*
X1905000Y-239600D02*
G01*
X1905000Y-282500D01*
X1905000Y-239600D02*
G01*
X1923400Y-239600D01*
X1929499Y-241599D01*
X1931599Y-243699D01*
X1933599Y-247800D01*
X1933599Y-251900D01*
X1931599Y-255999D01*
X1929499Y-258000D01*
X1923400Y-260000D01*
X1905000Y-260000D01*
X1919300Y-260000D02*
G01*
X1933599Y-282500D01*
X1947100Y-247800D02*
G01*
X1951199Y-245700D01*
X1957399Y-239600D01*
X1957399Y-282500D01*
X2199600Y-50000D02*
G01*
X2242500Y-50000D01*
X2199600Y-50000D02*
G01*
X2199600Y-31599D01*
X2201599Y-25500D01*
X2203699Y-23400D01*
X2207799Y-21399D01*
X2211899Y-21399D01*
X2216000Y-23400D01*
X2218000Y-25500D01*
X2220000Y-31599D01*
X2220000Y-50000D01*
X2220000Y-35700D02*
G01*
X2242500Y-21399D01*
X2209799Y-5799D02*
G01*
X2207799Y-5799D01*
X2203699Y-3800D01*
X2201599Y-1700D01*
X2199600Y2399D01*
X2199600Y10500D01*
X2201599Y14600D01*
X2203699Y16700D01*
X2207799Y18699D01*
X2211899Y18699D01*
X2216000Y16700D01*
X2222100Y12600D01*
X2242500Y-7899D01*
X2242500Y20799D01*
X2596099Y-120414D02*
G01*
X2638999Y-120414D01*
X2596099Y-120414D02*
G01*
X2596099Y-102013D01*
X2598100Y-95913D01*
X2600200Y-93814D01*
X2604300Y-91813D01*
X2608400Y-91813D01*
X2612500Y-93814D01*
X2614499Y-95913D01*
X2616499Y-102013D01*
X2616499Y-120414D01*
X2616499Y-106113D02*
G01*
X2638999Y-91813D01*
X2596099Y-74214D02*
G01*
X2596099Y-51714D01*
X2612500Y-63913D01*
X2612500Y-57813D01*
X2614499Y-53713D01*
X2616499Y-51714D01*
X2622700Y-49614D01*
X2626800Y-49614D01*
X2632899Y-51714D01*
X2636999Y-55814D01*
X2638999Y-61914D01*
X2638999Y-68013D01*
X2636999Y-74214D01*
X2635000Y-76213D01*
X2630900Y-78314D01*
X965000Y65399D02*
G01*
X965000Y22500D01*
X965000Y65399D02*
G01*
X983400Y65399D01*
X989499Y63400D01*
X991599Y61300D01*
X993599Y57199D01*
X993599Y53099D01*
X991599Y49000D01*
X989499Y46999D01*
X983400Y45000D01*
X965000Y45000D01*
X979300Y45000D02*
G01*
X993599Y22500D01*
X1027600Y65399D02*
G01*
X1007100Y36799D01*
X1037799Y36799D01*
X1027600Y65399D02*
G01*
X1027600Y22500D01*
X944600Y-250000D02*
G01*
X987500Y-250000D01*
X944600Y-250000D02*
G01*
X944600Y-231599D01*
X946599Y-225500D01*
X948699Y-223400D01*
X952799Y-221399D01*
X956899Y-221399D01*
X961000Y-223400D01*
X963000Y-225500D01*
X965000Y-231599D01*
X965000Y-250000D01*
X965000Y-235700D02*
G01*
X987500Y-221399D01*
X944600Y-183299D02*
G01*
X944600Y-203800D01*
X963000Y-205799D01*
X961000Y-203800D01*
X958900Y-197600D01*
X958900Y-191500D01*
X961000Y-185399D01*
X965000Y-181300D01*
X971199Y-179200D01*
X975299Y-179200D01*
X981400Y-181300D01*
X985500Y-185399D01*
X987500Y-191500D01*
X987500Y-197600D01*
X985500Y-203800D01*
X983500Y-205799D01*
X979399Y-207899D01*
X2275000Y-219600D02*
G01*
X2275000Y-262500D01*
X2275000Y-219600D02*
G01*
X2293400Y-219600D01*
X2299499Y-221599D01*
X2301599Y-223699D01*
X2303599Y-227800D01*
X2303599Y-231900D01*
X2301599Y-235999D01*
X2299499Y-238000D01*
X2293400Y-240000D01*
X2275000Y-240000D01*
X2289300Y-240000D02*
G01*
X2303599Y-262500D01*
X2341700Y-225700D02*
G01*
X2339600Y-221599D01*
X2333500Y-219600D01*
X2329399Y-219600D01*
X2323299Y-221599D01*
X2319200Y-227800D01*
X2317100Y-238000D01*
X2317100Y-248200D01*
X2319200Y-256399D01*
X2323299Y-260500D01*
X2329399Y-262500D01*
X2331499Y-262500D01*
X2337600Y-260500D01*
X2341700Y-256399D01*
X2343699Y-250300D01*
X2343699Y-248200D01*
X2341700Y-242100D01*
X2337600Y-238000D01*
X2331499Y-235999D01*
X2329399Y-235999D01*
X2323299Y-238000D01*
X2319200Y-242100D01*
X2317100Y-248200D01*
X2515000Y-249600D02*
G01*
X2515000Y-292500D01*
X2515000Y-249600D02*
G01*
X2533400Y-249600D01*
X2539499Y-251599D01*
X2541599Y-253699D01*
X2543599Y-257800D01*
X2543599Y-261900D01*
X2541599Y-265999D01*
X2539499Y-268000D01*
X2533400Y-270000D01*
X2515000Y-270000D01*
X2529300Y-270000D02*
G01*
X2543599Y-292500D01*
X2585799Y-249600D02*
G01*
X2565299Y-292500D01*
X2557100Y-249600D02*
G01*
X2585799Y-249600D01*
X2659600Y190000D02*
G01*
X2702500Y218600D01*
X2659600Y218600D02*
G01*
X2702500Y190000D01*
X2659600Y232100D02*
G01*
X2702500Y232100D01*
X2659600Y232100D02*
G01*
X2659600Y250500D01*
X2661599Y256700D01*
X2663699Y258699D01*
X2667799Y260799D01*
X2673900Y260799D01*
X2678000Y258699D01*
X2680000Y256700D01*
X2682100Y250500D01*
X2682100Y232100D01*
X2667799Y274299D02*
G01*
X2665699Y278400D01*
X2659600Y284499D01*
X2702500Y284499D01*
X-935399Y-100000D02*
G01*
X-892500Y-71399D01*
X-935399Y-71399D02*
G01*
X-892500Y-100000D01*
X-935399Y-57899D02*
G01*
X-892500Y-57899D01*
X-935399Y-57899D02*
G01*
X-935399Y-39499D01*
X-933400Y-33299D01*
X-931300Y-31300D01*
X-927199Y-29200D01*
X-921100Y-29200D01*
X-916999Y-31300D01*
X-915000Y-33299D01*
X-912899Y-39499D01*
X-912899Y-57899D01*
X-925199Y-13699D02*
G01*
X-927199Y-13699D01*
X-931300Y-11599D01*
X-933400Y-9600D01*
X-935399Y-5500D01*
X-935399Y2699D01*
X-933400Y6799D01*
X-931300Y8800D01*
X-927199Y10900D01*
X-923099Y10900D01*
X-919000Y8800D01*
X-912899Y4699D01*
X-892500Y-15700D01*
X-892500Y12899D01*
X2714600Y-180000D02*
G01*
X2757500Y-151399D01*
X2714600Y-151399D02*
G01*
X2757500Y-180000D01*
X2714600Y-137899D02*
G01*
X2757500Y-137899D01*
X2714600Y-137899D02*
G01*
X2714600Y-119499D01*
X2716599Y-113299D01*
X2718699Y-111300D01*
X2722799Y-109200D01*
X2728900Y-109200D01*
X2733000Y-111300D01*
X2735000Y-113299D01*
X2737100Y-119499D01*
X2737100Y-137899D01*
X2714600Y-91599D02*
G01*
X2714600Y-69099D01*
X2731000Y-81399D01*
X2731000Y-75300D01*
X2733000Y-71199D01*
X2735000Y-69099D01*
X2741199Y-67100D01*
X2745299Y-67100D01*
X2751400Y-69099D01*
X2755500Y-73200D01*
X2757500Y-79400D01*
X2757500Y-85500D01*
X2755500Y-91599D01*
X2753500Y-93699D01*
X2749399Y-95700D01*
X2714600Y-295000D02*
G01*
X2757500Y-266399D01*
X2714600Y-266399D02*
G01*
X2757500Y-295000D01*
X2714600Y-252899D02*
G01*
X2757500Y-252899D01*
X2714600Y-252899D02*
G01*
X2714600Y-234499D01*
X2716599Y-228299D01*
X2718699Y-226300D01*
X2722799Y-224200D01*
X2728900Y-224200D01*
X2733000Y-226300D01*
X2735000Y-228299D01*
X2737100Y-234499D01*
X2737100Y-252899D01*
X2714600Y-190300D02*
G01*
X2743199Y-210700D01*
X2743199Y-180000D01*
X2714600Y-190300D02*
G01*
X2757500Y-190300D01*
X2719600Y-415000D02*
G01*
X2762500Y-386399D01*
X2719600Y-386399D02*
G01*
X2762500Y-415000D01*
X2719600Y-372899D02*
G01*
X2762500Y-372899D01*
X2719600Y-372899D02*
G01*
X2719600Y-354499D01*
X2721599Y-348299D01*
X2723699Y-346300D01*
X2727799Y-344200D01*
X2733900Y-344200D01*
X2738000Y-346300D01*
X2740000Y-348299D01*
X2742100Y-354499D01*
X2742100Y-372899D01*
X2719600Y-306199D02*
G01*
X2719600Y-326599D01*
X2738000Y-328699D01*
X2736000Y-326599D01*
X2733900Y-320500D01*
X2733900Y-314400D01*
X2736000Y-308200D01*
X2740000Y-304099D01*
X2746199Y-302100D01*
X2750299Y-302100D01*
X2756400Y-304099D01*
X2760500Y-308200D01*
X2762500Y-314400D01*
X2762500Y-320500D01*
X2760500Y-326599D01*
X2758500Y-328699D01*
X2754399Y-330700D01*
X3074600Y-410000D02*
G01*
X3117500Y-381399D01*
X3074600Y-381399D02*
G01*
X3117500Y-410000D01*
X3074600Y-367899D02*
G01*
X3117500Y-367899D01*
X3074600Y-367899D02*
G01*
X3074600Y-349499D01*
X3076599Y-343299D01*
X3078699Y-341300D01*
X3082799Y-339200D01*
X3088900Y-339200D01*
X3093000Y-341300D01*
X3095000Y-343299D01*
X3097100Y-349499D01*
X3097100Y-367899D01*
X3080699Y-301199D02*
G01*
X3076599Y-303200D01*
X3074600Y-309400D01*
X3074600Y-313499D01*
X3076599Y-319600D01*
X3082799Y-323699D01*
X3093000Y-325700D01*
X3103199Y-325700D01*
X3111400Y-323699D01*
X3115500Y-319600D01*
X3117500Y-313499D01*
X3117500Y-311399D01*
X3115500Y-305300D01*
X3111400Y-301199D01*
X3105299Y-299099D01*
X3103199Y-299099D01*
X3097100Y-301199D01*
X3093000Y-305300D01*
X3091000Y-311399D01*
X3091000Y-313499D01*
X3093000Y-319600D01*
X3097100Y-323699D01*
X3103199Y-325700D01*
X3074600Y-285000D02*
G01*
X3117500Y-256399D01*
X3074600Y-256399D02*
G01*
X3117500Y-285000D01*
X3074600Y-242899D02*
G01*
X3117500Y-242899D01*
X3074600Y-242899D02*
G01*
X3074600Y-224499D01*
X3076599Y-218299D01*
X3078699Y-216300D01*
X3082799Y-214200D01*
X3088900Y-214200D01*
X3093000Y-216300D01*
X3095000Y-218299D01*
X3097100Y-224499D01*
X3097100Y-242899D01*
X3074600Y-172100D02*
G01*
X3117500Y-192500D01*
X3074600Y-200700D02*
G01*
X3074600Y-172100D01*
X3074600Y-165000D02*
G01*
X3117500Y-136399D01*
X3074600Y-136399D02*
G01*
X3117500Y-165000D01*
X3074600Y-122899D02*
G01*
X3117500Y-122899D01*
X3074600Y-122899D02*
G01*
X3074600Y-104499D01*
X3076599Y-98299D01*
X3078699Y-96300D01*
X3082799Y-94200D01*
X3088900Y-94200D01*
X3093000Y-96300D01*
X3095000Y-98299D01*
X3097100Y-104499D01*
X3097100Y-122899D01*
X3074600Y-70500D02*
G01*
X3076599Y-76599D01*
X3080699Y-78699D01*
X3084799Y-78699D01*
X3088900Y-76599D01*
X3091000Y-72500D01*
X3093000Y-64400D01*
X3095000Y-58200D01*
X3099099Y-54099D01*
X3103199Y-52100D01*
X3109399Y-52100D01*
X3113500Y-54099D01*
X3115500Y-56199D01*
X3117500Y-62300D01*
X3117500Y-70500D01*
X3115500Y-76599D01*
X3113500Y-78699D01*
X3109399Y-80700D01*
X3103199Y-80700D01*
X3099099Y-78699D01*
X3095000Y-74600D01*
X3093000Y-68499D01*
X3091000Y-60300D01*
X3088900Y-56199D01*
X3084799Y-54099D01*
X3080699Y-54099D01*
X3076599Y-56199D01*
X3074600Y-62300D01*
X3074600Y-70500D01*
X3079600Y-5000D02*
G01*
X3122500Y23600D01*
X3079600Y23600D02*
G01*
X3122500Y-5000D01*
X3079600Y37100D02*
G01*
X3122500Y37100D01*
X3079600Y37100D02*
G01*
X3079600Y55500D01*
X3081599Y61700D01*
X3083699Y63699D01*
X3087799Y65799D01*
X3093900Y65799D01*
X3098000Y63699D01*
X3100000Y61700D01*
X3102100Y55500D01*
X3102100Y37100D01*
X3093900Y105900D02*
G01*
X3100000Y103800D01*
X3104099Y99699D01*
X3106199Y93600D01*
X3106199Y91500D01*
X3104099Y85399D01*
X3100000Y81300D01*
X3093900Y79299D01*
X3091899Y79299D01*
X3085699Y81300D01*
X3081599Y85399D01*
X3079600Y91500D01*
X3079600Y93600D01*
X3081599Y99699D01*
X3085699Y103800D01*
X3093900Y105900D01*
X3104099Y105900D01*
X3114399Y103800D01*
X3120500Y99699D01*
X3122500Y93600D01*
X3122500Y89499D01*
X3120500Y83400D01*
X3116400Y81300D01*
X-530000Y-344600D02*
G01*
X-501399Y-387500D01*
X-501399Y-344600D02*
G01*
X-530000Y-387500D01*
X-487899Y-344600D02*
G01*
X-487899Y-387500D01*
X-487899Y-344600D02*
G01*
X-469499Y-344600D01*
X-463299Y-346599D01*
X-461300Y-348699D01*
X-459200Y-352800D01*
X-459200Y-358899D01*
X-461300Y-363000D01*
X-463299Y-365000D01*
X-469499Y-367100D01*
X-487899Y-367100D01*
X-445700Y-352800D02*
G01*
X-441599Y-350700D01*
X-435500Y-344600D01*
X-435500Y-387500D01*
X-409699Y-344600D02*
G01*
X-415900Y-346599D01*
X-420000Y-352800D01*
X-421999Y-363000D01*
X-421999Y-369099D01*
X-420000Y-379400D01*
X-415900Y-385500D01*
X-409699Y-387500D01*
X-405599Y-387500D01*
X-399499Y-385500D01*
X-395399Y-379400D01*
X-393400Y-369099D01*
X-393400Y-363000D01*
X-395399Y-352800D01*
X-399499Y-346599D01*
X-405599Y-344600D01*
X-409699Y-344600D01*
X-340000Y-304600D02*
G01*
X-311399Y-347500D01*
X-311399Y-304600D02*
G01*
X-340000Y-347500D01*
X-297899Y-304600D02*
G01*
X-297899Y-347500D01*
X-297899Y-304600D02*
G01*
X-279499Y-304600D01*
X-273299Y-306599D01*
X-271300Y-308699D01*
X-269200Y-312800D01*
X-269200Y-318899D01*
X-271300Y-323000D01*
X-273299Y-325000D01*
X-279499Y-327100D01*
X-297899Y-327100D01*
X-255700Y-312800D02*
G01*
X-251599Y-310700D01*
X-245500Y-304600D01*
X-245500Y-347500D01*
X-231999Y-312800D02*
G01*
X-227899Y-310700D01*
X-221799Y-304600D01*
X-221799Y-347500D01*
X-190000Y-269600D02*
G01*
X-161399Y-312500D01*
X-161399Y-269600D02*
G01*
X-190000Y-312500D01*
X-147899Y-269600D02*
G01*
X-147899Y-312500D01*
X-147899Y-269600D02*
G01*
X-129499Y-269600D01*
X-123299Y-271599D01*
X-121300Y-273699D01*
X-119200Y-277800D01*
X-119200Y-283899D01*
X-121300Y-288000D01*
X-123299Y-290000D01*
X-129499Y-292100D01*
X-147899Y-292100D01*
X-105700Y-277800D02*
G01*
X-101599Y-275700D01*
X-95500Y-269600D01*
X-95500Y-312500D01*
X-80000Y-279800D02*
G01*
X-80000Y-277800D01*
X-77899Y-273699D01*
X-75900Y-271599D01*
X-71799Y-269600D01*
X-63600Y-269600D01*
X-59499Y-271599D01*
X-57500Y-273699D01*
X-55399Y-277800D01*
X-55399Y-281900D01*
X-57500Y-285999D01*
X-61500Y-292100D01*
X-81999Y-312500D01*
X-53400Y-312500D01*
X90000Y-134600D02*
G01*
X118600Y-177500D01*
X118600Y-134600D02*
G01*
X90000Y-177500D01*
X132100Y-134600D02*
G01*
X132100Y-177500D01*
X132100Y-134600D02*
G01*
X150500Y-134600D01*
X156700Y-136599D01*
X158699Y-138699D01*
X160799Y-142800D01*
X160799Y-148899D01*
X158699Y-153000D01*
X156700Y-155000D01*
X150500Y-157100D01*
X132100Y-157100D01*
X174299Y-142800D02*
G01*
X178400Y-140700D01*
X184499Y-134600D01*
X184499Y-177500D01*
X202100Y-134600D02*
G01*
X224600Y-134600D01*
X212300Y-150999D01*
X218499Y-150999D01*
X222500Y-153000D01*
X224600Y-155000D01*
X226599Y-161199D01*
X226599Y-165300D01*
X224600Y-171399D01*
X220500Y-175500D01*
X214400Y-177500D01*
X208200Y-177500D01*
X202100Y-175500D01*
X200000Y-173499D01*
X198000Y-169400D01*
X90000Y-19600D02*
G01*
X118600Y-62500D01*
X118600Y-19600D02*
G01*
X90000Y-62500D01*
X132100Y-19600D02*
G01*
X132100Y-62500D01*
X132100Y-19600D02*
G01*
X150500Y-19600D01*
X156700Y-21599D01*
X158699Y-23699D01*
X160799Y-27800D01*
X160799Y-33899D01*
X158699Y-38000D01*
X156700Y-40000D01*
X150500Y-42100D01*
X132100Y-42100D01*
X174299Y-27800D02*
G01*
X178400Y-25700D01*
X184499Y-19600D01*
X184499Y-62500D01*
X218499Y-19600D02*
G01*
X198000Y-48200D01*
X228699Y-48200D01*
X218499Y-19600D02*
G01*
X218499Y-62500D01*
X-205000Y130399D02*
G01*
X-176399Y87500D01*
X-176399Y130399D02*
G01*
X-205000Y87500D01*
X-162899Y130399D02*
G01*
X-162899Y87500D01*
X-162899Y130399D02*
G01*
X-144499Y130399D01*
X-138299Y128400D01*
X-136300Y126300D01*
X-134200Y122199D01*
X-134200Y116100D01*
X-136300Y111999D01*
X-138299Y110000D01*
X-144499Y107899D01*
X-162899Y107899D01*
X-120700Y122199D02*
G01*
X-116599Y124299D01*
X-110500Y130399D01*
X-110500Y87500D01*
X-72500Y130399D02*
G01*
X-92899Y130399D01*
X-95000Y111999D01*
X-92899Y114000D01*
X-86799Y116100D01*
X-80599Y116100D01*
X-74499Y114000D01*
X-70399Y110000D01*
X-68400Y103800D01*
X-68400Y99699D01*
X-70399Y93600D01*
X-74499Y89499D01*
X-80599Y87500D01*
X-86799Y87500D01*
X-92899Y89499D01*
X-95000Y91500D01*
X-96999Y95599D01*
X-365000Y160399D02*
G01*
X-336399Y117500D01*
X-336399Y160399D02*
G01*
X-365000Y117500D01*
X-322899Y160399D02*
G01*
X-322899Y117500D01*
X-322899Y160399D02*
G01*
X-304499Y160399D01*
X-298299Y158400D01*
X-296300Y156300D01*
X-294200Y152199D01*
X-294200Y146100D01*
X-296300Y141999D01*
X-298299Y140000D01*
X-304499Y137899D01*
X-322899Y137899D01*
X-280700Y152199D02*
G01*
X-276599Y154299D01*
X-270500Y160399D01*
X-270500Y117500D01*
X-232500Y154299D02*
G01*
X-234499Y158400D01*
X-240599Y160399D01*
X-244699Y160399D01*
X-250900Y158400D01*
X-255000Y152199D01*
X-256999Y141999D01*
X-256999Y131799D01*
X-255000Y123600D01*
X-250900Y119499D01*
X-244699Y117500D01*
X-242699Y117500D01*
X-236500Y119499D01*
X-232500Y123600D01*
X-230399Y129699D01*
X-230399Y131799D01*
X-232500Y137899D01*
X-236500Y141999D01*
X-242699Y144000D01*
X-244699Y144000D01*
X-250900Y141999D01*
X-255000Y137899D01*
X-256999Y131799D01*
X-520000Y215399D02*
G01*
X-491399Y172500D01*
X-491399Y215399D02*
G01*
X-520000Y172500D01*
X-477899Y215399D02*
G01*
X-477899Y172500D01*
X-477899Y215399D02*
G01*
X-459499Y215399D01*
X-453299Y213400D01*
X-451300Y211300D01*
X-449200Y207199D01*
X-449200Y201100D01*
X-451300Y196999D01*
X-453299Y195000D01*
X-459499Y192899D01*
X-477899Y192899D01*
X-435700Y207199D02*
G01*
X-431599Y209299D01*
X-425500Y215399D01*
X-425500Y172500D01*
X-383400Y215399D02*
G01*
X-403800Y172500D01*
X-411999Y215399D02*
G01*
X-383400Y215399D01*
X285000Y265399D02*
G01*
X313600Y222500D01*
X313600Y265399D02*
G01*
X285000Y222500D01*
X327100Y265399D02*
G01*
X327100Y222500D01*
X327100Y265399D02*
G01*
X345500Y265399D01*
X351700Y263400D01*
X353699Y261300D01*
X355799Y257199D01*
X355799Y251100D01*
X353699Y246999D01*
X351700Y245000D01*
X345500Y242899D01*
X327100Y242899D01*
X369299Y257199D02*
G01*
X373400Y259299D01*
X379499Y265399D01*
X379499Y222500D01*
X403200Y265399D02*
G01*
X397100Y263400D01*
X395000Y259299D01*
X395000Y255199D01*
X397100Y251100D01*
X401199Y249000D01*
X409400Y246999D01*
X415500Y245000D01*
X419600Y240900D01*
X421599Y236799D01*
X421599Y230599D01*
X419600Y226500D01*
X417500Y224499D01*
X411399Y222500D01*
X403200Y222500D01*
X397100Y224499D01*
X395000Y226500D01*
X393000Y230599D01*
X393000Y236799D01*
X395000Y240900D01*
X399099Y245000D01*
X405300Y246999D01*
X413499Y249000D01*
X417500Y251100D01*
X419600Y255199D01*
X419600Y259299D01*
X417500Y263400D01*
X411399Y265399D01*
X403200Y265399D01*
X505000Y256399D02*
G01*
X533600Y213499D01*
X533600Y256399D02*
G01*
X505000Y213499D01*
X547100Y256399D02*
G01*
X547100Y213499D01*
X547100Y256399D02*
G01*
X565500Y256399D01*
X571700Y254400D01*
X573699Y252300D01*
X575799Y248200D01*
X575799Y242100D01*
X573699Y238000D01*
X571700Y235999D01*
X565500Y233899D01*
X547100Y233899D01*
X589299Y248200D02*
G01*
X593400Y250300D01*
X599499Y256399D01*
X599499Y213499D01*
X639600Y242100D02*
G01*
X637500Y235999D01*
X633499Y231900D01*
X627300Y229800D01*
X625300Y229800D01*
X619099Y231900D01*
X615000Y235999D01*
X613000Y242100D01*
X613000Y244099D01*
X615000Y250300D01*
X619099Y254400D01*
X625300Y256399D01*
X627300Y256399D01*
X633499Y254400D01*
X637500Y250300D01*
X639600Y242100D01*
X639600Y231900D01*
X637500Y221599D01*
X633499Y215500D01*
X627300Y213499D01*
X623200Y213499D01*
X617100Y215500D01*
X615000Y219600D01*
X829799Y-1694299D02*
G01*
X825699Y-1696399D01*
X821599Y-1700500D01*
X819600Y-1704499D01*
X819600Y-1712699D01*
X821599Y-1716799D01*
X825699Y-1720900D01*
X829799Y-1723000D01*
X836000Y-1725000D01*
X846199Y-1725000D01*
X852299Y-1723000D01*
X856400Y-1720900D01*
X860500Y-1716799D01*
X862500Y-1712699D01*
X862500Y-1704499D01*
X860500Y-1700500D01*
X856400Y-1696399D01*
X852299Y-1694299D01*
X827799Y-1680799D02*
G01*
X825699Y-1676700D01*
X819600Y-1670599D01*
X862500Y-1670599D01*
X819600Y-1653000D02*
G01*
X819600Y-1630500D01*
X836000Y-1642800D01*
X836000Y-1636599D01*
X838000Y-1632500D01*
X840000Y-1630500D01*
X846199Y-1628499D01*
X850299Y-1628499D01*
X856400Y-1630500D01*
X860500Y-1634600D01*
X862500Y-1640700D01*
X862500Y-1646900D01*
X860500Y-1653000D01*
X858500Y-1655000D01*
X854399Y-1657100D01*
X1554799Y-1699299D02*
G01*
X1550699Y-1701399D01*
X1546599Y-1705500D01*
X1544600Y-1709499D01*
X1544600Y-1717699D01*
X1546599Y-1721799D01*
X1550699Y-1725900D01*
X1554799Y-1728000D01*
X1561000Y-1730000D01*
X1571199Y-1730000D01*
X1577299Y-1728000D01*
X1581400Y-1725900D01*
X1585500Y-1721799D01*
X1587500Y-1717699D01*
X1587500Y-1709499D01*
X1585500Y-1705500D01*
X1581400Y-1701399D01*
X1577299Y-1699299D01*
X1552799Y-1685799D02*
G01*
X1550699Y-1681700D01*
X1544600Y-1675599D01*
X1587500Y-1675599D01*
X1544600Y-1641599D02*
G01*
X1573199Y-1662100D01*
X1573199Y-1631399D01*
X1544600Y-1641599D02*
G01*
X1587500Y-1641599D01*
X1335699Y-1254800D02*
G01*
X1333599Y-1250700D01*
X1329499Y-1246599D01*
X1325500Y-1244600D01*
X1317299Y-1244600D01*
X1313199Y-1246599D01*
X1309099Y-1250700D01*
X1306999Y-1254800D01*
X1305000Y-1260999D01*
X1305000Y-1271199D01*
X1306999Y-1277300D01*
X1309099Y-1281399D01*
X1313199Y-1285500D01*
X1317299Y-1287500D01*
X1325500Y-1287500D01*
X1329499Y-1285500D01*
X1333599Y-1281399D01*
X1335699Y-1277300D01*
X1349200Y-1252800D02*
G01*
X1353299Y-1250700D01*
X1359399Y-1244600D01*
X1359399Y-1287500D01*
X1397500Y-1244600D02*
G01*
X1376999Y-1244600D01*
X1375000Y-1263000D01*
X1376999Y-1260999D01*
X1383100Y-1258899D01*
X1389300Y-1258899D01*
X1395399Y-1260999D01*
X1399499Y-1265000D01*
X1401499Y-1271199D01*
X1401499Y-1275300D01*
X1399499Y-1281399D01*
X1395399Y-1285500D01*
X1389300Y-1287500D01*
X1383100Y-1287500D01*
X1376999Y-1285500D01*
X1375000Y-1283499D01*
X1372899Y-1279400D01*
X1870699Y-1249800D02*
G01*
X1868599Y-1245700D01*
X1864499Y-1241599D01*
X1860500Y-1239600D01*
X1852299Y-1239600D01*
X1848199Y-1241599D01*
X1844099Y-1245700D01*
X1841999Y-1249800D01*
X1840000Y-1255999D01*
X1840000Y-1266199D01*
X1841999Y-1272300D01*
X1844099Y-1276399D01*
X1848199Y-1280500D01*
X1852299Y-1282500D01*
X1860500Y-1282500D01*
X1864499Y-1280500D01*
X1868599Y-1276399D01*
X1870699Y-1272300D01*
X1884200Y-1247800D02*
G01*
X1888299Y-1245700D01*
X1894399Y-1239600D01*
X1894399Y-1282500D01*
X1932500Y-1245700D02*
G01*
X1930399Y-1241599D01*
X1924300Y-1239600D01*
X1920200Y-1239600D01*
X1913999Y-1241599D01*
X1910000Y-1247800D01*
X1907899Y-1258000D01*
X1907899Y-1268200D01*
X1910000Y-1276399D01*
X1913999Y-1280500D01*
X1920200Y-1282500D01*
X1922200Y-1282500D01*
X1928400Y-1280500D01*
X1932500Y-1276399D01*
X1934499Y-1270300D01*
X1934499Y-1268200D01*
X1932500Y-1262100D01*
X1928400Y-1258000D01*
X1922200Y-1255999D01*
X1920200Y-1255999D01*
X1913999Y-1258000D01*
X1910000Y-1262100D01*
X1907899Y-1268200D01*
X2090699Y-2014800D02*
G01*
X2088599Y-2010700D01*
X2084499Y-2006599D01*
X2080500Y-2004600D01*
X2072299Y-2004600D01*
X2068199Y-2006599D01*
X2064099Y-2010700D01*
X2061999Y-2014800D01*
X2060000Y-2020999D01*
X2060000Y-2031199D01*
X2061999Y-2037300D01*
X2064099Y-2041399D01*
X2068199Y-2045500D01*
X2072299Y-2047500D01*
X2080500Y-2047500D01*
X2084499Y-2045500D01*
X2088599Y-2041399D01*
X2090699Y-2037300D01*
X2104200Y-2012800D02*
G01*
X2108299Y-2010700D01*
X2114399Y-2004600D01*
X2114399Y-2047500D01*
X2156499Y-2004600D02*
G01*
X2136099Y-2047500D01*
X2127899Y-2004600D02*
G01*
X2156499Y-2004600D01*
X1775699Y-1639800D02*
G01*
X1773599Y-1635700D01*
X1769499Y-1631599D01*
X1765500Y-1629600D01*
X1757299Y-1629600D01*
X1753199Y-1631599D01*
X1749099Y-1635700D01*
X1746999Y-1639800D01*
X1745000Y-1645999D01*
X1745000Y-1656199D01*
X1746999Y-1662300D01*
X1749099Y-1666399D01*
X1753199Y-1670500D01*
X1757299Y-1672500D01*
X1765500Y-1672500D01*
X1769499Y-1670500D01*
X1773599Y-1666399D01*
X1775699Y-1662300D01*
X1789200Y-1637800D02*
G01*
X1793299Y-1635700D01*
X1799399Y-1629600D01*
X1799399Y-1672500D01*
X1823100Y-1629600D02*
G01*
X1816999Y-1631599D01*
X1815000Y-1635700D01*
X1815000Y-1639800D01*
X1816999Y-1643899D01*
X1821099Y-1645999D01*
X1829300Y-1648000D01*
X1835399Y-1650000D01*
X1839499Y-1654099D01*
X1841499Y-1658200D01*
X1841499Y-1664400D01*
X1839499Y-1668499D01*
X1837500Y-1670500D01*
X1831300Y-1672500D01*
X1823100Y-1672500D01*
X1816999Y-1670500D01*
X1815000Y-1668499D01*
X1812899Y-1664400D01*
X1812899Y-1658200D01*
X1815000Y-1654099D01*
X1818999Y-1650000D01*
X1825200Y-1648000D01*
X1833400Y-1645999D01*
X1837500Y-1643899D01*
X1839499Y-1639800D01*
X1839499Y-1635700D01*
X1837500Y-1631599D01*
X1831300Y-1629600D01*
X1823100Y-1629600D01*
X1770699Y-1559800D02*
G01*
X1768599Y-1555700D01*
X1764499Y-1551599D01*
X1760500Y-1549600D01*
X1752299Y-1549600D01*
X1748199Y-1551599D01*
X1744099Y-1555700D01*
X1741999Y-1559800D01*
X1740000Y-1565999D01*
X1740000Y-1576199D01*
X1741999Y-1582300D01*
X1744099Y-1586399D01*
X1748199Y-1590500D01*
X1752299Y-1592500D01*
X1760500Y-1592500D01*
X1764499Y-1590500D01*
X1768599Y-1586399D01*
X1770699Y-1582300D01*
X1784200Y-1557800D02*
G01*
X1788299Y-1555700D01*
X1794399Y-1549600D01*
X1794399Y-1592500D01*
X1834499Y-1563899D02*
G01*
X1832500Y-1570000D01*
X1828400Y-1574099D01*
X1822200Y-1576199D01*
X1820200Y-1576199D01*
X1813999Y-1574099D01*
X1810000Y-1570000D01*
X1807899Y-1563899D01*
X1807899Y-1561900D01*
X1810000Y-1555700D01*
X1813999Y-1551599D01*
X1820200Y-1549600D01*
X1822200Y-1549600D01*
X1828400Y-1551599D01*
X1832500Y-1555700D01*
X1834499Y-1563899D01*
X1834499Y-1574099D01*
X1832500Y-1584400D01*
X1828400Y-1590500D01*
X1822200Y-1592500D01*
X1818100Y-1592500D01*
X1811999Y-1590500D01*
X1810000Y-1586399D01*
X2835699Y-2439800D02*
G01*
X2833599Y-2435700D01*
X2829499Y-2431599D01*
X2825500Y-2429600D01*
X2817299Y-2429600D01*
X2813199Y-2431599D01*
X2809099Y-2435700D01*
X2806999Y-2439800D01*
X2805000Y-2445999D01*
X2805000Y-2456199D01*
X2806999Y-2462300D01*
X2809099Y-2466399D01*
X2813199Y-2470500D01*
X2817299Y-2472500D01*
X2825500Y-2472500D01*
X2829499Y-2470500D01*
X2833599Y-2466399D01*
X2835699Y-2462300D01*
X2851199Y-2439800D02*
G01*
X2851199Y-2437800D01*
X2853299Y-2433699D01*
X2855299Y-2431599D01*
X2859399Y-2429600D01*
X2867600Y-2429600D01*
X2871700Y-2431599D01*
X2873699Y-2433699D01*
X2875799Y-2437800D01*
X2875799Y-2441900D01*
X2873699Y-2445999D01*
X2869600Y-2452100D01*
X2849200Y-2472500D01*
X2877799Y-2472500D01*
X2903599Y-2429600D02*
G01*
X2897500Y-2431599D01*
X2893400Y-2437800D01*
X2891300Y-2448000D01*
X2891300Y-2454099D01*
X2893400Y-2464400D01*
X2897500Y-2470500D01*
X2903599Y-2472500D01*
X2907700Y-2472500D01*
X2913800Y-2470500D01*
X2917899Y-2464400D01*
X2920000Y-2454099D01*
X2920000Y-2448000D01*
X2917899Y-2437800D01*
X2913800Y-2431599D01*
X2907700Y-2429600D01*
X2903599Y-2429600D01*
X2839799Y-1754299D02*
G01*
X2835699Y-1756399D01*
X2831599Y-1760500D01*
X2829600Y-1764499D01*
X2829600Y-1772699D01*
X2831599Y-1776799D01*
X2835699Y-1780900D01*
X2839799Y-1783000D01*
X2846000Y-1785000D01*
X2856199Y-1785000D01*
X2862299Y-1783000D01*
X2866400Y-1780900D01*
X2870500Y-1776799D01*
X2872500Y-1772699D01*
X2872500Y-1764499D01*
X2870500Y-1760500D01*
X2866400Y-1756399D01*
X2862299Y-1754299D01*
X2839799Y-1738800D02*
G01*
X2837799Y-1738800D01*
X2833699Y-1736700D01*
X2831599Y-1734699D01*
X2829600Y-1730599D01*
X2829600Y-1722399D01*
X2831599Y-1718299D01*
X2833699Y-1716300D01*
X2837799Y-1714200D01*
X2841899Y-1714200D01*
X2846000Y-1716300D01*
X2852100Y-1720399D01*
X2872500Y-1740799D01*
X2872500Y-1712199D01*
X2837799Y-1698699D02*
G01*
X2835699Y-1694600D01*
X2829600Y-1688499D01*
X2872500Y-1688499D01*
X1195000Y-1504600D02*
G01*
X1195000Y-1547500D01*
X1195000Y-1504600D02*
G01*
X1209300Y-1504600D01*
X1215500Y-1506599D01*
X1219499Y-1510700D01*
X1221599Y-1514800D01*
X1223599Y-1520999D01*
X1223599Y-1531199D01*
X1221599Y-1537300D01*
X1219499Y-1541399D01*
X1215500Y-1545500D01*
X1209300Y-1547500D01*
X1195000Y-1547500D01*
X1253500Y-1504600D02*
G01*
X1237100Y-1547500D01*
X1253500Y-1504600D02*
G01*
X1269899Y-1547500D01*
X1243299Y-1533200D02*
G01*
X1263699Y-1533200D01*
X1307899Y-1504600D02*
G01*
X1287500Y-1504600D01*
X1285399Y-1523000D01*
X1287500Y-1520999D01*
X1293599Y-1518899D01*
X1299700Y-1518899D01*
X1305900Y-1520999D01*
X1310000Y-1525000D01*
X1311999Y-1531199D01*
X1311999Y-1535300D01*
X1310000Y-1541399D01*
X1305900Y-1545500D01*
X1299700Y-1547500D01*
X1293599Y-1547500D01*
X1287500Y-1545500D01*
X1285399Y-1543499D01*
X1283400Y-1539400D01*
X2690000Y-2264600D02*
G01*
X2690000Y-2307500D01*
X2690000Y-2264600D02*
G01*
X2704300Y-2264600D01*
X2710500Y-2266599D01*
X2714499Y-2270700D01*
X2716599Y-2274800D01*
X2718599Y-2280999D01*
X2718599Y-2291199D01*
X2716599Y-2297300D01*
X2714499Y-2301399D01*
X2710500Y-2305500D01*
X2704300Y-2307500D01*
X2690000Y-2307500D01*
X2732100Y-2264600D02*
G01*
X2732100Y-2307500D01*
X2732100Y-2264600D02*
G01*
X2746499Y-2264600D01*
X2752600Y-2266599D01*
X2756700Y-2270700D01*
X2758699Y-2274800D01*
X2760799Y-2280999D01*
X2760799Y-2291199D01*
X2758699Y-2297300D01*
X2756700Y-2301399D01*
X2752600Y-2305500D01*
X2746499Y-2307500D01*
X2732100Y-2307500D01*
X2774300Y-2272800D02*
G01*
X2778400Y-2270700D01*
X2784499Y-2264600D01*
X2784499Y-2307500D01*
X1968784Y-1674774D02*
G01*
X1968784Y-1717674D01*
X1968784Y-1674774D02*
G01*
X1983085Y-1674774D01*
X1989284Y-1676774D01*
X1993284Y-1680875D01*
X1995384Y-1684974D01*
X1997385Y-1691174D01*
X1997385Y-1701374D01*
X1995384Y-1707474D01*
X1993284Y-1711574D01*
X1989284Y-1715675D01*
X1983085Y-1717674D01*
X1968784Y-1717674D01*
X2010884Y-1674774D02*
G01*
X2010884Y-1717674D01*
X2010884Y-1674774D02*
G01*
X2025285Y-1674774D01*
X2031385Y-1676774D01*
X2035484Y-1680875D01*
X2037484Y-1684974D01*
X2039584Y-1691174D01*
X2039584Y-1701374D01*
X2037484Y-1707474D01*
X2035484Y-1711574D01*
X2031385Y-1715675D01*
X2025285Y-1717674D01*
X2010884Y-1717674D01*
X2055084Y-1684974D02*
G01*
X2055084Y-1682975D01*
X2057184Y-1678874D01*
X2059184Y-1676774D01*
X2063284Y-1674774D01*
X2071485Y-1674774D01*
X2075585Y-1676774D01*
X2077584Y-1678874D01*
X2079684Y-1682975D01*
X2079684Y-1687074D01*
X2077584Y-1691174D01*
X2073485Y-1697274D01*
X2053085Y-1717674D01*
X2081684Y-1717674D01*
X2735000Y-1314600D02*
G01*
X2735000Y-1357500D01*
X2735000Y-1314600D02*
G01*
X2749300Y-1314600D01*
X2755500Y-1316599D01*
X2759499Y-1320700D01*
X2761599Y-1324800D01*
X2763599Y-1330999D01*
X2763599Y-1341199D01*
X2761599Y-1347300D01*
X2759499Y-1351399D01*
X2755500Y-1355500D01*
X2749300Y-1357500D01*
X2735000Y-1357500D01*
X2777100Y-1314600D02*
G01*
X2777100Y-1357500D01*
X2777100Y-1314600D02*
G01*
X2791499Y-1314600D01*
X2797600Y-1316599D01*
X2801700Y-1320700D01*
X2803699Y-1324800D01*
X2805799Y-1330999D01*
X2805799Y-1341199D01*
X2803699Y-1347300D01*
X2801700Y-1351399D01*
X2797600Y-1355500D01*
X2791499Y-1357500D01*
X2777100Y-1357500D01*
X2823400Y-1314600D02*
G01*
X2845900Y-1314600D01*
X2833599Y-1330999D01*
X2839700Y-1330999D01*
X2843800Y-1333000D01*
X2845900Y-1335000D01*
X2847899Y-1341199D01*
X2847899Y-1345300D01*
X2845900Y-1351399D01*
X2841800Y-1355500D01*
X2835600Y-1357500D01*
X2829499Y-1357500D01*
X2823400Y-1355500D01*
X2821300Y-1353499D01*
X2819300Y-1349400D01*
X1602299Y-1259600D02*
G01*
X1598199Y-1261599D01*
X1594099Y-1265700D01*
X1591999Y-1269800D01*
X1590000Y-1275999D01*
X1590000Y-1286199D01*
X1591999Y-1292300D01*
X1594099Y-1296399D01*
X1598199Y-1300500D01*
X1602299Y-1302500D01*
X1610500Y-1302500D01*
X1614499Y-1300500D01*
X1618599Y-1296399D01*
X1620699Y-1292300D01*
X1622700Y-1286199D01*
X1622700Y-1275999D01*
X1620699Y-1269800D01*
X1618599Y-1265700D01*
X1614499Y-1261599D01*
X1610500Y-1259600D01*
X1602299Y-1259600D01*
X1608400Y-1294400D02*
G01*
X1620699Y-1306599D01*
X1636199Y-1267800D02*
G01*
X1640299Y-1265700D01*
X1646499Y-1259600D01*
X1646499Y-1302500D01*
X619600Y-2245000D02*
G01*
X662500Y-2216399D01*
X619600Y-2216399D02*
G01*
X662500Y-2245000D01*
X619600Y-2202899D02*
G01*
X662500Y-2202899D01*
X619600Y-2202899D02*
G01*
X619600Y-2184499D01*
X621599Y-2178299D01*
X623699Y-2176300D01*
X627800Y-2174200D01*
X633899Y-2174200D01*
X638000Y-2176300D01*
X640000Y-2178299D01*
X642100Y-2184499D01*
X642100Y-2202899D01*
X629800Y-2158699D02*
G01*
X627800Y-2158699D01*
X623699Y-2156599D01*
X621599Y-2154600D01*
X619600Y-2150500D01*
X619600Y-2142300D01*
X621599Y-2138200D01*
X623699Y-2136199D01*
X627800Y-2134099D01*
X631900Y-2134099D01*
X635999Y-2136199D01*
X642100Y-2140300D01*
X662500Y-2160700D01*
X662500Y-2132100D01*
X619600Y-2106300D02*
G01*
X621599Y-2112500D01*
X627800Y-2116500D01*
X638000Y-2118600D01*
X644099Y-2118600D01*
X654400Y-2116500D01*
X660500Y-2112500D01*
X662500Y-2106300D01*
X662500Y-2102199D01*
X660500Y-2096100D01*
X654400Y-2091999D01*
X644099Y-2090000D01*
X638000Y-2090000D01*
X627800Y-2091999D01*
X621599Y-2096100D01*
X619600Y-2102199D01*
X619600Y-2106300D01*
X745000Y-1754600D02*
G01*
X773599Y-1797500D01*
X773599Y-1754600D02*
G01*
X745000Y-1797500D01*
X787100Y-1754600D02*
G01*
X787100Y-1797500D01*
X787100Y-1754600D02*
G01*
X805500Y-1754600D01*
X811700Y-1756599D01*
X813699Y-1758699D01*
X815799Y-1762800D01*
X815799Y-1768899D01*
X813699Y-1773000D01*
X811700Y-1775000D01*
X805500Y-1777100D01*
X787100Y-1777100D01*
X831300Y-1764800D02*
G01*
X831300Y-1762800D01*
X833400Y-1758699D01*
X835399Y-1756599D01*
X839499Y-1754600D01*
X847700Y-1754600D01*
X851800Y-1756599D01*
X853800Y-1758699D01*
X855900Y-1762800D01*
X855900Y-1766900D01*
X853800Y-1770999D01*
X849700Y-1777100D01*
X829300Y-1797500D01*
X857899Y-1797500D01*
X871400Y-1762800D02*
G01*
X875500Y-1760700D01*
X881599Y-1754600D01*
X881599Y-1797500D01*
X3045000Y-2204600D02*
G01*
X3073599Y-2247500D01*
X3073599Y-2204600D02*
G01*
X3045000Y-2247500D01*
X3087100Y-2204600D02*
G01*
X3087100Y-2247500D01*
X3087100Y-2204600D02*
G01*
X3105500Y-2204600D01*
X3111700Y-2206599D01*
X3113699Y-2208699D01*
X3115799Y-2212800D01*
X3115799Y-2218899D01*
X3113699Y-2223000D01*
X3111700Y-2225000D01*
X3105500Y-2227100D01*
X3087100Y-2227100D01*
X3131300Y-2214800D02*
G01*
X3131300Y-2212800D01*
X3133400Y-2208699D01*
X3135399Y-2206599D01*
X3139499Y-2204600D01*
X3147700Y-2204600D01*
X3151800Y-2206599D01*
X3153800Y-2208699D01*
X3155900Y-2212800D01*
X3155900Y-2216900D01*
X3153800Y-2220999D01*
X3149700Y-2227100D01*
X3129300Y-2247500D01*
X3157899Y-2247500D01*
X3173500Y-2214800D02*
G01*
X3173500Y-2212800D01*
X3175500Y-2208699D01*
X3177500Y-2206599D01*
X3181599Y-2204600D01*
X3189799Y-2204600D01*
X3193900Y-2206599D01*
X3196000Y-2208699D01*
X3198000Y-2212800D01*
X3198000Y-2216900D01*
X3196000Y-2220999D01*
X3191899Y-2227100D01*
X3171400Y-2247500D01*
X3200000Y-2247500D01*
X3045000Y-2309600D02*
G01*
X3073599Y-2352500D01*
X3073599Y-2309600D02*
G01*
X3045000Y-2352500D01*
X3087100Y-2309600D02*
G01*
X3087100Y-2352500D01*
X3087100Y-2309600D02*
G01*
X3105500Y-2309600D01*
X3111700Y-2311599D01*
X3113699Y-2313699D01*
X3115799Y-2317800D01*
X3115799Y-2323899D01*
X3113699Y-2328000D01*
X3111700Y-2330000D01*
X3105500Y-2332100D01*
X3087100Y-2332100D01*
X3131300Y-2319800D02*
G01*
X3131300Y-2317800D01*
X3133400Y-2313699D01*
X3135399Y-2311599D01*
X3139499Y-2309600D01*
X3147700Y-2309600D01*
X3151800Y-2311599D01*
X3153800Y-2313699D01*
X3155900Y-2317800D01*
X3155900Y-2321900D01*
X3153800Y-2325999D01*
X3149700Y-2332100D01*
X3129300Y-2352500D01*
X3157899Y-2352500D01*
X3175500Y-2309600D02*
G01*
X3198000Y-2309600D01*
X3185699Y-2325999D01*
X3191899Y-2325999D01*
X3196000Y-2328000D01*
X3198000Y-2330000D01*
X3200000Y-2336199D01*
X3200000Y-2340300D01*
X3198000Y-2346399D01*
X3193900Y-2350500D01*
X3187799Y-2352500D01*
X3181599Y-2352500D01*
X3175500Y-2350500D01*
X3173500Y-2348499D01*
X3171400Y-2344400D01*
X3045000Y-2084600D02*
G01*
X3073599Y-2127500D01*
X3073599Y-2084600D02*
G01*
X3045000Y-2127500D01*
X3087100Y-2084600D02*
G01*
X3087100Y-2127500D01*
X3087100Y-2084600D02*
G01*
X3105500Y-2084600D01*
X3111700Y-2086599D01*
X3113699Y-2088699D01*
X3115799Y-2092800D01*
X3115799Y-2098899D01*
X3113699Y-2103000D01*
X3111700Y-2105000D01*
X3105500Y-2107100D01*
X3087100Y-2107100D01*
X3131300Y-2094800D02*
G01*
X3131300Y-2092800D01*
X3133400Y-2088699D01*
X3135399Y-2086599D01*
X3139499Y-2084600D01*
X3147700Y-2084600D01*
X3151800Y-2086599D01*
X3153800Y-2088699D01*
X3155900Y-2092800D01*
X3155900Y-2096900D01*
X3153800Y-2100999D01*
X3149700Y-2107100D01*
X3129300Y-2127500D01*
X3157899Y-2127500D01*
X3191899Y-2084600D02*
G01*
X3171400Y-2113200D01*
X3202100Y-2113200D01*
X3191899Y-2084600D02*
G01*
X3191899Y-2127500D01*
X3040000Y-1984600D02*
G01*
X3068599Y-2027500D01*
X3068599Y-1984600D02*
G01*
X3040000Y-2027500D01*
X3082100Y-1984600D02*
G01*
X3082100Y-2027500D01*
X3082100Y-1984600D02*
G01*
X3100500Y-1984600D01*
X3106700Y-1986599D01*
X3108699Y-1988699D01*
X3110799Y-1992800D01*
X3110799Y-1998899D01*
X3108699Y-2003000D01*
X3106700Y-2005000D01*
X3100500Y-2007100D01*
X3082100Y-2007100D01*
X3126300Y-1994800D02*
G01*
X3126300Y-1992800D01*
X3128400Y-1988699D01*
X3130399Y-1986599D01*
X3134499Y-1984600D01*
X3142700Y-1984600D01*
X3146800Y-1986599D01*
X3148800Y-1988699D01*
X3150900Y-1992800D01*
X3150900Y-1996900D01*
X3148800Y-2000999D01*
X3144700Y-2007100D01*
X3124300Y-2027500D01*
X3152899Y-2027500D01*
X3191000Y-1984600D02*
G01*
X3170500Y-1984600D01*
X3168500Y-2003000D01*
X3170500Y-2000999D01*
X3176599Y-1998899D01*
X3182799Y-1998899D01*
X3188900Y-2000999D01*
X3193000Y-2005000D01*
X3195000Y-2011199D01*
X3195000Y-2015300D01*
X3193000Y-2021399D01*
X3188900Y-2025500D01*
X3182799Y-2027500D01*
X3176599Y-2027500D01*
X3170500Y-2025500D01*
X3168500Y-2023499D01*
X3166400Y-2019400D01*
X2360000Y-2009600D02*
G01*
X2388599Y-2052500D01*
X2388599Y-2009600D02*
G01*
X2360000Y-2052500D01*
X2402100Y-2009600D02*
G01*
X2402100Y-2052500D01*
X2402100Y-2009600D02*
G01*
X2420500Y-2009600D01*
X2426700Y-2011599D01*
X2428699Y-2013699D01*
X2430799Y-2017800D01*
X2430799Y-2023899D01*
X2428699Y-2028000D01*
X2426700Y-2030000D01*
X2420500Y-2032100D01*
X2402100Y-2032100D01*
X2446300Y-2019800D02*
G01*
X2446300Y-2017800D01*
X2448400Y-2013699D01*
X2450399Y-2011599D01*
X2454499Y-2009600D01*
X2462700Y-2009600D01*
X2466800Y-2011599D01*
X2468800Y-2013699D01*
X2470900Y-2017800D01*
X2470900Y-2021900D01*
X2468800Y-2025999D01*
X2464700Y-2032100D01*
X2444300Y-2052500D01*
X2472899Y-2052500D01*
X2511000Y-2015700D02*
G01*
X2508900Y-2011599D01*
X2502799Y-2009600D01*
X2498699Y-2009600D01*
X2492500Y-2011599D01*
X2488500Y-2017800D01*
X2486400Y-2028000D01*
X2486400Y-2038200D01*
X2488500Y-2046399D01*
X2492500Y-2050500D01*
X2498699Y-2052500D01*
X2500699Y-2052500D01*
X2506899Y-2050500D01*
X2511000Y-2046399D01*
X2513000Y-2040300D01*
X2513000Y-2038200D01*
X2511000Y-2032100D01*
X2506899Y-2028000D01*
X2500699Y-2025999D01*
X2498699Y-2025999D01*
X2492500Y-2028000D01*
X2488500Y-2032100D01*
X2486400Y-2038200D01*
X2360000Y-2114600D02*
G01*
X2388599Y-2157500D01*
X2388599Y-2114600D02*
G01*
X2360000Y-2157500D01*
X2402100Y-2114600D02*
G01*
X2402100Y-2157500D01*
X2402100Y-2114600D02*
G01*
X2420500Y-2114600D01*
X2426700Y-2116599D01*
X2428699Y-2118699D01*
X2430799Y-2122800D01*
X2430799Y-2128899D01*
X2428699Y-2133000D01*
X2426700Y-2135000D01*
X2420500Y-2137100D01*
X2402100Y-2137100D01*
X2446300Y-2124800D02*
G01*
X2446300Y-2122800D01*
X2448400Y-2118699D01*
X2450399Y-2116599D01*
X2454499Y-2114600D01*
X2462700Y-2114600D01*
X2466800Y-2116599D01*
X2468800Y-2118699D01*
X2470900Y-2122800D01*
X2470900Y-2126900D01*
X2468800Y-2130999D01*
X2464700Y-2137100D01*
X2444300Y-2157500D01*
X2472899Y-2157500D01*
X2515000Y-2114600D02*
G01*
X2494600Y-2157500D01*
X2486400Y-2114600D02*
G01*
X2515000Y-2114600D01*
X2360000Y-2334600D02*
G01*
X2388599Y-2377500D01*
X2388599Y-2334600D02*
G01*
X2360000Y-2377500D01*
X2402100Y-2334600D02*
G01*
X2402100Y-2377500D01*
X2402100Y-2334600D02*
G01*
X2420500Y-2334600D01*
X2426700Y-2336599D01*
X2428699Y-2338699D01*
X2430799Y-2342800D01*
X2430799Y-2348899D01*
X2428699Y-2353000D01*
X2426700Y-2355000D01*
X2420500Y-2357100D01*
X2402100Y-2357100D01*
X2446300Y-2344800D02*
G01*
X2446300Y-2342800D01*
X2448400Y-2338699D01*
X2450399Y-2336599D01*
X2454499Y-2334600D01*
X2462700Y-2334600D01*
X2466800Y-2336599D01*
X2468800Y-2338699D01*
X2470900Y-2342800D01*
X2470900Y-2346900D01*
X2468800Y-2350999D01*
X2464700Y-2357100D01*
X2444300Y-2377500D01*
X2472899Y-2377500D01*
X2496599Y-2334600D02*
G01*
X2490500Y-2336599D01*
X2488500Y-2340700D01*
X2488500Y-2344800D01*
X2490500Y-2348899D01*
X2494600Y-2350999D01*
X2502799Y-2353000D01*
X2508900Y-2355000D01*
X2513000Y-2359099D01*
X2515000Y-2363200D01*
X2515000Y-2369400D01*
X2513000Y-2373499D01*
X2511000Y-2375500D01*
X2504799Y-2377500D01*
X2496599Y-2377500D01*
X2490500Y-2375500D01*
X2488500Y-2373499D01*
X2486400Y-2369400D01*
X2486400Y-2363200D01*
X2488500Y-2359099D01*
X2492500Y-2355000D01*
X2498699Y-2353000D01*
X2506899Y-2350999D01*
X2511000Y-2348899D01*
X2513000Y-2344800D01*
X2513000Y-2340700D01*
X2511000Y-2336599D01*
X2504799Y-2334600D01*
X2496599Y-2334600D01*
X2360000Y-2219600D02*
G01*
X2388599Y-2262500D01*
X2388599Y-2219600D02*
G01*
X2360000Y-2262500D01*
X2402100Y-2219600D02*
G01*
X2402100Y-2262500D01*
X2402100Y-2219600D02*
G01*
X2420500Y-2219600D01*
X2426700Y-2221599D01*
X2428699Y-2223699D01*
X2430799Y-2227800D01*
X2430799Y-2233899D01*
X2428699Y-2238000D01*
X2426700Y-2240000D01*
X2420500Y-2242100D01*
X2402100Y-2242100D01*
X2446300Y-2229800D02*
G01*
X2446300Y-2227800D01*
X2448400Y-2223699D01*
X2450399Y-2221599D01*
X2454499Y-2219600D01*
X2462700Y-2219600D01*
X2466800Y-2221599D01*
X2468800Y-2223699D01*
X2470900Y-2227800D01*
X2470900Y-2231900D01*
X2468800Y-2235999D01*
X2464700Y-2242100D01*
X2444300Y-2262500D01*
X2472899Y-2262500D01*
X2513000Y-2233899D02*
G01*
X2511000Y-2240000D01*
X2506899Y-2244099D01*
X2500699Y-2246199D01*
X2498699Y-2246199D01*
X2492500Y-2244099D01*
X2488500Y-2240000D01*
X2486400Y-2233899D01*
X2486400Y-2231900D01*
X2488500Y-2225700D01*
X2492500Y-2221599D01*
X2498699Y-2219600D01*
X2500699Y-2219600D01*
X2506899Y-2221599D01*
X2511000Y-2225700D01*
X2513000Y-2233899D01*
X2513000Y-2244099D01*
X2511000Y-2254400D01*
X2506899Y-2260500D01*
X2500699Y-2262500D01*
X2496599Y-2262500D01*
X2490500Y-2260500D01*
X2488500Y-2256399D01*
X2400002Y-1549879D02*
G01*
X2428602Y-1592779D01*
X2428602Y-1549879D02*
G01*
X2400002Y-1592779D01*
X2442102Y-1549879D02*
G01*
X2442102Y-1592779D01*
X2442102Y-1549879D02*
G01*
X2460501Y-1549879D01*
X2466701Y-1551880D01*
X2468702Y-1553980D01*
X2470802Y-1558080D01*
X2470802Y-1564180D01*
X2468702Y-1568279D01*
X2466701Y-1570279D01*
X2460501Y-1572379D01*
X2442102Y-1572379D01*
X2488401Y-1549879D02*
G01*
X2510901Y-1549879D01*
X2498602Y-1566280D01*
X2504701Y-1566280D01*
X2508801Y-1568279D01*
X2510901Y-1570279D01*
X2512902Y-1576480D01*
X2512902Y-1580580D01*
X2510901Y-1586680D01*
X2506801Y-1590779D01*
X2500601Y-1592779D01*
X2494502Y-1592779D01*
X2488401Y-1590779D01*
X2486301Y-1588780D01*
X2484301Y-1584679D01*
X2538702Y-1549879D02*
G01*
X2532502Y-1551880D01*
X2528501Y-1558080D01*
X2526401Y-1568279D01*
X2526401Y-1574380D01*
X2528501Y-1584679D01*
X2532502Y-1590779D01*
X2538702Y-1592779D01*
X2542802Y-1592779D01*
X2548901Y-1590779D01*
X2553001Y-1584679D01*
X2555002Y-1574380D01*
X2555002Y-1568279D01*
X2553001Y-1558080D01*
X2548901Y-1551880D01*
X2542802Y-1549879D01*
X2538702Y-1549879D01*
X2410002Y-1659879D02*
G01*
X2438602Y-1702779D01*
X2438602Y-1659879D02*
G01*
X2410002Y-1702779D01*
X2452102Y-1659879D02*
G01*
X2452102Y-1702779D01*
X2452102Y-1659879D02*
G01*
X2470501Y-1659879D01*
X2476701Y-1661880D01*
X2478702Y-1663980D01*
X2480802Y-1668080D01*
X2480802Y-1674180D01*
X2478702Y-1678279D01*
X2476701Y-1680279D01*
X2470501Y-1682379D01*
X2452102Y-1682379D01*
X2498401Y-1659879D02*
G01*
X2520901Y-1659879D01*
X2508602Y-1676280D01*
X2514701Y-1676280D01*
X2518801Y-1678279D01*
X2520901Y-1680279D01*
X2522902Y-1686480D01*
X2522902Y-1690580D01*
X2520901Y-1696680D01*
X2516801Y-1700779D01*
X2510601Y-1702779D01*
X2504502Y-1702779D01*
X2498401Y-1700779D01*
X2496301Y-1698780D01*
X2494301Y-1694679D01*
X2536401Y-1668080D02*
G01*
X2540501Y-1665979D01*
X2546602Y-1659879D01*
X2546602Y-1702779D01*
X2400002Y-1429879D02*
G01*
X2428602Y-1472779D01*
X2428602Y-1429879D02*
G01*
X2400002Y-1472779D01*
X2442102Y-1429879D02*
G01*
X2442102Y-1472779D01*
X2442102Y-1429879D02*
G01*
X2460501Y-1429879D01*
X2466701Y-1431880D01*
X2468702Y-1433980D01*
X2470802Y-1438080D01*
X2470802Y-1444180D01*
X2468702Y-1448279D01*
X2466701Y-1450279D01*
X2460501Y-1452379D01*
X2442102Y-1452379D01*
X2488401Y-1429879D02*
G01*
X2510901Y-1429879D01*
X2498602Y-1446280D01*
X2504701Y-1446280D01*
X2508801Y-1448279D01*
X2510901Y-1450279D01*
X2512902Y-1456480D01*
X2512902Y-1460580D01*
X2510901Y-1466680D01*
X2506801Y-1470779D01*
X2500601Y-1472779D01*
X2494502Y-1472779D01*
X2488401Y-1470779D01*
X2486301Y-1468780D01*
X2484301Y-1464679D01*
X2528501Y-1440079D02*
G01*
X2528501Y-1438080D01*
X2530501Y-1433980D01*
X2532502Y-1431880D01*
X2536602Y-1429879D01*
X2544801Y-1429879D01*
X2548901Y-1431880D01*
X2551001Y-1433980D01*
X2553001Y-1438080D01*
X2553001Y-1442179D01*
X2551001Y-1446280D01*
X2546902Y-1452379D01*
X2526401Y-1472779D01*
X2555002Y-1472779D01*
X2400002Y-1324879D02*
G01*
X2428602Y-1367779D01*
X2428602Y-1324879D02*
G01*
X2400002Y-1367779D01*
X2442102Y-1324879D02*
G01*
X2442102Y-1367779D01*
X2442102Y-1324879D02*
G01*
X2460501Y-1324879D01*
X2466701Y-1326880D01*
X2468702Y-1328980D01*
X2470802Y-1333080D01*
X2470802Y-1339180D01*
X2468702Y-1343279D01*
X2466701Y-1345279D01*
X2460501Y-1347379D01*
X2442102Y-1347379D01*
X2488401Y-1324879D02*
G01*
X2510901Y-1324879D01*
X2498602Y-1341280D01*
X2504701Y-1341280D01*
X2508801Y-1343279D01*
X2510901Y-1345279D01*
X2512902Y-1351480D01*
X2512902Y-1355580D01*
X2510901Y-1361680D01*
X2506801Y-1365779D01*
X2500601Y-1367779D01*
X2494502Y-1367779D01*
X2488401Y-1365779D01*
X2486301Y-1363780D01*
X2484301Y-1359679D01*
X2530501Y-1324879D02*
G01*
X2553001Y-1324879D01*
X2540702Y-1341280D01*
X2546902Y-1341280D01*
X2551001Y-1343279D01*
X2553001Y-1345279D01*
X2555002Y-1351480D01*
X2555002Y-1355580D01*
X2553001Y-1361680D01*
X2548901Y-1365779D01*
X2542802Y-1367779D01*
X2536602Y-1367779D01*
X2530501Y-1365779D01*
X2528501Y-1363780D01*
X2526401Y-1359679D01*
X3075002Y-1324879D02*
G01*
X3103602Y-1367779D01*
X3103602Y-1324879D02*
G01*
X3075002Y-1367779D01*
X3117102Y-1324879D02*
G01*
X3117102Y-1367779D01*
X3117102Y-1324879D02*
G01*
X3135501Y-1324879D01*
X3141701Y-1326880D01*
X3143702Y-1328980D01*
X3145802Y-1333080D01*
X3145802Y-1339180D01*
X3143702Y-1343279D01*
X3141701Y-1345279D01*
X3135501Y-1347379D01*
X3117102Y-1347379D01*
X3163401Y-1324879D02*
G01*
X3185901Y-1324879D01*
X3173602Y-1341280D01*
X3179701Y-1341280D01*
X3183801Y-1343279D01*
X3185901Y-1345279D01*
X3187902Y-1351480D01*
X3187902Y-1355580D01*
X3185901Y-1361680D01*
X3181801Y-1365779D01*
X3175601Y-1367779D01*
X3169502Y-1367779D01*
X3163401Y-1365779D01*
X3161301Y-1363780D01*
X3159301Y-1359679D01*
X3221902Y-1324879D02*
G01*
X3201401Y-1353479D01*
X3232102Y-1353479D01*
X3221902Y-1324879D02*
G01*
X3221902Y-1367779D01*
X3080002Y-1429879D02*
G01*
X3108602Y-1472779D01*
X3108602Y-1429879D02*
G01*
X3080002Y-1472779D01*
X3122102Y-1429879D02*
G01*
X3122102Y-1472779D01*
X3122102Y-1429879D02*
G01*
X3140501Y-1429879D01*
X3146701Y-1431880D01*
X3148702Y-1433980D01*
X3150802Y-1438080D01*
X3150802Y-1444180D01*
X3148702Y-1448279D01*
X3146701Y-1450279D01*
X3140501Y-1452379D01*
X3122102Y-1452379D01*
X3168401Y-1429879D02*
G01*
X3190901Y-1429879D01*
X3178602Y-1446280D01*
X3184701Y-1446280D01*
X3188801Y-1448279D01*
X3190901Y-1450279D01*
X3192902Y-1456480D01*
X3192902Y-1460580D01*
X3190901Y-1466680D01*
X3186801Y-1470779D01*
X3180601Y-1472779D01*
X3174502Y-1472779D01*
X3168401Y-1470779D01*
X3166301Y-1468780D01*
X3164301Y-1464679D01*
X3231001Y-1429879D02*
G01*
X3210501Y-1429879D01*
X3208501Y-1448279D01*
X3210501Y-1446280D01*
X3216602Y-1444180D01*
X3222802Y-1444180D01*
X3228901Y-1446280D01*
X3233001Y-1450279D01*
X3235002Y-1456480D01*
X3235002Y-1460580D01*
X3233001Y-1466680D01*
X3228901Y-1470779D01*
X3222802Y-1472779D01*
X3216602Y-1472779D01*
X3210501Y-1470779D01*
X3208501Y-1468780D01*
X3206401Y-1464679D01*
X3080002Y-1639879D02*
G01*
X3108602Y-1682779D01*
X3108602Y-1639879D02*
G01*
X3080002Y-1682779D01*
X3122102Y-1639879D02*
G01*
X3122102Y-1682779D01*
X3122102Y-1639879D02*
G01*
X3140501Y-1639879D01*
X3146701Y-1641880D01*
X3148702Y-1643980D01*
X3150802Y-1648080D01*
X3150802Y-1654180D01*
X3148702Y-1658279D01*
X3146701Y-1660279D01*
X3140501Y-1662379D01*
X3122102Y-1662379D01*
X3168401Y-1639879D02*
G01*
X3190901Y-1639879D01*
X3178602Y-1656280D01*
X3184701Y-1656280D01*
X3188801Y-1658279D01*
X3190901Y-1660279D01*
X3192902Y-1666480D01*
X3192902Y-1670580D01*
X3190901Y-1676680D01*
X3186801Y-1680779D01*
X3180601Y-1682779D01*
X3174502Y-1682779D01*
X3168401Y-1680779D01*
X3166301Y-1678780D01*
X3164301Y-1674679D01*
X3231001Y-1645979D02*
G01*
X3228901Y-1641880D01*
X3222802Y-1639879D01*
X3218702Y-1639879D01*
X3212502Y-1641880D01*
X3208501Y-1648080D01*
X3206401Y-1658279D01*
X3206401Y-1668479D01*
X3208501Y-1676680D01*
X3212502Y-1680779D01*
X3218702Y-1682779D01*
X3220702Y-1682779D01*
X3226902Y-1680779D01*
X3231001Y-1676680D01*
X3233001Y-1670580D01*
X3233001Y-1668479D01*
X3231001Y-1662379D01*
X3226902Y-1658279D01*
X3220702Y-1656280D01*
X3218702Y-1656280D01*
X3212502Y-1658279D01*
X3208501Y-1662379D01*
X3206401Y-1668479D01*
X3085002Y-1544879D02*
G01*
X3113602Y-1587779D01*
X3113602Y-1544879D02*
G01*
X3085002Y-1587779D01*
X3127102Y-1544879D02*
G01*
X3127102Y-1587779D01*
X3127102Y-1544879D02*
G01*
X3145501Y-1544879D01*
X3151701Y-1546880D01*
X3153702Y-1548980D01*
X3155802Y-1553080D01*
X3155802Y-1559180D01*
X3153702Y-1563279D01*
X3151701Y-1565279D01*
X3145501Y-1567379D01*
X3127102Y-1567379D01*
X3173401Y-1544879D02*
G01*
X3195901Y-1544879D01*
X3183602Y-1561280D01*
X3189701Y-1561280D01*
X3193801Y-1563279D01*
X3195901Y-1565279D01*
X3197902Y-1571480D01*
X3197902Y-1575580D01*
X3195901Y-1581680D01*
X3191801Y-1585779D01*
X3185601Y-1587779D01*
X3179502Y-1587779D01*
X3173401Y-1585779D01*
X3171301Y-1583780D01*
X3169301Y-1579679D01*
X3240002Y-1544879D02*
G01*
X3219602Y-1587779D01*
X3211401Y-1544879D02*
G01*
X3240002Y-1544879D01*
D11*
X2246031Y147935D02*
G01*
X2277525Y147935D01*
X2223966Y147953D02*
G01*
X2192470Y147953D01*
X2246031Y92042D02*
G01*
X2277525Y92042D01*
X2223966Y92062D02*
G01*
X2192470Y92062D01*
X2289720Y135738D02*
G01*
X2289720Y104239D01*
X2180275Y104261D02*
G01*
X2180275Y135758D01*
X1656031Y-52064D02*
G01*
X1687525Y-52064D01*
X1633966Y-52046D02*
G01*
X1602470Y-52046D01*
X1656031Y-107957D02*
G01*
X1687525Y-107957D01*
X1633966Y-107937D02*
G01*
X1602470Y-107937D01*
X1699720Y-64261D02*
G01*
X1699720Y-95760D01*
X1590275Y-95738D02*
G01*
X1590275Y-64241D01*
X1567935Y-266030D02*
G01*
X1567935Y-297525D01*
X1567953Y-243966D02*
G01*
X1567953Y-212471D01*
X1512043Y-266030D02*
G01*
X1512043Y-297525D01*
X1512061Y-243966D02*
G01*
X1512061Y-212471D01*
X1555738Y-309720D02*
G01*
X1524239Y-309720D01*
X1524260Y-200275D02*
G01*
X1555757Y-200275D01*
X2222935Y-121030D02*
G01*
X2222935Y-152525D01*
X2222953Y-98966D02*
G01*
X2222953Y-67471D01*
X2167043Y-121030D02*
G01*
X2167043Y-152525D01*
X2167061Y-98966D02*
G01*
X2167061Y-67471D01*
X2210738Y-164720D02*
G01*
X2179240Y-164720D01*
X2179260Y-55275D02*
G01*
X2210757Y-55275D01*
X1771031Y-282064D02*
G01*
X1802525Y-282064D01*
X1748966Y-282046D02*
G01*
X1717470Y-282046D01*
X1771031Y-337957D02*
G01*
X1802525Y-337957D01*
X1748966Y-337937D02*
G01*
X1717470Y-337937D01*
X1814720Y-294261D02*
G01*
X1814720Y-325760D01*
X1705275Y-325738D02*
G01*
X1705275Y-294241D01*
X2372064Y-283969D02*
G01*
X2372064Y-252474D01*
X2372046Y-306033D02*
G01*
X2372046Y-337528D01*
X2427956Y-283969D02*
G01*
X2427956Y-252474D01*
X2427938Y-306033D02*
G01*
X2427938Y-337528D01*
X2384261Y-240279D02*
G01*
X2415760Y-240279D01*
X2415739Y-349724D02*
G01*
X2384242Y-349724D01*
X312064Y-268969D02*
G01*
X312064Y-237474D01*
X312046Y-291033D02*
G01*
X312046Y-322528D01*
X367957Y-268969D02*
G01*
X367957Y-237474D01*
X367937Y-291033D02*
G01*
X367937Y-322528D01*
X324261Y-225279D02*
G01*
X355760Y-225279D01*
X355738Y-334724D02*
G01*
X324241Y-334724D01*
X687935Y-51030D02*
G01*
X687935Y-82525D01*
X687953Y-28966D02*
G01*
X687953Y2528D01*
X632042Y-51030D02*
G01*
X632042Y-82525D01*
X632062Y-28966D02*
G01*
X632062Y2528D01*
X675738Y-94720D02*
G01*
X644239Y-94720D01*
X644261Y14724D02*
G01*
X675758Y14724D01*
X953968Y-142935D02*
G01*
X922474Y-142935D01*
X976033Y-142953D02*
G01*
X1007529Y-142953D01*
X953968Y-87042D02*
G01*
X922474Y-87042D01*
X976033Y-87062D02*
G01*
X1007529Y-87062D01*
X910279Y-130738D02*
G01*
X910279Y-99239D01*
X1019724Y-99261D02*
G01*
X1019724Y-130758D01*
X722064Y-233969D02*
G01*
X722064Y-202474D01*
X722046Y-256033D02*
G01*
X722046Y-287528D01*
X777956Y-233969D02*
G01*
X777956Y-202474D01*
X777938Y-256033D02*
G01*
X777938Y-287528D01*
X734261Y-190279D02*
G01*
X765760Y-190279D01*
X765739Y-299724D02*
G01*
X734241Y-299724D01*
X788968Y-47935D02*
G01*
X757474Y-47935D01*
X811033Y-47953D02*
G01*
X842529Y-47953D01*
X788968Y7957D02*
G01*
X757474Y7957D01*
X811033Y7937D02*
G01*
X842529Y7937D01*
X745279Y-35738D02*
G01*
X745279Y-4239D01*
X854724Y-4261D02*
G01*
X854724Y-35758D01*
X1512064Y51030D02*
G01*
X1512064Y82525D01*
X1512046Y28966D02*
G01*
X1512046Y-2528D01*
X1567956Y51030D02*
G01*
X1567956Y82525D01*
X1567938Y28966D02*
G01*
X1567938Y-2528D01*
X1524261Y94720D02*
G01*
X1555760Y94720D01*
X1555739Y-14724D02*
G01*
X1524242Y-14724D01*
X1895029Y155039D02*
G01*
X1812422Y155039D01*
X1975029Y155039D02*
G01*
X2057577Y155039D01*
X2057577Y-215039D02*
G01*
X1812422Y-215039D01*
X2050029Y92487D02*
G01*
X2050029Y47512D01*
X2050029Y-7512D02*
G01*
X2050029Y-52487D01*
X2050029Y-107512D02*
G01*
X2050029Y-152487D01*
X1820029Y92564D02*
G01*
X1820029Y47435D01*
X1820029Y-7435D02*
G01*
X1820029Y-52564D01*
X1820029Y-107435D02*
G01*
X1820029Y-152564D01*
X1225029Y115039D02*
G01*
X1142422Y115039D01*
X1305029Y115039D02*
G01*
X1387577Y115039D01*
X1387577Y-255039D02*
G01*
X1142422Y-255039D01*
X1380029Y52487D02*
G01*
X1380029Y7512D01*
X1380029Y-47512D02*
G01*
X1380029Y-92487D01*
X1380029Y-147512D02*
G01*
X1380029Y-192487D01*
X1150029Y52564D02*
G01*
X1150029Y7435D01*
X1150029Y-47435D02*
G01*
X1150029Y-92564D01*
X1150029Y-147435D02*
G01*
X1150029Y-192564D01*
D12*
X2435945Y-35945D02*
G01*
X2440470Y-35945D01*
X2549529Y-35945D02*
G01*
X2554054Y-35945D01*
X2554054Y-154054D01*
X2549520Y-154054D01*
X2440490Y-154054D02*
G01*
X2435945Y-154054D01*
X2435945Y-35945D01*
D11*
X385102Y4459D02*
G01*
X420536Y4459D01*
X504897Y4459D02*
G01*
X469463Y4459D01*
X385102Y-19546D02*
G01*
X385102Y4459D01*
X385102Y-69546D02*
G01*
X385102Y-20448D01*
X385102Y-119546D02*
G01*
X385102Y-70448D01*
X385102Y-169546D02*
G01*
X385102Y-120448D01*
X385102Y-194456D02*
G01*
X385102Y-170448D01*
X504897Y-194456D02*
G01*
X385102Y-194456D01*
X504897Y-170448D02*
G01*
X504897Y-194456D01*
X504897Y-120448D02*
G01*
X504897Y-169546D01*
X504897Y-70448D02*
G01*
X504897Y-119546D01*
X504897Y-20448D02*
G01*
X504897Y-69546D01*
X504897Y4459D02*
G01*
X504897Y-19546D01*
D10*
X2018220Y-228991D02*
G01*
X1980469Y-228991D01*
X1980469Y-281008D01*
X2018220Y-281008D01*
X2051779Y-228991D02*
G01*
X2089530Y-228991D01*
X2089530Y-281008D01*
X2051779Y-281008D01*
X2258991Y-31779D02*
G01*
X2258991Y-69531D01*
X2311008Y-69531D01*
X2311008Y-31779D01*
X2258991Y1779D02*
G01*
X2258991Y39531D01*
X2311008Y39531D01*
X2311008Y1779D01*
X2653991Y-101779D02*
G01*
X2653991Y-139531D01*
X2706008Y-139531D01*
X2706008Y-101779D01*
X2653991Y-68220D02*
G01*
X2653991Y-30468D01*
X2706008Y-30468D01*
X2706008Y-68220D01*
X981779Y-46008D02*
G01*
X1019530Y-46008D01*
X1019530Y6008D01*
X981779Y6008D01*
X948220Y-46008D02*
G01*
X910469Y-46008D01*
X910469Y6008D01*
X948220Y6008D01*
X1056008Y-198220D02*
G01*
X1056008Y-160468D01*
X1003991Y-160468D01*
X1003991Y-198220D01*
X1056008Y-231779D02*
G01*
X1056008Y-269531D01*
X1003991Y-269531D01*
X1003991Y-231779D01*
X2361779Y-196008D02*
G01*
X2399530Y-196008D01*
X2399530Y-143991D01*
X2361779Y-143991D01*
X2328220Y-196008D02*
G01*
X2290469Y-196008D01*
X2290469Y-143991D01*
X2328220Y-143991D01*
X2633220Y-238991D02*
G01*
X2595469Y-238991D01*
X2595469Y-291008D01*
X2633220Y-291008D01*
X2666779Y-238991D02*
G01*
X2704530Y-238991D01*
X2704530Y-291008D01*
X2666779Y-291008D01*
D11*
X2719215Y313429D02*
G01*
X2719215Y341732D01*
X3116851Y341732D01*
X3116851Y310235D01*
X2826253Y172440D02*
G01*
X2822802Y172440D01*
X3017196Y172440D02*
G01*
X3013746Y172440D01*
X-660630Y292568D02*
G01*
X-660630Y393701D01*
X-660630Y253198D02*
G01*
X-660630Y258620D01*
X-660630Y213829D02*
G01*
X-660630Y219250D01*
X-660630Y174459D02*
G01*
X-660630Y179881D01*
X-660630Y135088D02*
G01*
X-660630Y140511D01*
X-660630Y95718D02*
G01*
X-660630Y101140D01*
X-660630Y56349D02*
G01*
X-660630Y61770D01*
X-660630Y16979D02*
G01*
X-660630Y22400D01*
X-660630Y-22391D02*
G01*
X-660630Y-16968D01*
X-660630Y-61761D02*
G01*
X-660630Y-56340D01*
X-660630Y-101131D02*
G01*
X-660630Y-95709D01*
X-660630Y-140502D02*
G01*
X-660630Y-135079D01*
X-660630Y-179872D02*
G01*
X-660630Y-174450D01*
X-660630Y-219241D02*
G01*
X-660630Y-213820D01*
X-660630Y-258611D02*
G01*
X-660630Y-253189D01*
X-712550Y-393701D02*
G01*
X-660630Y-393701D01*
X-660630Y-292559D01*
X-789803Y393701D02*
G01*
X-873227Y393701D01*
X-873227Y-393701D01*
X-789807Y-393701D01*
X-660630Y393701D02*
G01*
X-712548Y393701D01*
D13*
X2865000Y-50000D02*
G01*
X2865000Y-150000D01*
X2765000Y-150000D01*
X2765000Y-50000D01*
X2840000Y-50000D01*
D14*
X2865000Y-50000D02*
G01*
X2840000Y-50000D01*
D13*
X2865000Y-180000D02*
G01*
X2865000Y-280000D01*
X2765000Y-280000D01*
X2765000Y-180000D01*
X2840000Y-180000D01*
D14*
X2865000Y-180000D02*
G01*
X2840000Y-180000D01*
D13*
X2870000Y-305000D02*
G01*
X2870000Y-405000D01*
X2770000Y-405000D01*
X2770000Y-305000D01*
X2845000Y-305000D01*
D14*
X2870000Y-305000D02*
G01*
X2845000Y-305000D01*
D13*
X3050000Y-305000D02*
G01*
X3050000Y-405000D01*
X2950000Y-405000D01*
X2950000Y-305000D01*
X3025000Y-305000D01*
D14*
X3050000Y-305000D02*
G01*
X3025000Y-305000D01*
D13*
X3050000Y-280000D02*
G01*
X2950000Y-280000D01*
X2950000Y-180000D01*
X3050000Y-180000D01*
X3050000Y-255000D01*
D14*
X3050000Y-280000D02*
G01*
X3050000Y-255000D01*
D13*
X3055000Y-50000D02*
G01*
X3055000Y-150000D01*
X2955000Y-150000D01*
X2955000Y-50000D01*
X3030000Y-50000D01*
D14*
X3055000Y-50000D02*
G01*
X3030000Y-50000D01*
D13*
X3060000Y-5000D02*
G01*
X2960000Y-5000D01*
X2960000Y95000D01*
X3060000Y95000D01*
X3060000Y20000D01*
D14*
X3060000Y-5000D02*
G01*
X3060000Y20000D01*
D13*
X-400000Y-330000D02*
G01*
X-500000Y-330000D01*
X-500000Y-230000D01*
X-400000Y-230000D01*
X-400000Y-305000D01*
D14*
X-400000Y-330000D02*
G01*
X-400000Y-305000D01*
D13*
X-245000Y-290000D02*
G01*
X-345000Y-290000D01*
X-345000Y-190000D01*
X-245000Y-190000D01*
X-245000Y-265000D01*
D14*
X-245000Y-290000D02*
G01*
X-245000Y-265000D01*
D13*
X-90000Y-250000D02*
G01*
X-190000Y-250000D01*
X-190000Y-150000D01*
X-90000Y-150000D01*
X-90000Y-225000D01*
D14*
X-90000Y-250000D02*
G01*
X-90000Y-225000D01*
D13*
X60000Y-210000D02*
G01*
X-40000Y-210000D01*
X-40000Y-110000D01*
X60000Y-110000D01*
X60000Y-185000D01*
D14*
X60000Y-210000D02*
G01*
X60000Y-185000D01*
D13*
X65000Y-85000D02*
G01*
X-35000Y-85000D01*
X-35000Y15000D01*
X65000Y15000D01*
X65000Y-60000D01*
D14*
X65000Y-85000D02*
G01*
X65000Y-60000D01*
D13*
X-90000Y-35000D02*
G01*
X-190000Y-35000D01*
X-190000Y65000D01*
X-90000Y65000D01*
X-90000Y-10000D01*
D14*
X-90000Y-35000D02*
G01*
X-90000Y-10000D01*
D13*
X-250000Y5000D02*
G01*
X-350000Y5000D01*
X-350000Y105000D01*
X-250000Y105000D01*
X-250000Y30000D01*
D14*
X-250000Y5000D02*
G01*
X-250000Y30000D01*
D13*
X-400000Y50000D02*
G01*
X-500000Y50000D01*
X-500000Y150000D01*
X-400000Y150000D01*
X-400000Y75000D01*
D14*
X-400000Y50000D02*
G01*
X-400000Y75000D01*
D13*
X435000Y105000D02*
G01*
X335000Y105000D01*
X335000Y205000D01*
X435000Y205000D01*
X435000Y130000D01*
D14*
X435000Y105000D02*
G01*
X435000Y130000D01*
D13*
X555000Y105000D02*
G01*
X455000Y105000D01*
X455000Y205000D01*
X555000Y205000D01*
X555000Y130000D01*
D14*
X555000Y105000D02*
G01*
X555000Y130000D01*
D11*
X923968Y-1682935D02*
G01*
X892474Y-1682935D01*
X946033Y-1682953D02*
G01*
X977529Y-1682953D01*
X923968Y-1627042D02*
G01*
X892474Y-1627042D01*
X946033Y-1627062D02*
G01*
X977529Y-1627062D01*
X880279Y-1670738D02*
G01*
X880279Y-1639239D01*
X989724Y-1639261D02*
G01*
X989724Y-1670758D01*
X1602064Y-1663969D02*
G01*
X1602064Y-1632474D01*
X1602046Y-1686033D02*
G01*
X1602046Y-1717528D01*
X1657956Y-1663969D02*
G01*
X1657956Y-1632474D01*
X1657938Y-1686033D02*
G01*
X1657938Y-1717528D01*
X1614261Y-1620279D02*
G01*
X1645760Y-1620279D01*
X1645739Y-1729724D02*
G01*
X1614242Y-1729724D01*
X1468968Y-1292935D02*
G01*
X1437474Y-1292935D01*
X1491033Y-1292953D02*
G01*
X1522529Y-1292953D01*
X1468968Y-1237042D02*
G01*
X1437474Y-1237042D01*
X1491033Y-1237062D02*
G01*
X1522529Y-1237062D01*
X1425279Y-1280738D02*
G01*
X1425279Y-1249239D01*
X1534724Y-1249261D02*
G01*
X1534724Y-1280758D01*
X1786031Y-1237064D02*
G01*
X1817525Y-1237064D01*
X1763966Y-1237046D02*
G01*
X1732470Y-1237046D01*
X1786031Y-1292957D02*
G01*
X1817525Y-1292957D01*
X1763966Y-1292937D02*
G01*
X1732470Y-1292937D01*
X1829720Y-1249261D02*
G01*
X1829720Y-1280760D01*
X1720275Y-1280738D02*
G01*
X1720275Y-1249241D01*
X2116031Y-1927064D02*
G01*
X2147525Y-1927064D01*
X2093966Y-1927046D02*
G01*
X2062470Y-1927046D01*
X2116031Y-1982957D02*
G01*
X2147525Y-1982957D01*
X2093966Y-1982937D02*
G01*
X2062470Y-1982937D01*
X2159720Y-1939261D02*
G01*
X2159720Y-1970760D01*
X2050275Y-1970738D02*
G01*
X2050275Y-1939241D01*
X1898968Y-1672935D02*
G01*
X1867474Y-1672935D01*
X1921033Y-1672953D02*
G01*
X1952529Y-1672953D01*
X1898968Y-1617042D02*
G01*
X1867474Y-1617042D01*
X1921033Y-1617062D02*
G01*
X1952529Y-1617062D01*
X1855279Y-1660738D02*
G01*
X1855279Y-1629239D01*
X1964724Y-1629261D02*
G01*
X1964724Y-1660758D01*
X1893968Y-1602935D02*
G01*
X1862474Y-1602935D01*
X1916033Y-1602953D02*
G01*
X1947529Y-1602953D01*
X1893968Y-1547042D02*
G01*
X1862474Y-1547042D01*
X1916033Y-1547062D02*
G01*
X1947529Y-1547062D01*
X1850279Y-1590738D02*
G01*
X1850279Y-1559239D01*
X1959724Y-1559261D02*
G01*
X1959724Y-1590758D01*
X2917935Y-2366030D02*
G01*
X2917935Y-2397525D01*
X2917953Y-2343966D02*
G01*
X2917953Y-2312471D01*
X2862043Y-2366030D02*
G01*
X2862043Y-2397525D01*
X2862061Y-2343966D02*
G01*
X2862061Y-2312471D01*
X2905738Y-2409720D02*
G01*
X2874240Y-2409720D01*
X2874260Y-2300275D02*
G01*
X2905757Y-2300275D01*
X2942935Y-1746030D02*
G01*
X2942935Y-1777525D01*
X2942953Y-1723966D02*
G01*
X2942953Y-1692471D01*
X2887043Y-1746030D02*
G01*
X2887043Y-1777525D01*
X2887061Y-1723966D02*
G01*
X2887061Y-1692471D01*
X2930738Y-1789720D02*
G01*
X2899240Y-1789720D01*
X2899260Y-1680275D02*
G01*
X2930757Y-1680275D01*
D10*
X1129236Y-1569638D02*
G01*
X1390763Y-1569638D01*
X1390763Y-2280362D01*
X1129236Y-2280362D01*
X1129236Y-1569638D01*
X2871740Y-2217381D02*
G01*
X2871740Y-2246740D01*
X2842381Y-2246740D01*
X2708260Y-2217381D02*
G01*
X2708260Y-2246740D01*
X2737618Y-2246740D01*
X2871740Y-2112618D02*
G01*
X2871740Y-2083260D01*
X2842381Y-2083260D01*
X2708260Y-2112618D02*
G01*
X2708260Y-2083260D01*
X2737618Y-2083260D01*
D15*
X1910609Y-1745999D02*
G01*
X1903903Y-1745999D01*
X1889759Y-1760199D01*
X1889759Y-1765199D01*
X2038810Y-1914899D02*
G01*
X2059409Y-1914899D01*
X2059409Y-1894200D01*
X1910810Y-1914899D02*
G01*
X1890110Y-1914899D01*
X1890110Y-1894200D01*
X2038810Y-1745599D02*
G01*
X2059409Y-1745599D01*
X2059409Y-1766199D01*
D10*
X2871742Y-1572662D02*
G01*
X2871742Y-1602020D01*
X2842384Y-1602020D01*
X2708262Y-1572662D02*
G01*
X2708262Y-1602020D01*
X2737619Y-1602020D01*
X2871742Y-1467898D02*
G01*
X2871742Y-1438539D01*
X2842384Y-1438539D01*
X2708262Y-1467898D02*
G01*
X2708262Y-1438539D01*
X2737619Y-1438539D01*
D11*
X1394679Y-1504488D02*
G01*
X1855309Y-1504488D01*
X1394679Y-1315513D02*
G01*
X1394679Y-1374567D01*
X1394679Y-1315511D02*
G01*
X1855309Y-1315511D01*
X1394681Y-1445435D02*
G01*
X1394681Y-1504490D01*
X1855308Y-1315513D02*
G01*
X1855308Y-1374567D01*
X1855308Y-1445435D02*
G01*
X1855308Y-1504490D01*
X858428Y-1854214D02*
G01*
X886732Y-1854214D01*
X886732Y-2251851D01*
X855236Y-2251851D01*
X717440Y-1961253D02*
G01*
X717440Y-1957802D01*
X717440Y-2152197D02*
G01*
X717440Y-2148746D01*
D13*
X1000000Y-1820000D02*
G01*
X900000Y-1820000D01*
X900000Y-1720000D01*
X1000000Y-1720000D01*
X1000000Y-1795000D01*
D14*
X1000000Y-1820000D02*
G01*
X1000000Y-1795000D01*
D13*
X2930000Y-2275000D02*
G01*
X2930000Y-2175000D01*
X3030000Y-2175000D01*
X3030000Y-2275000D01*
X2955000Y-2275000D01*
D14*
X2930000Y-2275000D02*
G01*
X2955000Y-2275000D01*
D13*
X2930000Y-2385000D02*
G01*
X2930000Y-2285000D01*
X3030000Y-2285000D01*
X3030000Y-2385000D01*
X2955000Y-2385000D01*
D14*
X2930000Y-2385000D02*
G01*
X2955000Y-2385000D01*
D13*
X2930000Y-2165000D02*
G01*
X2930000Y-2065000D01*
X3030000Y-2065000D01*
X3030000Y-2165000D01*
X2955000Y-2165000D01*
D14*
X2930000Y-2165000D02*
G01*
X2955000Y-2165000D01*
D13*
X2930000Y-2055000D02*
G01*
X2930000Y-1955000D01*
X3030000Y-1955000D01*
X3030000Y-2055000D01*
X2955000Y-2055000D01*
D14*
X2930000Y-2055000D02*
G01*
X2955000Y-2055000D01*
D13*
X2535000Y-2070000D02*
G01*
X2535000Y-1970000D01*
X2635000Y-1970000D01*
X2635000Y-2070000D01*
X2560000Y-2070000D01*
D14*
X2535000Y-2070000D02*
G01*
X2560000Y-2070000D01*
D13*
X2535000Y-2180000D02*
G01*
X2535000Y-2080000D01*
X2635000Y-2080000D01*
X2635000Y-2180000D01*
X2560000Y-2180000D01*
D14*
X2535000Y-2180000D02*
G01*
X2560000Y-2180000D01*
D13*
X2535000Y-2400000D02*
G01*
X2535000Y-2300000D01*
X2635000Y-2300000D01*
X2635000Y-2400000D01*
X2560000Y-2400000D01*
D14*
X2535000Y-2400000D02*
G01*
X2560000Y-2400000D01*
D13*
X2535000Y-2290000D02*
G01*
X2535000Y-2190000D01*
X2635000Y-2190000D01*
X2635000Y-2290000D01*
X2560000Y-2290000D01*
D14*
X2535000Y-2290000D02*
G01*
X2560000Y-2290000D01*
D13*
X2570002Y-1615279D02*
G01*
X2570002Y-1515279D01*
X2670002Y-1515279D01*
X2670002Y-1615279D01*
X2595002Y-1615279D01*
D14*
X2570002Y-1615279D02*
G01*
X2595002Y-1615279D01*
D13*
X2570002Y-1725279D02*
G01*
X2570002Y-1625279D01*
X2670002Y-1625279D01*
X2670002Y-1725279D01*
X2595002Y-1725279D01*
D14*
X2570002Y-1725279D02*
G01*
X2595002Y-1725279D01*
D13*
X2570002Y-1505279D02*
G01*
X2570002Y-1405279D01*
X2670002Y-1405279D01*
X2670002Y-1505279D01*
X2595002Y-1505279D01*
D14*
X2570002Y-1505279D02*
G01*
X2595002Y-1505279D01*
D13*
X2570002Y-1395279D02*
G01*
X2570002Y-1295279D01*
X2670002Y-1295279D01*
X2670002Y-1395279D01*
X2595002Y-1395279D01*
D14*
X2570002Y-1395279D02*
G01*
X2595002Y-1395279D01*
D13*
X2965002Y-1395279D02*
G01*
X2965002Y-1295279D01*
X3065002Y-1295279D01*
X3065002Y-1395279D01*
X2990002Y-1395279D01*
D14*
X2965002Y-1395279D02*
G01*
X2990002Y-1395279D01*
D13*
X2965002Y-1505279D02*
G01*
X2965002Y-1405279D01*
X3065002Y-1405279D01*
X3065002Y-1505279D01*
X2990002Y-1505279D01*
D14*
X2965002Y-1505279D02*
G01*
X2990002Y-1505279D01*
D13*
X2965002Y-1725279D02*
G01*
X2965002Y-1625279D01*
X3065002Y-1625279D01*
X3065002Y-1725279D01*
X2990002Y-1725279D01*
D14*
X2965002Y-1725279D02*
G01*
X2990002Y-1725279D01*
D13*
X2965002Y-1615279D02*
G01*
X2965002Y-1515279D01*
X3065002Y-1515279D01*
X3065002Y-1615279D01*
X2990002Y-1615279D01*
D14*
X2965002Y-1615279D02*
G01*
X2990002Y-1615279D01*
D11*
G75*
G01*
X2192473Y92062D02*
G02*
X2180275Y104261I0J12198D01*
G75*
G01*
X2180275Y135756D02*
G02*
X2192473Y147954I12198J0D01*
G75*
G01*
X2277524Y147936D02*
G02*
X2289721Y135738I-1J-12198D01*
G75*
G01*
X2289721Y104243D02*
G02*
X2277524Y92043I-12198J-2D01*
G75*
G01*
X1602473Y-107938D02*
G02*
X1590275Y-95739I0J12198D01*
G75*
G01*
X1590275Y-64244D02*
G02*
X1602473Y-52046I12198J0D01*
G75*
G01*
X1687524Y-52064D02*
G02*
X1699721Y-64262I-1J-12198D01*
G75*
G01*
X1699721Y-95757D02*
G02*
X1687524Y-107957I-12198J-2D01*
G75*
G01*
X1512062Y-212473D02*
G02*
X1524261Y-200275I12198J0D01*
G75*
G01*
X1555756Y-200275D02*
G02*
X1567954Y-212473I0J-12198D01*
G75*
G01*
X1567936Y-297524D02*
G02*
X1555738Y-309721I-12198J1D01*
G75*
G01*
X1524243Y-309721D02*
G02*
X1512043Y-297524I-2J12198D01*
G75*
G01*
X2167062Y-67473D02*
G02*
X2179261Y-55275I12198J0D01*
G75*
G01*
X2210756Y-55275D02*
G02*
X2222954Y-67473I0J-12198D01*
G75*
G01*
X2222936Y-152524D02*
G02*
X2210738Y-164721I-12198J1D01*
G75*
G01*
X2179243Y-164721D02*
G02*
X2167043Y-152524I-2J12198D01*
G75*
G01*
X1717473Y-337938D02*
G02*
X1705275Y-325739I0J12198D01*
G75*
G01*
X1705275Y-294244D02*
G02*
X1717473Y-282046I12198J0D01*
G75*
G01*
X1802524Y-282064D02*
G02*
X1814721Y-294262I-1J-12198D01*
G75*
G01*
X1814721Y-325757D02*
G02*
X1802524Y-337957I-12198J-2D01*
G75*
G01*
X2427938Y-337527D02*
G02*
X2415739Y-349725I-12198J0D01*
G75*
G01*
X2384244Y-349725D02*
G02*
X2372046Y-337527I0J12198D01*
G75*
G01*
X2372064Y-252476D02*
G02*
X2384262Y-240279I12198J-1D01*
G75*
G01*
X2415757Y-240279D02*
G02*
X2427957Y-252476I2J-12198D01*
G75*
G01*
X367938Y-322527D02*
G02*
X355739Y-334725I-12198J0D01*
G75*
G01*
X324244Y-334725D02*
G02*
X312046Y-322527I0J12198D01*
G75*
G01*
X312064Y-237476D02*
G02*
X324262Y-225279I12198J-1D01*
G75*
G01*
X355757Y-225279D02*
G02*
X367957Y-237476I2J-12198D01*
G75*
G01*
X632062Y2527D02*
G02*
X644261Y14725I12198J0D01*
G75*
G01*
X675756Y14725D02*
G02*
X687954Y2527I0J-12198D01*
G75*
G01*
X687936Y-82524D02*
G02*
X675738Y-94721I-12198J1D01*
G75*
G01*
X644243Y-94721D02*
G02*
X632043Y-82524I-2J12198D01*
G75*
G01*
X1007527Y-87062D02*
G02*
X1019725Y-99261I0J-12198D01*
G75*
G01*
X1019725Y-130756D02*
G02*
X1007527Y-142954I-12198J0D01*
G75*
G01*
X922476Y-142936D02*
G02*
X910279Y-130738I1J12198D01*
G75*
G01*
X910279Y-99243D02*
G02*
X922476Y-87043I12198J2D01*
G75*
G01*
X777938Y-287527D02*
G02*
X765739Y-299725I-12198J0D01*
G75*
G01*
X734244Y-299725D02*
G02*
X722046Y-287527I0J12198D01*
G75*
G01*
X722064Y-202476D02*
G02*
X734262Y-190279I12198J-1D01*
G75*
G01*
X765757Y-190279D02*
G02*
X777957Y-202476I2J-12198D01*
G75*
G01*
X842527Y7938D02*
G02*
X854725Y-4261I0J-12198D01*
G75*
G01*
X854725Y-35756D02*
G02*
X842527Y-47954I-12198J0D01*
G75*
G01*
X757476Y-47936D02*
G02*
X745279Y-35738I1J12198D01*
G75*
G01*
X745279Y-4243D02*
G02*
X757476Y7957I12198J2D01*
G75*
G01*
X1567938Y-2527D02*
G02*
X1555739Y-14725I-12198J0D01*
G75*
G01*
X1524244Y-14725D02*
G02*
X1512046Y-2527I0J12198D01*
G75*
G01*
X1512064Y82524D02*
G02*
X1524262Y94721I12198J-1D01*
G75*
G01*
X1555757Y94721D02*
G02*
X1567957Y82524I2J-12198D01*
G75*
G01*
X1975030Y155039D02*
G02*
X1895030Y155039I-40000J0D01*
G75*
G01*
X1305030Y115039D02*
G02*
X1225030Y115039I-40000J0D01*
G75*
G01*
X420536Y4460D02*
G03*
X469510Y4470I24487J5D01*
G75*
G01*
X977527Y-1627062D02*
G02*
X989725Y-1639261I0J-12198D01*
G75*
G01*
X989725Y-1670756D02*
G02*
X977527Y-1682954I-12198J0D01*
G75*
G01*
X892476Y-1682936D02*
G02*
X880279Y-1670738I1J12198D01*
G75*
G01*
X880279Y-1639243D02*
G02*
X892476Y-1627043I12198J2D01*
G75*
G01*
X1657938Y-1717527D02*
G02*
X1645739Y-1729725I-12198J0D01*
G75*
G01*
X1614244Y-1729725D02*
G02*
X1602046Y-1717527I0J12198D01*
G75*
G01*
X1602064Y-1632476D02*
G02*
X1614262Y-1620279I12198J-1D01*
G75*
G01*
X1645757Y-1620279D02*
G02*
X1657957Y-1632476I2J-12198D01*
G75*
G01*
X1522527Y-1237062D02*
G02*
X1534725Y-1249261I0J-12198D01*
G75*
G01*
X1534725Y-1280756D02*
G02*
X1522527Y-1292954I-12198J0D01*
G75*
G01*
X1437476Y-1292936D02*
G02*
X1425279Y-1280738I1J12198D01*
G75*
G01*
X1425279Y-1249243D02*
G02*
X1437476Y-1237043I12198J2D01*
G75*
G01*
X1732473Y-1292938D02*
G02*
X1720275Y-1280739I0J12198D01*
G75*
G01*
X1720275Y-1249244D02*
G02*
X1732473Y-1237046I12198J0D01*
G75*
G01*
X1817524Y-1237064D02*
G02*
X1829721Y-1249262I-1J-12198D01*
G75*
G01*
X1829721Y-1280757D02*
G02*
X1817524Y-1292957I-12198J-2D01*
G75*
G01*
X2062473Y-1982938D02*
G02*
X2050275Y-1970739I0J12198D01*
G75*
G01*
X2050275Y-1939244D02*
G02*
X2062473Y-1927046I12198J0D01*
G75*
G01*
X2147524Y-1927064D02*
G02*
X2159721Y-1939262I-1J-12198D01*
G75*
G01*
X2159721Y-1970757D02*
G02*
X2147524Y-1982957I-12198J-2D01*
G75*
G01*
X1952527Y-1617062D02*
G02*
X1964725Y-1629261I0J-12198D01*
G75*
G01*
X1964725Y-1660756D02*
G02*
X1952527Y-1672954I-12198J0D01*
G75*
G01*
X1867476Y-1672936D02*
G02*
X1855279Y-1660738I1J12198D01*
G75*
G01*
X1855279Y-1629243D02*
G02*
X1867476Y-1617043I12198J2D01*
G75*
G01*
X1947527Y-1547062D02*
G02*
X1959725Y-1559261I0J-12198D01*
G75*
G01*
X1959725Y-1590756D02*
G02*
X1947527Y-1602954I-12198J0D01*
G75*
G01*
X1862476Y-1602936D02*
G02*
X1850279Y-1590738I1J12198D01*
G75*
G01*
X1850279Y-1559243D02*
G02*
X1862476Y-1547043I12198J2D01*
G75*
G01*
X2862062Y-2312473D02*
G02*
X2874261Y-2300275I12198J0D01*
G75*
G01*
X2905756Y-2300275D02*
G02*
X2917954Y-2312473I0J-12198D01*
G75*
G01*
X2917936Y-2397524D02*
G02*
X2905738Y-2409721I-12198J1D01*
G75*
G01*
X2874243Y-2409721D02*
G02*
X2862043Y-2397524I-2J12198D01*
G75*
G01*
X2887062Y-1692473D02*
G02*
X2899261Y-1680275I12198J0D01*
G75*
G01*
X2930756Y-1680275D02*
G02*
X2942954Y-1692473I0J-12198D01*
G75*
G01*
X2942936Y-1777524D02*
G02*
X2930738Y-1789721I-12198J1D01*
G75*
G01*
X2899243Y-1789721D02*
G02*
X2887043Y-1777524I-2J12198D01*
G75*
G01
X2456690Y-130430D02*
G03X2456690Y-130430I-5000J0D01*
D17*
G75*
G01
X341760Y9390D02*
G03X341760Y9390I-5910J0D01*
D11*
G75*
G01
X2816740Y121260D02*
G03X2816740Y121260I-5000J0D01*
G75*
G01
X-621750Y-308460D02*
G03X-621750Y-308460I-7070J0D01*
D17*
G75*
G01
X1164770Y-1600000D02*
G03X1164770Y-1600000I-5910J0D01*
G75*
G01
X1079140Y-1570890D02*
G03X1079140Y-1570890I-5910J0D01*
D12*
G75*
G01
X2867950Y-2070000D02*
G03X2867950Y-2070000I-2950J0D01*
D18*
G75*
G01
X1877440Y-1759530D02*
G03X1877440Y-1759530I-4720J0D01*
D12*
G75*
G01
X2867950Y-1425280D02*
G03X2867950Y-1425280I-2950J0D01*
D11*
G75*
G01
X671260Y-1946740D02*
G03X671260Y-1946740I-5000J0D01*
M02*
