G04 Layer: BottomSolderMaskLayer*
G04 EasyEDA v6.5.51, 2025-10-31 14:29:39*
G04 fb125d5df4574c0190a2b935d37d4f1a,f96c02e88a3b40f88d53933fed3a7683,10*
G04 Gerber Generator version 0.2*
G04 Scale: 100 percent, Rotated: No, Reflected: No *
G04 Dimensions in inches *
G04 leading zeros omitted , absolute positions ,3 integer and 6 decimal *
%FSLAX36Y36*%
%MOIN*%

%AMMACRO1*4,1,8,-0.0318,-0.033,-0.033,-0.0318,-0.033,0.0318,-0.0318,0.033,0.0318,0.033,0.033,0.0318,0.033,-0.0318,0.0318,-0.033,-0.0318,-0.033,0*%
%ADD10C,0.0749*%
%ADD11MACRO1*%
%ADD12C,0.0155*%

%LPD*%
D10*
G01*
X1785000Y120000D03*
G01*
X1785000Y20000D03*
G01*
X2085000Y20000D03*
G01*
X2085000Y120000D03*
G01*
X1785000Y-80000D03*
G01*
X1785000Y-180000D03*
G01*
X2085000Y-80000D03*
G01*
X2085000Y-180000D03*
G01*
X1115000Y80000D03*
G01*
X1115000Y-20000D03*
G01*
X1415000Y-20000D03*
G01*
X1415000Y80000D03*
G01*
X1115000Y-120000D03*
G01*
X1115000Y-220000D03*
G01*
X1415000Y-120000D03*
G01*
X1415000Y-220000D03*
D11*
G01*
X2815000Y-100000D03*
G01*
X2815000Y-230000D03*
G01*
X2820000Y-355000D03*
G01*
X3000000Y-355000D03*
G01*
X3000000Y-230000D03*
G01*
X3005000Y-100000D03*
G01*
X3010000Y45000D03*
G01*
X-450000Y-280000D03*
G01*
X-295000Y-240000D03*
G01*
X-140000Y-200000D03*
G01*
X10000Y-160000D03*
G01*
X15000Y-35000D03*
G01*
X-140000Y15000D03*
G01*
X-300000Y55000D03*
G01*
X-450000Y100000D03*
G01*
X385000Y155000D03*
G01*
X505000Y155000D03*
G01*
X950000Y-1770000D03*
G01*
X2980000Y-2225000D03*
G01*
X2980000Y-2335000D03*
G01*
X2980000Y-2115000D03*
G01*
X2980000Y-2005000D03*
G01*
X2585000Y-2020000D03*
G01*
X2585000Y-2130000D03*
G01*
X2585000Y-2350000D03*
G01*
X2585000Y-2240000D03*
G01*
X2620001Y-1565280D03*
G01*
X2620001Y-1675280D03*
G01*
X2620001Y-1455280D03*
G01*
X2620001Y-1345280D03*
G01*
X3015001Y-1345280D03*
G01*
X3015001Y-1455280D03*
G01*
X3015001Y-1675280D03*
G01*
X3015001Y-1565280D03*
M02*
