G04 Layer: TopSolderMaskLayer*
G04 EasyEDA v6.5.51, 2025-10-31 14:29:39*
G04 fb125d5df4574c0190a2b935d37d4f1a,f96c02e88a3b40f88d53933fed3a7683,10*
G04 Gerber Generator version 0.2*
G04 Scale: 100 percent, Rotated: No, Reflected: No *
G04 Dimensions in inches *
G04 leading zeros omitted , absolute positions ,3 integer and 6 decimal *
%FSLAX36Y36*%
%MOIN*%

%AMMACRO1*4,1,8,-0.054,-0.0552,-0.0551,-0.054,-0.0551,0.054,-0.054,0.0552,0.054,0.0552,0.0551,0.054,0.0551,-0.054,0.054,-0.0552,-0.054,-0.0552,0*%
%AMMACRO2*4,1,8,-0.0166,-0.0197,-0.0177,-0.0185,-0.0177,0.0185,-0.0166,0.0197,0.0166,0.0197,0.0177,0.0185,0.0177,-0.0185,0.0166,-0.0197,-0.0166,-0.0197,0*%
%AMMACRO3*4,1,8,-0.0185,-0.0177,-0.0197,-0.0166,-0.0197,0.0166,-0.0185,0.0177,0.0185,0.0177,0.0197,0.0166,0.0197,-0.0166,0.0185,-0.0177,-0.0185,-0.0177,0*%
%AMMACRO4*4,1,8,-0.0167,-0.019,-0.0179,-0.0178,-0.0179,0.0178,-0.0167,0.019,0.0167,0.019,0.0179,0.0178,0.0179,-0.0178,0.0167,-0.019,-0.0167,-0.019,0*%
%AMMACRO5*4,1,8,-0.0178,-0.0179,-0.019,-0.0167,-0.019,0.0167,-0.0178,0.0179,0.0178,0.0179,0.019,0.0167,0.019,-0.0167,0.0178,-0.0179,-0.0178,-0.0179,0*%
%AMMACRO6*4,1,8,-0.0067,-0.0374,-0.0079,-0.0363,-0.0079,0.0363,-0.0067,0.0374,0.0067,0.0374,0.0079,0.0363,0.0079,-0.0363,0.0067,-0.0374,-0.0067,-0.0374,0*%
%AMMACRO7*4,1,8,-0.05,-0.0689,-0.0512,-0.0678,-0.0512,0.0678,-0.05,0.0689,0.05,0.0689,0.0512,0.0678,0.0512,-0.0678,0.05,-0.0689,-0.05,-0.0689,0*%
%AMMACRO8*4,1,8,-0.0303,-0.0098,-0.0315,-0.0087,-0.0315,0.0087,-0.0303,0.0098,0.0303,0.0098,0.0315,0.0087,0.0315,-0.0087,0.0303,-0.0098,-0.0303,-0.0098,0*%
%AMMACRO9*4,1,8,-0.0303,-0.0413,-0.0315,-0.0402,-0.0315,0.0402,-0.0303,0.0413,0.0303,0.0413,0.0315,0.0402,0.0315,-0.0402,0.0303,-0.0413,-0.0303,-0.0413,0*%
%AMMACRO10*4,1,8,-0.0318,-0.033,-0.033,-0.0318,-0.033,0.0318,-0.0318,0.033,0.0318,0.033,0.033,0.0318,0.033,-0.0318,0.0318,-0.033,-0.0318,-0.033,0*%
%AMMACRO11*4,1,8,-0.0063,-0.0151,-0.0075,-0.0139,-0.0075,0.0139,-0.0063,0.0151,0.0063,0.0151,0.0075,0.0139,0.0075,-0.0139,0.0063,-0.0151,-0.0063,-0.0151,0*%
%AMMACRO12*4,1,8,-0.0139,-0.0075,-0.0151,-0.0063,-0.0151,0.0063,-0.0139,0.0075,0.0139,0.0075,0.0151,0.0063,0.0151,-0.0063,0.0139,-0.0075,-0.0139,-0.0075,0*%
%AMMACRO13*4,1,8,-0.054,-0.0551,-0.0552,-0.054,-0.0552,0.054,-0.054,0.0551,0.054,0.0551,0.0552,0.054,0.0552,-0.054,0.054,-0.0551,-0.054,-0.0551,0*%
%AMMACRO14*4,1,8,-0.0176,-0.0069,-0.0187,-0.0057,-0.0187,0.0058,-0.0176,0.0069,0.0176,0.0069,0.0187,0.0058,0.0187,-0.0057,0.0176,-0.0069,-0.0176,-0.0069,0*%
%AMMACRO15*4,1,8,-0.0176,-0.0069,-0.0187,-0.0057,-0.0187,0.0057,-0.0176,0.0069,0.0176,0.0069,0.0187,0.0057,0.0187,-0.0057,0.0176,-0.0069,-0.0176,-0.0069,0*%
%AMMACRO16*4,1,8,-0.0057,-0.0187,-0.0069,-0.0176,-0.0069,0.0176,-0.0057,0.0187,0.0057,0.0187,0.0069,0.0176,0.0069,-0.0176,0.0057,-0.0187,-0.0057,-0.0187,0*%
%AMMACRO17*4,1,8,-0.0058,-0.0187,-0.0069,-0.0176,-0.0069,0.0176,-0.0058,0.0187,0.0057,0.0187,0.0069,0.0176,0.0069,-0.0176,0.0057,-0.0187,-0.0058,-0.0187,0*%
%AMMACRO18*4,1,8,-0.052,-0.0532,-0.0532,-0.052,-0.0532,0.052,-0.052,0.0532,0.052,0.0532,0.0532,0.052,0.0532,-0.052,0.052,-0.0532,-0.052,-0.0532,0*%
%AMMACRO19*4,1,8,-0.1091,-0.0296,-0.1103,-0.0284,-0.1103,0.0284,-0.1091,0.0296,0.1091,0.0296,0.1103,0.0284,0.1103,-0.0284,0.1091,-0.0296,-0.1091,-0.0296,0*%
%AMMACRO20*4,1,8,-0.0363,-0.0079,-0.0374,-0.0067,-0.0374,0.0067,-0.0363,0.0079,0.0363,0.0079,0.0374,0.0067,0.0374,-0.0067,0.0363,-0.0079,-0.0363,-0.0079,0*%
%AMMACRO21*4,1,8,-0.0678,-0.0512,-0.0689,-0.05,-0.0689,0.05,-0.0678,0.0512,0.0678,0.0512,0.0689,0.05,0.0689,-0.05,0.0678,-0.0512,-0.0678,-0.0512,0*%
%ADD10MACRO1*%
%ADD11MACRO2*%
%ADD12MACRO3*%
%ADD13C,0.0749*%
%ADD14O,0.019748X0.047307*%
%ADD15O,0.084512X0.02715*%
%ADD16MACRO4*%
%ADD17MACRO5*%
%ADD18MACRO6*%
%ADD19C,0.0103*%
%ADD20MACRO7*%
%ADD21MACRO8*%
%ADD22MACRO9*%
%ADD23MACRO10*%
%ADD24O,0.098016X0.026598*%
%ADD25MACRO11*%
%ADD26MACRO12*%
%ADD27MACRO13*%
%ADD28MACRO14*%
%ADD29MACRO15*%
%ADD30MACRO16*%
%ADD31MACRO17*%
%ADD32MACRO18*%
%ADD33MACRO19*%
%ADD34MACRO20*%
%ADD35MACRO21*%

%LPD*%
D10*
G01*
X2790001Y-2160280D03*
D11*
G01*
X2207440Y120000D03*
G01*
X2262559Y120000D03*
G01*
X1617440Y-80000D03*
G01*
X1672559Y-80000D03*
D12*
G01*
X1540000Y-227441D03*
G01*
X1540000Y-282558D03*
G01*
X2195000Y-82441D03*
G01*
X2195000Y-137558D03*
D11*
G01*
X1732440Y-310000D03*
G01*
X1787559Y-310000D03*
D12*
G01*
X2400000Y-322558D03*
G01*
X2400000Y-267441D03*
G01*
X340000Y-307558D03*
G01*
X340000Y-252441D03*
G01*
X660000Y-12441D03*
G01*
X660000Y-67558D03*
D11*
G01*
X992559Y-115000D03*
G01*
X937440Y-115000D03*
D12*
G01*
X750000Y-272558D03*
G01*
X750000Y-217441D03*
D11*
G01*
X827559Y-20000D03*
G01*
X772441Y-20000D03*
D12*
G01*
X1540000Y12441D03*
G01*
X1540000Y67558D03*
D13*
G01*
X1785000Y120000D03*
G01*
X1785000Y20000D03*
G01*
X2085000Y20000D03*
G01*
X2085000Y120000D03*
G01*
X1785000Y-80000D03*
G01*
X1785000Y-180000D03*
G01*
X2085000Y-80000D03*
G01*
X2085000Y-180000D03*
G01*
X1115000Y80000D03*
G01*
X1115000Y-20000D03*
G01*
X1415000Y-20000D03*
G01*
X1415000Y80000D03*
G01*
X1115000Y-120000D03*
G01*
X1115000Y-220000D03*
G01*
X1415000Y-120000D03*
G01*
X1415000Y-220000D03*
D14*
G01*
X2456620Y-169800D03*
G01*
X2482209Y-169800D03*
G01*
X2507799Y-169800D03*
G01*
X2533389Y-169800D03*
G01*
X2533400Y-20199D03*
G01*
X2507799Y-20199D03*
G01*
X2482200Y-20199D03*
G01*
X2456599Y-20199D03*
D15*
G01*
X554149Y-170000D03*
G01*
X554149Y-120000D03*
G01*
X554149Y-70000D03*
G01*
X554149Y-20000D03*
G01*
X335850Y-170000D03*
G01*
X335850Y-120000D03*
G01*
X335850Y-70000D03*
G01*
X335850Y-20000D03*
D16*
G01*
X2005344Y-255000D03*
G01*
X2064655Y-255000D03*
D17*
G01*
X2285000Y-44655D03*
G01*
X2285000Y14655D03*
G01*
X2680000Y-114655D03*
G01*
X2680000Y-55344D03*
D16*
G01*
X994655Y-20000D03*
G01*
X935344Y-20000D03*
D17*
G01*
X1030000Y-185344D03*
G01*
X1030000Y-244655D03*
D16*
G01*
X2374655Y-170000D03*
G01*
X2315344Y-170000D03*
G01*
X2620344Y-265000D03*
G01*
X2679655Y-265000D03*
D18*
G01*
X2841259Y162599D03*
G01*
X2860945Y162599D03*
G01*
X2880630Y162599D03*
G01*
X2900315Y162599D03*
G01*
X2920000Y162599D03*
G01*
X2939684Y162599D03*
G01*
X2959369Y162599D03*
G01*
X2979054Y162599D03*
G01*
X2998740Y162599D03*
D20*
G01*
X2764489Y237400D03*
G01*
X3075509Y237400D03*
D21*
G01*
X-648816Y-275586D03*
G01*
X-648816Y-236215D03*
G01*
X-648816Y-196846D03*
G01*
X-648816Y-157476D03*
G01*
X-648816Y-118106D03*
G01*
X-648816Y-78735D03*
G01*
X-648816Y-39365D03*
G01*
X-648816Y5D03*
G01*
X-648816Y39375D03*
G01*
X-648816Y78744D03*
G01*
X-648816Y118115D03*
G01*
X-648816Y157485D03*
G01*
X-648816Y196855D03*
G01*
X-648816Y236224D03*
G01*
X-648816Y275595D03*
D22*
G01*
X-751178Y-362200D03*
G01*
X-751176Y362207D03*
D23*
G01*
X2815000Y-100000D03*
G01*
X2815000Y-230000D03*
G01*
X2820000Y-355000D03*
G01*
X3000000Y-355000D03*
G01*
X3000000Y-230000D03*
G01*
X3005000Y-100000D03*
G01*
X3010000Y45000D03*
G01*
X-450000Y-280000D03*
G01*
X-295000Y-240000D03*
G01*
X-140000Y-200000D03*
G01*
X10000Y-160000D03*
G01*
X15000Y-35000D03*
G01*
X-140000Y15000D03*
G01*
X-300000Y55000D03*
G01*
X-450000Y100000D03*
G01*
X385000Y155000D03*
G01*
X505000Y155000D03*
D11*
G01*
X962559Y-1655000D03*
G01*
X907440Y-1655000D03*
D12*
G01*
X1630000Y-1702558D03*
G01*
X1630000Y-1647441D03*
D11*
G01*
X1507559Y-1265000D03*
G01*
X1452440Y-1265000D03*
G01*
X1747440Y-1265000D03*
G01*
X1802559Y-1265000D03*
G01*
X2077440Y-1955000D03*
G01*
X2132559Y-1955000D03*
G01*
X1937559Y-1645000D03*
G01*
X1882440Y-1645000D03*
G01*
X1932559Y-1575000D03*
G01*
X1877440Y-1575000D03*
D12*
G01*
X2890000Y-2327441D03*
G01*
X2890000Y-2382558D03*
G01*
X2915000Y-1707441D03*
G01*
X2915000Y-1762558D03*
D24*
G01*
X1073230Y-1600000D03*
G01*
X1073230Y-1650000D03*
G01*
X1073230Y-1700000D03*
G01*
X1073230Y-1750000D03*
G01*
X1073230Y-1800000D03*
G01*
X1073230Y-1850000D03*
G01*
X1073230Y-1900000D03*
G01*
X1073230Y-1950000D03*
G01*
X1073230Y-2000000D03*
G01*
X1073230Y-2050000D03*
G01*
X1073230Y-2100000D03*
G01*
X1073230Y-2150000D03*
G01*
X1073230Y-2200000D03*
G01*
X1073230Y-2250000D03*
G01*
X1446769Y-1600000D03*
G01*
X1446769Y-1650000D03*
G01*
X1446769Y-1700000D03*
G01*
X1446769Y-1750000D03*
G01*
X1446769Y-1800000D03*
G01*
X1446769Y-1850000D03*
G01*
X1446769Y-1900000D03*
G01*
X1446769Y-1950000D03*
G01*
X1446769Y-2000000D03*
G01*
X1446769Y-2050000D03*
G01*
X1446769Y-2100000D03*
G01*
X1446769Y-2150000D03*
G01*
X1446769Y-2200000D03*
G01*
X1446769Y-2250000D03*
D25*
G01*
X2829369Y-2089900D03*
G01*
X2809679Y-2089900D03*
G01*
X2790000Y-2089900D03*
G01*
X2770309Y-2089900D03*
G01*
X2750630Y-2089900D03*
D26*
G01*
X2714899Y-2125629D03*
G01*
X2714899Y-2145319D03*
G01*
X2714899Y-2165000D03*
G01*
X2714899Y-2184690D03*
G01*
X2714899Y-2204370D03*
D25*
G01*
X2750630Y-2240100D03*
G01*
X2770309Y-2240100D03*
G01*
X2790000Y-2240100D03*
G01*
X2809679Y-2240100D03*
G01*
X2829369Y-2240100D03*
D26*
G01*
X2865100Y-2204370D03*
G01*
X2865100Y-2184689D03*
G01*
X2865100Y-2165000D03*
G01*
X2865100Y-2145319D03*
G01*
X2865100Y-2125629D03*
D27*
G01*
X2790000Y-2165000D03*
D28*
G01*
X1895272Y-1780784D03*
G01*
X1895272Y-1800471D03*
G01*
X1895272Y-1820155D03*
G01*
X1895272Y-1839842D03*
D29*
G01*
X1895272Y-1859527D03*
D28*
G01*
X1895272Y-1879213D03*
D30*
G01*
X1925783Y-1909726D03*
D31*
G01*
X1945468Y-1909726D03*
G01*
X1965154Y-1909726D03*
G01*
X1984841Y-1909726D03*
D30*
G01*
X2004526Y-1909726D03*
G01*
X2024212Y-1909726D03*
D28*
G01*
X2054719Y-1879215D03*
G01*
X2054719Y-1859529D03*
G01*
X2054719Y-1839844D03*
G01*
X2054719Y-1820157D03*
G01*
X2054719Y-1800472D03*
D29*
G01*
X2054719Y-1780786D03*
D30*
G01*
X2024212Y-1750279D03*
G01*
X2004526Y-1750279D03*
D31*
G01*
X1984841Y-1750279D03*
G01*
X1965154Y-1750279D03*
G01*
X1945468Y-1750279D03*
D30*
G01*
X1925783Y-1750279D03*
D32*
G01*
X1975014Y-1830005D03*
D25*
G01*
X2829371Y-1445179D03*
G01*
X2809681Y-1445179D03*
G01*
X2790001Y-1445179D03*
G01*
X2770311Y-1445179D03*
G01*
X2750632Y-1445179D03*
D26*
G01*
X2714902Y-1480910D03*
G01*
X2714902Y-1500599D03*
G01*
X2714902Y-1520280D03*
G01*
X2714902Y-1539970D03*
G01*
X2714902Y-1559649D03*
D25*
G01*
X2750632Y-1595379D03*
G01*
X2770311Y-1595379D03*
G01*
X2790001Y-1595379D03*
G01*
X2809681Y-1595379D03*
G01*
X2829371Y-1595379D03*
D26*
G01*
X2865102Y-1559649D03*
G01*
X2865102Y-1539970D03*
G01*
X2865102Y-1520280D03*
G01*
X2865102Y-1500600D03*
G01*
X2865102Y-1480910D03*
D10*
G01*
X2790001Y-1520280D03*
D33*
G01*
X1447835Y-1410000D03*
G01*
X1802165Y-1410000D03*
D34*
G01*
X707599Y-1976259D03*
G01*
X707599Y-1995944D03*
G01*
X707599Y-2015629D03*
G01*
X707599Y-2035314D03*
G01*
X707599Y-2055000D03*
G01*
X707599Y-2074685D03*
G01*
X707599Y-2094370D03*
G01*
X707599Y-2114055D03*
G01*
X707599Y-2133740D03*
D35*
G01*
X782399Y-1899489D03*
G01*
X782399Y-2210510D03*
D23*
G01*
X950000Y-1770000D03*
G01*
X2980000Y-2225000D03*
G01*
X2980000Y-2335000D03*
G01*
X2980000Y-2115000D03*
G01*
X2980000Y-2005000D03*
G01*
X2585000Y-2020000D03*
G01*
X2585000Y-2130000D03*
G01*
X2585000Y-2350000D03*
G01*
X2585000Y-2240000D03*
G01*
X2620001Y-1565280D03*
G01*
X2620001Y-1675280D03*
G01*
X2620001Y-1455280D03*
G01*
X2620001Y-1345280D03*
G01*
X3015001Y-1345280D03*
G01*
X3015001Y-1455280D03*
G01*
X3015001Y-1675280D03*
G01*
X3015001Y-1565280D03*
M02*
