M48
INCH,LZ
;FILE_FORMAT=2:4
;TYPE=PLATED
;Layer: PTH_Through_Via
;EasyEDA v6.5.51, 2025-10-31 15:50:43
;f944957023ac46e390d6da6fa4d87243,f96c02e88a3b40f88d53933fed3a7683,10
;Gerber Generator version 0.2
;Holesize 1 = 0.0120 inch
T01C0.0120
%
G05
G90
T01
X012305Y-001797
X016305Y000203
X016305Y-001797
X-009578Y004578
X-009578Y002578
X-009578Y000578
X-009578Y-001422
X-009578Y-003422
X-007578Y004578
X-007578Y002578
X-007578Y000578
X-007578Y-001422
X-005578Y004578
X-005578Y002578
X-003578Y004578
X-003578Y002578
X-001578Y004578
X-001578Y002578
X000422Y004578
X000422Y002578
X002422Y004578
X002422Y002578
X002422Y000578
X002422Y-003422
X004422Y004578
X004422Y002578
X004422Y-003422
X006422Y004578
X006422Y002578
X006422Y000578
X006422Y-003422
X008422Y004578
X008422Y002578
X008422Y-003422
X010422Y004578
X010422Y002578
X010422Y-003422
X012422Y004578
X012422Y002578
X012422Y-003422
X014422Y004578
X014422Y002578
X014422Y-003422
X016422Y004578
X016422Y002578
X016422Y-003422
X018422Y004578
X018422Y002578
X018422Y-003422
X020422Y004578
X020422Y002578
X020422Y-003422
X022422Y004578
X022422Y002578
X022422Y000578
X022422Y-003422
X024422Y004578
X024422Y002578
X024422Y000578
X026422Y004578
X026422Y002578
X026422Y000578
X026422Y-003422
X028422Y004578
X030422Y004578
M30
