M48
INCH,LZ
;FILE_FORMAT=2:4
;TYPE=PLATED
;Layer: PTH_Through
;EasyEDA v6.5.51, 2025-10-31 15:50:43
;f944957023ac46e390d6da6fa4d87243,f96c02e88a3b40f88d53933fed3a7683,10
;Gerber Generator version 0.2
;Holesize 1 = 0.0120 inch
T01C0.0120
;Holesize 2 = 0.0350 inch
T02C0.0350
;Holesize 3 = 0.0430 inch
T03C0.0430
%
G05
G90
T01
X012305Y-001797
X016305Y000203
X016305Y-001797
X-009578Y004578
X-009578Y002578
X-009578Y000578
X-009578Y-001422
X-009578Y-003422
X-007578Y004578
X-007578Y002578
X-007578Y000578
X-007578Y-001422
X-005578Y004578
X-005578Y002578
X-003578Y004578
X-003578Y002578
X-001578Y004578
X-001578Y002578
X000422Y004578
X000422Y002578
X002422Y004578
X002422Y002578
X002422Y000578
X002422Y-003422
X004422Y004578
X004422Y002578
X004422Y-003422
X006422Y004578
X006422Y002578
X006422Y000578
X006422Y-003422
X008422Y004578
X008422Y002578
X008422Y-003422
X010422Y004578
X010422Y002578
X010422Y-003422
X012422Y004578
X012422Y002578
X012422Y-003422
X014422Y004578
X014422Y002578
X014422Y-003422
X016422Y004578
X016422Y002578
X016422Y-003422
X018422Y004578
X018422Y002578
X018422Y-003422
X020422Y004578
X020422Y002578
X020422Y-003422
X022422Y004578
X022422Y002578
X022422Y000578
X022422Y-003422
X024422Y004578
X024422Y002578
X024422Y000578
X026422Y004578
X026422Y002578
X026422Y000578
X026422Y-003422
X028422Y004578
X030422Y004578
T02
X028150Y-001000
X028150Y-002300
X028200Y-003550
X030000Y-003550
X030000Y-002300
X030050Y-001000
X030100Y000450
X-004500Y-002800
X-002950Y-002400
X-001400Y-002000
X000100Y-001600
X000150Y-000350
X-001400Y000150
X-003000Y000550
X-004500Y001000
X003850Y001550
X005050Y001550
T03
X017850Y001200
X017850Y000200
X020850Y000200
X020850Y001200
X017850Y-000800
X017850Y-001800
X020850Y-000800
X020850Y-001800
X011150Y000800
X011150Y-000200
X014150Y-000200
X014150Y000800
X011150Y-001200
X011150Y-002200
X014150Y-001200
X014150Y-002200
M30
