G04 Layer: TopSolderMaskLayer*
G04 EasyEDA v6.5.51, 2025-10-31 15:50:43*
G04 f944957023ac46e390d6da6fa4d87243,f96c02e88a3b40f88d53933fed3a7683,10*
G04 Gerber Generator version 0.2*
G04 Scale: 100 percent, Rotated: No, Reflected: No *
G04 Dimensions in inches *
G04 leading zeros omitted , absolute positions ,3 integer and 6 decimal *
%FSLAX36Y36*%
%MOIN*%

%AMMACRO1*4,1,8,-0.0166,-0.0197,-0.0177,-0.0185,-0.0177,0.0185,-0.0166,0.0197,0.0166,0.0197,0.0177,0.0185,0.0177,-0.0185,0.0166,-0.0197,-0.0166,-0.0197,0*%
%AMMACRO2*4,1,8,-0.0185,-0.0177,-0.0197,-0.0166,-0.0197,0.0166,-0.0185,0.0177,0.0185,0.0177,0.0197,0.0166,0.0197,-0.0166,0.0185,-0.0177,-0.0185,-0.0177,0*%
%AMMACRO3*4,1,8,-0.0167,-0.019,-0.0179,-0.0178,-0.0179,0.0178,-0.0167,0.019,0.0167,0.019,0.0179,0.0178,0.0179,-0.0178,0.0167,-0.019,-0.0167,-0.019,0*%
%AMMACRO4*4,1,8,-0.0178,-0.0179,-0.019,-0.0167,-0.019,0.0167,-0.0178,0.0179,0.0178,0.0179,0.019,0.0167,0.019,-0.0167,0.0178,-0.0179,-0.0178,-0.0179,0*%
%AMMACRO5*4,1,8,-0.0067,-0.0374,-0.0079,-0.0363,-0.0079,0.0363,-0.0067,0.0374,0.0067,0.0374,0.0079,0.0363,0.0079,-0.0363,0.0067,-0.0374,-0.0067,-0.0374,0*%
%AMMACRO6*4,1,8,-0.05,-0.0689,-0.0512,-0.0678,-0.0512,0.0678,-0.05,0.0689,0.05,0.0689,0.0512,0.0678,0.0512,-0.0678,0.05,-0.0689,-0.05,-0.0689,0*%
%AMMACRO7*4,1,8,-0.0303,-0.0098,-0.0315,-0.0087,-0.0315,0.0087,-0.0303,0.0098,0.0303,0.0098,0.0315,0.0087,0.0315,-0.0087,0.0303,-0.0098,-0.0303,-0.0098,0*%
%AMMACRO8*4,1,8,-0.0303,-0.0413,-0.0315,-0.0402,-0.0315,0.0402,-0.0303,0.0413,0.0303,0.0413,0.0315,0.0402,0.0315,-0.0402,0.0303,-0.0413,-0.0303,-0.0413,0*%
%AMMACRO9*4,1,8,-0.0318,-0.033,-0.033,-0.0318,-0.033,0.0318,-0.0318,0.033,0.0318,0.033,0.033,0.0318,0.033,-0.0318,0.0318,-0.033,-0.0318,-0.033,0*%
%ADD10MACRO1*%
%ADD11MACRO2*%
%ADD12C,0.0749*%
%ADD13O,0.019748X0.047307*%
%ADD14O,0.084512X0.02715*%
%ADD15MACRO3*%
%ADD16C,0.0166*%
%ADD17MACRO4*%
%ADD18MACRO5*%
%ADD19MACRO6*%
%ADD20MACRO7*%
%ADD21MACRO8*%
%ADD22MACRO9*%

%LPD*%
D10*
G01*
X2207440Y120000D03*
G01*
X2262559Y120000D03*
G01*
X1617440Y-80000D03*
G01*
X1672559Y-80000D03*
D11*
G01*
X1540000Y-227441D03*
G01*
X1540000Y-282558D03*
G01*
X2195000Y-82441D03*
G01*
X2195000Y-137558D03*
D10*
G01*
X1732440Y-310000D03*
G01*
X1787559Y-310000D03*
D11*
G01*
X2400000Y-322558D03*
G01*
X2400000Y-267441D03*
G01*
X340000Y-307558D03*
G01*
X340000Y-252441D03*
G01*
X660000Y-12441D03*
G01*
X660000Y-67558D03*
D10*
G01*
X992559Y-115000D03*
G01*
X937440Y-115000D03*
D11*
G01*
X750000Y-272558D03*
G01*
X750000Y-217441D03*
D10*
G01*
X827559Y-20000D03*
G01*
X772441Y-20000D03*
D11*
G01*
X1540000Y12441D03*
G01*
X1540000Y67558D03*
D12*
G01*
X1785000Y120000D03*
G01*
X1785000Y20000D03*
G01*
X2085000Y20000D03*
G01*
X2085000Y120000D03*
G01*
X1785000Y-80000D03*
G01*
X1785000Y-180000D03*
G01*
X2085000Y-80000D03*
G01*
X2085000Y-180000D03*
G01*
X1115000Y80000D03*
G01*
X1115000Y-20000D03*
G01*
X1415000Y-20000D03*
G01*
X1415000Y80000D03*
G01*
X1115000Y-120000D03*
G01*
X1115000Y-220000D03*
G01*
X1415000Y-120000D03*
G01*
X1415000Y-220000D03*
D13*
G01*
X2456620Y-169800D03*
G01*
X2482209Y-169800D03*
G01*
X2507799Y-169800D03*
G01*
X2533389Y-169800D03*
G01*
X2533400Y-20199D03*
G01*
X2507799Y-20199D03*
G01*
X2482200Y-20199D03*
G01*
X2456599Y-20199D03*
D14*
G01*
X554149Y-170000D03*
G01*
X554149Y-120000D03*
G01*
X554149Y-70000D03*
G01*
X554149Y-20000D03*
G01*
X335850Y-170000D03*
G01*
X335850Y-120000D03*
G01*
X335850Y-70000D03*
G01*
X335850Y-20000D03*
D15*
G01*
X2005344Y-255000D03*
G01*
X2064655Y-255000D03*
D17*
G01*
X2285000Y-44655D03*
G01*
X2285000Y14655D03*
G01*
X2680000Y-114655D03*
G01*
X2680000Y-55344D03*
D15*
G01*
X994655Y-20000D03*
G01*
X935344Y-20000D03*
D17*
G01*
X1030000Y-185344D03*
G01*
X1030000Y-244655D03*
D15*
G01*
X2374655Y-170000D03*
G01*
X2315344Y-170000D03*
G01*
X2620344Y-265000D03*
G01*
X2679655Y-265000D03*
D18*
G01*
X2841259Y162599D03*
G01*
X2860945Y162599D03*
G01*
X2880630Y162599D03*
G01*
X2900315Y162599D03*
G01*
X2920000Y162599D03*
G01*
X2939684Y162599D03*
G01*
X2959369Y162599D03*
G01*
X2979054Y162599D03*
G01*
X2998740Y162599D03*
D19*
G01*
X2764489Y237400D03*
G01*
X3075509Y237400D03*
D20*
G01*
X-648816Y-275586D03*
G01*
X-648816Y-236215D03*
G01*
X-648816Y-196846D03*
G01*
X-648816Y-157476D03*
G01*
X-648816Y-118106D03*
G01*
X-648816Y-78735D03*
G01*
X-648816Y-39365D03*
G01*
X-648816Y5D03*
G01*
X-648816Y39375D03*
G01*
X-648816Y78744D03*
G01*
X-648816Y118115D03*
G01*
X-648816Y157485D03*
G01*
X-648816Y196855D03*
G01*
X-648816Y236224D03*
G01*
X-648816Y275595D03*
D21*
G01*
X-751178Y-362200D03*
G01*
X-751176Y362207D03*
D22*
G01*
X2815000Y-100000D03*
G01*
X2815000Y-230000D03*
G01*
X2820000Y-355000D03*
G01*
X3000000Y-355000D03*
G01*
X3000000Y-230000D03*
G01*
X3005000Y-100000D03*
G01*
X3010000Y45000D03*
G01*
X-450000Y-280000D03*
G01*
X-295000Y-240000D03*
G01*
X-140000Y-200000D03*
G01*
X10000Y-160000D03*
G01*
X15000Y-35000D03*
G01*
X-140000Y15000D03*
G01*
X-300000Y55000D03*
G01*
X-450000Y100000D03*
G01*
X385000Y155000D03*
G01*
X505000Y155000D03*
M02*
