G04 Layer: TopLayer*
G04 EasyEDA v6.5.51, 2025-10-31 15:50:43*
G04 f944957023ac46e390d6da6fa4d87243,f96c02e88a3b40f88d53933fed3a7683,10*
G04 Gerber Generator version 0.2*
G04 Scale: 100 percent, Rotated: No, Reflected: No *
G04 Dimensions in inches *
G04 leading zeros omitted , absolute positions ,3 integer and 6 decimal *
%FSLAX36Y36*%
%MOIN*%

%AMMACRO1*21,1,$1,$2,0,0,$3*%
%ADD10C,0.0050*%
%ADD11C,0.0100*%
%ADD12R,0.0315X0.0354*%
%ADD13R,0.0354X0.0315*%
%ADD14O,0.015748X0.043307*%
%ADD15O,0.080512X0.02315*%
%ADD16MACRO1,0.034X0.0318X-90.0000*%
%ADD17MACRO1,0.034X0.0318X0.0000*%
%ADD18R,0.0340X0.0318*%
%ADD19R,0.0133X0.0318*%
%ADD20MACRO1,0.034X0.0318X90.0000*%
%ADD21MACRO1,0.0118X0.0709X0.0000*%
%ADD22R,0.0984X0.1339*%
%ADD23R,0.0591X0.0157*%
%ADD24R,0.0591X0.0787*%
%ADD25C,0.0709*%
%ADD26R,0.0620X0.0620*%
%ADD27C,0.0240*%

%LPD*%
G36*
X-985800Y-489799D02*
G01*
X-987340Y-489500D01*
X-988620Y-488620D01*
X-989500Y-487340D01*
X-989800Y-485800D01*
X-989800Y485800D01*
X-989500Y487340D01*
X-988620Y488620D01*
X-987340Y489500D01*
X-985800Y489799D01*
X3185800Y489799D01*
X3187340Y489500D01*
X3188620Y488620D01*
X3189500Y487340D01*
X3189800Y485800D01*
X3189800Y-485800D01*
X3189500Y-487340D01*
X3188620Y-488620D01*
X3187340Y-489500D01*
X3185800Y-489799D01*
G37*

%LPC*%
G36*
X-780480Y-411780D02*
G01*
X-721880Y-411780D01*
X-719380Y-411480D01*
X-717240Y-410740D01*
X-715300Y-409520D01*
X-713700Y-407920D01*
X-712480Y-405980D01*
X-711740Y-403840D01*
X-711460Y-401340D01*
X-711460Y-323060D01*
X-711740Y-320560D01*
X-712480Y-318420D01*
X-713700Y-316480D01*
X-715300Y-314880D01*
X-717240Y-313660D01*
X-719380Y-312920D01*
X-721880Y-312640D01*
X-780480Y-312640D01*
X-782980Y-312920D01*
X-785120Y-313660D01*
X-787060Y-314880D01*
X-788660Y-316480D01*
X-789880Y-318420D01*
X-790620Y-320560D01*
X-790900Y-323060D01*
X-790900Y-401340D01*
X-790620Y-403840D01*
X-789880Y-405980D01*
X-788660Y-407920D01*
X-787060Y-409520D01*
X-785120Y-410740D01*
X-782980Y-411480D01*
G37*
G36*
X-534240Y-402700D02*
G01*
X-40199Y-402700D01*
X-37360Y-402400D01*
X-34840Y-401580D01*
X-32500Y-400240D01*
X-30900Y-398860D01*
X234080Y-133880D01*
X235380Y-133000D01*
X236920Y-132700D01*
X287560Y-132700D01*
X289080Y-133000D01*
X290380Y-133880D01*
X293180Y-136660D01*
X296280Y-138840D01*
X299720Y-140440D01*
X302300Y-141140D01*
X303820Y-141940D01*
X304880Y-143300D01*
X305260Y-145000D01*
X304880Y-146680D01*
X303820Y-148060D01*
X302300Y-148860D01*
X299720Y-149560D01*
X296280Y-151160D01*
X293180Y-153320D01*
X290500Y-156020D01*
X288320Y-159120D01*
X286720Y-162560D01*
X285740Y-166220D01*
X285400Y-170000D01*
X285740Y-173780D01*
X286720Y-177440D01*
X288320Y-180880D01*
X290500Y-183980D01*
X293180Y-186660D01*
X296280Y-188840D01*
X299720Y-190440D01*
X303380Y-191420D01*
X307340Y-191780D01*
X320800Y-191780D01*
X322340Y-192079D01*
X323620Y-192940D01*
X324500Y-194240D01*
X324799Y-195780D01*
X324799Y-222659D01*
X324540Y-224100D01*
X323780Y-225320D01*
X322640Y-226220D01*
X321240Y-226640D01*
X320020Y-226780D01*
X317860Y-227520D01*
X315940Y-228740D01*
X314320Y-230360D01*
X313120Y-232280D01*
X312360Y-234440D01*
X312080Y-236920D01*
X312080Y-267960D01*
X312360Y-270460D01*
X313120Y-272600D01*
X314320Y-274540D01*
X315940Y-276140D01*
X316680Y-276620D01*
X317840Y-277720D01*
X318480Y-279200D01*
X318480Y-280800D01*
X317840Y-282280D01*
X316680Y-283380D01*
X315940Y-283860D01*
X314320Y-285460D01*
X313120Y-287400D01*
X312360Y-289540D01*
X312080Y-292040D01*
X312080Y-297180D01*
X328640Y-297180D01*
X328640Y-282400D01*
X328940Y-280860D01*
X329820Y-279560D01*
X331120Y-278700D01*
X332640Y-278400D01*
X347360Y-278400D01*
X348880Y-278700D01*
X350180Y-279560D01*
X351060Y-280860D01*
X351360Y-282400D01*
X351360Y-297180D01*
X367920Y-297180D01*
X367920Y-292040D01*
X367640Y-289540D01*
X366880Y-287400D01*
X365680Y-285460D01*
X364060Y-283860D01*
X363320Y-283380D01*
X362160Y-282280D01*
X361520Y-280800D01*
X361520Y-279200D01*
X362160Y-277720D01*
X363320Y-276620D01*
X364060Y-276140D01*
X365680Y-274540D01*
X366880Y-272600D01*
X367700Y-270280D01*
X368540Y-268880D01*
X369880Y-267940D01*
X371480Y-267600D01*
X542400Y-267600D01*
X545560Y-267280D01*
X548400Y-266420D01*
X551040Y-265020D01*
X553480Y-263000D01*
X582720Y-233780D01*
X584020Y-232900D01*
X585560Y-232600D01*
X718520Y-232600D01*
X720120Y-232940D01*
X721460Y-233880D01*
X722300Y-235280D01*
X723120Y-237600D01*
X724320Y-239540D01*
X725939Y-241140D01*
X726680Y-241620D01*
X727840Y-242719D01*
X728480Y-244200D01*
X728480Y-245799D01*
X727840Y-247280D01*
X726680Y-248380D01*
X725939Y-248860D01*
X724320Y-250460D01*
X723120Y-252399D01*
X722360Y-254540D01*
X722080Y-257040D01*
X722080Y-262180D01*
X738640Y-262180D01*
X738640Y-247399D01*
X738940Y-245859D01*
X739820Y-244560D01*
X741120Y-243700D01*
X742640Y-243400D01*
X757360Y-243400D01*
X758880Y-243700D01*
X760180Y-244560D01*
X761060Y-245859D01*
X761360Y-247399D01*
X761360Y-262180D01*
X777920Y-262180D01*
X777920Y-257040D01*
X777640Y-254540D01*
X776880Y-252399D01*
X775680Y-250460D01*
X774060Y-248860D01*
X773319Y-248380D01*
X772159Y-247280D01*
X771520Y-245799D01*
X771520Y-244200D01*
X772159Y-242719D01*
X773319Y-241620D01*
X774060Y-241140D01*
X775680Y-239540D01*
X776880Y-237600D01*
X777680Y-235320D01*
X778520Y-233920D01*
X779860Y-232979D01*
X781460Y-232640D01*
X998800Y-232640D01*
X1000000Y-232820D01*
X1001100Y-233359D01*
X1001979Y-234220D01*
X1019820Y-234220D01*
X1020699Y-233359D01*
X1021780Y-232820D01*
X1023000Y-232640D01*
X1037000Y-232640D01*
X1038220Y-232820D01*
X1039300Y-233359D01*
X1040180Y-234220D01*
X1058020Y-234220D01*
X1058900Y-233359D01*
X1060000Y-232820D01*
X1061200Y-232640D01*
X1068320Y-232640D01*
X1069860Y-232960D01*
X1071160Y-233840D01*
X1072040Y-235159D01*
X1073720Y-239420D01*
X1076480Y-244440D01*
X1079840Y-249080D01*
X1083760Y-253260D01*
X1088180Y-256920D01*
X1093020Y-259980D01*
X1098200Y-262420D01*
X1103660Y-264200D01*
X1109280Y-265260D01*
X1115000Y-265620D01*
X1120720Y-265260D01*
X1126340Y-264200D01*
X1131800Y-262420D01*
X1133640Y-261920D01*
X1135240Y-262200D01*
X1136600Y-263080D01*
X1166680Y-293160D01*
X1169120Y-295180D01*
X1171760Y-296580D01*
X1174600Y-297440D01*
X1177760Y-297760D01*
X1508540Y-297760D01*
X1510140Y-298100D01*
X1511480Y-299040D01*
X1512320Y-300440D01*
X1513120Y-302720D01*
X1514319Y-304640D01*
X1515940Y-306260D01*
X1517860Y-307480D01*
X1520020Y-308220D01*
X1522500Y-308500D01*
X1557500Y-308500D01*
X1559980Y-308220D01*
X1562140Y-307480D01*
X1564060Y-306260D01*
X1565680Y-304640D01*
X1566879Y-302720D01*
X1567680Y-300440D01*
X1568520Y-299040D01*
X1569860Y-298100D01*
X1571459Y-297760D01*
X1682240Y-297760D01*
X1685400Y-297460D01*
X1688240Y-296580D01*
X1690880Y-295180D01*
X1693320Y-293180D01*
X1700000Y-286500D01*
X1701360Y-285600D01*
X1702980Y-285320D01*
X1704560Y-285720D01*
X1705860Y-286720D01*
X1706660Y-288140D01*
X1706800Y-289780D01*
X1706500Y-292500D01*
X1706500Y-298640D01*
X1722080Y-298640D01*
X1722080Y-282080D01*
X1716920Y-282080D01*
X1714180Y-282400D01*
X1712560Y-282240D01*
X1711120Y-281440D01*
X1710140Y-280160D01*
X1709740Y-278560D01*
X1710020Y-276960D01*
X1710900Y-275580D01*
X1763400Y-223080D01*
X1764640Y-222240D01*
X1766100Y-221920D01*
X1767580Y-222160D01*
X1769720Y-222920D01*
X1771100Y-223760D01*
X1772040Y-225080D01*
X1772360Y-226680D01*
X1772360Y-278540D01*
X1772020Y-280140D01*
X1771080Y-281480D01*
X1769680Y-282320D01*
X1767400Y-283120D01*
X1765460Y-284320D01*
X1763860Y-285940D01*
X1763380Y-286680D01*
X1762280Y-287840D01*
X1760800Y-288480D01*
X1759199Y-288480D01*
X1757720Y-287840D01*
X1756620Y-286680D01*
X1756140Y-285940D01*
X1754540Y-284320D01*
X1752600Y-283120D01*
X1750460Y-282360D01*
X1747960Y-282080D01*
X1742820Y-282080D01*
X1742820Y-298640D01*
X1757600Y-298640D01*
X1759139Y-298940D01*
X1760440Y-299820D01*
X1761300Y-301120D01*
X1761600Y-302640D01*
X1761600Y-317360D01*
X1761300Y-318880D01*
X1760440Y-320180D01*
X1759139Y-321060D01*
X1757600Y-321360D01*
X1742820Y-321360D01*
X1742820Y-337920D01*
X1747960Y-337920D01*
X1750460Y-337640D01*
X1752600Y-336880D01*
X1754540Y-335680D01*
X1756140Y-334060D01*
X1756620Y-333320D01*
X1757720Y-332160D01*
X1759199Y-331520D01*
X1760800Y-331520D01*
X1762280Y-332160D01*
X1763380Y-333320D01*
X1763860Y-334060D01*
X1765460Y-335680D01*
X1767400Y-336880D01*
X1769540Y-337640D01*
X1772040Y-337920D01*
X1803080Y-337920D01*
X1805560Y-337640D01*
X1807720Y-336880D01*
X1809640Y-335680D01*
X1811260Y-334060D01*
X1812480Y-332140D01*
X1813220Y-329980D01*
X1813500Y-327500D01*
X1813500Y-292500D01*
X1813220Y-290020D01*
X1812480Y-287860D01*
X1811260Y-285940D01*
X1809640Y-284320D01*
X1807720Y-283120D01*
X1805440Y-282320D01*
X1804040Y-281480D01*
X1803100Y-280140D01*
X1802760Y-278540D01*
X1802760Y-225380D01*
X1803060Y-223840D01*
X1803940Y-222540D01*
X1805220Y-221680D01*
X1806759Y-221380D01*
X1808300Y-221680D01*
X1809580Y-222540D01*
X1890880Y-303840D01*
X1893100Y-305640D01*
X1895460Y-306840D01*
X1898060Y-307540D01*
X1900160Y-307700D01*
X2368080Y-307700D01*
X2369620Y-308000D01*
X2370920Y-308880D01*
X2371780Y-310160D01*
X2372080Y-312180D01*
X2388640Y-312180D01*
X2388940Y-310160D01*
X2389820Y-308880D01*
X2391120Y-308000D01*
X2392640Y-307700D01*
X2407360Y-307700D01*
X2408880Y-308000D01*
X2410180Y-308880D01*
X2411060Y-310160D01*
X2411360Y-312180D01*
X2427920Y-312180D01*
X2428220Y-310160D01*
X2429080Y-308880D01*
X2430380Y-308000D01*
X2431920Y-307700D01*
X2434800Y-307700D01*
X2437640Y-307400D01*
X2440160Y-306580D01*
X2442500Y-305240D01*
X2444100Y-303860D01*
X2542240Y-205720D01*
X2544040Y-203500D01*
X2545260Y-201100D01*
X2545800Y-199280D01*
X2545980Y-197680D01*
X2546240Y-196660D01*
X2546760Y-195720D01*
X2548740Y-193100D01*
X2550220Y-190100D01*
X2551140Y-186900D01*
X2551460Y-183400D01*
X2551460Y-156220D01*
X2551140Y-152700D01*
X2550220Y-149500D01*
X2548740Y-146520D01*
X2546740Y-143860D01*
X2544280Y-141620D01*
X2541440Y-139860D01*
X2538340Y-138660D01*
X2535060Y-138040D01*
X2531720Y-138040D01*
X2528440Y-138660D01*
X2525340Y-139860D01*
X2522700Y-141500D01*
X2521340Y-142020D01*
X2519880Y-142040D01*
X2518520Y-141520D01*
X2515360Y-139620D01*
X2514280Y-138660D01*
X2513620Y-137380D01*
X2513440Y-135940D01*
X2513780Y-134540D01*
X2514600Y-133360D01*
X2519440Y-128539D01*
X2520720Y-127660D01*
X2522260Y-127360D01*
X2648880Y-127360D01*
X2650320Y-127620D01*
X2651560Y-128379D01*
X2652440Y-129520D01*
X2652860Y-130920D01*
X2653080Y-132800D01*
X2653820Y-134940D01*
X2655040Y-136880D01*
X2656640Y-138480D01*
X2658580Y-139700D01*
X2660700Y-140440D01*
X2663700Y-140760D01*
X2665100Y-141160D01*
X2666259Y-142060D01*
X2667040Y-143300D01*
X2667300Y-144740D01*
X2667300Y-233840D01*
X2667040Y-235280D01*
X2666280Y-236520D01*
X2665140Y-237399D01*
X2663740Y-237820D01*
X2661520Y-238080D01*
X2659360Y-238820D01*
X2657440Y-240040D01*
X2655820Y-241640D01*
X2654620Y-243580D01*
X2653780Y-245960D01*
X2652940Y-247360D01*
X2651600Y-248320D01*
X2650000Y-248640D01*
X2648399Y-248320D01*
X2647060Y-247360D01*
X2646220Y-245960D01*
X2645380Y-243580D01*
X2644180Y-241640D01*
X2642559Y-240040D01*
X2640640Y-238820D01*
X2638480Y-238080D01*
X2636000Y-237800D01*
X2630779Y-237800D01*
X2630779Y-254000D01*
X2649580Y-254000D01*
X2651120Y-254300D01*
X2652400Y-255159D01*
X2653279Y-256460D01*
X2653580Y-258000D01*
X2653580Y-272000D01*
X2653279Y-273540D01*
X2652400Y-274840D01*
X2651120Y-275700D01*
X2649580Y-276000D01*
X2630779Y-276000D01*
X2630779Y-292200D01*
X2636000Y-292200D01*
X2638480Y-291920D01*
X2640640Y-291180D01*
X2642559Y-289960D01*
X2644180Y-288360D01*
X2645380Y-286420D01*
X2646220Y-284040D01*
X2647060Y-282640D01*
X2648399Y-281680D01*
X2650000Y-281360D01*
X2651600Y-281680D01*
X2652940Y-282640D01*
X2653780Y-284040D01*
X2654620Y-286420D01*
X2655820Y-288360D01*
X2657440Y-289960D01*
X2659360Y-291180D01*
X2661520Y-291920D01*
X2664000Y-292200D01*
X2695299Y-292200D01*
X2697799Y-291920D01*
X2699940Y-291180D01*
X2701880Y-289960D01*
X2703480Y-288360D01*
X2704700Y-286420D01*
X2705460Y-284280D01*
X2705740Y-281780D01*
X2705740Y-248220D01*
X2705460Y-245720D01*
X2704700Y-243580D01*
X2703480Y-241640D01*
X2701880Y-240040D01*
X2699940Y-238820D01*
X2697799Y-238080D01*
X2696259Y-237900D01*
X2694860Y-237480D01*
X2693720Y-236580D01*
X2692960Y-235360D01*
X2692700Y-233920D01*
X2692700Y-144740D01*
X2692960Y-143300D01*
X2693740Y-142060D01*
X2694900Y-141160D01*
X2696300Y-140760D01*
X2699300Y-140440D01*
X2701420Y-139700D01*
X2703360Y-138480D01*
X2704960Y-136880D01*
X2706180Y-134940D01*
X2706920Y-132800D01*
X2707200Y-130300D01*
X2707200Y-107080D01*
X2707520Y-105540D01*
X2708380Y-104240D01*
X2841420Y28800D01*
X2842700Y29660D01*
X2844240Y29960D01*
X2845779Y29660D01*
X2847060Y28800D01*
X2847940Y27500D01*
X2848240Y25960D01*
X2848240Y-47140D01*
X2847940Y-48680D01*
X2847060Y-49980D01*
X2839420Y-57619D01*
X2838120Y-58500D01*
X2836580Y-58800D01*
X2784220Y-58800D01*
X2781740Y-59080D01*
X2779580Y-59840D01*
X2777660Y-61040D01*
X2776040Y-62660D01*
X2774840Y-64580D01*
X2774080Y-66740D01*
X2773800Y-69220D01*
X2773800Y-130780D01*
X2774080Y-133260D01*
X2774840Y-135420D01*
X2776040Y-137340D01*
X2777660Y-138960D01*
X2779580Y-140160D01*
X2781740Y-140920D01*
X2784220Y-141200D01*
X2845779Y-141200D01*
X2848260Y-140920D01*
X2850419Y-140160D01*
X2852340Y-138960D01*
X2853960Y-137340D01*
X2855160Y-135420D01*
X2855920Y-133260D01*
X2856200Y-130780D01*
X2856200Y-78420D01*
X2856500Y-76880D01*
X2857380Y-75580D01*
X2861100Y-71860D01*
X2862400Y-71000D01*
X2863940Y-70680D01*
X2865460Y-71000D01*
X2866760Y-71860D01*
X2867620Y-73160D01*
X2867940Y-74680D01*
X2867940Y-157460D01*
X2867620Y-158980D01*
X2866760Y-160280D01*
X2839420Y-187620D01*
X2838120Y-188500D01*
X2836580Y-188800D01*
X2784220Y-188800D01*
X2781740Y-189080D01*
X2779580Y-189840D01*
X2777660Y-191040D01*
X2776040Y-192659D01*
X2774840Y-194579D01*
X2774080Y-196740D01*
X2773800Y-199220D01*
X2773800Y-260780D01*
X2774080Y-263260D01*
X2774840Y-265420D01*
X2776040Y-267340D01*
X2777660Y-268960D01*
X2779580Y-270160D01*
X2781740Y-270920D01*
X2784220Y-271200D01*
X2845779Y-271200D01*
X2848260Y-270920D01*
X2850419Y-270160D01*
X2852340Y-268960D01*
X2853960Y-267340D01*
X2855160Y-265420D01*
X2855920Y-263260D01*
X2856200Y-260780D01*
X2856200Y-208420D01*
X2856500Y-206880D01*
X2857380Y-205580D01*
X2880779Y-182180D01*
X2882080Y-181320D01*
X2883620Y-181000D01*
X2885140Y-181320D01*
X2886440Y-182180D01*
X2887300Y-183480D01*
X2887620Y-185000D01*
X2887620Y-267780D01*
X2887300Y-269300D01*
X2886440Y-270600D01*
X2844420Y-312620D01*
X2843120Y-313500D01*
X2841580Y-313800D01*
X2789220Y-313800D01*
X2786740Y-314080D01*
X2784580Y-314840D01*
X2782660Y-316040D01*
X2781040Y-317660D01*
X2779840Y-319580D01*
X2779080Y-321740D01*
X2778800Y-324219D01*
X2778800Y-385780D01*
X2779080Y-388260D01*
X2779840Y-390420D01*
X2781040Y-392340D01*
X2782660Y-393960D01*
X2784580Y-395160D01*
X2786740Y-395920D01*
X2789220Y-396200D01*
X2850779Y-396200D01*
X2853260Y-395920D01*
X2855419Y-395160D01*
X2857340Y-393960D01*
X2858960Y-392340D01*
X2860160Y-390420D01*
X2860920Y-388260D01*
X2861200Y-385780D01*
X2861200Y-333420D01*
X2861500Y-331880D01*
X2862380Y-330580D01*
X2907180Y-285780D01*
X2908460Y-284920D01*
X2910000Y-284620D01*
X2911540Y-284920D01*
X2912820Y-285780D01*
X2957620Y-330580D01*
X2958500Y-331880D01*
X2958800Y-333420D01*
X2958800Y-385780D01*
X2959080Y-388260D01*
X2959840Y-390420D01*
X2961040Y-392340D01*
X2962660Y-393960D01*
X2964580Y-395160D01*
X2966740Y-395920D01*
X2969220Y-396200D01*
X3030779Y-396200D01*
X3033260Y-395920D01*
X3035419Y-395160D01*
X3037340Y-393960D01*
X3038960Y-392340D01*
X3040160Y-390420D01*
X3040920Y-388260D01*
X3041200Y-385780D01*
X3041200Y-324219D01*
X3040920Y-321740D01*
X3040160Y-319580D01*
X3038960Y-317660D01*
X3037340Y-316040D01*
X3035419Y-314840D01*
X3033260Y-314080D01*
X3030779Y-313800D01*
X2978420Y-313800D01*
X2976880Y-313500D01*
X2975580Y-312620D01*
X2933880Y-270920D01*
X2933000Y-269620D01*
X2932700Y-268080D01*
X2932700Y-190320D01*
X2933000Y-188780D01*
X2933880Y-187480D01*
X2935160Y-186620D01*
X2936700Y-186320D01*
X2938240Y-186620D01*
X2939520Y-187480D01*
X2957620Y-205580D01*
X2958500Y-206880D01*
X2958800Y-208420D01*
X2958800Y-260780D01*
X2959080Y-263260D01*
X2959840Y-265420D01*
X2961040Y-267340D01*
X2962660Y-268960D01*
X2964580Y-270160D01*
X2966740Y-270920D01*
X2969220Y-271200D01*
X3030779Y-271200D01*
X3033260Y-270920D01*
X3035419Y-270160D01*
X3037340Y-268960D01*
X3038960Y-267340D01*
X3040160Y-265420D01*
X3040920Y-263260D01*
X3041200Y-260780D01*
X3041200Y-199220D01*
X3040920Y-196740D01*
X3040160Y-194579D01*
X3038960Y-192659D01*
X3037340Y-191040D01*
X3035419Y-189840D01*
X3033260Y-189080D01*
X3030779Y-188800D01*
X2978420Y-188800D01*
X2976880Y-188500D01*
X2975580Y-187620D01*
X2953560Y-165600D01*
X2952679Y-164300D01*
X2952380Y-162760D01*
X2952380Y-75000D01*
X2952679Y-73460D01*
X2953560Y-72160D01*
X2954840Y-71300D01*
X2956380Y-71000D01*
X2957919Y-71300D01*
X2959200Y-72160D01*
X2962620Y-75580D01*
X2963500Y-76880D01*
X2963800Y-78420D01*
X2963800Y-130780D01*
X2964080Y-133260D01*
X2964840Y-135420D01*
X2966040Y-137340D01*
X2967660Y-138960D01*
X2969580Y-140160D01*
X2971740Y-140920D01*
X2974220Y-141200D01*
X3035779Y-141200D01*
X3038260Y-140920D01*
X3040419Y-140160D01*
X3042340Y-138960D01*
X3043960Y-137340D01*
X3045160Y-135420D01*
X3045920Y-133260D01*
X3046200Y-130780D01*
X3046200Y-69220D01*
X3045920Y-66740D01*
X3045160Y-64580D01*
X3043960Y-62660D01*
X3042340Y-61040D01*
X3040419Y-59840D01*
X3038260Y-59080D01*
X3035779Y-58800D01*
X2983420Y-58800D01*
X2981880Y-58500D01*
X2980580Y-57619D01*
X2973240Y-50279D01*
X2972380Y-48980D01*
X2972080Y-47460D01*
X2972080Y140D01*
X2972420Y1760D01*
X2973399Y3120D01*
X2974860Y3940D01*
X2976520Y4100D01*
X2979220Y3800D01*
X3040779Y3800D01*
X3043260Y4079D01*
X3045419Y4840D01*
X3047340Y6040D01*
X3048960Y7660D01*
X3050160Y9580D01*
X3050920Y11740D01*
X3051200Y14220D01*
X3051200Y75780D01*
X3050920Y78260D01*
X3050160Y80420D01*
X3048960Y82340D01*
X3047340Y83960D01*
X3045419Y85160D01*
X3043260Y85920D01*
X3040779Y86199D01*
X2995760Y86199D01*
X2994220Y86500D01*
X2992919Y87380D01*
X2992060Y88660D01*
X2991760Y90200D01*
X2991760Y112960D01*
X2992060Y114500D01*
X2992919Y115800D01*
X2994220Y116660D01*
X2995760Y116960D01*
X3004420Y116960D01*
X3006900Y117240D01*
X3009060Y118000D01*
X3010980Y119220D01*
X3012600Y120820D01*
X3013820Y122760D01*
X3014560Y124900D01*
X3014840Y127400D01*
X3014840Y158500D01*
X3015200Y160140D01*
X3016220Y161500D01*
X3017700Y162320D01*
X3019380Y162460D01*
X3020980Y161880D01*
X3021880Y161300D01*
X3024040Y160560D01*
X3026520Y160280D01*
X3124500Y160280D01*
X3126980Y160560D01*
X3129140Y161300D01*
X3131060Y162520D01*
X3132679Y164140D01*
X3133900Y166060D01*
X3134640Y168220D01*
X3134920Y170700D01*
X3134920Y304100D01*
X3134640Y306600D01*
X3133900Y308740D01*
X3132679Y310680D01*
X3131060Y312280D01*
X3129140Y313500D01*
X3126980Y314260D01*
X3124500Y314540D01*
X3026520Y314540D01*
X3024040Y314260D01*
X3021880Y313500D01*
X3019960Y312280D01*
X3018340Y310680D01*
X3017140Y308740D01*
X3016380Y306600D01*
X3016100Y304100D01*
X3016100Y210020D01*
X3015740Y208359D01*
X3014740Y207000D01*
X3013240Y206180D01*
X3011560Y206040D01*
X3009980Y206620D01*
X3009060Y207200D01*
X3006900Y207960D01*
X3004420Y208240D01*
X2993060Y208240D01*
X2990580Y207960D01*
X2988900Y207600D01*
X2987220Y207960D01*
X2984740Y208240D01*
X2973380Y208240D01*
X2970880Y207960D01*
X2969220Y207600D01*
X2967540Y207960D01*
X2965059Y208240D01*
X2953680Y208240D01*
X2951200Y207960D01*
X2949520Y207600D01*
X2947860Y207960D01*
X2945360Y208240D01*
X2934000Y208240D01*
X2931520Y207960D01*
X2929840Y207600D01*
X2928159Y207960D01*
X2925680Y208240D01*
X2914320Y208240D01*
X2911840Y207960D01*
X2910160Y207600D01*
X2908480Y207960D01*
X2906000Y208240D01*
X2894640Y208240D01*
X2892140Y207960D01*
X2890480Y207600D01*
X2888800Y207960D01*
X2886320Y208240D01*
X2874940Y208240D01*
X2872460Y207960D01*
X2870779Y207600D01*
X2869120Y207960D01*
X2866620Y208240D01*
X2855260Y208240D01*
X2852780Y207960D01*
X2851100Y207600D01*
X2849420Y207960D01*
X2846940Y208240D01*
X2835580Y208240D01*
X2833100Y207960D01*
X2830940Y207200D01*
X2830040Y206640D01*
X2828440Y206060D01*
X2826760Y206180D01*
X2825280Y207000D01*
X2824260Y208359D01*
X2823900Y210020D01*
X2823900Y304100D01*
X2823620Y306600D01*
X2822880Y308740D01*
X2821660Y310680D01*
X2820059Y312280D01*
X2818120Y313500D01*
X2815980Y314260D01*
X2813480Y314540D01*
X2715500Y314540D01*
X2713020Y314260D01*
X2710860Y313500D01*
X2708940Y312280D01*
X2707320Y310680D01*
X2706120Y308740D01*
X2705360Y306600D01*
X2705080Y304100D01*
X2705080Y170700D01*
X2705360Y168220D01*
X2706120Y166060D01*
X2707320Y164140D01*
X2708940Y162520D01*
X2710860Y161300D01*
X2713020Y160560D01*
X2715500Y160280D01*
X2813480Y160280D01*
X2815980Y160560D01*
X2818120Y161300D01*
X2819020Y161880D01*
X2820620Y162460D01*
X2822300Y162320D01*
X2823780Y161500D01*
X2824800Y160140D01*
X2825160Y158480D01*
X2825160Y127400D01*
X2825440Y124900D01*
X2826180Y122760D01*
X2828260Y119520D01*
X2828560Y118000D01*
X2828560Y53520D01*
X2828260Y51980D01*
X2827380Y50679D01*
X2714040Y-62660D01*
X2712740Y-63540D01*
X2711200Y-63840D01*
X2709680Y-63540D01*
X2708380Y-62660D01*
X2707520Y-61360D01*
X2707200Y-59840D01*
X2707200Y-39700D01*
X2706920Y-37200D01*
X2706180Y-35060D01*
X2704960Y-33120D01*
X2703360Y-31520D01*
X2701420Y-30299D01*
X2699280Y-29540D01*
X2696780Y-29260D01*
X2663220Y-29260D01*
X2660720Y-29540D01*
X2658580Y-30299D01*
X2656640Y-31520D01*
X2655040Y-33120D01*
X2653820Y-35060D01*
X2653080Y-37200D01*
X2652860Y-39080D01*
X2652440Y-40480D01*
X2651560Y-41620D01*
X2650320Y-42380D01*
X2648880Y-42640D01*
X2554920Y-42640D01*
X2553480Y-42360D01*
X2552220Y-41600D01*
X2551340Y-40420D01*
X2550940Y-39000D01*
X2551480Y-33780D01*
X2551480Y-6600D01*
X2551140Y-3100D01*
X2550240Y100D01*
X2548760Y3100D01*
X2546740Y5760D01*
X2544280Y8000D01*
X2541440Y9760D01*
X2538340Y10960D01*
X2535060Y11560D01*
X2531740Y11560D01*
X2528460Y10960D01*
X2525360Y9760D01*
X2522700Y8120D01*
X2521340Y7580D01*
X2519860Y7580D01*
X2518500Y8120D01*
X2515840Y9760D01*
X2512740Y10960D01*
X2509460Y11560D01*
X2506140Y11560D01*
X2501400Y10680D01*
X2499960Y10940D01*
X2498720Y11720D01*
X2497820Y12880D01*
X2497420Y14280D01*
X2497080Y17620D01*
X2496220Y20480D01*
X2494820Y23100D01*
X2492940Y25400D01*
X2490640Y27280D01*
X2488000Y28680D01*
X2485160Y29540D01*
X2482000Y29860D01*
X2315800Y29860D01*
X2314200Y30200D01*
X2312860Y31140D01*
X2312020Y32540D01*
X2311180Y34940D01*
X2309960Y36880D01*
X2308360Y38480D01*
X2306420Y39700D01*
X2304280Y40460D01*
X2302360Y40920D01*
X2301220Y41820D01*
X2300460Y43060D01*
X2300200Y44480D01*
X2300200Y97360D01*
X2299880Y100520D01*
X2299020Y103360D01*
X2297620Y106000D01*
X2295600Y108440D01*
X2289680Y114380D01*
X2288800Y115680D01*
X2288500Y117200D01*
X2288500Y137500D01*
X2288220Y139980D01*
X2287480Y142140D01*
X2286260Y144060D01*
X2284640Y145680D01*
X2282720Y146880D01*
X2280560Y147640D01*
X2278080Y147920D01*
X2247040Y147920D01*
X2244540Y147640D01*
X2242400Y146880D01*
X2240460Y145680D01*
X2238860Y144060D01*
X2238380Y143320D01*
X2237280Y142160D01*
X2235800Y141520D01*
X2234200Y141520D01*
X2232720Y142160D01*
X2231620Y143320D01*
X2231140Y144060D01*
X2229540Y145680D01*
X2227600Y146880D01*
X2225460Y147640D01*
X2222960Y147920D01*
X2217820Y147920D01*
X2217820Y131360D01*
X2232600Y131360D01*
X2234140Y131060D01*
X2235440Y130180D01*
X2236300Y128880D01*
X2236600Y127360D01*
X2236600Y112640D01*
X2236300Y111120D01*
X2235440Y109820D01*
X2234140Y108940D01*
X2232600Y108640D01*
X2217820Y108640D01*
X2217820Y92080D01*
X2222960Y92080D01*
X2225460Y92360D01*
X2227600Y93120D01*
X2229540Y94320D01*
X2231140Y95940D01*
X2231620Y96679D01*
X2232720Y97840D01*
X2234200Y98480D01*
X2235800Y98480D01*
X2237280Y97840D01*
X2238380Y96679D01*
X2238860Y95940D01*
X2240460Y94320D01*
X2242400Y93120D01*
X2244540Y92360D01*
X2247040Y92080D01*
X2265800Y92080D01*
X2267340Y91780D01*
X2268620Y90920D01*
X2269500Y89620D01*
X2269800Y88080D01*
X2269800Y44480D01*
X2269540Y43060D01*
X2268780Y41820D01*
X2267640Y40920D01*
X2265720Y40460D01*
X2263580Y39700D01*
X2261640Y38480D01*
X2260040Y36880D01*
X2258820Y34940D01*
X2257980Y32540D01*
X2257140Y31140D01*
X2255800Y30200D01*
X2254200Y29860D01*
X2132580Y29860D01*
X2130880Y30240D01*
X2129500Y31320D01*
X2128700Y32860D01*
X2128400Y34100D01*
X2126280Y39420D01*
X2123520Y44440D01*
X2120160Y49080D01*
X2116240Y53259D01*
X2111820Y56920D01*
X2106980Y59980D01*
X2101800Y62420D01*
X2096339Y64200D01*
X2090720Y65260D01*
X2085000Y65620D01*
X2079280Y65260D01*
X2073660Y64200D01*
X2068200Y62420D01*
X2066360Y61920D01*
X2064760Y62200D01*
X2063400Y63080D01*
X2048320Y78180D01*
X2045880Y80180D01*
X2043240Y81580D01*
X2040400Y82440D01*
X2037240Y82760D01*
X1821740Y82760D01*
X1820220Y83059D01*
X1818940Y83900D01*
X1818060Y85180D01*
X1817740Y86679D01*
X1818000Y88200D01*
X1818820Y89500D01*
X1820160Y90920D01*
X1823520Y95559D01*
X1826279Y100580D01*
X1828400Y105900D01*
X1829820Y111460D01*
X1830540Y117140D01*
X1830540Y122860D01*
X1829820Y128539D01*
X1828400Y134100D01*
X1826279Y139420D01*
X1823520Y144440D01*
X1820160Y149080D01*
X1816240Y153260D01*
X1811819Y156920D01*
X1806980Y159980D01*
X1801800Y162420D01*
X1796339Y164200D01*
X1790720Y165260D01*
X1785000Y165620D01*
X1779280Y165260D01*
X1773660Y164200D01*
X1768200Y162420D01*
X1763020Y159980D01*
X1758180Y156920D01*
X1753760Y153260D01*
X1749840Y149080D01*
X1746480Y144440D01*
X1743720Y139420D01*
X1741600Y134100D01*
X1740180Y128539D01*
X1739460Y122860D01*
X1739460Y117140D01*
X1740180Y111460D01*
X1741600Y105900D01*
X1743720Y100580D01*
X1746480Y95559D01*
X1749840Y90920D01*
X1751180Y89500D01*
X1752000Y88200D01*
X1752260Y86679D01*
X1751940Y85180D01*
X1751060Y83900D01*
X1749780Y83059D01*
X1748260Y82760D01*
X1571459Y82760D01*
X1569860Y83100D01*
X1568520Y84040D01*
X1567680Y85440D01*
X1566879Y87720D01*
X1565680Y89640D01*
X1564060Y91260D01*
X1562140Y92480D01*
X1559980Y93219D01*
X1557500Y93500D01*
X1522500Y93500D01*
X1520020Y93219D01*
X1517860Y92480D01*
X1515940Y91260D01*
X1514319Y89640D01*
X1513120Y87720D01*
X1512360Y85559D01*
X1512080Y83080D01*
X1512080Y62800D01*
X1511780Y61260D01*
X1510920Y59960D01*
X1457620Y6680D01*
X1456180Y5760D01*
X1454480Y5520D01*
X1452840Y6020D01*
X1451560Y7160D01*
X1450160Y9080D01*
X1446240Y13260D01*
X1441819Y16920D01*
X1436980Y19980D01*
X1431800Y22420D01*
X1426339Y24200D01*
X1420720Y25259D01*
X1415000Y25620D01*
X1409280Y25259D01*
X1403660Y24200D01*
X1398200Y22420D01*
X1396360Y21920D01*
X1394760Y22200D01*
X1393400Y23080D01*
X1375880Y40599D01*
X1373440Y42619D01*
X1370800Y44020D01*
X1367960Y44880D01*
X1364800Y45199D01*
X1153860Y45199D01*
X1152140Y45580D01*
X1150760Y46660D01*
X1149980Y48200D01*
X1149920Y49940D01*
X1150620Y51560D01*
X1153520Y55560D01*
X1156280Y60580D01*
X1158400Y65900D01*
X1159820Y71460D01*
X1160540Y77140D01*
X1160540Y82860D01*
X1159820Y88539D01*
X1158400Y94100D01*
X1156280Y99420D01*
X1153520Y104440D01*
X1150160Y109080D01*
X1146240Y113260D01*
X1141820Y116920D01*
X1136980Y119980D01*
X1131800Y122420D01*
X1126340Y124200D01*
X1120720Y125260D01*
X1115000Y125620D01*
X1109280Y125260D01*
X1103660Y124200D01*
X1098200Y122420D01*
X1093020Y119980D01*
X1088180Y116920D01*
X1083760Y113260D01*
X1079840Y109080D01*
X1076480Y104440D01*
X1073720Y99420D01*
X1071600Y94100D01*
X1070180Y88539D01*
X1069460Y82860D01*
X1069460Y77140D01*
X1070180Y71460D01*
X1071600Y65900D01*
X1073720Y60580D01*
X1076480Y55560D01*
X1079380Y51560D01*
X1080080Y49940D01*
X1080020Y48200D01*
X1079240Y46660D01*
X1077860Y45580D01*
X1076140Y45199D01*
X815200Y45199D01*
X812039Y44880D01*
X809200Y44020D01*
X806560Y42619D01*
X804120Y40599D01*
X772600Y9080D01*
X771300Y8220D01*
X769760Y7920D01*
X756919Y7920D01*
X754440Y7640D01*
X752280Y6879D01*
X750360Y5679D01*
X748740Y4060D01*
X747520Y2140D01*
X746780Y-20D01*
X746500Y-2500D01*
X746500Y-22799D01*
X746200Y-24320D01*
X745320Y-25620D01*
X719720Y-51220D01*
X718420Y-52100D01*
X716880Y-52400D01*
X691480Y-52400D01*
X689880Y-52060D01*
X688540Y-51120D01*
X687700Y-49720D01*
X686880Y-47400D01*
X685680Y-45460D01*
X684060Y-43860D01*
X683319Y-43380D01*
X682159Y-42280D01*
X681520Y-40800D01*
X681520Y-39200D01*
X682159Y-37720D01*
X683319Y-36620D01*
X684060Y-36140D01*
X685680Y-34540D01*
X686880Y-32599D01*
X687640Y-30460D01*
X687920Y-27960D01*
X687920Y-22820D01*
X671360Y-22820D01*
X671360Y-37600D01*
X671060Y-39140D01*
X670180Y-40439D01*
X668880Y-41300D01*
X667360Y-41600D01*
X652640Y-41600D01*
X651120Y-41300D01*
X649820Y-40439D01*
X648940Y-39140D01*
X648640Y-37600D01*
X648640Y-22820D01*
X632080Y-22820D01*
X632080Y-27960D01*
X632360Y-30460D01*
X633120Y-32599D01*
X634320Y-34540D01*
X635940Y-36140D01*
X636680Y-36620D01*
X637840Y-37720D01*
X638480Y-39200D01*
X638480Y-40800D01*
X637840Y-42280D01*
X636680Y-43380D01*
X635940Y-43860D01*
X634320Y-45460D01*
X633120Y-47400D01*
X632320Y-49680D01*
X631480Y-51080D01*
X630140Y-52020D01*
X628540Y-52360D01*
X596700Y-52360D01*
X595500Y-52180D01*
X593720Y-51160D01*
X590280Y-49560D01*
X587700Y-48860D01*
X586180Y-48060D01*
X585120Y-46680D01*
X584740Y-45000D01*
X585120Y-43300D01*
X586180Y-41940D01*
X587700Y-41140D01*
X590280Y-40439D01*
X593720Y-38840D01*
X596820Y-36660D01*
X599500Y-33980D01*
X601680Y-30880D01*
X603280Y-27440D01*
X604260Y-23780D01*
X604600Y-20000D01*
X604260Y-16220D01*
X603280Y-12560D01*
X601680Y-9120D01*
X599500Y-6020D01*
X596820Y-3320D01*
X593720Y-1160D01*
X590280Y440D01*
X586620Y1440D01*
X582660Y1780D01*
X570860Y1780D01*
X569320Y2080D01*
X568020Y2940D01*
X567160Y4240D01*
X566860Y5780D01*
X566860Y105640D01*
X566560Y108480D01*
X565740Y111000D01*
X564380Y113340D01*
X563020Y114940D01*
X547380Y130580D01*
X546500Y131880D01*
X546200Y133420D01*
X546200Y185780D01*
X545920Y188260D01*
X545160Y190420D01*
X543960Y192340D01*
X542340Y193960D01*
X540420Y195159D01*
X538260Y195920D01*
X535780Y196200D01*
X474219Y196200D01*
X471740Y195920D01*
X469580Y195159D01*
X467660Y193960D01*
X466040Y192340D01*
X464840Y190420D01*
X464080Y188260D01*
X463800Y185780D01*
X463800Y124220D01*
X464080Y121740D01*
X464840Y119580D01*
X466040Y117660D01*
X467660Y116039D01*
X469580Y114840D01*
X471740Y114080D01*
X474219Y113800D01*
X526580Y113800D01*
X528120Y113500D01*
X529420Y112620D01*
X540280Y101760D01*
X541140Y100460D01*
X541460Y98940D01*
X541460Y5780D01*
X541140Y4240D01*
X540280Y2940D01*
X538980Y2080D01*
X537460Y1780D01*
X525640Y1780D01*
X521700Y1440D01*
X518040Y440D01*
X514600Y-1160D01*
X511480Y-3320D01*
X508800Y-6020D01*
X506620Y-9120D01*
X505020Y-12560D01*
X504040Y-16220D01*
X503720Y-20000D01*
X504040Y-23780D01*
X505020Y-27440D01*
X506620Y-30880D01*
X508800Y-33980D01*
X511480Y-36660D01*
X514600Y-38840D01*
X518040Y-40439D01*
X520600Y-41140D01*
X522140Y-41940D01*
X523200Y-43300D01*
X523560Y-45000D01*
X523200Y-46680D01*
X522140Y-48060D01*
X520600Y-48860D01*
X518040Y-49560D01*
X514600Y-51160D01*
X511480Y-53320D01*
X508800Y-56020D01*
X506620Y-59120D01*
X505020Y-62560D01*
X504040Y-66220D01*
X503720Y-70000D01*
X504040Y-73780D01*
X505020Y-77440D01*
X506620Y-80879D01*
X508800Y-83980D01*
X511480Y-86660D01*
X514600Y-88840D01*
X518040Y-90440D01*
X520600Y-91140D01*
X522140Y-91940D01*
X523200Y-93300D01*
X523560Y-95000D01*
X523200Y-96679D01*
X522140Y-98059D01*
X520600Y-98859D01*
X518040Y-99560D01*
X514600Y-101160D01*
X511480Y-103320D01*
X508800Y-106020D01*
X506620Y-109120D01*
X505020Y-112560D01*
X504040Y-116220D01*
X503720Y-120000D01*
X504040Y-123780D01*
X505020Y-127440D01*
X506620Y-130879D01*
X508800Y-133980D01*
X511480Y-136660D01*
X514600Y-138840D01*
X518040Y-140440D01*
X520600Y-141140D01*
X522140Y-141940D01*
X523200Y-143300D01*
X523560Y-145000D01*
X523200Y-146680D01*
X522140Y-148060D01*
X520600Y-148860D01*
X518040Y-149560D01*
X514600Y-151160D01*
X511480Y-153320D01*
X508800Y-156020D01*
X506620Y-159120D01*
X505020Y-162560D01*
X504040Y-166220D01*
X503720Y-170000D01*
X504040Y-173780D01*
X505020Y-177440D01*
X506620Y-180880D01*
X508800Y-183980D01*
X511480Y-186660D01*
X514600Y-188840D01*
X518040Y-190440D01*
X521700Y-191420D01*
X525640Y-191780D01*
X582660Y-191780D01*
X586620Y-191420D01*
X590280Y-190440D01*
X593720Y-188840D01*
X596820Y-186660D01*
X599500Y-183980D01*
X601680Y-180880D01*
X603280Y-177440D01*
X604260Y-173780D01*
X604600Y-170000D01*
X604260Y-166220D01*
X603280Y-162560D01*
X601680Y-159120D01*
X599500Y-156020D01*
X596820Y-153320D01*
X593720Y-151160D01*
X590280Y-149560D01*
X587700Y-148860D01*
X586180Y-148060D01*
X585120Y-146680D01*
X584740Y-145000D01*
X585120Y-143300D01*
X586180Y-141940D01*
X587700Y-141140D01*
X590280Y-140440D01*
X593720Y-138840D01*
X596820Y-136660D01*
X599500Y-133980D01*
X601680Y-130879D01*
X603280Y-127440D01*
X604260Y-123780D01*
X604600Y-120000D01*
X604260Y-116220D01*
X603280Y-112560D01*
X601680Y-109120D01*
X599500Y-106020D01*
X596820Y-103320D01*
X593720Y-101160D01*
X590280Y-99560D01*
X587700Y-98859D01*
X586180Y-98059D01*
X585120Y-96679D01*
X584740Y-95000D01*
X585120Y-93300D01*
X586180Y-91940D01*
X587700Y-91140D01*
X590280Y-90440D01*
X593720Y-88840D01*
X596820Y-86660D01*
X599560Y-83940D01*
X600860Y-83059D01*
X602380Y-82760D01*
X628540Y-82760D01*
X630140Y-83100D01*
X631480Y-84040D01*
X632320Y-85440D01*
X633120Y-87720D01*
X634320Y-89640D01*
X635940Y-91260D01*
X637860Y-92480D01*
X640020Y-93219D01*
X642500Y-93500D01*
X677500Y-93500D01*
X679980Y-93219D01*
X682140Y-92480D01*
X684060Y-91260D01*
X685680Y-89640D01*
X686880Y-87720D01*
X687660Y-85480D01*
X688520Y-84080D01*
X689840Y-83140D01*
X691440Y-82800D01*
X724640Y-82800D01*
X727800Y-82480D01*
X730639Y-81620D01*
X733280Y-80220D01*
X735720Y-78200D01*
X764840Y-49080D01*
X766140Y-48220D01*
X767680Y-47920D01*
X787960Y-47920D01*
X790460Y-47640D01*
X792600Y-46880D01*
X794539Y-45679D01*
X796140Y-44060D01*
X796620Y-43320D01*
X797720Y-42160D01*
X799200Y-41520D01*
X800800Y-41520D01*
X802280Y-42160D01*
X803379Y-43320D01*
X803860Y-44060D01*
X805460Y-45679D01*
X807400Y-46880D01*
X809539Y-47640D01*
X812039Y-47920D01*
X843080Y-47920D01*
X845560Y-47640D01*
X847720Y-46880D01*
X849640Y-45679D01*
X851260Y-44060D01*
X852480Y-42140D01*
X853220Y-39980D01*
X853500Y-37500D01*
X853500Y-36700D01*
X853800Y-35160D01*
X854680Y-33880D01*
X855980Y-33000D01*
X857500Y-32700D01*
X905260Y-32700D01*
X906700Y-32960D01*
X907940Y-33740D01*
X908840Y-34900D01*
X909240Y-36300D01*
X909560Y-39300D01*
X910300Y-41420D01*
X911520Y-43360D01*
X913120Y-44960D01*
X915060Y-46180D01*
X917200Y-46920D01*
X919700Y-47200D01*
X920740Y-47200D01*
X922280Y-47520D01*
X923560Y-48380D01*
X924440Y-49680D01*
X924740Y-51200D01*
X924740Y-83200D01*
X924479Y-84620D01*
X923720Y-85860D01*
X922580Y-86740D01*
X921180Y-87160D01*
X919440Y-87360D01*
X917280Y-88120D01*
X915360Y-89320D01*
X913740Y-90940D01*
X912520Y-92860D01*
X911780Y-95020D01*
X911500Y-97500D01*
X911500Y-132500D01*
X911780Y-134980D01*
X912520Y-137140D01*
X913740Y-139060D01*
X915360Y-140680D01*
X917280Y-141880D01*
X919440Y-142640D01*
X921919Y-142920D01*
X952960Y-142920D01*
X955460Y-142640D01*
X957600Y-141880D01*
X959539Y-140680D01*
X961140Y-139060D01*
X961620Y-138320D01*
X962720Y-137160D01*
X964200Y-136520D01*
X965800Y-136520D01*
X967280Y-137160D01*
X968379Y-138320D01*
X968860Y-139060D01*
X970460Y-140680D01*
X972400Y-141880D01*
X974539Y-142640D01*
X977039Y-142920D01*
X1008080Y-142920D01*
X1010560Y-142640D01*
X1012720Y-141880D01*
X1014640Y-140680D01*
X1016260Y-139060D01*
X1017480Y-137140D01*
X1018220Y-134980D01*
X1018500Y-132500D01*
X1018500Y-131700D01*
X1018800Y-130160D01*
X1019680Y-128880D01*
X1020980Y-128000D01*
X1022500Y-127700D01*
X1066860Y-127700D01*
X1068560Y-128080D01*
X1069940Y-129160D01*
X1070740Y-130700D01*
X1071600Y-134100D01*
X1073720Y-139420D01*
X1076480Y-144440D01*
X1077040Y-145220D01*
X1077660Y-146500D01*
X1077800Y-147900D01*
X1077440Y-149260D01*
X1076640Y-150400D01*
X1061960Y-165080D01*
X1060780Y-165880D01*
X1059400Y-166240D01*
X1057980Y-166080D01*
X1056720Y-165440D01*
X1055740Y-164380D01*
X1054960Y-163120D01*
X1053360Y-161520D01*
X1051420Y-160300D01*
X1049280Y-159540D01*
X1046780Y-159260D01*
X1013220Y-159260D01*
X1010720Y-159540D01*
X1008580Y-160300D01*
X1006640Y-161520D01*
X1005040Y-163120D01*
X1003820Y-165060D01*
X1003080Y-167200D01*
X1002800Y-169700D01*
X1002800Y-198240D01*
X1002480Y-199780D01*
X1001620Y-201060D01*
X1000320Y-201940D01*
X998800Y-202240D01*
X781460Y-202240D01*
X779860Y-201900D01*
X778520Y-200960D01*
X777680Y-199560D01*
X776880Y-197280D01*
X775680Y-195360D01*
X774060Y-193740D01*
X772140Y-192520D01*
X769980Y-191780D01*
X767500Y-191500D01*
X732500Y-191500D01*
X730020Y-191780D01*
X727860Y-192520D01*
X725939Y-193740D01*
X724320Y-195360D01*
X723120Y-197280D01*
X722340Y-199520D01*
X721480Y-200920D01*
X720160Y-201860D01*
X718560Y-202200D01*
X577800Y-202200D01*
X574640Y-202520D01*
X571800Y-203380D01*
X569160Y-204780D01*
X566720Y-206800D01*
X537480Y-236020D01*
X536180Y-236900D01*
X534640Y-237200D01*
X371440Y-237200D01*
X369840Y-236860D01*
X368519Y-235920D01*
X367660Y-234520D01*
X366880Y-232280D01*
X365680Y-230360D01*
X364060Y-228740D01*
X362140Y-227520D01*
X359980Y-226780D01*
X358760Y-226640D01*
X357360Y-226220D01*
X356220Y-225320D01*
X355460Y-224100D01*
X355200Y-222659D01*
X355200Y-195780D01*
X355500Y-194240D01*
X356380Y-192940D01*
X357660Y-192079D01*
X359200Y-191780D01*
X364360Y-191780D01*
X368300Y-191420D01*
X371960Y-190440D01*
X375400Y-188840D01*
X378519Y-186660D01*
X381200Y-183980D01*
X383380Y-180880D01*
X384980Y-177440D01*
X385959Y-173780D01*
X386280Y-170000D01*
X385959Y-166220D01*
X384980Y-162560D01*
X383380Y-159120D01*
X381200Y-156020D01*
X378519Y-153320D01*
X375400Y-151160D01*
X371960Y-149560D01*
X369400Y-148860D01*
X367860Y-148060D01*
X366800Y-146680D01*
X366440Y-145000D01*
X366800Y-143300D01*
X367860Y-141940D01*
X369400Y-141140D01*
X371960Y-140440D01*
X375400Y-138840D01*
X378519Y-136660D01*
X381200Y-133980D01*
X383380Y-130879D01*
X384980Y-127440D01*
X385959Y-123780D01*
X386280Y-120000D01*
X385959Y-116220D01*
X384980Y-112560D01*
X383380Y-109120D01*
X381200Y-106020D01*
X378519Y-103320D01*
X375400Y-101160D01*
X371960Y-99560D01*
X369400Y-98859D01*
X367860Y-98059D01*
X366800Y-96679D01*
X366440Y-95000D01*
X366800Y-93300D01*
X367860Y-91940D01*
X369400Y-91140D01*
X371960Y-90440D01*
X375400Y-88840D01*
X378519Y-86660D01*
X381200Y-83980D01*
X383380Y-80879D01*
X384980Y-77440D01*
X385959Y-73780D01*
X386280Y-70000D01*
X385959Y-66220D01*
X384980Y-62560D01*
X383380Y-59120D01*
X381200Y-56020D01*
X378519Y-53320D01*
X375400Y-51160D01*
X371960Y-49560D01*
X369400Y-48860D01*
X367860Y-48060D01*
X366800Y-46680D01*
X366440Y-45000D01*
X366800Y-43300D01*
X367860Y-41940D01*
X369400Y-41140D01*
X371960Y-40439D01*
X375400Y-38840D01*
X378519Y-36660D01*
X381200Y-33980D01*
X383380Y-30880D01*
X384980Y-27440D01*
X385959Y-23780D01*
X386280Y-20000D01*
X385959Y-16220D01*
X384980Y-12560D01*
X383380Y-9120D01*
X381200Y-6020D01*
X378519Y-3320D01*
X375400Y-1160D01*
X371960Y440D01*
X368300Y1440D01*
X364360Y1780D01*
X352560Y1780D01*
X351019Y2080D01*
X349720Y2940D01*
X348860Y4240D01*
X348560Y5780D01*
X348560Y98940D01*
X348860Y100460D01*
X349720Y101760D01*
X360580Y112620D01*
X361880Y113500D01*
X363420Y113800D01*
X415780Y113800D01*
X418260Y114080D01*
X420420Y114840D01*
X422340Y116039D01*
X423960Y117660D01*
X425160Y119580D01*
X425920Y121740D01*
X426200Y124220D01*
X426200Y185780D01*
X425920Y188260D01*
X425160Y190420D01*
X423960Y192340D01*
X422340Y193960D01*
X420420Y195159D01*
X418260Y195920D01*
X415780Y196200D01*
X354219Y196200D01*
X351740Y195920D01*
X349580Y195159D01*
X347660Y193960D01*
X346040Y192340D01*
X344840Y190420D01*
X344080Y188260D01*
X343800Y185780D01*
X343800Y133420D01*
X343500Y131880D01*
X342620Y130580D01*
X327020Y114980D01*
X325220Y112760D01*
X324020Y110399D01*
X323320Y107780D01*
X323160Y105700D01*
X323160Y5780D01*
X322840Y4240D01*
X321980Y2940D01*
X320680Y2080D01*
X319160Y1780D01*
X307340Y1780D01*
X303380Y1440D01*
X299720Y440D01*
X296280Y-1160D01*
X293180Y-3320D01*
X290500Y-6020D01*
X288320Y-9120D01*
X286720Y-12560D01*
X285740Y-16220D01*
X285400Y-20000D01*
X285740Y-23780D01*
X286720Y-27440D01*
X288320Y-30880D01*
X290500Y-33980D01*
X293180Y-36660D01*
X296280Y-38840D01*
X299720Y-40439D01*
X302300Y-41140D01*
X303820Y-41940D01*
X304880Y-43300D01*
X305260Y-45000D01*
X304880Y-46680D01*
X303820Y-48060D01*
X302300Y-48860D01*
X299720Y-49560D01*
X296280Y-51160D01*
X293180Y-53320D01*
X290380Y-56120D01*
X289080Y-57000D01*
X287560Y-57300D01*
X241920Y-57300D01*
X240380Y-57000D01*
X239080Y-56120D01*
X74120Y108840D01*
X71900Y110640D01*
X69540Y111840D01*
X66940Y112540D01*
X64840Y112700D01*
X-404799Y112700D01*
X-406340Y113000D01*
X-407620Y113880D01*
X-408500Y115160D01*
X-408800Y116700D01*
X-408800Y130780D01*
X-409080Y133260D01*
X-409840Y135420D01*
X-411040Y137340D01*
X-412660Y138960D01*
X-414580Y140160D01*
X-416740Y140920D01*
X-419219Y141200D01*
X-480780Y141200D01*
X-483260Y140920D01*
X-485420Y140160D01*
X-487340Y138960D01*
X-488960Y137340D01*
X-490160Y135420D01*
X-490920Y133260D01*
X-491200Y130780D01*
X-491200Y78420D01*
X-491500Y76880D01*
X-492380Y75580D01*
X-514720Y53240D01*
X-516019Y52380D01*
X-517540Y52080D01*
X-608180Y52080D01*
X-609700Y52380D01*
X-611000Y53259D01*
X-612940Y55199D01*
X-613700Y55679D01*
X-614860Y56780D01*
X-615480Y58259D01*
X-615480Y59860D01*
X-614860Y61340D01*
X-613700Y62440D01*
X-612940Y62920D01*
X-611340Y64520D01*
X-610120Y66460D01*
X-609360Y68600D01*
X-609080Y71100D01*
X-609080Y72300D01*
X-631560Y72300D01*
X-631560Y61440D01*
X-631860Y59920D01*
X-632720Y58620D01*
X-634020Y57760D01*
X-635560Y57440D01*
X-662080Y57440D01*
X-663620Y57760D01*
X-664900Y58620D01*
X-665780Y59920D01*
X-666080Y61440D01*
X-666080Y72300D01*
X-688540Y72300D01*
X-688540Y71100D01*
X-688259Y68600D01*
X-687520Y66460D01*
X-686300Y64520D01*
X-684680Y62920D01*
X-683940Y62440D01*
X-682780Y61340D01*
X-682159Y59860D01*
X-682159Y58259D01*
X-682780Y56780D01*
X-683940Y55679D01*
X-684680Y55199D01*
X-686300Y53600D01*
X-687520Y51660D01*
X-688259Y49520D01*
X-688540Y47020D01*
X-688540Y31720D01*
X-688259Y29240D01*
X-687520Y27080D01*
X-686300Y25160D01*
X-684680Y23540D01*
X-683940Y23080D01*
X-682780Y21960D01*
X-682159Y20500D01*
X-682159Y18880D01*
X-682780Y17420D01*
X-683940Y16299D01*
X-684680Y15840D01*
X-686300Y14220D01*
X-687520Y12300D01*
X-688259Y10140D01*
X-688540Y7660D01*
X-688540Y-7640D01*
X-688259Y-10140D01*
X-687520Y-12280D01*
X-686300Y-14220D01*
X-684680Y-15820D01*
X-683940Y-16299D01*
X-682780Y-17400D01*
X-682159Y-18880D01*
X-682159Y-20480D01*
X-682780Y-21960D01*
X-683940Y-23060D01*
X-684680Y-23540D01*
X-686300Y-25139D01*
X-687520Y-27080D01*
X-688259Y-29220D01*
X-688540Y-31720D01*
X-688540Y-47020D01*
X-688259Y-49500D01*
X-687520Y-51660D01*
X-686300Y-53580D01*
X-684680Y-55199D01*
X-683940Y-55660D01*
X-682780Y-56780D01*
X-682159Y-58240D01*
X-682159Y-59860D01*
X-682780Y-61320D01*
X-683940Y-62440D01*
X-684680Y-62900D01*
X-686300Y-64520D01*
X-687520Y-66440D01*
X-688259Y-68600D01*
X-688540Y-71080D01*
X-688540Y-86380D01*
X-688259Y-88880D01*
X-687520Y-91020D01*
X-686300Y-92960D01*
X-684680Y-94560D01*
X-683940Y-95040D01*
X-682780Y-96140D01*
X-682159Y-97620D01*
X-682159Y-99220D01*
X-682780Y-100700D01*
X-683940Y-101800D01*
X-684680Y-102280D01*
X-686300Y-103880D01*
X-687520Y-105820D01*
X-688259Y-107960D01*
X-688540Y-110460D01*
X-688540Y-125760D01*
X-688259Y-128240D01*
X-687520Y-130399D01*
X-686300Y-132320D01*
X-684680Y-133940D01*
X-683940Y-134400D01*
X-682780Y-135520D01*
X-682159Y-136980D01*
X-682159Y-138600D01*
X-682780Y-140060D01*
X-683940Y-141180D01*
X-684680Y-141640D01*
X-686300Y-143260D01*
X-687520Y-145180D01*
X-688259Y-147340D01*
X-688540Y-149820D01*
X-688540Y-165120D01*
X-688259Y-167620D01*
X-687520Y-169760D01*
X-686300Y-171700D01*
X-684680Y-173299D01*
X-683940Y-173780D01*
X-682780Y-174880D01*
X-682159Y-176360D01*
X-682159Y-177960D01*
X-682780Y-179440D01*
X-683940Y-180539D01*
X-684680Y-181020D01*
X-686300Y-182620D01*
X-687520Y-184560D01*
X-688259Y-186700D01*
X-688540Y-189200D01*
X-688540Y-204500D01*
X-688259Y-206980D01*
X-687520Y-209140D01*
X-686300Y-211060D01*
X-684680Y-212680D01*
X-683940Y-213140D01*
X-682780Y-214259D01*
X-682159Y-215720D01*
X-682159Y-217340D01*
X-682780Y-218800D01*
X-683940Y-219920D01*
X-684680Y-220380D01*
X-686300Y-222000D01*
X-687520Y-223920D01*
X-688259Y-226080D01*
X-688540Y-228560D01*
X-688540Y-243860D01*
X-688259Y-246360D01*
X-687520Y-248500D01*
X-686300Y-250440D01*
X-684680Y-252040D01*
X-683940Y-252520D01*
X-682780Y-253619D01*
X-682159Y-255100D01*
X-682159Y-256700D01*
X-682780Y-258180D01*
X-683940Y-259280D01*
X-684680Y-259760D01*
X-686300Y-261360D01*
X-687520Y-263300D01*
X-688259Y-265440D01*
X-688540Y-267940D01*
X-688540Y-283240D01*
X-688259Y-285720D01*
X-687520Y-287880D01*
X-686300Y-289800D01*
X-684680Y-291420D01*
X-682760Y-292620D01*
X-680600Y-293380D01*
X-678120Y-293660D01*
X-650360Y-293660D01*
X-648820Y-293960D01*
X-647520Y-294840D01*
X-543520Y-398840D01*
X-541300Y-400640D01*
X-538940Y-401840D01*
X-536340Y-402540D01*
G37*
G36*
X2382500Y-348500D02*
G01*
X2388640Y-348500D01*
X2388640Y-332920D01*
X2372080Y-332920D01*
X2372080Y-338080D01*
X2372360Y-340560D01*
X2373120Y-342720D01*
X2374320Y-344640D01*
X2375940Y-346260D01*
X2377860Y-347480D01*
X2380020Y-348220D01*
G37*
G36*
X2411360Y-348500D02*
G01*
X2417500Y-348500D01*
X2419980Y-348220D01*
X2422140Y-347480D01*
X2424060Y-346260D01*
X2425680Y-344640D01*
X2426880Y-342720D01*
X2427640Y-340560D01*
X2427920Y-338080D01*
X2427920Y-332920D01*
X2411360Y-332920D01*
G37*
G36*
X1716920Y-337920D02*
G01*
X1722080Y-337920D01*
X1722080Y-321360D01*
X1706500Y-321360D01*
X1706500Y-327500D01*
X1706780Y-329980D01*
X1707520Y-332140D01*
X1708740Y-334060D01*
X1710360Y-335680D01*
X1712280Y-336880D01*
X1714440Y-337640D01*
G37*
G36*
X322500Y-333500D02*
G01*
X328640Y-333500D01*
X328640Y-317920D01*
X312080Y-317920D01*
X312080Y-323080D01*
X312360Y-325560D01*
X313120Y-327720D01*
X314320Y-329640D01*
X315940Y-331260D01*
X317860Y-332480D01*
X320020Y-333220D01*
G37*
G36*
X351360Y-333500D02*
G01*
X357500Y-333500D01*
X359980Y-333220D01*
X362140Y-332480D01*
X364060Y-331260D01*
X365680Y-329640D01*
X366880Y-327720D01*
X367640Y-325560D01*
X367920Y-323080D01*
X367920Y-317920D01*
X351360Y-317920D01*
G37*
G36*
X732500Y-298500D02*
G01*
X738640Y-298500D01*
X738640Y-282920D01*
X722080Y-282920D01*
X722080Y-288080D01*
X722360Y-290560D01*
X723120Y-292720D01*
X724320Y-294640D01*
X725939Y-296260D01*
X727860Y-297480D01*
X730020Y-298220D01*
G37*
G36*
X761360Y-298500D02*
G01*
X767500Y-298500D01*
X769980Y-298220D01*
X772140Y-297480D01*
X774060Y-296260D01*
X775680Y-294640D01*
X776880Y-292720D01*
X777640Y-290560D01*
X777920Y-288080D01*
X777920Y-282920D01*
X761360Y-282920D01*
G37*
G36*
X2604700Y-292200D02*
G01*
X2609900Y-292200D01*
X2609900Y-276000D01*
X2594260Y-276000D01*
X2594260Y-281780D01*
X2594540Y-284280D01*
X2595299Y-286420D01*
X2596520Y-288360D01*
X2598120Y-289960D01*
X2600059Y-291180D01*
X2602200Y-291920D01*
G37*
G36*
X1041000Y-270740D02*
G01*
X1046780Y-270740D01*
X1049280Y-270460D01*
X1051420Y-269700D01*
X1053360Y-268480D01*
X1054960Y-266880D01*
X1056180Y-264940D01*
X1056920Y-262800D01*
X1057200Y-260300D01*
X1057200Y-255100D01*
X1041000Y-255100D01*
G37*
G36*
X1013220Y-270740D02*
G01*
X1019000Y-270740D01*
X1019000Y-255100D01*
X1002800Y-255100D01*
X1002800Y-260300D01*
X1003080Y-262800D01*
X1003820Y-264940D01*
X1005040Y-266880D01*
X1006640Y-268480D01*
X1008580Y-269700D01*
X1010720Y-270460D01*
G37*
G36*
X2594260Y-254000D02*
G01*
X2609900Y-254000D01*
X2609900Y-237800D01*
X2604700Y-237800D01*
X2602200Y-238080D01*
X2600059Y-238820D01*
X2598120Y-240040D01*
X2596520Y-241640D01*
X2595299Y-243580D01*
X2594540Y-245720D01*
X2594260Y-248220D01*
G37*
G36*
X632080Y-2080D02*
G01*
X648640Y-2080D01*
X648640Y13500D01*
X642500Y13500D01*
X640020Y13220D01*
X637860Y12480D01*
X635940Y11259D01*
X634320Y9640D01*
X633120Y7720D01*
X632360Y5560D01*
X632080Y3080D01*
G37*
G36*
X671360Y-2080D02*
G01*
X687920Y-2080D01*
X687920Y3080D01*
X687640Y5560D01*
X686880Y7720D01*
X685680Y9640D01*
X684060Y11259D01*
X682140Y12480D01*
X679980Y13220D01*
X677500Y13500D01*
X671360Y13500D01*
G37*
G36*
X1415000Y34380D02*
G01*
X1420720Y34740D01*
X1426339Y35800D01*
X1431800Y37580D01*
X1436980Y40020D01*
X1441819Y43080D01*
X1446240Y46740D01*
X1450160Y50920D01*
X1453520Y55560D01*
X1456279Y60580D01*
X1458400Y65900D01*
X1459820Y71460D01*
X1460540Y77140D01*
X1460540Y82860D01*
X1459820Y88539D01*
X1458400Y94100D01*
X1456279Y99420D01*
X1453520Y104440D01*
X1450160Y109080D01*
X1446240Y113260D01*
X1441819Y116920D01*
X1436980Y119980D01*
X1431800Y122420D01*
X1426339Y124200D01*
X1420720Y125260D01*
X1415000Y125620D01*
X1409280Y125260D01*
X1403660Y124200D01*
X1398200Y122420D01*
X1393020Y119980D01*
X1388180Y116920D01*
X1383760Y113260D01*
X1379840Y109080D01*
X1376480Y104440D01*
X1373720Y99420D01*
X1371600Y94100D01*
X1370180Y88539D01*
X1369460Y82860D01*
X1369460Y77140D01*
X1370180Y71460D01*
X1371600Y65900D01*
X1373720Y60580D01*
X1376480Y55560D01*
X1379840Y50920D01*
X1383760Y46740D01*
X1388180Y43080D01*
X1393020Y40020D01*
X1398200Y37580D01*
X1403660Y35800D01*
X1409280Y34740D01*
G37*
G36*
X2085000Y74380D02*
G01*
X2090720Y74740D01*
X2096339Y75800D01*
X2101800Y77580D01*
X2106980Y80020D01*
X2111820Y83080D01*
X2116240Y86740D01*
X2120160Y90920D01*
X2123520Y95559D01*
X2126280Y100580D01*
X2128400Y105900D01*
X2129820Y111460D01*
X2130540Y117140D01*
X2130540Y122860D01*
X2129820Y128539D01*
X2128400Y134100D01*
X2126280Y139420D01*
X2123520Y144440D01*
X2120160Y149080D01*
X2116240Y153260D01*
X2111820Y156920D01*
X2106980Y159980D01*
X2101800Y162420D01*
X2096339Y164200D01*
X2090720Y165260D01*
X2085000Y165620D01*
X2079280Y165260D01*
X2073660Y164200D01*
X2068200Y162420D01*
X2063020Y159980D01*
X2058180Y156920D01*
X2053760Y153260D01*
X2049840Y149080D01*
X2046480Y144440D01*
X2043720Y139420D01*
X2041600Y134100D01*
X2040180Y128539D01*
X2039460Y122860D01*
X2039460Y117140D01*
X2040180Y111460D01*
X2041600Y105900D01*
X2043720Y100580D01*
X2046480Y95559D01*
X2049840Y90920D01*
X2053760Y86740D01*
X2058180Y83080D01*
X2063020Y80020D01*
X2068200Y77580D01*
X2073660Y75800D01*
X2079280Y74740D01*
G37*
G36*
X-688540Y85180D02*
G01*
X-666080Y85180D01*
X-666080Y96039D01*
X-665780Y97579D01*
X-664900Y98859D01*
X-663620Y99740D01*
X-662080Y100040D01*
X-635560Y100040D01*
X-634020Y99740D01*
X-632720Y98859D01*
X-631860Y97579D01*
X-631560Y96039D01*
X-631560Y85180D01*
X-609080Y85180D01*
X-609080Y86400D01*
X-609360Y88880D01*
X-610120Y91039D01*
X-611340Y92960D01*
X-612940Y94580D01*
X-613700Y95040D01*
X-614860Y96160D01*
X-615480Y97620D01*
X-615480Y99240D01*
X-614860Y100700D01*
X-613700Y101820D01*
X-612940Y102280D01*
X-611340Y103900D01*
X-610120Y105820D01*
X-609360Y107980D01*
X-609080Y110460D01*
X-609080Y125760D01*
X-609360Y128260D01*
X-610120Y130399D01*
X-611340Y132340D01*
X-612940Y133940D01*
X-613700Y134420D01*
X-614860Y135520D01*
X-615480Y137000D01*
X-615480Y138600D01*
X-614860Y140080D01*
X-613700Y141180D01*
X-612940Y141660D01*
X-611340Y143260D01*
X-610120Y145200D01*
X-609360Y147340D01*
X-609080Y149840D01*
X-609080Y165140D01*
X-609360Y167620D01*
X-610120Y169780D01*
X-611340Y171700D01*
X-612940Y173320D01*
X-613700Y173780D01*
X-614860Y174899D01*
X-615480Y176360D01*
X-615480Y177979D01*
X-614860Y179440D01*
X-613700Y180560D01*
X-612940Y181020D01*
X-611340Y182640D01*
X-610120Y184560D01*
X-609360Y186720D01*
X-609080Y189200D01*
X-609080Y204500D01*
X-609360Y207000D01*
X-610120Y209140D01*
X-611340Y211080D01*
X-612940Y212680D01*
X-613700Y213160D01*
X-614860Y214259D01*
X-615480Y215740D01*
X-615480Y217340D01*
X-614860Y218820D01*
X-613700Y219920D01*
X-612940Y220400D01*
X-611340Y222000D01*
X-610120Y223939D01*
X-609360Y226080D01*
X-609080Y228580D01*
X-609080Y243880D01*
X-609360Y246360D01*
X-610120Y248520D01*
X-611340Y250440D01*
X-612940Y252060D01*
X-613700Y252520D01*
X-614860Y253640D01*
X-615480Y255100D01*
X-615480Y256720D01*
X-614860Y258180D01*
X-613700Y259300D01*
X-612940Y259760D01*
X-611340Y261380D01*
X-610120Y263300D01*
X-609360Y265460D01*
X-609080Y267940D01*
X-609080Y283240D01*
X-609360Y285740D01*
X-610120Y287880D01*
X-611340Y289820D01*
X-612940Y291420D01*
X-614880Y292640D01*
X-617020Y293380D01*
X-619520Y293660D01*
X-678120Y293660D01*
X-680600Y293380D01*
X-682760Y292640D01*
X-684680Y291420D01*
X-686300Y289820D01*
X-687520Y287880D01*
X-688259Y285740D01*
X-688540Y283240D01*
X-688540Y267940D01*
X-688259Y265460D01*
X-687520Y263300D01*
X-686300Y261380D01*
X-684680Y259760D01*
X-683940Y259300D01*
X-682780Y258180D01*
X-682159Y256720D01*
X-682159Y255100D01*
X-682780Y253640D01*
X-683940Y252520D01*
X-684680Y252060D01*
X-686300Y250440D01*
X-687520Y248520D01*
X-688259Y246360D01*
X-688540Y243880D01*
X-688540Y228580D01*
X-688259Y226080D01*
X-687520Y223939D01*
X-686300Y222000D01*
X-684680Y220400D01*
X-683940Y219920D01*
X-682780Y218820D01*
X-682159Y217340D01*
X-682159Y215740D01*
X-682780Y214259D01*
X-683940Y213160D01*
X-684680Y212680D01*
X-686300Y211080D01*
X-687520Y209140D01*
X-688259Y207000D01*
X-688540Y204500D01*
X-688540Y189200D01*
X-688259Y186720D01*
X-687520Y184560D01*
X-686300Y182640D01*
X-684680Y181020D01*
X-683940Y180560D01*
X-682780Y179440D01*
X-682159Y177979D01*
X-682159Y176360D01*
X-682780Y174899D01*
X-683940Y173780D01*
X-684680Y173320D01*
X-686300Y171700D01*
X-687520Y169780D01*
X-688259Y167620D01*
X-688540Y165140D01*
X-688540Y149840D01*
X-688259Y147340D01*
X-687520Y145200D01*
X-686300Y143260D01*
X-684680Y141660D01*
X-683940Y141180D01*
X-682780Y140080D01*
X-682159Y138600D01*
X-682159Y137000D01*
X-682780Y135520D01*
X-683940Y134420D01*
X-684680Y133940D01*
X-686300Y132340D01*
X-687520Y130399D01*
X-688259Y128260D01*
X-688540Y125760D01*
X-688540Y110460D01*
X-688259Y107980D01*
X-687520Y105820D01*
X-686300Y103900D01*
X-684680Y102280D01*
X-683940Y101820D01*
X-682780Y100700D01*
X-682159Y99240D01*
X-682159Y97620D01*
X-682780Y96160D01*
X-683940Y95040D01*
X-684680Y94580D01*
X-686300Y92960D01*
X-687520Y91039D01*
X-688259Y88880D01*
X-688540Y86400D01*
G37*
G36*
X2191920Y92080D02*
G01*
X2197080Y92080D01*
X2197080Y108640D01*
X2181500Y108640D01*
X2181500Y102500D01*
X2181780Y100020D01*
X2182520Y97860D01*
X2183740Y95940D01*
X2185360Y94320D01*
X2187280Y93120D01*
X2189440Y92360D01*
G37*
G36*
X2181500Y131360D02*
G01*
X2197080Y131360D01*
X2197080Y147920D01*
X2191920Y147920D01*
X2189440Y147640D01*
X2187280Y146880D01*
X2185360Y145680D01*
X2183740Y144060D01*
X2182520Y142140D01*
X2181780Y139980D01*
X2181500Y137500D01*
G37*
G36*
X-780480Y312640D02*
G01*
X-721880Y312640D01*
X-719380Y312920D01*
X-717240Y313680D01*
X-715300Y314880D01*
X-713700Y316500D01*
X-712480Y318420D01*
X-711720Y320580D01*
X-711440Y323060D01*
X-711440Y401360D01*
X-711720Y403840D01*
X-712480Y406000D01*
X-713700Y407920D01*
X-715300Y409540D01*
X-717240Y410740D01*
X-719380Y411500D01*
X-721880Y411780D01*
X-780480Y411780D01*
X-782960Y411500D01*
X-785120Y410740D01*
X-787039Y409540D01*
X-788660Y407920D01*
X-789880Y406000D01*
X-790620Y403840D01*
X-790900Y401360D01*
X-790900Y323060D01*
X-790620Y320580D01*
X-789880Y318420D01*
X-788660Y316500D01*
X-787039Y314880D01*
X-785120Y313680D01*
X-782960Y312920D01*
G37*

%LPD*%
G36*
X1906920Y-282300D02*
G01*
X1905380Y-282000D01*
X1904079Y-281120D01*
X1827020Y-204060D01*
X1826160Y-202780D01*
X1825860Y-201280D01*
X1826140Y-199760D01*
X1828400Y-194100D01*
X1829820Y-188540D01*
X1830540Y-182860D01*
X1830540Y-177140D01*
X1829820Y-171460D01*
X1828400Y-165900D01*
X1826279Y-160580D01*
X1823520Y-155560D01*
X1820160Y-150920D01*
X1816240Y-146740D01*
X1811819Y-143080D01*
X1806980Y-140020D01*
X1801800Y-137580D01*
X1796339Y-135800D01*
X1790720Y-134740D01*
X1785000Y-134380D01*
X1779280Y-134740D01*
X1773660Y-135800D01*
X1768200Y-137580D01*
X1763020Y-140020D01*
X1758180Y-143080D01*
X1753760Y-146740D01*
X1749840Y-150920D01*
X1746480Y-155560D01*
X1743720Y-160580D01*
X1741600Y-165900D01*
X1740180Y-171460D01*
X1739460Y-177140D01*
X1739460Y-182860D01*
X1740180Y-188540D01*
X1741600Y-194100D01*
X1742860Y-197240D01*
X1743140Y-198760D01*
X1742820Y-200260D01*
X1741960Y-201540D01*
X1677320Y-266180D01*
X1676020Y-267060D01*
X1674480Y-267360D01*
X1571459Y-267360D01*
X1569860Y-267020D01*
X1568520Y-266080D01*
X1567680Y-264680D01*
X1566879Y-262400D01*
X1565680Y-260460D01*
X1564060Y-258860D01*
X1563320Y-258380D01*
X1562160Y-257280D01*
X1561519Y-255799D01*
X1561519Y-254200D01*
X1562160Y-252719D01*
X1563320Y-251620D01*
X1564060Y-251140D01*
X1565680Y-249540D01*
X1566879Y-247600D01*
X1567640Y-245460D01*
X1567920Y-242960D01*
X1567920Y-237820D01*
X1551360Y-237820D01*
X1551360Y-252600D01*
X1551060Y-254140D01*
X1550180Y-255440D01*
X1548880Y-256300D01*
X1547360Y-256600D01*
X1532640Y-256600D01*
X1531120Y-256300D01*
X1529820Y-255440D01*
X1528940Y-254140D01*
X1528640Y-252600D01*
X1528640Y-237820D01*
X1512080Y-237820D01*
X1512080Y-242960D01*
X1512360Y-245460D01*
X1513120Y-247600D01*
X1514319Y-249540D01*
X1515940Y-251140D01*
X1516680Y-251620D01*
X1517840Y-252719D01*
X1518480Y-254200D01*
X1518480Y-255799D01*
X1517840Y-257280D01*
X1516680Y-258380D01*
X1515940Y-258860D01*
X1514319Y-260460D01*
X1513120Y-262400D01*
X1512320Y-264680D01*
X1511480Y-266080D01*
X1510140Y-267020D01*
X1508540Y-267360D01*
X1439120Y-267360D01*
X1437460Y-267000D01*
X1436100Y-265980D01*
X1435280Y-264480D01*
X1435160Y-262780D01*
X1435760Y-261180D01*
X1436980Y-259980D01*
X1441819Y-256920D01*
X1446240Y-253260D01*
X1450160Y-249080D01*
X1453520Y-244440D01*
X1456279Y-239420D01*
X1458400Y-234100D01*
X1459820Y-228540D01*
X1460540Y-222860D01*
X1460540Y-217140D01*
X1459820Y-211460D01*
X1458400Y-205900D01*
X1456279Y-200580D01*
X1453520Y-195560D01*
X1450160Y-190920D01*
X1446240Y-186740D01*
X1441819Y-183080D01*
X1436980Y-180020D01*
X1431800Y-177580D01*
X1426339Y-175799D01*
X1420720Y-174740D01*
X1415000Y-174380D01*
X1409280Y-174740D01*
X1403660Y-175799D01*
X1398200Y-177580D01*
X1393020Y-180020D01*
X1388180Y-183080D01*
X1383760Y-186740D01*
X1379840Y-190920D01*
X1376480Y-195560D01*
X1373720Y-200580D01*
X1371600Y-205900D01*
X1370180Y-211460D01*
X1369460Y-217140D01*
X1369460Y-222860D01*
X1370180Y-228540D01*
X1371600Y-234100D01*
X1373720Y-239420D01*
X1376480Y-244440D01*
X1379840Y-249080D01*
X1383760Y-253260D01*
X1388180Y-256920D01*
X1393020Y-259980D01*
X1394240Y-261180D01*
X1394840Y-262780D01*
X1394720Y-264480D01*
X1393899Y-265980D01*
X1392540Y-267000D01*
X1390880Y-267360D01*
X1185520Y-267360D01*
X1183980Y-267060D01*
X1182680Y-266180D01*
X1158040Y-241540D01*
X1157180Y-240260D01*
X1156860Y-238760D01*
X1157140Y-237240D01*
X1158400Y-234100D01*
X1159820Y-228540D01*
X1160540Y-222860D01*
X1160540Y-217140D01*
X1159820Y-211460D01*
X1158400Y-205900D01*
X1156280Y-200580D01*
X1153520Y-195560D01*
X1150160Y-190920D01*
X1146240Y-186740D01*
X1141820Y-183080D01*
X1136980Y-180020D01*
X1131800Y-177580D01*
X1126340Y-175799D01*
X1120720Y-174740D01*
X1115000Y-174380D01*
X1109280Y-174740D01*
X1103660Y-175799D01*
X1098200Y-177580D01*
X1094720Y-179220D01*
X1093180Y-179600D01*
X1091620Y-179340D01*
X1090260Y-178500D01*
X1089360Y-177200D01*
X1089020Y-175660D01*
X1089320Y-174100D01*
X1090200Y-172760D01*
X1098240Y-164720D01*
X1099440Y-163900D01*
X1100860Y-163560D01*
X1102300Y-163760D01*
X1103660Y-164200D01*
X1109280Y-165260D01*
X1115000Y-165620D01*
X1120720Y-165260D01*
X1126340Y-164200D01*
X1131800Y-162420D01*
X1136980Y-159980D01*
X1141820Y-156920D01*
X1146240Y-153260D01*
X1150160Y-149080D01*
X1153520Y-144440D01*
X1156280Y-139420D01*
X1158400Y-134100D01*
X1159820Y-128539D01*
X1160540Y-122860D01*
X1160540Y-117140D01*
X1159820Y-111460D01*
X1158400Y-105900D01*
X1156280Y-100580D01*
X1153520Y-95559D01*
X1150160Y-90920D01*
X1146240Y-86740D01*
X1141820Y-83080D01*
X1136980Y-80020D01*
X1131800Y-77580D01*
X1126340Y-75800D01*
X1120720Y-74740D01*
X1115000Y-74380D01*
X1109280Y-74740D01*
X1103660Y-75800D01*
X1098200Y-77580D01*
X1093020Y-80020D01*
X1088180Y-83080D01*
X1083760Y-86740D01*
X1079840Y-90920D01*
X1076480Y-95559D01*
X1073900Y-100220D01*
X1073020Y-101320D01*
X1071800Y-102040D01*
X1070400Y-102300D01*
X1022500Y-102300D01*
X1020980Y-102000D01*
X1019680Y-101120D01*
X1018800Y-99840D01*
X1018500Y-98300D01*
X1018500Y-97500D01*
X1018220Y-95020D01*
X1017480Y-92860D01*
X1016260Y-90940D01*
X1014640Y-89320D01*
X1012720Y-88120D01*
X1010560Y-87360D01*
X1008080Y-87080D01*
X977039Y-87080D01*
X974539Y-87360D01*
X972400Y-88120D01*
X970460Y-89320D01*
X968860Y-90940D01*
X968379Y-91679D01*
X967280Y-92840D01*
X965800Y-93480D01*
X964200Y-93480D01*
X962720Y-92840D01*
X961620Y-91679D01*
X961140Y-90940D01*
X959539Y-89320D01*
X957600Y-88120D01*
X955460Y-87360D01*
X953700Y-87160D01*
X952300Y-86740D01*
X951160Y-85860D01*
X950400Y-84620D01*
X950140Y-83200D01*
X950140Y-50880D01*
X950480Y-49260D01*
X951460Y-47920D01*
X952880Y-47080D01*
X955660Y-46160D01*
X957560Y-44960D01*
X959180Y-43360D01*
X960380Y-41420D01*
X961220Y-39040D01*
X962060Y-37640D01*
X963400Y-36680D01*
X965000Y-36360D01*
X966600Y-36680D01*
X967940Y-37640D01*
X968780Y-39040D01*
X969620Y-41420D01*
X970819Y-43360D01*
X972440Y-44960D01*
X974360Y-46180D01*
X976520Y-46920D01*
X979000Y-47200D01*
X1010300Y-47200D01*
X1012800Y-46920D01*
X1014940Y-46180D01*
X1016880Y-44960D01*
X1018480Y-43360D01*
X1019700Y-41420D01*
X1020440Y-39300D01*
X1020759Y-36300D01*
X1021160Y-34900D01*
X1022060Y-33740D01*
X1023300Y-32960D01*
X1024740Y-32700D01*
X1068340Y-32700D01*
X1069880Y-33020D01*
X1071200Y-33900D01*
X1072060Y-35220D01*
X1073720Y-39420D01*
X1076480Y-44440D01*
X1079840Y-49080D01*
X1083760Y-53259D01*
X1088180Y-56920D01*
X1093020Y-59980D01*
X1098200Y-62420D01*
X1103660Y-64200D01*
X1109280Y-65260D01*
X1115000Y-65620D01*
X1120720Y-65260D01*
X1126340Y-64200D01*
X1131800Y-62420D01*
X1136980Y-59980D01*
X1141820Y-56920D01*
X1146240Y-53259D01*
X1150160Y-49080D01*
X1153520Y-44440D01*
X1156280Y-39420D01*
X1157940Y-35220D01*
X1158800Y-33900D01*
X1160120Y-33020D01*
X1161660Y-32700D01*
X1308080Y-32700D01*
X1309620Y-33000D01*
X1310920Y-33880D01*
X1372980Y-95940D01*
X1373839Y-97220D01*
X1374139Y-98720D01*
X1373860Y-100239D01*
X1371600Y-105900D01*
X1370180Y-111460D01*
X1369460Y-117140D01*
X1369460Y-122860D01*
X1370180Y-128539D01*
X1371600Y-134100D01*
X1373720Y-139420D01*
X1376480Y-144440D01*
X1379840Y-149080D01*
X1383760Y-153260D01*
X1388180Y-156920D01*
X1393020Y-159980D01*
X1398200Y-162420D01*
X1403660Y-164200D01*
X1409280Y-165260D01*
X1415000Y-165620D01*
X1420720Y-165260D01*
X1426339Y-164200D01*
X1431800Y-162420D01*
X1436980Y-159980D01*
X1441819Y-156920D01*
X1446240Y-153260D01*
X1450160Y-149080D01*
X1453520Y-144440D01*
X1456279Y-139420D01*
X1458400Y-134100D01*
X1459820Y-128539D01*
X1460540Y-122860D01*
X1460540Y-117140D01*
X1459820Y-111460D01*
X1458400Y-105900D01*
X1456279Y-100580D01*
X1453520Y-95559D01*
X1450160Y-90920D01*
X1446240Y-86740D01*
X1441819Y-83080D01*
X1436980Y-80020D01*
X1431800Y-77580D01*
X1426339Y-75800D01*
X1420720Y-74740D01*
X1415000Y-74380D01*
X1409280Y-74740D01*
X1403660Y-75800D01*
X1398200Y-77580D01*
X1395540Y-78840D01*
X1393959Y-79220D01*
X1392360Y-78940D01*
X1391000Y-78040D01*
X1324120Y-11160D01*
X1321900Y-9360D01*
X1319540Y-8159D01*
X1316940Y-7460D01*
X1314840Y-7300D01*
X1161660Y-7300D01*
X1160120Y-6979D01*
X1158800Y-6100D01*
X1157940Y-4780D01*
X1156280Y-580D01*
X1153520Y4440D01*
X1150620Y8440D01*
X1149920Y10060D01*
X1149980Y11800D01*
X1150760Y13340D01*
X1152140Y14420D01*
X1153860Y14800D01*
X1357040Y14800D01*
X1358580Y14500D01*
X1359880Y13620D01*
X1371960Y1540D01*
X1372820Y260D01*
X1373140Y-1240D01*
X1372860Y-2760D01*
X1371600Y-5900D01*
X1370180Y-11459D01*
X1369460Y-17140D01*
X1369460Y-22860D01*
X1370180Y-28540D01*
X1371600Y-34100D01*
X1373720Y-39420D01*
X1376480Y-44440D01*
X1379840Y-49080D01*
X1383760Y-53259D01*
X1388180Y-56920D01*
X1393020Y-59980D01*
X1398200Y-62420D01*
X1403660Y-64200D01*
X1409280Y-65260D01*
X1415000Y-65620D01*
X1420720Y-65260D01*
X1426339Y-64200D01*
X1431800Y-62420D01*
X1436980Y-59980D01*
X1441819Y-56920D01*
X1446240Y-53259D01*
X1450160Y-49080D01*
X1453520Y-44440D01*
X1456279Y-39420D01*
X1457920Y-35280D01*
X1458660Y-34080D01*
X1459760Y-33220D01*
X1460880Y-32620D01*
X1463320Y-30600D01*
X1515580Y21640D01*
X1516879Y22519D01*
X1518420Y22820D01*
X1528640Y22820D01*
X1528640Y33040D01*
X1528940Y34580D01*
X1529820Y35880D01*
X1534379Y40439D01*
X1535660Y41300D01*
X1537200Y41600D01*
X1547360Y41600D01*
X1548880Y41300D01*
X1550180Y40439D01*
X1551060Y39140D01*
X1551360Y37600D01*
X1551360Y22820D01*
X1567920Y22820D01*
X1567920Y27960D01*
X1567640Y30460D01*
X1566879Y32599D01*
X1565680Y34540D01*
X1564060Y36140D01*
X1563320Y36620D01*
X1562160Y37720D01*
X1561519Y39200D01*
X1561519Y40800D01*
X1562160Y42280D01*
X1563320Y43380D01*
X1564060Y43860D01*
X1565680Y45460D01*
X1566879Y47400D01*
X1567680Y49680D01*
X1568520Y51080D01*
X1569860Y52020D01*
X1571459Y52360D01*
X1744379Y52360D01*
X1746080Y51980D01*
X1747460Y50920D01*
X1748260Y49360D01*
X1748300Y47619D01*
X1747620Y46000D01*
X1746480Y44440D01*
X1743720Y39420D01*
X1741600Y34100D01*
X1740180Y28540D01*
X1739460Y22860D01*
X1739460Y17140D01*
X1740180Y11459D01*
X1741600Y5900D01*
X1743720Y580D01*
X1746480Y-4440D01*
X1749840Y-9080D01*
X1753760Y-13260D01*
X1758180Y-16920D01*
X1763020Y-19980D01*
X1768200Y-22420D01*
X1773660Y-24200D01*
X1779280Y-25259D01*
X1785000Y-25620D01*
X1790720Y-25259D01*
X1796339Y-24200D01*
X1801800Y-22420D01*
X1806980Y-19980D01*
X1811819Y-16920D01*
X1816240Y-13260D01*
X1820160Y-9080D01*
X1823520Y-4440D01*
X1826279Y580D01*
X1827940Y4780D01*
X1828800Y6100D01*
X1830120Y6979D01*
X1831660Y7300D01*
X1978080Y7300D01*
X1979620Y7000D01*
X1980920Y6120D01*
X2042980Y-55940D01*
X2043839Y-57220D01*
X2044139Y-58720D01*
X2043860Y-60240D01*
X2041600Y-65900D01*
X2040180Y-71460D01*
X2039460Y-77140D01*
X2039460Y-82860D01*
X2040180Y-88539D01*
X2041600Y-94100D01*
X2043720Y-99420D01*
X2046480Y-104440D01*
X2049840Y-109080D01*
X2053760Y-113260D01*
X2058180Y-116920D01*
X2063020Y-119980D01*
X2068200Y-122420D01*
X2073660Y-124200D01*
X2079280Y-125260D01*
X2085000Y-125620D01*
X2090720Y-125260D01*
X2096339Y-124200D01*
X2101800Y-122420D01*
X2106980Y-119980D01*
X2111820Y-116920D01*
X2116240Y-113260D01*
X2120160Y-109080D01*
X2123520Y-104440D01*
X2126280Y-99420D01*
X2126980Y-97660D01*
X2127840Y-96340D01*
X2129140Y-95460D01*
X2130700Y-95140D01*
X2163200Y-95140D01*
X2164620Y-95399D01*
X2165860Y-96160D01*
X2166740Y-97300D01*
X2167160Y-98699D01*
X2167360Y-100460D01*
X2168120Y-102600D01*
X2169320Y-104540D01*
X2170940Y-106140D01*
X2171680Y-106620D01*
X2172840Y-107720D01*
X2173480Y-109200D01*
X2173480Y-110800D01*
X2172840Y-112280D01*
X2171680Y-113379D01*
X2170940Y-113859D01*
X2169320Y-115460D01*
X2168120Y-117400D01*
X2167360Y-119540D01*
X2167080Y-122040D01*
X2167080Y-145860D01*
X2166780Y-147380D01*
X2165920Y-148680D01*
X2137080Y-177520D01*
X2135580Y-178460D01*
X2133840Y-178660D01*
X2132160Y-178080D01*
X2130900Y-176840D01*
X2130280Y-175180D01*
X2129820Y-171460D01*
X2128400Y-165900D01*
X2126280Y-160580D01*
X2123520Y-155560D01*
X2120160Y-150920D01*
X2116240Y-146740D01*
X2111820Y-143080D01*
X2106980Y-140020D01*
X2101800Y-137580D01*
X2096339Y-135800D01*
X2090720Y-134740D01*
X2085000Y-134380D01*
X2079280Y-134740D01*
X2073660Y-135800D01*
X2068200Y-137580D01*
X2063020Y-140020D01*
X2058180Y-143080D01*
X2053760Y-146740D01*
X2049840Y-150920D01*
X2046480Y-155560D01*
X2043720Y-160580D01*
X2041600Y-165900D01*
X2040180Y-171460D01*
X2039460Y-177140D01*
X2039460Y-182860D01*
X2040180Y-188540D01*
X2041600Y-194100D01*
X2043720Y-199420D01*
X2046480Y-204440D01*
X2049840Y-209080D01*
X2053760Y-213260D01*
X2058180Y-216920D01*
X2064660Y-221080D01*
X2065460Y-222380D01*
X2065720Y-223900D01*
X2065380Y-225400D01*
X2064520Y-226660D01*
X2063220Y-227500D01*
X2061720Y-227800D01*
X2049000Y-227800D01*
X2046519Y-228080D01*
X2044360Y-228820D01*
X2042440Y-230040D01*
X2040820Y-231640D01*
X2039620Y-233580D01*
X2038779Y-235960D01*
X2037940Y-237360D01*
X2036600Y-238320D01*
X2035000Y-238640D01*
X2033400Y-238320D01*
X2032060Y-237360D01*
X2031220Y-235960D01*
X2030380Y-233580D01*
X2029180Y-231640D01*
X2027560Y-230040D01*
X2025640Y-228820D01*
X2023480Y-228080D01*
X2021000Y-227800D01*
X1989700Y-227800D01*
X1987200Y-228080D01*
X1985060Y-228820D01*
X1983120Y-230040D01*
X1981519Y-231640D01*
X1980300Y-233580D01*
X1979560Y-235700D01*
X1979240Y-238700D01*
X1978839Y-240100D01*
X1977940Y-241260D01*
X1976699Y-242040D01*
X1975260Y-242300D01*
X1966920Y-242300D01*
X1965380Y-242000D01*
X1964079Y-241119D01*
X1827020Y-104060D01*
X1826160Y-102780D01*
X1825860Y-101280D01*
X1826140Y-99760D01*
X1828400Y-94100D01*
X1829820Y-88539D01*
X1830540Y-82860D01*
X1830540Y-77140D01*
X1829820Y-71460D01*
X1828400Y-65900D01*
X1826279Y-60580D01*
X1823520Y-55560D01*
X1820160Y-50920D01*
X1816240Y-46740D01*
X1811819Y-43080D01*
X1806980Y-40020D01*
X1801800Y-37580D01*
X1796339Y-35800D01*
X1790720Y-34740D01*
X1785000Y-34380D01*
X1779280Y-34740D01*
X1773660Y-35800D01*
X1768200Y-37580D01*
X1763020Y-40020D01*
X1758180Y-43080D01*
X1753760Y-46740D01*
X1749840Y-50920D01*
X1746480Y-55560D01*
X1743720Y-60580D01*
X1742060Y-64780D01*
X1741200Y-66100D01*
X1739880Y-66980D01*
X1738340Y-67300D01*
X1702500Y-67300D01*
X1700980Y-67000D01*
X1699680Y-66120D01*
X1698800Y-64840D01*
X1698500Y-63300D01*
X1698500Y-62500D01*
X1698220Y-60020D01*
X1697480Y-57859D01*
X1696260Y-55940D01*
X1694640Y-54320D01*
X1692720Y-53120D01*
X1690560Y-52360D01*
X1688080Y-52080D01*
X1657040Y-52080D01*
X1654540Y-52360D01*
X1652400Y-53120D01*
X1650460Y-54320D01*
X1648860Y-55940D01*
X1648380Y-56680D01*
X1647280Y-57840D01*
X1645800Y-58480D01*
X1644199Y-58480D01*
X1642720Y-57840D01*
X1641620Y-56680D01*
X1641140Y-55940D01*
X1639540Y-54320D01*
X1637600Y-53120D01*
X1635460Y-52360D01*
X1632960Y-52080D01*
X1627820Y-52080D01*
X1627820Y-68640D01*
X1642600Y-68640D01*
X1644139Y-68940D01*
X1645440Y-69820D01*
X1646300Y-71120D01*
X1646600Y-72640D01*
X1646600Y-87360D01*
X1646300Y-88880D01*
X1645440Y-90180D01*
X1644139Y-91060D01*
X1642600Y-91359D01*
X1627820Y-91359D01*
X1627820Y-107920D01*
X1632960Y-107920D01*
X1635460Y-107640D01*
X1637600Y-106880D01*
X1639540Y-105680D01*
X1641140Y-104060D01*
X1641620Y-103320D01*
X1642720Y-102160D01*
X1644199Y-101519D01*
X1645800Y-101519D01*
X1647280Y-102160D01*
X1648380Y-103320D01*
X1648860Y-104060D01*
X1650460Y-105680D01*
X1652400Y-106880D01*
X1654540Y-107640D01*
X1657040Y-107920D01*
X1688080Y-107920D01*
X1690560Y-107640D01*
X1692720Y-106880D01*
X1694640Y-105680D01*
X1696260Y-104060D01*
X1697480Y-102140D01*
X1698220Y-99980D01*
X1698500Y-97500D01*
X1698500Y-96700D01*
X1698800Y-95160D01*
X1699680Y-93880D01*
X1700980Y-93000D01*
X1702500Y-92700D01*
X1738340Y-92700D01*
X1739880Y-93020D01*
X1741200Y-93900D01*
X1742060Y-95220D01*
X1743720Y-99420D01*
X1746480Y-104440D01*
X1749840Y-109080D01*
X1753760Y-113260D01*
X1758180Y-116920D01*
X1763020Y-119980D01*
X1768200Y-122420D01*
X1773660Y-124200D01*
X1779280Y-125260D01*
X1785000Y-125620D01*
X1790720Y-125260D01*
X1796339Y-124200D01*
X1801800Y-122420D01*
X1804460Y-121160D01*
X1806040Y-120780D01*
X1807640Y-121060D01*
X1809000Y-121960D01*
X1950880Y-263840D01*
X1953100Y-265640D01*
X1955460Y-266840D01*
X1958060Y-267540D01*
X1960160Y-267700D01*
X1975260Y-267700D01*
X1976699Y-267960D01*
X1977940Y-268740D01*
X1978839Y-269900D01*
X1979240Y-271300D01*
X1979560Y-274300D01*
X1980720Y-277760D01*
X1980580Y-279460D01*
X1979780Y-280940D01*
X1978420Y-281940D01*
X1976759Y-282300D01*
G37*

%LPC*%
G36*
X1551360Y-217079D02*
G01*
X1567920Y-217079D01*
X1567920Y-211920D01*
X1567640Y-209440D01*
X1566879Y-207280D01*
X1565680Y-205360D01*
X1564060Y-203740D01*
X1562140Y-202520D01*
X1559980Y-201780D01*
X1557500Y-201500D01*
X1551360Y-201500D01*
G37*
G36*
X1512080Y-217079D02*
G01*
X1528640Y-217079D01*
X1528640Y-201500D01*
X1522500Y-201500D01*
X1520020Y-201780D01*
X1517860Y-202520D01*
X1515940Y-203740D01*
X1514319Y-205360D01*
X1513120Y-207280D01*
X1512360Y-209440D01*
X1512080Y-211920D01*
G37*
G36*
X1601920Y-107920D02*
G01*
X1607080Y-107920D01*
X1607080Y-91359D01*
X1591500Y-91359D01*
X1591500Y-97500D01*
X1591780Y-99980D01*
X1592520Y-102140D01*
X1593740Y-104060D01*
X1595360Y-105680D01*
X1597280Y-106880D01*
X1599440Y-107640D01*
G37*
G36*
X1591500Y-68640D02*
G01*
X1607080Y-68640D01*
X1607080Y-52080D01*
X1601920Y-52080D01*
X1599440Y-52360D01*
X1597280Y-53120D01*
X1595360Y-54320D01*
X1593740Y-55940D01*
X1592520Y-57859D01*
X1591780Y-60020D01*
X1591500Y-62500D01*
G37*
G36*
X1522500Y-13500D02*
G01*
X1528640Y-13500D01*
X1528640Y2080D01*
X1512080Y2080D01*
X1512080Y-3080D01*
X1512360Y-5560D01*
X1513120Y-7720D01*
X1514319Y-9640D01*
X1515940Y-11259D01*
X1517860Y-12480D01*
X1520020Y-13220D01*
G37*
G36*
X1551360Y-13500D02*
G01*
X1557500Y-13500D01*
X1559980Y-13220D01*
X1562140Y-12480D01*
X1564060Y-11259D01*
X1565680Y-9640D01*
X1566879Y-7720D01*
X1567640Y-5560D01*
X1567920Y-3080D01*
X1567920Y2080D01*
X1551360Y2080D01*
G37*

%LPD*%
D10*
X-450000Y-280000D02*
G01*
X-493784Y-236215D01*
X-648820Y-236215D01*
X-295000Y-240000D02*
G01*
X-338153Y-196846D01*
X-648820Y-196846D01*
X-140000Y-200000D02*
G01*
X-182523Y-157476D01*
X-648820Y-157476D01*
X10000Y-160000D02*
G01*
X-31894Y-118105D01*
X-648820Y-118105D01*
X15000Y-35000D02*
G01*
X-28735Y-78735D01*
X-648820Y-78735D01*
X-140000Y15000D02*
G01*
X-194364Y-39364D01*
X-648820Y-39364D01*
X-300000Y55000D02*
G01*
X-354994Y5D01*
X-648820Y5D01*
X-450000Y100000D02*
G01*
X-510625Y39375D01*
X-648820Y39375D01*
X-450000Y100000D02*
G01*
X65000Y100000D01*
X235000Y-70000D01*
X335850Y-70000D01*
X505000Y155000D02*
G01*
X554149Y105850D01*
X554149Y-20000D01*
X385000Y155000D02*
G01*
X335850Y105850D01*
X335850Y-20000D01*
X-648800Y-275599D02*
G01*
X-534400Y-390000D01*
X-40000Y-390000D01*
X230000Y-120000D01*
X335799Y-120000D01*
D11*
X554149Y-70000D02*
G01*
X556590Y-67559D01*
X660000Y-67559D01*
X340000Y-252440D02*
G01*
X340000Y-174198D01*
X335801Y-170000D01*
X1415000Y-20000D02*
G01*
X1452439Y-20000D01*
X1540000Y67559D01*
D10*
X827560Y-20000D02*
G01*
X935342Y-20000D01*
X935342Y-20000D02*
G01*
X937439Y-22098D01*
X937439Y-115000D01*
X992560Y-115000D02*
G01*
X1110000Y-115000D01*
X1115000Y-120000D01*
X994660Y-20000D02*
G01*
X1115000Y-20000D01*
D11*
X750000Y-217440D02*
G01*
X1112439Y-217440D01*
X1115000Y-220000D01*
X340000Y-252399D02*
G01*
X542600Y-252399D01*
X577600Y-217399D01*
X750000Y-217399D01*
D10*
X1115000Y-120000D02*
G01*
X1125000Y-120000D01*
X1059660Y-185340D01*
X1030000Y-185340D01*
X1115000Y-20000D02*
G01*
X1315000Y-20000D01*
X1415000Y-120000D01*
D11*
X2285000Y14659D02*
G01*
X2090339Y14659D01*
X2085000Y20000D01*
D10*
X1672559Y-80000D02*
G01*
X1785000Y-80000D01*
D11*
X1540000Y67561D02*
G01*
X2037439Y67561D01*
X2085000Y20000D01*
X1540000Y-282561D02*
G01*
X1682439Y-282561D01*
X1785000Y-180000D01*
D10*
X2005339Y-255000D02*
G01*
X1960000Y-255000D01*
X1785000Y-80000D01*
X2064657Y-255000D02*
G01*
X2077560Y-255000D01*
X2195000Y-137559D01*
X2195000Y-137561D02*
G01*
X2285000Y-47561D01*
X2285000Y-44659D01*
X2085000Y-80000D02*
G01*
X2087439Y-82440D01*
X2195000Y-82440D01*
D11*
X1787560Y-310000D02*
G01*
X1787560Y-182559D01*
X1785000Y-180000D01*
X2285000Y14661D02*
G01*
X2482200Y14661D01*
X2482200Y-20199D01*
X772439Y-20000D02*
G01*
X724839Y-67600D01*
X660000Y-67600D01*
X772399Y-20000D02*
G01*
X772399Y-12600D01*
X815000Y30000D01*
X1365000Y30000D01*
X1415000Y-20000D01*
D10*
X1785000Y20000D02*
G01*
X1985000Y20000D01*
X2085000Y-80000D01*
D11*
X2262559Y120000D02*
G01*
X2285000Y97559D01*
X2285000Y14659D01*
X2285000Y14661D02*
G01*
X2315339Y-15679D01*
X2315339Y-170000D01*
X2315339Y-170000D02*
G01*
X2319701Y-170000D01*
X2374701Y-225000D01*
X2475000Y-225000D01*
X2507500Y-192498D01*
X2507500Y-174800D01*
D10*
X2374660Y-170000D02*
G01*
X2375000Y-170000D01*
X2410000Y-205000D01*
X2465000Y-205000D01*
X2482211Y-187791D01*
X2482211Y-169800D01*
X1785000Y-180000D02*
G01*
X1900000Y-295000D01*
X2435000Y-295000D01*
X2533400Y-196599D01*
X2533400Y-169800D01*
D11*
X2400000Y-267440D02*
G01*
X2400000Y-225000D01*
D10*
X2680000Y-114659D02*
G01*
X2515342Y-114659D01*
X2482201Y-147800D01*
X2482201Y-169800D01*
X2680000Y-55340D02*
G01*
X2515338Y-55340D01*
X2507798Y-47800D01*
X2507798Y-20199D01*
X2680000Y-114661D02*
G01*
X2841260Y46599D01*
X2841260Y162600D01*
X2680000Y-114659D02*
G01*
X2680000Y-264657D01*
X2679657Y-265000D01*
X2820000Y-355000D02*
G01*
X2900309Y-274690D01*
X2900309Y162600D01*
X3000000Y-355000D02*
G01*
X2920000Y-275000D01*
X2920000Y162600D01*
X3000000Y-230000D02*
G01*
X2939679Y-169679D01*
X2939679Y162600D01*
X2815000Y-230000D02*
G01*
X2880630Y-164369D01*
X2880630Y162600D01*
X2815000Y-100000D02*
G01*
X2860940Y-54059D01*
X2860940Y162600D01*
X2959369Y162600D02*
G01*
X2959369Y-54369D01*
X3005000Y-100000D01*
X3010000Y45000D02*
G01*
X2979049Y75949D01*
X2979049Y162600D01*
D11*
X1540000Y-282559D02*
G01*
X1177560Y-282559D01*
X1115000Y-220000D01*
D12*
G01*
X2207439Y120000D03*
G01*
X2262560Y120000D03*
G01*
X1617439Y-80000D03*
G01*
X1672560Y-80000D03*
D13*
G01*
X1540000Y-227440D03*
G01*
X1540000Y-282559D03*
G01*
X2195000Y-82440D03*
G01*
X2195000Y-137559D03*
D12*
G01*
X1732439Y-310000D03*
G01*
X1787560Y-310000D03*
D13*
G01*
X2400000Y-322559D03*
G01*
X2400000Y-267440D03*
G01*
X340000Y-307559D03*
G01*
X340000Y-252440D03*
G01*
X660000Y-12440D03*
G01*
X660000Y-67559D03*
D12*
G01*
X992560Y-115000D03*
G01*
X937439Y-115000D03*
D13*
G01*
X750000Y-272559D03*
G01*
X750000Y-217440D03*
D12*
G01*
X827560Y-20000D03*
G01*
X772439Y-20000D03*
D13*
G01*
X1540000Y12440D03*
G01*
X1540000Y67559D03*
D14*
G01*
X2456620Y-169800D03*
G01*
X2482209Y-169800D03*
G01*
X2507799Y-169800D03*
G01*
X2533389Y-169800D03*
G01*
X2533400Y-20199D03*
G01*
X2507799Y-20199D03*
G01*
X2482200Y-20199D03*
G01*
X2456599Y-20199D03*
D15*
G01*
X554149Y-170000D03*
G01*
X554149Y-120000D03*
G01*
X554149Y-70000D03*
G01*
X554149Y-20000D03*
G01*
X335850Y-170000D03*
G01*
X335850Y-120000D03*
G01*
X335850Y-70000D03*
G01*
X335850Y-20000D03*
D16*
G01*
X2005344Y-255000D03*
G01*
X2064655Y-255000D03*
D17*
G01*
X2285000Y-44655D03*
D18*
G01*
X2285000Y14659D03*
D17*
G01*
X2680000Y-114655D03*
D18*
G01*
X2680000Y-55340D03*
D20*
G01*
X994655Y-20000D03*
G01*
X935344Y-20000D03*
D17*
G01*
X1030000Y-185344D03*
D18*
G01*
X1030000Y-244659D03*
D20*
G01*
X2374655Y-170000D03*
G01*
X2315344Y-170000D03*
D16*
G01*
X2620344Y-265000D03*
G01*
X2679655Y-265000D03*
D21*
G01*
X2841259Y162599D03*
G01*
X2860944Y162599D03*
G01*
X2880629Y162599D03*
G01*
X2900314Y162599D03*
G01*
X2920000Y162599D03*
G01*
X2939685Y162599D03*
G01*
X2959370Y162599D03*
G01*
X2979055Y162599D03*
G01*
X2998740Y162599D03*
D22*
G01*
X2764489Y237399D03*
G01*
X3075510Y237399D03*
D23*
G01*
X-648820Y-275590D03*
G01*
X-648820Y-236219D03*
G01*
X-648820Y-196849D03*
G01*
X-648820Y-157480D03*
G01*
X-648820Y-118110D03*
G01*
X-648820Y-78739D03*
G01*
X-648820Y-39369D03*
G01*
X-648820Y0D03*
G01*
X-648820Y39369D03*
G01*
X-648820Y78739D03*
G01*
X-648820Y118110D03*
G01*
X-648820Y157480D03*
G01*
X-648820Y196849D03*
G01*
X-648820Y236219D03*
G01*
X-648820Y275599D03*
D24*
G01*
X-751179Y-362199D03*
G01*
X-751179Y362210D03*
D25*
G01*
X1785000Y120000D03*
G01*
X1785000Y20000D03*
G01*
X2085000Y20000D03*
G01*
X2085000Y120000D03*
G01*
X1785000Y-80000D03*
G01*
X1785000Y-180000D03*
G01*
X2085000Y-80000D03*
G01*
X2085000Y-180000D03*
G01*
X1115000Y80000D03*
G01*
X1115000Y-20000D03*
G01*
X1415000Y-20000D03*
G01*
X1415000Y80000D03*
G01*
X1115000Y-120000D03*
G01*
X1115000Y-220000D03*
G01*
X1415000Y-120000D03*
G01*
X1415000Y-220000D03*
D26*
G01*
X2815000Y-100000D03*
G01*
X2815000Y-230000D03*
G01*
X2820000Y-355000D03*
G01*
X3000000Y-355000D03*
G01*
X3000000Y-230000D03*
G01*
X3005000Y-100000D03*
G01*
X3010000Y45000D03*
G01*
X-450000Y-280000D03*
G01*
X-295000Y-240000D03*
G01*
X-140000Y-200000D03*
G01*
X10000Y-160000D03*
G01*
X15000Y-35000D03*
G01*
X-140000Y15000D03*
G01*
X-300000Y55000D03*
G01*
X-450000Y100000D03*
G01*
X385000Y155000D03*
G01*
X505000Y155000D03*
D27*
G01*
X1230519Y-179650D03*
G01*
X1630519Y20349D03*
G01*
X1630519Y-179650D03*
G01*
X-957790Y457789D03*
G01*
X-957790Y257789D03*
G01*
X-957790Y57789D03*
G01*
X-957790Y-142210D03*
G01*
X-957790Y-342210D03*
G01*
X-757790Y457789D03*
G01*
X-757790Y257789D03*
G01*
X-757790Y57789D03*
G01*
X-757790Y-142210D03*
G01*
X-557790Y457789D03*
G01*
X-557790Y257789D03*
G01*
X-357789Y457789D03*
G01*
X-357789Y257789D03*
G01*
X-157789Y457789D03*
G01*
X-157789Y257789D03*
G01*
X42210Y457789D03*
G01*
X42210Y257789D03*
G01*
X242210Y457789D03*
G01*
X242210Y257789D03*
G01*
X242210Y57789D03*
G01*
X242210Y-342210D03*
G01*
X442199Y457789D03*
G01*
X442199Y257789D03*
G01*
X442199Y-342210D03*
G01*
X642199Y457789D03*
G01*
X642199Y257789D03*
G01*
X642199Y57789D03*
G01*
X642199Y-342210D03*
G01*
X842200Y457789D03*
G01*
X842200Y257789D03*
G01*
X842200Y-342210D03*
G01*
X1042200Y457789D03*
G01*
X1042200Y257789D03*
G01*
X1042200Y-342210D03*
G01*
X1242200Y457789D03*
G01*
X1242200Y257789D03*
G01*
X1242200Y-342210D03*
G01*
X1442200Y457789D03*
G01*
X1442200Y257789D03*
G01*
X1442200Y-342210D03*
G01*
X1642200Y457789D03*
G01*
X1642200Y257789D03*
G01*
X1642200Y-342210D03*
G01*
X1842200Y457789D03*
G01*
X1842200Y257789D03*
G01*
X1842200Y-342210D03*
G01*
X2042200Y457789D03*
G01*
X2042200Y257789D03*
G01*
X2042200Y-342210D03*
G01*
X2242200Y457789D03*
G01*
X2242200Y257789D03*
G01*
X2242200Y57789D03*
G01*
X2242200Y-342210D03*
G01*
X2442200Y457789D03*
G01*
X2442200Y257789D03*
G01*
X2442200Y57789D03*
G01*
X2642200Y457789D03*
G01*
X2642200Y257789D03*
G01*
X2642200Y57789D03*
G01*
X2642200Y-342210D03*
G01*
X2842200Y457789D03*
G01*
X3042200Y457789D03*
M02*
